<?xml version="1.0" encoding="utf-8"?>
<!-- Generator: Adobe Illustrator 27.7.0, SVG Export Plug-In . SVG Version: 6.00 Build 0)  -->
<svg version="1.1" id="Layer_1" xmlns="http://www.w3.org/2000/svg" xmlns:xlink="http://www.w3.org/1999/xlink" x="0px" y="0px"
	 viewBox="0 0 603.4 128" style="enable-background:new 0 0 603.4 128;" xml:space="preserve">
<style type="text/css">
	.st0{fill:none;}
	.st1{fill:#FFFFFF;}
	.st2{fill:#414141;}
	.st3{font-family:'BebasNeueBold';}
	.st4{font-size:25.7571px;}
</style>
<rect class="st0" width="603.4" height="128"/>
<g>
	<g>
		<path class="st1" d="M14.7,114.3c0-26.1,0-52.2,0-78.3c0.1,0.2,0.1,0.3,0.2,0.5c0.1-0.4,0.1-0.8,0.3-1.1c0.3-0.7,0.8-1.3,1.4-1.6
			c0.7-0.3,0.8-0.8,0.7-1.5c0-5.2,0-10.3,0-15.5c0-1.1,0-2.2,0.1-3.2c0.1-1.3,0.7-2.5,2.5-2.3c0.5,0,0.9-0.2,1.3-0.5
			c0,0,0-0.1,0-0.2c51,0,102.1,0,153.1,0c0.4,0.3,0.8,0.6,1.4,0.6c1.3-0.1,2.1,0.5,2.4,1.7c0.1,0.6,0.1,1.1,0.1,1.7
			c0,5.4,0,10.7,0,16.1c0,0.8,0,1.5,0,2.3c0,0.1,0.1,0.3,0.2,0.4c1.7,0.8,2.4,2.2,2.4,4c0,23.6,0,47.2,0,70.8c0,1.6,0,3.3,0,4.9
			c0,0.9-0.3,1.8-0.9,2.6c-0.9,1.1-2,1.5-3.4,1.5c-52.4,0-104.7,0-157.1,0c-0.4,0-0.7,0-1.1-0.1c-1.8-0.2-3.2-1.6-3.2-3.4
			c0,0,0-0.1,0-0.2C14.8,113.8,14.7,114.1,14.7,114.3z M16.5,56.8c0,0.9,0,1.7,0,2.5c0,17.7,0,35.5,0,53.2c0,0.4,0,0.7,0,1.1
			c0.1,0.9,0.8,1.7,1.7,1.8c0.5,0.1,1.1,0.1,1.6,0.1c51.2,0,102.4,0,153.6,0c0.9,0,1.9,0,2.8,0c0.5,0,1,0,1.3-0.2
			c0.8-0.4,1.2-1.2,1.2-2.1c0-4.1,0-8.2,0-12.3c0-14.1,0-28.1,0-42.2c0-0.6,0-1.2,0-1.8c-0.4,0-0.8,0-1.2,0c-0.3,0-0.4-0.1-0.4-0.4
			c0-1.1-0.3-2.2-0.9-3.1c0-0.1-0.1-0.2-0.1-0.3c0.9,0,1.7,0,2.6,0c0-0.2,0-0.4,0-0.5c0-1.3,0-2.7,0-4c0-3.7,0-7.4,0-11.1
			c0-1.1-0.7-1.9-1.5-2.2c-0.4-0.1-0.9-0.2-1.3-0.2c-6.5,0-12.9,0-19.4,0c-4,0-8,0-11.9,0c-31.8,0-63.5,0-95.3,0
			c-7.4,0-14.7,0-22.1,0c-2.7,0-5.5,0-8.2,0c-0.5,0-1,0-1.5,0.3c-0.8,0.5-1.1,1.2-1.1,2.1c0,4.3,0,8.7,0,13c0,0.8,0,1.6,0,2.3
			c0,0.2,0.1,0.3,0.3,0.3c0.7,0,1.4,0,2.1,0c0.1,0,0.2,0,0.3,0c-0.7,1.2-1.1,2.4-1.1,3.7C17.6,56.8,17.1,56.8,16.5,56.8z M20.5,18.8
			c0,0.4,0,0.9,0,1.3c0,4.2,0,8.4,0,12.6c0,0.5,0,0.5,0.5,0.5c3.7,0,7.3,0,11,0c7.9,0,15.8,0,23.6,0c33.5,0,67.1,0,100.6,0
			c5.4,0,10.8,0,16.1,0c0.8,0,1.6,0,2.4,0c0-4.8,0-9.6,0-14.4c-0.4,0.3-0.9,0.4-1.3,0.4c-9.7,0-19.3,0-29,0c-10.8,0-21.7,0-32.5,0
			s-21.7,0-32.5,0s-21.7,0-32.5,0c-8,0-16,0-24.1,0C22,19.2,21.2,19.3,20.5,18.8z M22.1,12.6c0,1.5,0,3,0,4.5c0,0.2,0.1,0.3,0.3,0.3
			c0.6,0,1.3,0,1.9,0c46.1,0,92.2,0,138.3,0c3.4,0,6.8,0,10.3,0c0.3,0,0.4-0.1,0.4-0.4c0-1.3,0-2.7,0-4c0-0.3-0.1-0.4-0.4-0.4
			c-0.7,0-1.4,0-2.1,0c-19.6,0-39.2,0-58.9,0c-24.6,0-49.3,0-73.9,0c-5.1,0-10.2,0-15.3,0C22.5,12.6,22.3,12.6,22.1,12.6z"/>
		<path class="st1" d="M119.7,107.7c1.7-0.3,3-1.7,3-3.5c0-0.8,0-1.6,0-2.3c0-8.6,0-17.2,0-25.7c0-2.2-1.5-4-3.9-4c-0.3,0-0.7,0-1,0
			c0.4-0.3,0.8-0.5,1.1-0.8c0.6-0.5,0.8-1.2,0.8-1.9c0-2.9,0-5.8,0-8.7c0-1.2-0.6-2.1-1.8-2.6c0,0-0.1,0-0.1,0c0,0,0,0-0.1-0.1
			c0.5,0,0.9,0,1.4,0c10.3,0,20.5,0,30.8,0c4.7,0,9.4,0,14,0c0.3,0,0.6,0,0.9,0c0.3,0,0.4,0.1,0.5,0.4c0.4,1.4,1.3,2.6,2.6,3.3
			c2,1.1,4,1.1,6,0c1.2-0.7,2.1-1.8,2.4-3.2c0.1-0.3,0.6-0.6,0.9-0.3c0.1,0,0.1,0.2,0.1,0.2c0,7.2,0,14.3,0,21.5c0,1.2,0,2.3,0,3.5
			c0,0.1,0,0.1,0,0.2c-0.5-4.7-2-9-4.8-12.8c0.5-0.5,0.9-0.9,1.4-1.4c1.5-1.4,1.1-3.6,0-4.6c-0.4-0.4-0.8-0.9-1.3-1.3
			c-1.1-1-2.7-1.1-3.9-0.2c-0.6,0.4-1.1,1-1.6,1.5c-0.2,0.2-0.3,0.2-0.5,0c-3.1-2.1-6.4-3.5-10.1-4.2c-3.3-0.6-6.6-0.6-10,0.1
			c-3.3,0.6-6.4,2-9.2,3.9c-0.2,0.1-0.5,0.4-0.7,0.4c-0.2,0-0.4-0.3-0.6-0.5c-0.5-0.5-1-1.1-1.7-1.4c-1.2-0.6-2.6-0.4-3.5,0.5
			c-0.4,0.4-0.8,0.8-1.3,1.2c-1.3,1.3-1.3,3.2,0,4.5c0.4,0.4,0.8,0.8,1.2,1.2c0.2,0.2,0.2,0.3,0,0.5c-2,2.7-3.3,5.7-4,8.9
			c-0.7,3-0.8,6-0.5,9.1c0.4,3.8,1.8,7.4,3.8,10.6c0.2,0.3,0.4,0.7,0.7,1c0.2,0.2,0.1,0.3-0.1,0.5c-0.4,0.4-0.9,0.9-1.3,1.3
			c-1.2,1.2-1,3.4,0.1,4.4c0.4,0.4,0.8,0.8,1.2,1.1c1.2,1.2,3.2,1.2,4.4,0.1c0.4-0.4,0.8-0.8,1.2-1.2c0.3-0.3,0.3-0.4,0.7-0.1
			c1.3,0.9,2.7,1.7,4.1,2.3c2.8,1.3,5.8,2,8.9,2.2c4.2,0.3,8.3-0.4,12.1-2.1c1.5-0.7,3-1.5,4.4-2.4c0.5-0.3,0.4-0.3,0.8,0.1
			c0.4,0.4,0.8,0.9,1.3,1.2c1.1,1,2.9,1,4,0.1c0.6-0.5,1.1-1.1,1.7-1.6c1-1.2,0.9-3-0.2-4.2c-0.4-0.4-0.8-0.9-1.3-1.3
			c-0.2-0.2-0.2-0.3,0-0.5c1.7-2.3,2.9-4.8,3.7-7.5c0.5-1.6,0.8-3.3,0.9-4.9c0-0.1,0-0.1,0.1-0.2c0,1.2,0,2.5,0,3.7
			c0,6.3,0,12.6,0,19c0,0.5,0,1,0,1.6c-0.1,1.1-1,1.9-2.1,2c-0.6,0-1.2,0-1.8,0c-17.6,0-35.2,0-52.8,0c-0.9,0-1.8,0-2.8,0
			c0.1-0.1,0.1-0.1,0.1-0.1c1.2-0.6,1.7-1.6,1.7-2.9c0-1.1,0-2.1,0-3.2C119.6,107.8,119.6,107.7,119.7,107.7z"/>
		<path class="st1" d="M18.1,83.2c0-2.8,0-5.6,0-8.5c0-5.1,0-10.2,0-15.3c0-0.4,0-0.8,0-1.3c0-0.2,0.1-0.3,0.3-0.3
			c0.2,0,0.4,0,0.5,0.1c0.3,0.6,0.5,1.3,0.9,1.9c0.9,1.4,2.2,2.2,3.9,2.4c2.2,0.3,4.1-0.4,5.5-2.2c0.5-0.6,0.8-1.2,0.9-1.9
			c0.1-0.3,0.2-0.3,0.4-0.3c4,0,8,0,12,0c10.9,0,21.7,0,32.6,0c0.9,0,1.7,0,2.6,0.1c-0.1,0-0.1,0.1-0.2,0.1
			c-1.2,0.5-1.7,1.4-1.8,2.6c0,1.4,0,2.8,0,4.2c0,1.5,0,2.9,0,4.4c0,1.3,0.6,2.1,1.8,2.6c0.1,0,0.1,0.1,0.2,0.1c0,0,0,0.1,0,0.1
			c-0.5,0-1,0-1.5,0c-1.8,0.1-3.3,1.6-3.4,3.4c0,0.3,0,0.7,0,1c0,9.1,0,18.2,0,27.4c0,1.8,1.1,3.2,2.8,3.7c0.2,0.1,0.3,0.2,0.3,0.4
			c0,1,0,1.9,0,2.9c0,1.4,0.5,2.5,1.8,3.2c-0.3,0-0.7,0-1,0c-0.9,0-1.9,0-2.8,0c-17.6,0-35.2,0-52.8,0c-0.3,0-0.7,0-1-0.1
			c-1-0.2-1.8-0.9-1.8-2c0-2.3,0-4.7,0-7c0-4.4,0-8.9,0-13.3c0-1.1,0-2.1,0-3.2c0-0.2,0-0.3,0-0.5c0.5,4.6,2.1,8.8,4.8,12.7
			c-0.2,0.2-0.3,0.4-0.5,0.6c-0.3,0.3-0.6,0.6-0.8,0.8c-1.3,1.2-1.3,3.4,0,4.6c0.4,0.4,0.7,0.8,1.1,1.2c1.3,1.2,3.1,1.2,4.4,0
			c0.4-0.4,0.8-0.8,1.3-1.2c0.2-0.2,0.3-0.2,0.6,0c1.5,1,3,2,4.7,2.6c2.1,0.9,4.3,1.5,6.5,1.8c2.2,0.3,4.5,0.3,6.7,0.1
			c4.1-0.5,7.9-2,11.4-4.3c0.6-0.4,0.6-0.4,1.1,0.1c0.3,0.3,0.6,0.6,1,0.9c1.2,1.1,3.1,1.1,4.4,0c0.5-0.4,0.9-0.9,1.3-1.3
			c1.1-1.3,1.1-3.2-0.1-4.4c-0.4-0.4-0.8-0.8-1.2-1.2c-0.1-0.1-0.2-0.2-0.1-0.4c1.3-1.7,2.2-3.7,3.1-5.7c0.8-2.1,1.3-4.2,1.5-6.5
			c0.2-1.7,0.2-3.4,0.1-5.1c-0.2-2.5-0.8-4.9-1.7-7.2c-0.8-1.9-1.7-3.6-2.9-5.3c-0.1-0.2-0.1-0.3,0-0.5c0.4-0.4,0.9-0.8,1.3-1.3
			c1.2-1.3,1.2-3.1,0-4.4c-0.4-0.4-0.8-0.9-1.3-1.3c-1.1-1-2.8-1.2-4-0.3c-0.5,0.4-0.9,0.8-1.4,1.3C58.8,65,59,65,58.3,64.5
			c-2-1.3-4-2.4-6.3-3.1c-2.1-0.7-4.3-1.1-6.5-1.3c-2.2-0.2-4.4-0.1-6.6,0.4c-3.5,0.6-6.7,2-9.6,3.9c-0.1,0.1-0.2,0.1-0.3,0.2
			c-0.4,0.3-0.4,0.3-0.8,0c-0.4-0.4-0.8-0.8-1.3-1.2c-1.2-1.1-3.1-1.1-4.3,0c-0.5,0.5-1,1-1.5,1.5c-1,1.3-0.9,3.1,0.2,4.3
			c0.4,0.4,0.8,0.8,1.2,1.2c0.2,0.2,0.2,0.3,0,0.5c-1.9,2.6-3.2,5.5-3.9,8.6c-0.3,1.1-0.4,2.2-0.6,3.3C18.2,82.9,18.2,83,18.1,83.2
			C18.1,83.2,18.1,83.2,18.1,83.2z"/>
		<path class="st1" d="M93.3,36.2c20.5,0,41,0,61.4,0c0.5,0,0.9,0,1.4,0.1c1.5,0.2,2.6,1.5,2.7,3c0,2,0,3.9,0,5.9c0,0.8,0,1.6,0,2.5
			c-0.1,1.7-1.4,2.9-3.1,3c-3.8,0-7.7,0-11.5,0c-37.3,0-74.5,0-111.8,0c-0.6,0-1.3,0-1.9-0.1c-1.5-0.3-2.5-1.5-2.5-3.2
			c0-2.6,0-5.2,0-7.8c0-1.4,0.6-2.5,1.9-3.1c0.4-0.2,0.9-0.3,1.3-0.3c5.6,0,11.1,0,16.7,0C63,36.2,78.2,36.2,93.3,36.2z M124,49.2
			c0-1.7,0-3.3,0-5c0-0.3-0.1-0.3-0.4-0.3c-0.4,0-0.8,0-1.2,0c-24.9,0-49.8,0-74.6,0c-0.1,0-0.2,0-0.3,0c-0.4,0-0.6-0.2-0.7-0.6
			c0-0.4,0.1-0.6,0.6-0.7c0.2,0,0.4,0,0.6,0c1,0,2,0,2.9,0c23.8,0,47.6,0,71.3,0c0.5,0,0.9,0,1.4,0c0.1,0,0.3-0.1,0.3-0.1
			c0-0.2,0.1-0.5,0-0.7c0-0.1-0.3-0.1-0.4-0.1c-3.8,0-7.7,0-11.5,0c-20.5,0-41,0-61.5,0c-1,0-2,0-2.9,0c-0.2,0-0.4,0-0.4-0.3
			c0-0.3,0.2-0.3,0.4-0.3c0.7,0,1.3,0,2,0c20.8,0,41.6,0,62.5,0c3.9,0,7.7,0,11.6,0c0.3,0,0.4-0.1,0.4-0.4c0-0.5,0-1,0-1.6
			c0-0.5,0-1,0-1.5c-0.4,0-0.8,0-1.2,0c-28.8,0-57.6,0-86.4,0c-1.7,0-3.4,0-5.2,0c-1.4,0-2,0.7-2,2.1c0,2.6,0,5.1,0,7.7
			c0,1.2,0.7,1.9,1.9,1.9c2.8,0,5.5,0,8.3,0c15.7,0,31.5,0,47.2,0c4.3,0,8.6,0,12.9,0c2.2,0,4.5,0,6.7,0c2.5,0,5,0,7.5,0
			c3.1,0,6.2,0,9.3,0C123.3,49.2,123.6,49.2,124,49.2z M126,37.6c0,0.9,0,1.8,0,2.6c0,0.9,0,0.9,0.9,0.9c9.5,0,18.9,0,28.4,0
			c0.1,0,0.3,0,0.4,0c0.1,0,0.2,0.2,0.3,0.3c-0.1,0.1-0.2,0.2-0.3,0.3c-0.1,0-0.2,0-0.2,0c-9.7,0-19.4,0-29.1,0c-0.1,0-0.2,0-0.3,0
			c0,0.2,0,0.4,0,0.6c0,0.2,0.1,0.3,0.3,0.3c0.6,0,1.3,0,1.9,0c9,0,18,0,27.1,0c0.3,0,0.6,0,0.8,0.1c0.5,0.2,0.6,0.8,0.2,1.1
			c-0.2,0.1-0.4,0.2-0.6,0.2c-9.7,0-19.5,0-29.2,0c-0.3,0-0.4,0.1-0.4,0.4c0,1.5,0,3,0,4.6c0,0.3,0.1,0.4,0.4,0.4c1.6,0,3.2,0,4.7,0
			c8.1,0,16.3,0,24.4,0c0.7,0,1.3-0.2,1.7-0.8c0.2-0.3,0.3-0.7,0.3-1.1c0-2.6,0-5.1,0-7.7c0-0.2,0-0.4,0-0.6
			c-0.1-0.7-0.5-1.2-1.2-1.4c-0.5-0.1-1-0.1-1.4-0.1c-9.2,0-18.4,0-27.6,0C126.7,37.6,126.4,37.6,126,37.6z"/>
		<path class="st1" d="M118.6,106.8c0,1.5,0,3,0,4.4c0,1-0.6,1.7-1.5,1.9c-0.3,0.1-0.6,0.1-0.9,0.1c-10.1,0-20.1,0-30.2,0
			c-2.4,0-4.7,0-7.1,0c-1.1,0-1.9-0.5-2.1-1.5c-0.1-0.2-0.1-0.5-0.1-0.7c0-1.3,0-2.7,0-4c0-0.1,0-0.1,0-0.2c-0.4-0.1-0.7-0.1-1-0.2
			c-1.3-0.4-2-1.4-2-2.8c0-3.2,0-6.5,0-9.7c0-6,0-12,0-18c0-1.9,1.2-3,3.1-3c0.6,0,1.2,0,1.9,0c4.5,0,8.9,0,13.4,0
			c2.9,0,5.8,0,8.6,0c5.2,0,10.4,0,15.6,0c0.9,0,1.9,0,2.8,0c1.7,0,2.9,1.2,2.9,2.9c0,9.2,0,18.4,0,27.6c0,0.7-0.1,1.4-0.6,2
			c-0.5,0.7-1.2,1-2,1.1C119,106.8,118.8,106.8,118.6,106.8z M116.6,101.6c0-0.5,0-0.9,0.1-1.2c0-0.2,0.1-0.4,0.2-0.4
			c0.3-0.3,0.4-0.6,0.4-0.9c0-0.6,0-1.2,0-1.8c0-1.1,0-2.1,0-3.2c0-0.3-0.1-0.7-0.2-0.9c-0.2-0.3-0.3-0.5-0.3-0.8c0-2.6,0-5.2,0-7.8
			c0-1.8,0-3.5,0-5.3c0-0.6-0.2-1.1-0.7-1.4c-0.3-0.2-0.7-0.2-1-0.2c-11.3,0-22.6,0-33.9,0c-1.1,0-1.6,0.5-1.6,1.6
			c0,4.4,0,8.9,0,13.3c0,0.2-0.1,0.4-0.2,0.6c-0.2,0.2-0.3,0.4-0.3,0.7c0,1.8,0,3.7,0,5.5c0,0.3,0.1,0.5,0.3,0.7
			c0.1,0.1,0.2,0.2,0.2,0.3c0,0.5,0,0.9,0.1,1.4c-0.7,0-1.3,0-2,0c0,1.2,0,2.4,0,3.6c0,0.3,0.2,0.3,0.4,0.3c13.3,0,26.7,0,40,0
			c0.3,0,0.4-0.1,0.4-0.4c0-0.8,0-1.6,0-2.4c0-0.3,0-0.7,0-1.1C117.7,101.6,117.1,101.6,116.6,101.6z M120.1,99.5c0.1,0,0.1,0,0.2,0
			c0-0.6,0-1.1,0-1.7c0.1-6,0.1-12,0.2-17.9c0-1.2,0-2.4,0-3.6c0-1-0.9-1.9-1.9-2c-0.7-0.1-1.4,0-2.1,0c-8.4,0-16.8,0-25.3,0
			c-4.8,0-9.6,0-14.4,0.1c-0.2,0-0.4,0-0.5,0.1c-1,0.3-1.6,1.1-1.6,2.2c0,1.3,0,2.6,0,3.9c0.1,6,0.1,12,0.2,18c0,0.4,0,0.8,0.1,1.2
			c0.1-0.1,0.1-0.2,0.1-0.4c0.1-6.6,0.1-13.1,0.2-19.7c0-0.9,0-1.9,0-2.8c0-1.2,0.6-1.8,1.8-1.9c0.3,0,0.7,0,1,0
			c10.8,0,21.6,0,32.3,0c2.6,0,5.2,0,7.9,0c0.5,0,1,0.1,1.3,0.5c0.4,0.4,0.4,1,0.4,1.5c0,4.2,0,8.4,0.1,12.6c0,3.2,0.1,6.3,0.1,9.5
			C120.1,99.2,120.1,99.4,120.1,99.5z M92.5,106.8c-0.1,0-0.1-0.1-0.1-0.1c-2.2,0-4.4,0-6.7,0c-0.3,0-0.4,0.1-0.4,0.5
			c0,1.2,0,2.4,0,3.7c0,0.2-0.1,0.6,0,0.7c0.2,0.1,0.5,0.1,0.7,0.1c2,0,4,0,6,0c0.3,0,0.4-0.1,0.4-0.4c0-0.5,0-1.1,0-1.6
			C92.5,108.7,92.5,107.8,92.5,106.8z M106.4,111.6C106.4,111.6,106.4,111.6,106.4,111.6c1.1,0,2.2,0,3.3,0c0.3,0,0.3-0.1,0.3-0.3
			c0-1.3,0-2.6,0-4c0-0.6,0-0.6-0.5-0.6c-2.1,0-4.2,0-6.3,0c-0.3,0-0.4,0.1-0.4,0.3c0,1.4,0,2.8,0,4.1c0,0.3,0.1,0.4,0.4,0.4
			C104.3,111.6,105.3,111.6,106.4,111.6z M97.7,106.8c-1.1,0-2.2,0-3.3,0c-0.2,0-0.3,0.1-0.3,0.3c0,1.4,0,2.8,0,4.2
			c0,0.3,0.1,0.4,0.4,0.4c2.2,0,4.4,0,6.5,0c0.2,0,0.3-0.1,0.3-0.3c0-1.4,0-2.8,0-4.2c0-0.3-0.1-0.4-0.4-0.3
			C99.8,106.8,98.7,106.8,97.7,106.8z M81,106.8C81,106.8,81,106.8,81,106.8c-0.8,0-1.6,0-2.4,0c-0.2,0-0.4,0.1-0.3,0.3
			c0,1.4,0,2.7,0,4.1c0,0.3,0.1,0.4,0.4,0.4c1.6,0,3.1,0,4.7,0c0.3,0,0.3-0.1,0.3-0.3c0-1.4,0-2.8,0-4.2c0-0.2-0.1-0.3-0.3-0.3
			C82.7,106.8,81.8,106.8,81,106.8z M114.2,111.6C114.2,111.6,114.2,111.6,114.2,111.6c0.8,0,1.6,0,2.3,0c0.5,0,0.5,0,0.5-0.5
			c0-1.3,0-2.6,0-3.9c0-0.3-0.1-0.4-0.4-0.4c-1.5,0-2.9,0-4.4,0c-0.7,0-0.7,0-0.6,0.7c0,0,0,0,0,0c0,1.3,0,2.5,0,3.8
			c0,0.3,0.1,0.4,0.3,0.4C112.7,111.6,113.5,111.6,114.2,111.6z"/>
		<path class="st1" d="M31,56.8c0-1.3-0.3-2.6-1.1-3.7c45.2,0,90.3,0,135.5,0c-0.7,1.1-1.1,2.4-1.1,3.7
			C119.9,56.8,75.5,56.8,31,56.8z"/>
		<path class="st1" d="M166.8,66.3c0.6-0.7,1.3-1.3,1.9-1.9c0.4-0.4,0.9-0.8,1.6-0.8c0.5,0,1.1,0.1,1.5,0.4c0.5,0.4,0.9,0.8,1.3,1.3
			c0.9,1,1,2.1,0.1,3.1c-0.6,0.6-1.2,1.2-1.8,1.8c-0.2,0.2-0.2,0.3,0,0.5c2.6,3.4,4.2,7.1,4.8,11.3c0.7,4.6,0,9.1-1.8,13.4
			c-0.8,1.8-1.8,3.5-3,5c-0.2,0.2-0.1,0.3,0,0.5c0.6,0.6,1.1,1.1,1.7,1.7c1,1,1.1,2.2,0.1,3.3c-0.4,0.5-0.9,0.9-1.3,1.3
			c-0.8,0.7-2,0.6-2.9-0.2c-0.6-0.6-1.2-1.2-1.8-1.8c-0.2-0.2-0.4-0.3-0.6-0.1c-1.9,1.5-4,2.6-6.3,3.5c-3,1.1-6.1,1.7-9.4,1.5
			c-3.7-0.2-7.3-1-10.6-2.8c-1.2-0.7-2.3-1.5-3.4-2.2c-0.3-0.2-0.4-0.3-0.7,0c-0.5,0.6-1.1,1.1-1.7,1.7c-1,1-2.2,1-3.2,0.1
			c-0.4-0.4-0.8-0.8-1.2-1.2c-0.9-0.9-0.9-2,0-3c0.6-0.6,1.2-1.3,1.8-1.9c0.2-0.2,0.2-0.3,0.1-0.6c-0.7-1.1-1.5-2.2-2.2-3.4
			c-1.5-2.8-2.4-5.9-2.7-9.1c-0.3-2.9-0.1-5.8,0.6-8.6c0.8-3.2,2.3-6.2,4.3-8.8c0.1-0.2,0.1-0.3,0-0.5c-0.6-0.6-1.1-1.1-1.7-1.7
			c-1.1-1.1-1.1-2.3,0-3.4c0.4-0.4,0.8-0.8,1.3-1.2c0.7-0.6,1.9-0.6,2.6,0c0.7,0.6,1.4,1.3,2.1,2c0.2,0.2,0.3,0.2,0.5,0
			c2.8-2.1,5.9-3.7,9.4-4.4c2.7-0.6,5.3-0.7,8-0.5c4.4,0.4,8.4,2,11.9,4.6C166.3,65.9,166.5,66.1,166.8,66.3z M152.1,108.7
			c12.2-0.1,23.7-10.9,22.4-25.1c-1-11.3-10.7-21.3-23.8-20.9c-12.1,0.3-23.1,10.9-22.2,24.6C129.4,99,139.4,109,152.1,108.7z
			 M170.4,69.5c0.2-0.3,0.5-0.5,0.7-0.8c0.4-0.4,0.8-0.7,1.1-1.1c0.4-0.4,0.4-0.9,0.1-1.3c-0.4-0.5-0.8-0.9-1.3-1.3
			c-0.5-0.4-1-0.4-1.5,0.1c-0.4,0.4-0.9,0.9-1.3,1.3c-0.6,0.6-0.6,0.5,0,1C169,68.1,169.7,68.8,170.4,69.5z M130.5,66.9
			c0.2,0.3,0.4,0.7,0.6,1c0.5,0.5,1,1,1.5,1.5c0.1,0.1,0.2,0.1,0.3,0c0.8-0.7,1.5-1.5,2.3-2.3c0.1-0.1,0.1-0.3,0-0.3
			c-0.6-0.6-1.2-1.2-1.9-1.8c-0.4-0.4-0.7-0.4-1.2,0c-0.5,0.4-1,0.9-1.4,1.4C130.7,66.4,130.6,66.6,130.5,66.9z M167.8,104.6
			c0.4,0.4,0.9,0.9,1.4,1.4c0.2,0.2,0.5,0.4,0.7,0.6c0.4,0.3,0.8,0.2,1.1-0.1c0.4-0.4,0.8-0.8,1.2-1.2c0.5-0.6,0.5-0.9,0-1.5
			c-0.4-0.5-0.9-0.9-1.4-1.4c-0.1-0.1-0.3-0.3-0.5-0.5C169.5,102.8,168.7,103.6,167.8,104.6z M135.4,104.5c-0.9-0.9-1.6-1.7-2.4-2.5
			c-0.1-0.1-0.2-0.1-0.3,0c-0.6,0.6-1.2,1.2-1.8,1.8c-0.4,0.4-0.4,1,0,1.4c0.4,0.5,0.9,0.9,1.4,1.3c0.3,0.3,0.7,0.3,1,0.1
			C134,105.9,134.7,105.2,135.4,104.5z"/>
		<path class="st1" d="M59,66.3c0.3-0.3,0.6-0.6,0.9-1c0.4-0.4,0.7-0.7,1.1-1.1c1-0.9,2.3-0.9,3.2,0.1c0.4,0.4,0.7,0.7,1.1,1.1
			c0.8,0.8,0.9,2,0.1,2.9c-0.6,0.7-1.3,1.3-1.9,1.9c-0.2,0.2-0.2,0.3,0,0.6c1.8,2.3,3.1,4.9,3.9,7.6c0.8,2.7,1.2,5.4,1.1,8.2
			c-0.1,4.1-1.3,8-3.4,11.6c-0.5,0.9-1.1,1.7-1.7,2.5c-0.1,0.2-0.1,0.3,0,0.4c0.7,0.6,1.3,1.3,1.9,1.9c0.8,0.8,0.8,2,0,2.9
			c-0.4,0.5-0.9,0.9-1.4,1.4c-0.8,0.8-2,0.8-2.8,0c-0.7-0.6-1.3-1.3-2-1.9c-0.2-0.2-0.3-0.2-0.5,0c-2.9,2.2-6.1,3.7-9.7,4.5
			c-2.6,0.6-5.3,0.8-7.9,0.4c-4.2-0.5-8.1-1.9-11.5-4.4c-0.3-0.2-0.7-0.5-1.1-0.8c-0.7,0.7-1.4,1.4-2.1,2.1c-0.9,0.8-2.1,0.9-3,0
			c-0.4-0.4-0.9-0.8-1.2-1.2c-0.9-0.9-0.9-2.2,0-3.1c0.6-0.6,1.2-1.2,1.9-1.8c0.2-0.2,0.1-0.3,0-0.5c-0.6-0.9-1.3-1.8-1.8-2.8
			c-1.5-2.6-2.5-5.4-2.9-8.4c-0.3-2-0.4-4-0.2-6c0.3-2.6,0.9-5,1.9-7.4c0.8-1.9,1.8-3.7,3.1-5.3c0.2-0.2,0-0.3-0.1-0.4
			c-0.6-0.6-1.1-1.1-1.7-1.7c-0.6-0.6-0.9-1.4-0.7-2.2c0.1-0.3,0.3-0.6,0.5-0.9c0.5-0.5,0.9-1,1.5-1.4c0.8-0.7,1.9-0.7,2.7,0
			c0.7,0.6,1.4,1.3,2,2c0.1,0.1,0.2,0.2,0.2,0.3C33,62.8,38.1,61,43.7,61C49.4,61,54.4,62.8,59,66.3z M66.8,85.7
			c0.1-12.2-10-23.2-23.2-23.1c-12.2,0.1-22.7,9.9-22.9,22.8c-0.1,12.9,10.3,23.1,22.7,23.3C56.1,108.9,66.9,98.5,66.8,85.7z
			 M24.9,101.9c-0.6,0.6-1.3,1.3-1.9,2c-0.4,0.4-0.3,0.8,0.1,1.3c0.4,0.4,0.7,0.8,1.1,1.2c0.5,0.5,0.9,0.6,1.5,0.1
			c0.7-0.6,1.2-1.3,1.9-1.9C26.7,103.6,25.8,102.8,24.9,101.9z M60,66.8c0,0.1,0,0.1,0,0.1c0.8,0.8,1.6,1.7,2.4,2.5c0,0,0.2,0,0.3,0
			c0.6-0.6,1.3-1.3,1.8-1.9c0.4-0.4,0.3-0.8-0.1-1.2c-0.4-0.5-0.9-0.9-1.4-1.3c-0.4-0.4-0.7-0.4-1.2,0C61.3,65.5,60.6,66.2,60,66.8z
			 M25.1,69.4c0.7-0.7,1.5-1.5,2.3-2.3c0.1-0.1,0.2-0.2,0-0.4c-0.5-0.5-1.1-1.1-1.6-1.6c-0.6-0.6-1.1-0.6-1.7,0
			c-0.4,0.4-0.7,0.7-1.1,1.1c-0.3,0.3-0.4,0.9-0.1,1.2C23.6,68.1,24.3,68.8,25.1,69.4z M62.5,106.7c0.2-0.1,0.4-0.1,0.5-0.2
			c0.5-0.5,1.1-1,1.6-1.5c0.3-0.4,0.3-0.8-0.1-1.2c-0.6-0.6-1.2-1.2-1.7-1.8c-0.1-0.1-0.2-0.1-0.4,0c-0.7,0.8-1.5,1.5-2.3,2.3
			c-0.1,0.1-0.1,0.2,0,0.4c0.6,0.6,1.1,1.2,1.7,1.7C62,106.5,62.3,106.6,62.5,106.7z"/>
		<path class="st1" d="M108.9,71.1c-2.5,0-5.1,0-7.6,0c-0.2,0-0.4,0-0.6,0c-1-0.1-1.7-0.7-1.7-1.7c0-2.9,0-5.9,0-8.8
			c0-0.9,0.7-1.6,1.6-1.6c0.8,0,1.6,0,2.4,0c4.6,0,9.1,0,13.7,0c0.3,0,0.7,0,1,0.2c0.8,0.3,1,0.9,1.1,1.7c0,0.8,0,1.6,0,2.4
			c0,1.8,0,3.7,0,5.5c0,0.3,0,0.5,0,0.8c-0.1,1-0.8,1.6-1.7,1.6c-1.8,0-3.7,0-5.5,0C110.6,71.1,109.7,71.1,108.9,71.1
			C108.9,71.1,108.9,71.1,108.9,71.1z M117.2,60.4c-1.3,0-2.6,0-4,0c-0.1,0-0.3,0.2-0.3,0.3c-0.4,0.9-1,1.6-2,1.8
			c-0.7,0.1-0.9,0.5-1,1.1c-0.3,1-0.6,2-0.9,3c-0.1,0.2-0.2,0.5-0.5,0.4c-0.3-0.1-0.4-0.3-0.2-0.7c0.3-1.1,0.7-2.2,1-3.4
			c0.1-0.3,0.1-0.5-0.3-0.6c-0.8-0.3-1.3-0.9-1.5-1.7c-0.1-0.2-0.2-0.3-0.4-0.3c-2.1,0-4.2,0-6.3,0c-0.3,0-0.3,0.2-0.3,0.3
			c0,2.8,0,5.7,0,8.5c0,0.3,0.1,0.4,0.4,0.4c0.6,0,1.1,0,1.7,0c2.4,0,4.9,0,7.3,0c2.2,0,4.5,0,6.7,0c0.2,0,0.5,0,0.7,0
			C117.2,66.5,117.2,63.5,117.2,60.4z"/>
		<path class="st1" d="M86.6,71.1c-2.6,0-5.2,0-7.8,0c-0.3,0-0.6,0-0.9-0.1c-0.8-0.2-1.2-0.9-1.2-1.8c0-1.2,0-2.4,0-3.7
			c0-1.5,0-3,0-4.5c0-0.2,0-0.4,0-0.6c0.1-0.9,0.7-1.5,1.6-1.5c1.7,0,3.4,0,5,0c3.6,0,7.3,0,10.9,0c0,0,0.1,0,0.1,0
			c1.5,0,2.1,0.6,2.1,2.1c0,2.7,0,5.4,0,8c0,0.5,0,0.9-0.3,1.3c-0.4,0.5-0.9,0.8-1.5,0.8C92,71.1,89.3,71.1,86.6,71.1
			C86.6,71.1,86.6,71.1,86.6,71.1z M78.1,69.6c0.6,0,1.3,0,1.9,0c4.4,0,8.7,0,13.1,0c0.5,0,1,0,1.5,0c0.2,0,0.3-0.1,0.3-0.3
			c0-2.8,0-5.7,0-8.5c0-0.3-0.1-0.4-0.3-0.4c-1.6,0-3.3,0-4.9,0c-0.2,0-0.3,0.1-0.4,0.3c-0.4,1.1-1.3,1.8-2.5,2
			c-0.1,0-0.3,0.2-0.3,0.3c-0.4,1.1-0.7,2.3-1.1,3.4c0,0.1-0.1,0.3-0.2,0.4c-0.1,0.2-0.3,0.2-0.5,0.1c-0.4-0.2-0.3-0.4-0.2-0.7
			c0.4-1.1,0.7-2.3,1.1-3.4c0.1-0.2,0-0.4-0.2-0.5c-0.8-0.4-1.3-0.9-1.6-1.7c-0.1-0.2-0.2-0.3-0.4-0.2c-0.5,0-1,0-1.5,0
			c-1.1,0-2.2,0-3.3,0c-0.5,0-0.5,0-0.5,0.5c0,2.7,0,5.4,0,8.1C78.1,69.2,78.1,69.4,78.1,69.6z"/>
		<path class="st1" d="M29.3,56.6c0,2.6-2.2,4.8-4.7,4.8c-3,0-4.7-2-4.8-4.7c-0.1-2.9,1.9-4.9,4.6-4.9C27.1,51.9,29.3,54,29.3,56.6z
			 M21.5,56.8C21.5,56.8,21.5,56.8,21.5,56.8c-0.2,0-0.3,0-0.5,0c-0.3,0-0.3,0.1-0.3,0.4c0.2,1.9,1.9,3.3,3.8,3.3
			c2,0,3.6-1.4,3.9-3.3c0-0.3-0.1-0.3-0.3-0.3c-0.3,0-0.7,0-1,0c-0.3,0-0.4-0.1-0.5-0.4c0-0.2,0-0.4-0.1-0.6
			c-0.4-0.9-1.3-1.4-2.3-1.3c-0.9,0.1-1.7,0.8-1.9,1.7c0,0.2-0.1,0.5-0.2,0.6c-0.1,0.1-0.4,0-0.6,0C21.6,56.8,21.5,56.8,21.5,56.8z"
			/>
		<path class="st1" d="M175.5,56.7c0,2.6-2,4.6-4.6,4.7c-2.7,0-4.9-2.1-4.9-4.8c0-2.6,2.1-4.8,4.7-4.8
			C173.6,51.8,175.5,53.8,175.5,56.7z M166.9,56.8c0.1,2,1.7,3.6,3.6,3.7c2.1,0.1,3.8-1.3,4.1-3.3c0-0.2,0-0.3-0.3-0.3
			c-0.4,0-0.9,0-1.4,0c-0.1-0.6-0.2-1.2-0.7-1.7c-0.5-0.5-1-0.7-1.7-0.6c-0.5,0-1,0.2-1.3,0.6c-0.5,0.5-0.7,1-0.7,1.7
			C168.1,56.8,167.5,56.8,166.9,56.8z"/>
		<path class="st1" d="M17.7,40.3c1.3,0,2.6,0,4,0c0,0.4,0,0.8,0,1.2c0,1.9,0,3.8,0,5.7c0,0.3-0.1,0.4-0.4,0.4c-1.2,0-2.4,0-3.6,0
			C17.7,45.1,17.7,42.7,17.7,40.3z M20.1,41c0.5,0.1,0.5,0.1,0.5,0.7c0,0.1,0,0.2,0,0.2c0,0.7,0,1.4,0,2.1c0,0.7,0,1.5,0,2.2
			c0,0.1-0.1,0.2-0.2,0.2c-0.5,0-1.1,0-1.7,0c0-1.8,0-3.7,0-5.5c-0.2-0.1-0.4-0.1-0.4,0.2c0,1.8,0,3.5,0,5.3c0,0.1,0.1,0.2,0.2,0.2
			c0.8,0,1.5,0,2.3,0c0-0.2,0-0.3,0-0.4c0-1.6,0-3.2,0-4.7c0-0.7,0-0.7-0.7-0.7C20.1,41,20.1,41,20.1,41z M18.8,42.6
			C18.9,42.6,18.9,42.6,18.8,42.6c0,0.3,0,0.5,0,0.8c0,0.1,0.2,0.2,0.3,0.2c0.3,0,0.7,0,1,0c0.2,0,0.3-0.1,0.3-0.3
			c0-0.5,0-1.1-0.1-1.6c0-0.2-0.1-0.2-0.2-0.2c-0.3,0-0.7,0-1,0c-0.2,0-0.3,0.1-0.3,0.3C18.9,42,18.9,42.3,18.8,42.6z M19,43.9
			c0.2,0.2,1.4,0.2,1.6,0C20,43.9,19.5,43.9,19,43.9z"/>
		<path class="st1" d="M23,40.3c0.4,0,0.8,0,1.3,0c0.8,0,1.6,0,2.3,0c0.3,0,0.4,0.1,0.4,0.4c0,2,0,4,0,6.1c0,0.2,0,0.4,0,0.6
			c0,0.1-0.2,0.2-0.2,0.2c-1.2,0-2.3,0-3.5,0c-0.3,0-0.3-0.2-0.3-0.4c0-1.2,0-2.3,0-3.5c0-1.1,0-2.1,0-3.2
			C22.9,40.5,23,40.4,23,40.3z M24.1,43.2C24.1,43.2,24,43.2,24.1,43.2C24,43.1,24,43,24,42.9c0-0.5,0.1-1.1,0.1-1.6
			c0-0.1-0.1-0.3-0.2-0.3c-0.2-0.1-0.2,0.1-0.2,0.2c0,1.8,0,3.5,0,5.3c0,0.1,0.1,0.2,0.2,0.2c0.7,0,1.4,0,2,0c0.2,0,0.3-0.1,0.3-0.3
			c0-1.6,0-3.2,0-4.9c0-0.1,0-0.3,0-0.4c-0.1-0.1-0.2-0.2-0.3-0.3c0,0.1-0.1,0.2-0.1,0.3c0,0.1,0,0.1,0,0.2c-0.4,0-0.7,0-1.1,0
			c-0.5,0-0.5,0.1-0.5,0.5C24.1,42.4,24.1,42.8,24.1,43.2z"/>
		<path class="st1" d="M100,72c-1.5,0-3,0-4.5,0c0.4-0.2,0.7-0.4,1-0.6c0.7-0.5,0.9-1.2,0.9-2.1c0-2.9,0-5.8,0-8.7
			c0-1.2-0.6-2.1-1.8-2.6c0,0-0.1,0-0.1-0.1c0,0,0,0,0-0.1c1.5,0,3,0,4.5,0c-0.9,0.3-1.5,0.9-1.8,1.8c-0.1,0.3-0.2,0.7-0.2,1
			c0,2.9,0,5.7,0,8.6c0,1.1,0.7,2.4,1.9,2.6C99.9,71.9,99.9,72,100,72C100,72,100,72,100,72z"/>
		<path class="st1" d="M176.9,43.4c0,2-1.5,3.9-3.8,3.9c-2.1,0-3.8-1.7-3.8-3.8c0-2.1,1.7-3.8,3.9-3.8
			C175.3,39.6,176.9,41.4,176.9,43.4z M173,47.1c2.2-0.1,3.6-1.7,3.7-3.4c0.1-2.5-1.7-3.9-3.5-3.9c-2.1-0.1-3.7,1.6-3.7,3.6
			C169.5,45.6,171.1,46.9,173,47.1z"/>
		<path class="st1" d="M164.3,47.2c-2,0.1-3.8-1.6-3.8-3.6c-0.1-2.1,1.4-3.9,3.6-4c2.3-0.1,3.9,1.5,4,3.6
			C168.2,45.3,166.5,47.2,164.3,47.2z M164.2,47c2.5,0,3.8-2.1,3.7-3.8c-0.1-1-0.5-1.8-1.2-2.5c-0.7-0.7-1.7-1-2.6-0.9
			c-2.1,0.2-3.5,1.8-3.4,3.9C160.8,45.7,162.6,47,164.2,47z"/>
		<path class="st1" d="M43.5,32.7c0-0.8,0-1.6,0-2.4c0-0.4,0.2-0.5,0.6-0.5c2.4,0,4.9,0,7.3,0c0.3,0,0.5,0.1,0.5,0.4
			c0,0.8,0,1.6,0,2.4c0,0.1-0.2,0.2-0.3,0.2c-0.6,0-1.2,0-1.8,0c-2,0-4,0-5.9,0C43.8,32.7,43.7,32.7,43.5,32.7z M46.1,32.4
			c0-0.5,0-1,0-1.5c0-0.1-0.1-0.2-0.2-0.2c-0.1,0.1-0.2,0.2-0.2,0.3c0,0.4,0,0.8,0,1.2C45.7,32.5,45.7,32.5,46.1,32.4z M46.9,30.7
			c0,0.5,0,1,0,1.5c0,0.1,0,0.3,0.2,0.3c0.2,0,0.3-0.1,0.3-0.3c0-0.4,0-0.8,0-1.2C47.4,30.7,47.2,30.6,46.9,30.7z M44.4,31.6
			C44.4,31.6,44.4,31.6,44.4,31.6c0,0.2,0,0.4,0,0.6c0,0.1,0.1,0.2,0.2,0.3c0.2,0.1,0.3-0.1,0.3-0.2c0-0.4,0-0.9,0-1.3
			c0-0.1-0.1-0.2-0.2-0.2c-0.1,0.1-0.2,0.1-0.2,0.2C44.4,31.1,44.4,31.3,44.4,31.6z M48.6,32.4c0-0.5,0-1,0-1.5
			c0-0.1-0.1-0.2-0.2-0.3c-0.1,0.1-0.2,0.2-0.2,0.3c0,0.4,0,0.8,0,1.2C48.1,32.4,48.2,32.4,48.6,32.4z M49.8,31.6
			C49.8,31.6,49.8,31.6,49.8,31.6c0-0.2,0-0.5,0-0.7c0-0.1-0.1-0.2-0.2-0.2c0,0-0.2,0.1-0.2,0.2c0,0.5,0,1,0,1.4
			c0,0.1,0.1,0.2,0.2,0.2c0.1,0,0.2-0.1,0.2-0.2C49.8,32,49.8,31.8,49.8,31.6z M50.6,31.5C50.6,31.5,50.6,31.5,50.6,31.5
			c0,0.2,0,0.5,0,0.7c0,0.1,0.1,0.2,0.2,0.2c0.1,0,0.2-0.1,0.2-0.1c0-0.5,0-1,0-1.5c0-0.1-0.1-0.1-0.2-0.2c-0.1,0.1-0.1,0.2-0.2,0.2
			C50.6,31.1,50.6,31.3,50.6,31.5z"/>
		<path class="st1" d="M40.2,32.7c-2.8,0-5.6,0-8.4,0c0-0.8,0-1.7,0-2.5c0-0.3,0.2-0.5,0.5-0.5c2.5,0,5,0,7.5,0
			c0.2,0,0.4,0.1,0.4,0.3C40.2,30.9,40.2,31.8,40.2,32.7z M38.8,31.5c0,0.3,0,0.5,0,0.7c0,0.2,0.1,0.3,0.2,0.2
			c0.1,0,0.3-0.1,0.3-0.2c0-0.5,0-0.9,0-1.4c0-0.1-0.1-0.1-0.2-0.2c-0.1,0.1-0.2,0.1-0.2,0.2C38.8,31.1,38.8,31.3,38.8,31.5z
			 M37.6,31.5C37.6,31.5,37.6,31.5,37.6,31.5c0,0.2,0,0.5,0,0.7c0,0.1,0.1,0.2,0.2,0.2c0.1,0,0.2-0.1,0.2-0.2c0-0.5,0-0.9,0-1.4
			c0-0.1-0.2-0.2-0.3-0.2c-0.1,0.1-0.2,0.2-0.2,0.2C37.6,31.1,37.6,31.3,37.6,31.5z M36.4,31.5c0,0.2,0,0.5,0,0.7
			c0,0.1,0.1,0.2,0.2,0.2c0.1,0,0.2-0.1,0.2-0.2c0-0.5,0-0.9,0-1.4c0-0.1-0.1-0.1-0.2-0.2c-0.1,0.1-0.2,0.2-0.2,0.3
			C36.3,31.1,36.4,31.3,36.4,31.5z M33.1,32.4c0-0.5,0-1,0-1.5c0-0.1-0.1-0.2-0.2-0.3c-0.1,0.1-0.2,0.2-0.2,0.3c0,0.4,0,0.8,0,1.2
			C32.7,32.4,32.8,32.5,33.1,32.4z M35.2,31.5C35.1,31.5,35.1,31.5,35.2,31.5c0,0.2,0,0.5,0,0.7c0,0.1,0.1,0.2,0.2,0.2
			c0.1,0,0.3-0.1,0.3-0.2c0-0.5,0-1-0.1-1.4c0-0.1-0.1-0.1-0.2-0.2c-0.1,0.1-0.2,0.1-0.2,0.2C35.1,31.1,35.2,31.3,35.2,31.5z
			 M34.3,31.5C34.3,31.5,34.3,31.5,34.3,31.5c0-0.2,0-0.5,0-0.7c0-0.1-0.2-0.1-0.2-0.2c-0.1,0.1-0.1,0.1-0.2,0.2c0,0.5,0,0.9,0,1.4
			c0,0.1,0.1,0.2,0.2,0.2c0.1-0.1,0.2-0.2,0.2-0.3C34.4,32,34.3,31.8,34.3,31.5z"/>
		<path class="st1" d="M97.7,16.8c-24.2,0-48.5,0-72.7,0c-0.7,0-1.4,0-2.1,0c-0.2,0-0.3-0.1-0.3-0.3c0-0.5,0-1,0-1.5
			c0-0.2,0.1-0.3,0.3-0.3c0.7,0,1.5,0,2.2,0c48.5,0,97.1,0,145.6,0c0.6,0,1.1,0,1.7,0c0.2,0,0.3,0.1,0.3,0.3c0,0.5,0,1,0,1.5
			c0,0.2,0,0.3-0.3,0.3c-0.8,0-1.7,0-2.5,0C145.9,16.8,121.8,16.8,97.7,16.8z"/>
		<path class="st1" d="M22.6,13.9c0-0.1,0-0.1,0-0.1c0-0.9,0-0.9,1-0.9c17.2,0,34.4,0,51.6,0c23,0,46.1,0,69.1,0
			c8.8,0,17.6,0,26.4,0c0.5,0,1.1,0,1.6,0c0.3,0,0.4,0.1,0.4,0.4c0,0.7,0,0.7-0.7,0.7c-14.6,0-29.1,0-43.7,0c-27,0-54,0-81,0
			c-7.9,0-15.7,0-23.6,0C23.4,13.9,23,13.9,22.6,13.9z"/>
		<path class="st1" d="M35.7,39c0.7,0.1,1.5,0.1,2.2,0.3c1.6,0.5,2.5,1.6,2.7,3.3c0.1,0.8,0.1,1.6-0.1,2.3c-0.3,1.5-1.7,2.8-3.3,2.9
			c-1.2,0-2.4,0.1-3.5-0.1c-1.7-0.3-3-1.8-3-3.6c0-0.8-0.1-1.6,0.2-2.4c0.6-1.6,1.9-2.5,3.6-2.5C35,39.1,35.3,39.1,35.7,39
			C35.7,39,35.7,39,35.7,39z"/>
		<path class="st1" d="M85.2,47.8c0-0.6,0-1.2,0-1.8c2,0,3.9,0,5.9,0c0,0.5,0,1.1,0,1.6c0,0.1-0.2,0.2-0.2,0.2c-0.2,0-0.4,0-0.6,0
			c-1.6,0-3.2,0-4.8,0C85.4,47.8,85.3,47.8,85.2,47.8z"/>
		<path class="st1" d="M114.6,46.7c0-0.3,0-0.5,0-0.8c0-0.2,0.1-0.3,0.3-0.3c0.1,0,0.3,0.2,0.3,0.2c0,0.6,0,1.1,0,1.7
			c0,0.2-0.2,0.3-0.3,0.2c-0.1,0-0.2-0.2-0.2-0.2C114.5,47.2,114.6,47,114.6,46.7C114.6,46.7,114.6,46.7,114.6,46.7z"/>
		<path class="st1" d="M100.2,46.7c0,0.3,0,0.5,0,0.8c0,0.1-0.1,0.2-0.2,0.3c-0.2,0-0.4,0-0.4-0.2c0-0.6,0-1.2,0-1.8
			c0-0.1,0.2-0.2,0.3-0.1c0.1,0,0.3,0.2,0.3,0.3C100.2,46.2,100.2,46.4,100.2,46.7C100.2,46.7,100.2,46.7,100.2,46.7z"/>
		<path class="st1" d="M102.1,46.6c0-0.2,0-0.5,0-0.7c0-0.2,0-0.3,0.3-0.3c0.2,0,0.3,0.1,0.3,0.3c0,0.5,0,1,0,1.5
			c0,0.2,0,0.4-0.3,0.4c-0.3,0-0.3-0.2-0.3-0.4C102.1,47.1,102.1,46.9,102.1,46.6C102.1,46.6,102.1,46.6,102.1,46.6z"/>
		<path class="st1" d="M112.1,47.7c0-0.6,0-1.3,0-1.9c0-0.1,0.2-0.2,0.2-0.2c0.1,0,0.3,0.1,0.3,0.2c0.1,0.2,0,0.4,0,0.6
			c0,0.3,0,0.6,0,0.8c0,0.3,0,0.5-0.4,0.4C112.2,47.7,112.1,47.7,112.1,47.7z"/>
		<path class="st1" d="M104.6,46.7c0-0.3,0-0.5,0-0.8c0-0.2,0.1-0.2,0.3-0.2c0.1,0,0.3,0,0.3,0.2c0,0.5,0,1,0,1.6
			c0,0.2-0.1,0.4-0.3,0.4c-0.3,0-0.3-0.2-0.3-0.4C104.6,47.1,104.6,46.9,104.6,46.7C104.6,46.7,104.6,46.7,104.6,46.7z"/>
		<path class="st1" d="M117.6,46.6c0,0.3,0,0.6,0,0.8c0,0.2-0.1,0.3-0.3,0.3c-0.2,0-0.3-0.1-0.3-0.3c0-0.5,0-1,0-1.6
			c0-0.3,0.2-0.3,0.3-0.3c0.2,0,0.2,0.1,0.2,0.3C117.6,46.2,117.6,46.4,117.6,46.6C117.6,46.6,117.6,46.6,117.6,46.6z"/>
		<path class="st1" d="M95.2,47.7c-0.1,0-0.2,0-0.3,0c-0.1,0-0.2-0.1-0.2-0.2c0-0.5,0-1.1,0-1.6c0-0.2,0.1-0.4,0.3-0.3
			c0.1,0,0.2,0.2,0.2,0.3C95.2,46.5,95.2,47.1,95.2,47.7z"/>
		<path class="st1" d="M107.1,46.7c0-0.3,0-0.5,0-0.8c0-0.3,0.2-0.2,0.4-0.2c0.2,0,0.2,0.1,0.2,0.3c0,0.5,0,1,0,1.5
			c0,0.2,0,0.4-0.3,0.4c-0.3,0-0.3-0.2-0.3-0.4C107.1,47.2,107.1,46.9,107.1,46.7C107.1,46.7,107.1,46.7,107.1,46.7z"/>
		<path class="st1" d="M120.1,46.7c0,0.3,0,0.5,0,0.8c0,0.2-0.1,0.3-0.3,0.3c-0.2,0-0.3-0.1-0.3-0.3c0-0.5,0-1.1,0-1.6
			c0-0.2,0.1-0.3,0.3-0.3c0.2,0,0.3,0.1,0.3,0.3C120.1,46.2,120.1,46.4,120.1,46.7C120.1,46.7,120.1,46.7,120.1,46.7z"/>
		<path class="st1" d="M110.1,47.8c-0.2,0-0.4-0.1-0.5-0.1c0-0.6,0-1.2,0-1.9c0-0.1,0.1-0.2,0.2-0.2c0.1,0.1,0.3,0.1,0.3,0.2
			C110.2,46.5,110.1,47.1,110.1,47.8z"/>
		<path class="st1" d="M97.7,46.7c0,0.2,0,0.5,0,0.7c0,0.3-0.2,0.3-0.4,0.3c-0.2,0-0.2-0.2-0.2-0.3c0-0.5,0-1,0-1.5
			c0-0.3,0.1-0.3,0.3-0.3c0.2,0,0.2,0.2,0.2,0.3C97.7,46.2,97.7,46.4,97.7,46.7C97.7,46.7,97.7,46.7,97.7,46.7z"/>
		<path class="st1" d="M79.8,93.3c0.1,0.9,0.1,1.8,0.2,2.5c0-0.7,0-1.5,0-2.4c0-0.6,0-1.2,0-1.8c0-4.2,0-8.4,0-12.6
			c0-0.7,0.4-1,1.1-1c3.3,0,6.6,0,10,0c7.2,0,14.3,0,21.5,0c0.9,0,1.8,0,2.7,0c0.6,0,0.9,0.3,0.9,0.9c0,1.1,0,2.2,0,3.4
			c0,3.6,0,7.2,0,10.8c0,0.6,0.1,1.2,0.1,1.8c0,0,0.1,0,0.1,0c0-0.2,0-0.3,0-0.5c0-0.2,0-0.3,0-0.5c0-0.2,0.1-0.4,0.2-0.6
			c0.1,0.2,0.2,0.3,0.2,0.5c0,1.7,0,3.4,0,5.1c0,0.5-0.1,0.5-0.6,0.7c0,0.3,0,0.6,0,0.9c0,0.9-0.3,1.3-1.2,1.3c-5.6,0-11.2,0-16.8,0
			c-5.3,0-10.7,0-16,0c-0.4,0-0.9,0-1.3,0c-0.6,0-0.9-0.3-0.9-0.9c0-0.3,0-0.6,0-0.9c0-0.1-0.1-0.3-0.2-0.4
			c-0.2-0.1-0.3-0.2-0.3-0.5c0-1.1,0-2.3,0-3.4c0-0.7,0-1.4,0-2C79.4,93.5,79.4,93.2,79.8,93.3z M98.1,82.4
			C98.1,82.4,98.1,82.4,98.1,82.4c5.3,0,10.6,0,16,0c0.5,0,0.5,0,0.5-0.5c0-0.4-0.1-0.7-0.4-1c-0.4-0.3-0.7-0.6-1-1
			c-0.2-0.3-0.5-0.4-0.9-0.4c-5.7,0-11.4,0-17,0c-3.7,0-7.4,0-11.1,0c-0.4,0-0.7,0.1-1,0.4c-0.3,0.3-0.6,0.7-1,1
			c-0.3,0.2-0.4,0.5-0.4,0.9c0,0.6,0,0.6,0.6,0.6C87.6,82.4,92.8,82.4,98.1,82.4z M110.1,86.3c0,0.4,0,0.8,0,1.1
			c0,1.4-1,2.8-2.3,3.4c-0.6,0.3-1.3,0.4-1.9,0.4c-5.3,0-10.5,0-15.8,0c-0.5,0-1.1,0-1.6-0.2c-1.6-0.6-2.5-1.9-2.6-3.6
			c0-0.3,0-0.7,0-1c-0.2,0-0.3,0-0.4,0c-1.1,0-2.2,0-3.3,0c-0.3,0-0.4,0.1-0.4,0.4c0,0.7,0,1.4,0,2.1c0,1.5,0,3,0,4.5
			c0,0.9,0.6,1.5,1.5,1.5c0.8,0,1.6,0,2.5,0c4.1,0,8.3,0,12.4,0c4.9,0,9.7,0,14.6,0c1.1,0,1.8-0.8,1.8-1.8c0-2.1,0-4.2,0-6.3
			c0-0.1,0-0.3,0-0.4C113.1,86.3,111.6,86.3,110.1,86.3z M107.9,82.9c0,0,0,0.1-0.1,0.1c0,0,0.1,0,0.1,0.1c1,0.6,1.7,1.4,2,2.6
			c0.1,0.2,0.2,0.2,0.3,0.2c1.3,0,2.6,0,3.9,0c0.3,0,0.3-0.1,0.3-0.3c0-0.8,0-1.5,0-2.3c0-0.3-0.1-0.3-0.3-0.3c-1.5,0-3,0-4.5,0
			C109.1,82.9,108.5,82.9,107.9,82.9z M88.4,82.9c-0.4,0-0.7,0-1.1,0c-1.7,0-3.5,0-5.2,0c-0.3,0-0.4,0.1-0.4,0.4c0,0.7,0,1.5,0,2.2
			c0,0.3,0.1,0.4,0.4,0.3c1.1,0,2.3,0,3.4,0c0.4,0,0.6-0.1,0.7-0.5c0.3-1,1-1.8,1.9-2.3C88.2,83,88.3,82.9,88.4,82.9z M101.1,86.2
			C101.1,86.2,101.1,86.2,101.1,86.2c0.1-0.3,0.1-0.7,0.2-1c0-0.1-0.1-0.2-0.2-0.2c-0.3,0-0.5,0-0.7-0.3c0,0-0.1,0-0.2,0
			c-1.1,0-2.2,0-3.3,0c-0.3,0-0.3,0.1-0.2,0.3c0.1,0.4,0.2,0.9,0.3,1.3c0.1,0.8,0.1,1.6-0.2,2.4c-0.1,0.4-0.1,0.4,0.3,0.4
			c1,0,2,0,3,0c0.1,0,0.2,0,0.3,0c0-0.1,0-0.2,0-0.2c-0.4-1.1-0.4-2.1-0.2-3.2c0-0.1,0.1-0.3,0.1-0.4c0.1-0.3,0.4-0.1,0.6-0.1
			c0.2,0,0.2,0.2,0.2,0.4C101.1,85.7,101.1,85.9,101.1,86.2z M106.1,89.8c1.8,0,2.9-1.2,2.9-2.8c0-1.6-1.2-3-2.8-3
			c-1.9,0-3.1,1.3-3,3C103.2,88.6,104.5,89.8,106.1,89.8z M90,84c-1.9,0.1-3,1.2-2.9,3.2c0,1.1,1,2.6,3.1,2.5
			c1.5-0.1,2.7-1.4,2.7-3.1C92.8,85.2,91.5,84,90,84z M86.2,99C86.3,99,86.3,99,86.2,99c0.2-0.5,0.4-1.1,0.6-1.7
			c0.1-0.2,0.1-0.4,0.2-0.6c0.2-0.6,0.2-0.6,0.7-0.6c0.2,0,0.4,0,0.6,0c2.3,0,4.7,0.1,7,0.1c4.2,0,8.5-0.1,12.7-0.1
			c0.7,0,0.7,0,1,0.7c0.3,0.8,0.5,1.6,0.8,2.4c0-0.2,0-0.3-0.1-0.5c-0.3-0.9-0.5-1.7-0.7-2.6c-0.1-0.2-0.1-0.2-0.3-0.2
			c-3.3,0-6.7-0.1-10-0.1c-3.7,0-7.5,0.1-11.2,0.1c-0.3,0-0.4,0.1-0.4,0.3c-0.1,0.5-0.3,1.1-0.5,1.6C86.5,98.2,86.4,98.6,86.2,99z
			 M88,89.9c-0.9-0.8-1.5-1.8-1.4-3c0-1.2,0.6-2.2,1.6-2.9c1-0.7,2-0.7,3.1-0.4c1.1,0.4,1.8,1.1,2.1,2.2c-0.1-1.1-1.3-2.4-3-2.6
			c-1.7-0.2-3.3,0.9-3.9,2.4C85.9,87.2,86.6,89,88,89.9z M103.4,89.3c-0.6-0.9-1.1-1.8-0.8-3c0.3-1.1,0.9-2,1.9-2.5
			c1-0.5,2-0.5,3-0.1c1,0.4,1.6,1.2,1.9,2.4c0.3-0.9-1.1-2.4-2.2-2.7c-1.8-0.5-3.7,0.1-4.5,1.7C102,86.8,102.4,88.4,103.4,89.3z
			 M96.5,88.8C96.5,88.8,96.5,88.7,96.5,88.8c-0.4-0.1-0.9-0.1-1.3-0.1c-0.2,0-0.3,0-0.3-0.3c0-1,0-2.1,0-3.1c0-0.2,0.1-0.3,0.3-0.3
			c0.3,0,0.7,0,1,0c0.1,0,0.2-0.1,0.3-0.1c-0.1,0-0.2-0.1-0.3-0.1c-0.4,0-0.7,0-1.1,0c-0.4,0-0.5,0.1-0.5,0.4c0,1.1,0,2.1,0,3.2
			c0,0.2,0.1,0.3,0.3,0.3c0.4,0,0.9,0,1.3,0C96.4,88.9,96.5,88.8,96.5,88.8z M114.8,100.9c0.3,0,0.4-0.1,0.5-0.4
			c0-0.2-0.2-0.4-0.4-0.5c-0.2,0-0.5,0.2-0.5,0.4C114.3,100.6,114.6,100.9,114.8,100.9z M114.8,78.7c-0.2,0-0.6,0.3-0.5,0.5
			c0.1,0.2,0.3,0.3,0.5,0.4c0.2,0.1,0.4-0.2,0.4-0.4C115.3,78.9,115.1,78.7,114.8,78.7z M80.8,78.8c0.2,0.3-0.1,0.6,0.2,0.7
			c0.2,0.1,0.5,0.1,0.5,0c0.1-0.1,0.1-0.4,0-0.6C81.4,78.6,81.1,78.9,80.8,78.8z M80.9,100.1c-0.1,0.6,0,0.8,0.3,0.8
			c0.4,0,0.4-0.1,0.5-0.5c0-0.3-0.1-0.4-0.5-0.4c0.1,0.2,0.2,0.4,0.3,0.6c0,0-0.1,0-0.1,0.1C81.2,100.5,81.1,100.3,80.9,100.1z
			 M89.3,99.5c-0.3-0.1-0.6,0-0.7,0.3c-0.1,0.3-0.1,0.6,0,0.9c0,0.2,0.4,0.2,0.7,0.1c-0.5,0-0.6-0.1-0.6-0.6
			C88.6,99.7,88.7,99.6,89.3,99.5z M100.7,86.4c-0.2,0.3-0.3,0.6-0.2,0.9c0,0,0.1,0.1,0.1,0.1c0.1,0,0.1,0,0.2-0.1
			C100.8,87,100.8,86.7,100.7,86.4z M106.8,99.5c-0.6,0-0.7,0.2-0.7,0.8c0,0.4,0.2,0.6,0.8,0.6c-0.4-0.1-0.7-0.3-0.6-0.7
			C106.2,99.8,106.4,99.6,106.8,99.5z M92.7,98.1c-0.3-0.2-0.8-0.3-1.1-0.1c-0.2,0.1-0.2,0.4-0.1,0.7C91.7,98,91.9,97.9,92.7,98.1z
			 M97.9,98.7c-0.4-0.8-0.4-0.8,0-1.2c-0.3-0.1-0.4,0.1-0.4,0.3C97.3,98.1,97.5,98.4,97.9,98.7z M103.7,89.6
			c0.4,0.4,0.9,0.7,1.5,0.8C104.7,90.1,104.2,89.9,103.7,89.6z"/>
		<path class="st1" d="M85.6,107.4c0.2,0,0.3,0,0.4,0c1.8,0,3.6,0,5.4,0c0.3,0,0.4,0.1,0.4,0.4c0,0.5,0,0.9,0,1.4
			c0,0.2,0,0.3-0.3,0.3c-1.9,0-3.8,0-5.7,0c-0.2,0-0.3,0-0.3-0.3C85.6,108.6,85.6,108,85.6,107.4z"/>
		<path class="st1" d="M109.3,107.3c0,0.7,0,1.3,0,1.9c0,0.1-0.2,0.2-0.3,0.2c-0.9,0-1.9,0-2.8,0c-0.9,0-1.8,0-2.7,0
			c-0.2,0-0.3-0.1-0.3-0.3c0-0.5,0-1,0-1.5c0-0.2,0.1-0.3,0.3-0.3C105.3,107.4,107.3,107.3,109.3,107.3z"/>
		<path class="st1" d="M100.7,107.4c0,0.6,0,1.1,0,1.7c0,0.3-0.1,0.4-0.4,0.4c-1.9,0-3.7,0-5.6,0c-0.3,0-0.3-0.1-0.3-0.3
			c0-0.5,0-1,0-1.5c0-0.2,0.1-0.3,0.3-0.3c1.9,0,3.9,0,5.8,0C100.5,107.4,100.6,107.4,100.7,107.4z"/>
		<path class="st1" d="M82.9,107.4c0,0.7,0,1.3,0,1.9c0,0.1-0.1,0.2-0.2,0.2c-1.3,0-2.6,0-3.9,0c0,0,0,0-0.1,0c0-0.6,0-1.2,0-1.9
			c0-0.1,0.1-0.2,0.2-0.2C80.3,107.3,81.6,107.4,82.9,107.4z"/>
		<path class="st1" d="M114.1,109.4c-0.7,0-1.4,0-2.1,0c-0.2,0-0.3-0.1-0.3-0.3c0-0.5,0-1.1,0-1.6c0-0.1,0.2-0.2,0.2-0.2
			c1.5,0,2.9,0,4.4,0c0.2,0,0.3,0.1,0.3,0.3c0,0.5,0,1.1,0,1.6c0,0.2-0.1,0.2-0.3,0.2C115.6,109.5,114.8,109.5,114.1,109.4
			C114.1,109.4,114.1,109.4,114.1,109.4z"/>
		<path class="st1" d="M128.9,85.2c0.2-12.3,10.5-22.4,22.8-22.2c12.5,0.1,22.9,10,22.7,23c-0.2,12.5-10.2,22.6-23,22.4
			C138.2,108.3,128.8,97.6,128.9,85.2z M152.2,107.5c11.7-0.1,22.1-10.5,21.2-23.5c-0.8-10.7-9.8-20.2-21.9-20.2
			c-12.3,0-21.8,10.1-21.8,21.8C129.8,97.8,139.7,107.9,152.2,107.5z"/>
		<path class="st1" d="M170.4,67.8c-0.4,0-0.9-0.5-0.9-0.9c0-0.5,0.4-0.9,0.9-0.9c0.5,0,0.9,0.4,0.9,0.9
			C171.3,67.4,170.9,67.8,170.4,67.8z M170.4,66.2c-0.2,0-0.3,0-0.3,0c-0.1,0.1-0.2,0.2-0.3,0.3c0.1,0,0.2,0.1,0.3,0.1
			c0.2,0,0.4,0,0.5,0c0.1,0,0.1,0,0.2-0.1c0-0.1,0-0.2-0.1-0.2C170.7,66.3,170.5,66.3,170.4,66.2z"/>
		<path class="st1" d="M171.2,67.9c-0.3,0.3-0.6,0.5-1,0.5c-0.3,0-0.5-0.1-0.7-0.5C170.1,68.3,170.7,68.2,171.2,67.9z"/>
		<path class="st1" d="M133.7,66.9c0,0.5-0.5,0.9-1,0.9c-0.4,0-0.8-0.4-0.8-0.9c0-0.5,0.5-0.9,1-0.9C133.3,66,133.7,66.4,133.7,66.9
			z M132.2,66.6c0.4,0,0.7,0,1,0c0.1,0,0.2-0.1,0.2-0.1c0-0.1-0.1-0.2-0.2-0.2c-0.2,0-0.4-0.1-0.6-0.1
			C132.4,66.2,132.3,66.3,132.2,66.6z"/>
		<path class="st1" d="M133.6,67.8c-0.1,0.3-0.4,0.5-0.8,0.5c-0.4,0-0.7-0.1-0.8-0.6C132.5,68.3,133.1,68.1,133.6,67.8z"/>
		<path class="st1" d="M170.4,105.4c-0.5,0-0.9-0.4-0.9-0.9c0-0.4,0.5-0.9,0.9-0.9c0.4,0,1,0.5,1,1
			C171.4,104.9,170.9,105.4,170.4,105.4z M171,104.4c0-0.3-0.1-0.4-0.3-0.4c-0.3,0-0.5,0.1-0.8,0.1c0,0.1,0.1,0.2,0.1,0.3
			C170.3,104.4,170.6,104.4,171,104.4z"/>
		<path class="st1" d="M169.9,105.6c0.2,0,0.4,0,0.6,0c0.2,0,0.4,0,0.7-0.1c-0.1,0.1-0.2,0.2-0.3,0.3
			C170.5,105.8,170.1,106,169.9,105.6z"/>
		<path class="st1" d="M133.7,104.5c0,0.5-0.4,0.9-0.9,0.9c-0.5,0-0.9-0.4-0.9-0.9c0-0.5,0.5-1,0.9-0.9
			C133.3,103.6,133.7,104,133.7,104.5z M132.8,103.9c-0.2,0-0.3,0-0.4,0c-0.1,0-0.2,0.2-0.2,0.2c0.1,0.1,0.2,0.1,0.3,0.2
			c0.2,0,0.4,0,0.7,0c0.1,0,0.2-0.1,0.2-0.1c-0.1-0.1-0.1-0.2-0.2-0.2C133.1,104,132.9,103.9,132.8,103.9z"/>
		<path class="st1" d="M131.8,104.9c0.1,0.7,1.2,0.8,1.7,0.5c-0.2,0.3-0.5,0.5-1,0.4c-0.4,0-0.9-0.4-0.9-0.7
			C131.6,105.1,131.7,105,131.8,104.9C131.7,104.9,131.8,104.9,131.8,104.9z"/>
		<path class="st1" d="M21,85.3C21.2,72.7,31.4,63,44.2,63C56.3,63,67,73.4,66.5,86.4c-0.5,11.9-9.7,22.1-22.8,22
			C31,108.4,20.8,98,21,85.3z M65.6,85.6c0.1-11.7-9.5-21.8-21.7-21.8c-12.2,0-21.9,9.8-21.9,21.7c-0.1,12.1,9.9,22.1,22,22
			C55.7,107.4,65.6,97.8,65.6,85.6z"/>
		<path class="st1" d="M24.9,105.4c-0.5,0-0.9-0.4-0.9-0.9c0-0.5,0.5-0.9,0.9-0.9c0.5,0,0.9,0.5,0.9,0.9
			C25.8,105,25.5,105.4,24.9,105.4z M25.3,104.3C25.3,104.3,25.3,104.4,25.3,104.3c0.1,0,0.2,0,0.2-0.1c0-0.1-0.1-0.2-0.1-0.2
			c-0.3,0-0.6,0-0.9,0c0,0-0.1,0.2-0.1,0.2c0,0.1,0.1,0.1,0.2,0.1C24.9,104.4,25.1,104.3,25.3,104.3z"/>
		<path class="st1" d="M24.4,105.6c0.4,0,0.8,0,1.1,0C25.3,105.9,24.6,105.9,24.4,105.6z"/>
		<path class="st1" d="M62.6,66c0.5,0,0.9,0.4,0.9,0.9c0,0.4-0.5,0.9-1,0.9c-0.4,0-0.9-0.5-0.9-1C61.7,66.4,62.1,66,62.6,66z
			 M61.9,66.6c0.4,0,0.8,0,1.2,0c-0.1-0.4-0.4-0.3-0.7-0.3C62.3,66.2,62,66.2,61.9,66.6z"/>
		<path class="st1" d="M61.8,67.9c0.6,0.4,1.1,0.3,1.6-0.1c-0.2,0.4-0.5,0.5-0.9,0.5C62.2,68.3,62,68.2,61.8,67.9z"/>
		<path class="st1" d="M24.9,67.8c-0.5,0-0.9-0.4-0.9-0.9c0-0.5,0.4-0.9,0.9-0.9c0.5,0,0.9,0.4,0.9,0.9
			C25.9,67.4,25.5,67.8,24.9,67.8z M25.5,66.6c0-0.3-0.3-0.4-0.5-0.4c-0.2,0-0.4,0.1-0.6,0.2c0,0.1,0.1,0.2,0.1,0.2
			C24.8,66.6,25.2,66.6,25.5,66.6z"/>
		<path class="st1" d="M24.1,67.9c0.6,0.4,1.1,0.4,1.7,0.1c-0.1,0.3-0.3,0.4-0.7,0.5C24.7,68.4,24.3,68.3,24.1,67.9z"/>
		<path class="st1" d="M62.6,103.6c0.5,0,0.9,0.5,0.9,1c0,0.3-0.5,0.8-0.9,0.8c-0.5,0-1-0.4-0.9-0.9C61.7,104,62.1,103.6,62.6,103.6
			z M63.2,104.3c-0.3-0.4-0.8-0.5-1-0.3c-0.1,0.1-0.1,0.2-0.1,0.2c0.1,0,0.2,0.1,0.3,0.1c0.2,0,0.4,0,0.6,0
			C62.9,104.4,63,104.3,63.2,104.3z"/>
		<path class="st1" d="M63.6,104.9c0.1,0.4-0.2,0.7-0.6,0.9c-0.5,0.2-1,0-1.2-0.4C62.6,105.8,63,105.7,63.6,104.9z"/>
		<path class="st1" d="M108.5,67.9c0,0.1,0,0.3,0,0.4c0,0.3,0,0.5,0,0.8c0,0.1-0.1,0.1-0.1,0.2c0,0-0.1-0.1-0.1-0.1
			c0-0.4,0-0.8,0.1-1.3C108.4,67.9,108.5,67.9,108.5,67.9z"/>
		<path class="st1" d="M109.9,69.3c-0.3-0.1-0.4-1.2-0.1-1.4C109.8,68.3,109.9,68.8,109.9,69.3z"/>
		<path class="st1" d="M109,67.9c0.2,0.5,0.2,1.3,0,1.5C109,68.8,109,68.3,109,67.9z"/>
		<path class="st1" d="M106.3,69.1c0.1-0.5,0.1-1,0.2-1.4c0.1,0,0.1,0,0.2,0c-0.1,0.5-0.1,1-0.2,1.4
			C106.4,69.1,106.4,69.1,106.3,69.1z"/>
		<path class="st1" d="M107,69.2c0.1-0.5,0.1-1,0.2-1.4c0,0,0.1,0,0.1,0c-0.1,0.5-0.1,1-0.2,1.5C107.1,69.2,107,69.2,107,69.2z"/>
		<path class="st1" d="M111,67.7c0.1,0.5,0.2,1,0.3,1.5c0,0-0.1,0-0.1,0c-0.2-0.5-0.2-1-0.3-1.4C110.9,67.7,110.9,67.7,111,67.7z"/>
		<path class="st1" d="M110.4,69.3c-0.1-0.5-0.1-1-0.2-1.5C110.5,68,110.6,68.9,110.4,69.3z"/>
		<path class="st1" d="M111.6,67.5c0.1,0.5,0.2,1,0.3,1.4c-0.1,0-0.1,0-0.2,0c-0.1-0.5-0.2-1-0.3-1.5
			C111.5,67.5,111.5,67.5,111.6,67.5z"/>
		<path class="st1" d="M112.2,67.4c0.1,0.5,0.3,1,0.4,1.4c0,0-0.1,0-0.1,0c-0.1-0.5-0.3-1-0.4-1.5C112.1,67.4,112.1,67.4,112.2,67.4
			z"/>
		<path class="st1" d="M106.1,67.6c-0.1,0.5-0.2,0.9-0.3,1.4c-0.1,0-0.1,0-0.2,0c0.1-0.5,0.2-0.9,0.3-1.4
			C106,67.6,106,67.6,106.1,67.6z"/>
		<path class="st1" d="M107.9,67.9c0,0.5-0.1,0.9-0.1,1.4c-0.1,0-0.1,0-0.2,0c0-0.5,0.1-0.9,0.1-1.4
			C107.8,67.8,107.9,67.8,107.9,67.9z"/>
		<path class="st1" d="M103.7,66.9c-0.2,0.4-0.4,0.9-0.5,1.3c0,0-0.1,0-0.1-0.1c0.2-0.4,0.4-0.9,0.5-1.3
			C103.6,66.8,103.7,66.9,103.7,66.9z"/>
		<path class="st1" d="M113.1,68.7c-0.2-0.5-0.3-1-0.5-1.5C112.9,67.5,113.2,68.4,113.1,68.7z"/>
		<path class="st1" d="M104.9,67.3c-0.1,0.5-0.3,0.9-0.4,1.4c0,0-0.1,0-0.1,0c0.1-0.5,0.3-0.9,0.4-1.4
			C104.8,67.3,104.8,67.3,104.9,67.3z"/>
		<path class="st1" d="M105,68.8c0.1-0.4,0.2-0.9,0.4-1.3c0,0,0.1,0,0.1,0c-0.1,0.4-0.2,0.9-0.4,1.3C105.1,68.8,105,68.8,105,68.8z"
			/>
		<path class="st1" d="M114.4,68.1c-0.2-0.4-0.4-0.8-0.6-1.2c0,0,0.1,0,0.1-0.1c0.2,0.4,0.4,0.8,0.6,1.2
			C114.5,68.1,114.4,68.1,114.4,68.1z"/>
		<path class="st1" d="M103.7,68.4c0.2-0.4,0.3-0.9,0.5-1.3C104.3,67.3,104,68.2,103.7,68.4z"/>
		<path class="st1" d="M113.8,68.4c-0.2-0.4-0.3-0.9-0.5-1.3c0,0,0.1,0,0.1,0c0.2,0.4,0.3,0.9,0.5,1.3
			C113.9,68.4,113.8,68.4,113.8,68.4z"/>
		<path class="st1" d="M88.7,69.2c-0.1-0.5-0.1-1-0.2-1.5c0.1,0,0.1,0,0.2,0c0,0.5,0.2,1,0.1,1.5C88.8,69.2,88.8,69.2,88.7,69.2z"/>
		<path class="st1" d="M87.5,67.8c0,0.4,0.1,0.9,0.1,1.3c0,0,0,0.1-0.1,0.1c0,0-0.1,0-0.1-0.1C87.4,68.7,87.4,68.2,87.5,67.8
			C87.4,67.8,87.4,67.8,87.5,67.8z"/>
		<path class="st1" d="M86.7,69.2c0-0.5,0-0.9,0-1.4c0,0,0.1,0,0.1,0C86.8,68.3,86.8,68.8,86.7,69.2C86.8,69.2,86.8,69.2,86.7,69.2z
			"/>
		<path class="st1" d="M81.4,66.8c-0.2,0.4-0.3,0.9-0.5,1.3c0,0-0.1,0-0.1,0c0-0.5,0.4-0.9,0.5-1.3C81.3,66.8,81.4,66.8,81.4,66.8z"
			/>
		<path class="st1" d="M84.1,69.2c-0.2-0.3-0.1-1.3,0.3-1.6C84.3,68.2,84.2,68.7,84.1,69.2z"/>
		<path class="st1" d="M88.1,69.2c0-0.5-0.1-1-0.1-1.5c0,0,0.1,0,0.1,0c0.1,0.5,0.1,1,0.2,1.5C88.2,69.2,88.1,69.2,88.1,69.2z"/>
		<path class="st1" d="M90.1,68.9c-0.1-0.5-0.2-1-0.4-1.4c0.1,0,0.1,0,0.2,0c0.1,0.5,0.2,1,0.4,1.4C90.2,68.9,90.2,68.9,90.1,68.9z"
			/>
		<path class="st1" d="M85.3,69.2c0.1-0.5,0.1-0.9,0.2-1.4c0.1,0,0.1,0,0.2,0c0,0.5-0.1,0.9-0.1,1.4C85.5,69.2,85.4,69.2,85.3,69.2z
			"/>
		<path class="st1" d="M85,67.7c0,0.6-0.1,1-0.1,1.5C84.6,69.1,84.7,68.1,85,67.7z"/>
		<path class="st1" d="M90.5,67.3c0.2,0.5,0.3,0.9,0.5,1.4C90.7,68.5,90.3,67.6,90.5,67.3z"/>
		<path class="st1" d="M81.5,68.4c-0.2-0.3,0-0.7,0.3-1.4c0,0,0.1,0,0.1,0C81.8,67.5,81.7,68,81.5,68.4z"/>
		<path class="st1" d="M82.7,68.7c0.1-0.4,0.2-0.9,0.4-1.3c0,0,0.1,0,0.1,0c-0.1,0.4-0.2,0.9-0.3,1.3C82.8,68.8,82.7,68.8,82.7,68.7
			z"/>
		<path class="st1" d="M86.2,67.8c0,0.5,0,1,0,1.4C86,69.1,86,68.2,86.2,67.8z"/>
		<path class="st1" d="M89.3,67.6c0.1,0.5,0.2,1,0.3,1.4c-0.1,0-0.1,0-0.2,0c-0.1-0.5-0.2-1-0.3-1.4C89.2,67.6,89.2,67.6,89.3,67.6z
			"/>
		<path class="st1" d="M83.8,67.6c-0.1,0.4-0.2,0.9-0.3,1.3c-0.1,0-0.1,0-0.2,0c0.1-0.4,0.2-0.9,0.3-1.3
			C83.7,67.6,83.7,67.6,83.8,67.6z"/>
		<path class="st1" d="M82.6,67.3c-0.1,0.4-0.3,0.9-0.4,1.3c-0.1,0-0.1,0-0.2-0.1c0.1-0.4,0.3-0.9,0.4-1.3
			C82.5,67.3,82.5,67.3,82.6,67.3z"/>
		<path class="st1" d="M91.1,67c0.2,0.4,0.3,0.9,0.5,1.3c0,0-0.1,0-0.1,0c-0.2-0.4-0.4-0.9-0.5-1.3C91,67.1,91,67,91.1,67z"/>
		<path class="st1" d="M92.1,68.2c-0.2-0.4-0.4-0.9-0.6-1.3c0,0,0.1,0,0.1-0.1c0.2,0.4,0.4,0.9,0.6,1.3
			C92.2,68.1,92.1,68.2,92.1,68.2z"/>
		<path class="st1" d="M80.2,67.7c0.2-0.3,0.3-0.5,0.5-0.8c0,0,0,0,0.1,0C80.6,67.2,80.4,67.5,80.2,67.7
			C80.3,67.7,80.2,67.7,80.2,67.7z"/>
		<path class="st1" d="M26.3,56.5c0,1.2-1,1.9-1.9,1.9c-1,0-1.8-0.9-1.8-1.9c0.1-1,0.8-1.7,1.7-1.8C25.6,54.8,26.3,55.7,26.3,56.5z
			 M25.4,57.7c0.7-0.5,0.8-1.3,0.3-2c-0.5-0.6-1.6-0.7-2.1-0.3c-0.6,0.6-0.6,1.5,0,2.2c0.3,0.4,1.1,0.5,1.4,0.2
			c-0.5-0.2-1-0.4-1.3-0.8c-0.2-0.3-0.2-0.4,0.1-0.5c0.6-0.2,1.2,0.1,1.7,0.1c0,0,0,0.1,0.1,0.1c-0.2,0.2-0.4,0.5-0.6,0.7
			C25.1,57.6,25.2,57.7,25.4,57.7z"/>
		<path class="st1" d="M169,56.6c0-1,0.8-1.9,1.9-1.8c0.8,0,1.8,0.7,1.7,1.9c0,0.9-0.9,1.8-1.8,1.8C169.8,58.5,169,57.7,169,56.6z
			 M170.8,55.2c-0.9,0.1-1.4,0.7-1.4,1.4c0,0.7,0.9,1.5,1.5,1.5c0.8,0,1.4-0.7,1.4-1.5C172.2,55.9,171.7,55.2,170.8,55.2z"/>
		<path class="st1" d="M25.9,44c0,0.3,0,0.6,0,0.9c0,0.4,0,0.8,0,1.2c0,0.2-0.1,0.3-0.3,0.3c-0.4,0-0.8,0-1.3,0
			c-0.2,0-0.3,0-0.3-0.2c0-0.7,0-1.5,0-2.2C24.6,44,25.2,44,25.9,44z"/>
		<path class="st1" d="M24,43.8c0-0.1,0-0.2,0-0.3c0.6,0,1.2,0,1.7,0c0.1,0,0.1,0,0.2,0.1c0,0,0,0.1,0,0.2c-0.1,0-0.1,0-0.2,0
			C25.1,43.8,24.6,43.8,24,43.8z"/>
		<path class="st1" d="M175.4,45.7c-0.7-0.7-1.4-1.3-2.1-2c-0.2-0.2-0.3-0.1-0.5,0c-0.6,0.6-1.2,1.2-1.8,1.8
			c-0.1,0.1-0.1,0.1-0.2,0.3c-0.6-0.5-0.9-1.2-1-2c-0.1-1.1,0.2-2,1-2.7c0.5,0.5,0.9,0.9,1.4,1.4c0.2,0.2,0.4,0.5,0.7,0.7
			c0.1,0.1,0.2,0.2,0.4,0c0.6-0.6,1.2-1.1,1.7-1.7c0.1-0.1,0.2-0.3,0.3-0.4C176.8,42.3,176.5,44.7,175.4,45.7z"/>
		<path class="st1" d="M171.6,41.4c0.2,0.3,0.5,0.5,0.7,0.8c0.1,0.1,0.2,0.2,0.2,0.2c0.3,0.3,0.7,0.3,1,0.1
			c-0.2,0.1-0.3,0.2-0.6,0.4c-0.5-0.5-1-0.9-1.5-1.4C171.5,41.5,171.6,41.4,171.6,41.4z"/>
		<path class="st1" d="M173.3,41.8c-0.5,0.3-1,0.1-1.4-0.6C172.3,41.5,172.7,42,173.3,41.8z"/>
		<path class="st1" d="M172.7,46.6c0.4,0,0.7-0.1,1.1-0.1c0,0,0,0,0,0.1c-0.4,0-0.7,0.1-1.1,0.1C172.7,46.6,172.7,46.6,172.7,46.6z"
			/>
		<path class="st1" d="M171.6,46.3c0.3-0.2,0.6-0.3,0.9-0.5c0,0,0,0.1,0,0.1C172.3,46,172,46.2,171.6,46.3
			C171.7,46.4,171.6,46.3,171.6,46.3z"/>
		<path class="st1" d="M162.1,45.8c-1.4-1-1.4-3.7-0.1-4.6c0.7,0.7,1.4,1.4,2.1,2c0.2,0.2,0.4,0,0.6-0.1c0.3-0.3,0.6-0.6,0.9-0.9
			c0.3-0.3,0.7-0.6,1-0.9c1.3,1,1.4,3.4-0.2,4.7c0.2-0.3-0.1-0.5-0.2-0.6c-0.5-0.5-0.9-1-1.4-1.4c-0.1-0.1-0.2-0.2-0.3-0.3
			c-0.1,0-0.2,0-0.3,0.1c-0.5,0.5-0.9,0.9-1.4,1.4C162.5,45.3,162.3,45.5,162.1,45.8z"/>
		<path class="st1" d="M163,46.5c0-0.1,0-0.2,0-0.2c0.2-0.2,0.5-0.3,0.7-0.5c0.5-0.3,1-0.2,1.4,0c0.2,0.1,0.5,0.3,0.6,0.5
			c-0.1-0.1-0.2-0.1-0.3-0.2c-0.2-0.1-0.5-0.3-0.7-0.4c-0.6-0.2-1,0.1-1.5,0.5C163.1,46.3,163.1,46.4,163,46.5z"/>
		<path class="st1" d="M164.6,41c-0.7,0.3-1.1-0.4-1.6-0.6C163.6,40.5,163.9,41.2,164.6,41z"/>
		<path class="st1" d="M164.8,46.6c-0.4,0-0.8,0-1.2,0.1C164,46.4,164.4,46.4,164.8,46.6z"/>
		<path class="st1" d="M165,45.1c-0.4-0.3-0.8-0.4-1.2,0C164,44.7,164.5,44.7,165,45.1z"/>
		<path class="st1" d="M164,42.5c0.3,0.2,0.6,0.2,0.9-0.1C164.6,42.9,164.3,42.9,164,42.5z"/>
		<path class="st1" d="M166.1,46.2c-0.2-0.2-0.4-0.3-0.6-0.5c0,0,0,0,0-0.1c0.2,0.2,0.4,0.3,0.6,0.5
			C166.2,46.1,166.2,46.1,166.1,46.2z"/>
		<path class="st1" d="M111.5,80.8c-8.8,0-17.7,0-26.5,0c-0.1,0-0.2-0.1-0.3-0.1c0.5-0.2,26.5-0.2,26.8,0
			C111.5,80.7,111.5,80.8,111.5,80.8z"/>
		<path class="st1" d="M111.5,81.5c-0.5,0.2-26.5,0.2-26.8,0c0.2,0,0.3,0,0.5,0c6.2,0,12.4,0,18.5,0c2.5,0,4.9,0,7.4,0
			C111.2,81.4,111.4,81.5,111.5,81.5z"/>
		<path class="st1" d="M114.2,87.6c0,1.8,0,3.6,0,5.4c0,1-0.4,1.5-1.5,1.5c-8.3,0-16.5,0-24.8,0c-1.3,0-2.6,0-4,0
			c-1.4,0-1.8-0.4-1.8-1.8c0-1.6,0-3.1,0-4.7c0-0.3,0.1-0.4,0.4-0.4c0.9,0,1.7,0,2.6,0c0.2,0,0.3,0,0.4,0.3c0.4,2,1.6,3.2,3.5,3.6
			c0.4,0.1,0.9,0.1,1.3,0.1c4.5,0,8.9,0,13.4,0c1,0,2,0,3,0c1.9-0.1,3.5-1.8,3.7-3.6c0-0.1,0.1-0.3,0.2-0.3
			C111.9,87.6,113,87.6,114.2,87.6z M84.8,92.6C84.8,92.7,84.8,92.7,84.8,92.6c0.1,0.6,0.2,0.6,0.7,0.6c0.2,0,0.5,0,0.7,0
			c-0.3-0.9-0.5-1.8-0.8-2.7c-0.2-0.7-0.2-0.7-1-0.7c-0.2,0-0.3,0.1-0.3,0.2c-0.2,0.8-0.5,1.6-0.7,2.3c-0.2,0.9-0.2,0.9,0.7,0.9
			c0.2,0,0.4-0.1,0.4-0.3C84.6,92.8,84.7,92.7,84.8,92.6z"/>
		<path class="st1" d="M104,86.8c0-1.3,1-2.1,2.1-2.1c1.1,0,2.2,1,2.2,2c0,1.3-1,2.3-2.2,2.3C104.9,89,104,88.1,104,86.8z
			 M107.7,87.4c-0.2-0.2-0.4-0.3-0.5-0.5c0.2-0.1,0.3-0.2,0.5-0.3c-0.1-0.5-0.4-0.8-0.8-1.2c0,0.3-0.1,0.6-0.4,0.6
			c-0.4-0.1,0-0.4-0.1-0.6c-0.5,0-0.9,0-1.3,0.4c0.1,0.2,0.2,0.4,0.2,0.6c0,0-0.1,0-0.1,0.1c-0.2-0.1-0.3-0.1-0.6-0.2
			c0,0.3-0.1,0.6-0.1,0.9c0,0.4,0.1,0.5,0.5,0.4c0.1,0,0.1,0,0.2,0c0,0.1,0,0.1,0,0.2c0,0.2-0.2,0.4-0.1,0.5
			c0.1,0.1,0.3,0.2,0.5,0.3c0.2,0.1,0.4,0.1,0.6,0.1c0.2,0,0.3-0.1,0.2-0.3c0-0.1,0.1-0.3,0.1-0.4c0.1,0.1,0.2,0.1,0.3,0.2
			c0.1,0.1,0.2,0.2,0.3,0C107.4,87.8,107.6,87.6,107.7,87.4z"/>
		<path class="st1" d="M103.6,86.4c0-1.1,1.1-2,2.2-2C104.7,84.7,104,85.3,103.6,86.4z"/>
		<path class="st1" d="M92.1,86.9c0,1-0.9,2.2-2.3,2.2c-1.1-0.1-2-1-2-2.2c0-1.1,1-2.1,2.1-2.1C91.2,84.8,92.2,85.7,92.1,86.9z
			 M91.4,87.5c0.2-0.3,0.2-0.7,0.1-1.1c0-0.2-0.1-0.3-0.4-0.1c-0.1,0-0.2,0-0.3,0c0-0.1,0-0.2,0-0.3c0-0.1,0.1-0.2,0.2-0.3
			c-0.3-0.4-0.7-0.4-1.2-0.4c-0.1,0-0.2,0.1-0.2,0.2c0,0.1,0,0.2,0,0.2c0,0.1-0.1,0.2-0.2,0.3c-0.1-0.1-0.1-0.2-0.2-0.3
			c0-0.1,0-0.1-0.1-0.2c-0.4,0.1-0.6,0.3-0.8,0.7c-0.2,0.4-0.2,0.4,0.2,0.5c0.1,0,0.1,0.1,0.2,0.1c-0.2,0.1-0.3,0.2-0.4,0.3
			c-0.1,0.1-0.2,0.2-0.1,0.3c0.2,0.3,0.4,0.5,0.6,0.8c0.2-0.1,0.3-0.3,0.5-0.4c0,0,0,0,0.1,0c0,0.2,0,0.5,0,0.7
			c0.5,0.1,0.9,0,1.4-0.3C91,88.2,91,88,91,88c0-0.2-0.1-0.3-0.2-0.5C91,87.5,91.2,87.5,91.4,87.5z"/>
		<path class="st1" d="M89.6,84.4c-1.2,0.3-1.9,0.9-2.2,2C87.2,85.6,88.5,84.3,89.6,84.4z"/>
		<path class="st1" d="M151.4,106.1c-10.6,0.1-20.4-8.9-20.2-20.8c0.2-11.3,9.5-20,20.1-20c11.3,0,20.9,8.8,20.6,20.9
			C171.7,97.7,162.3,106,151.4,106.1z M171.1,85.5c0-10.3-8.5-19.4-19.5-19.3c-10.8,0-19.1,8.7-19.4,18.9
			c-0.3,10.9,8.4,19.9,19.3,20.1C161.9,105.3,171.1,96.8,171.1,85.5z"/>
		<path class="st1" d="M130.9,80.9c0.2-0.6,0.3-1.3,0.5-1.9c0.5-1.7,1.2-3.3,2.1-4.8c1.3-2.1,2.8-4,4.7-5.5c1.2-0.9,2.5-1.7,3.8-2.3
			c1.6-0.8,3.4-1.3,5.1-1.7c3.1-0.6,6.2-0.6,9.2,0.2c2.7,0.6,5.3,1.8,7.6,3.4c1.4,0.9,2.6,2.1,3.6,3.3c2,2.4,3.4,5.1,4.2,8.2
			c0.1,0.4,0.2,0.8,0.3,1.3c-0.1-0.4-0.3-0.8-0.4-1.2c-1.2-3.9-3.3-7.2-6.4-9.8c-2.2-1.9-4.8-3.3-7.6-4.2c-2.8-0.8-5.7-1.1-8.6-0.8
			c-3.1,0.3-6,1.2-8.6,2.8c-3.1,1.9-5.6,4.5-7.4,7.7c-0.7,1.3-1.2,2.6-1.7,3.9c-0.2,0.4-0.2,0.9-0.4,1.4
			C131.1,80.8,131,80.9,130.9,80.9C131,81,131,80.9,130.9,80.9z"/>
		<path class="st1" d="M138.8,102.5c4.3,3.1,9.1,4.2,14.3,4c5.2-0.3,9.6-2.6,13.5-6c-3.4,3.6-7.6,5.9-12.6,6.5
			C148.4,107.7,143.3,106,138.8,102.5z"/>
		<path class="st1" d="M44,106.1C33,106,23.6,97.7,23.4,86.2C23.1,74.2,32.6,65.4,44,65.3c10.7,0,20.1,8.8,20.2,20.3
			C64.2,96.7,55,106.1,44,106.1z M43.9,105.2c10.4,0,19.7-8.6,19.4-20.2c-0.3-9.7-8.4-18.8-19.6-18.7C32.9,66.3,24.3,75,24.3,85.6
			C24.2,96.3,33,105.2,43.9,105.2z"/>
		<path class="st1" d="M64.4,81.1c-0.7-3-2-5.8-3.9-8.3c-2-2.6-4.5-4.6-7.5-6c-1.8-0.8-3.7-1.4-5.7-1.7c-2.1-0.3-4.2-0.4-6.3-0.1
			c-5.2,0.7-9.6,3-13.1,6.9c-1.7,1.9-2.9,4-3.8,6.3c-0.3,0.7-0.5,1.4-0.7,2.1c0,0.1-0.1,0.2-0.2,0.4c0.1-0.3,0.2-0.6,0.2-0.9
			c0.7-2.5,1.7-4.8,3.2-6.9c1.7-2.4,3.8-4.3,6.3-5.7c1.8-1,3.6-1.8,5.6-2.2c2.7-0.6,5.4-0.9,8.1-0.5c1.4,0.2,2.7,0.5,4,0.9
			c2.7,0.8,5,2.2,7.1,4c1.5,1.2,2.6,2.7,3.7,4.3c0.9,1.4,1.6,3,2.1,4.6c0.3,0.8,0.5,1.7,0.7,2.5C64.4,80.9,64.4,81,64.4,81.1z"/>
		<path class="st1" d="M56.5,102.5c-7.1,6.1-19.6,6.8-27.7-2c0.3,0.2,0.6,0.5,0.9,0.7c2.7,2.3,5.7,3.8,9.1,4.7
			c2.6,0.7,5.3,0.7,8,0.3c2.3-0.3,4.4-0.9,6.5-1.9c1-0.5,2-1.1,3-1.7C56.3,102.6,56.4,102.6,56.5,102.5z"/>
		<path class="st1" d="M23.4,56.4c0.2-1,1-1,1.8-0.8c0.4,0.1,0.8,0.7,0.5,1.1c-0.1-0.2-0.1-0.6-0.3-0.8c-0.2-0.2-0.5-0.3-0.8-0.3
			C24.1,55.7,23.6,55.8,23.4,56.4z"/>
		<path class="st1" d="M172,56.8c-0.3,0.3-0.5,0.6-0.8,0.8c-0.3,0.2-0.6,0.3-0.8-0.1c-0.1-0.1-0.3-0.2-0.4-0.3
			c-0.1-0.1-0.1-0.3-0.1-0.4c0,0,0.2-0.1,0.3-0.1C170.7,56.6,171.3,56.5,172,56.8z"/>
		<path class="st1" d="M172,56.4c-0.2-0.4-0.4-0.7-0.9-0.8c0,0,0-0.1,0-0.1c0.1,0,0.2,0,0.3,0C171.8,55.8,172,56.1,172,56.4z"/>
		<path class="st1" d="M170.9,55.5c-0.4,0.1-0.7,0.3-1.1,0.4c0,0,0-0.1-0.1-0.1c0.3-0.2,0.7-0.3,1-0.5
			C170.9,55.4,170.9,55.4,170.9,55.5z"/>
		<path class="st1" d="M85,92.1c-0.5,0-0.7,0.1-0.7,0.4c0,0.1-0.1,0.2-0.2,0.3c-0.1,0.1-0.3,0-0.2-0.2c0.2-0.8,0.5-1.5,0.7-2.3
			c0-0.1,0.2-0.2,0.2-0.2c0.1,0,0.2,0.1,0.3,0.2c0.1,0.3,0.2,0.6,0.3,1c0.1,0.4,0.2,0.7,0.3,1.1c0,0.1,0,0.3,0,0.4
			c-0.1-0.1-0.2-0.1-0.3-0.3c-0.1-0.1-0.1-0.3-0.1-0.4C85,92.2,85,92.1,85,92.1z"/>
		<path class="st1" d="M160.6,85.4c-0.1-0.6-0.2-1.2-0.3-1.8c-0.7-2.9-2.4-5-5.1-6.2c-3.9-1.7-7.9-0.8-10.7,2.6
			c-1.2,1.4-1.8,3.1-1.9,5c0,0.3-0.1,0.3-0.4,0.3c-2.7,0-5.4,0-8.1,0c-0.5,0-0.5,0-0.4-0.4c0.1-3.2,1.1-6.2,2.8-9
			c1.7-2.7,4.1-4.9,7-6.3c3.3-1.7,6.8-2.3,10.4-1.8c4,0.5,7.5,2.2,10.3,5.1c2.6,2.6,4.3,5.8,5,9.5c0.2,0.9,0.2,1.8,0.3,2.7
			c0,0.2-0.1,0.3-0.3,0.3c-2.4,0-4.9,0-7.3,0C161.5,85.4,161.1,85.4,160.6,85.4z"/>
		<path class="st1" d="M151.6,93.8c-4.2,0-8.1-3.3-8.2-8.1c-0.1-4.4,3.7-8.2,8-8.2c4.7,0,8.4,3.6,8.4,8.2
			C159.8,90.6,155.6,93.9,151.6,93.8z M158.9,85.7c0-4.1-3.2-7.3-7.6-7.2c-4.1,0.1-7.1,3.6-7,7.6c0.2,3.8,3.4,7.1,7.7,6.9
			C155.8,92.8,158.9,89.6,158.9,85.7z"/>
		<path class="st1" d="M134.9,92.8c3.7,6.8,9.4,10.8,17.4,10.6c7.9-0.2,13.2-4.6,16.4-11.5c-1.9,6.1-7.1,11.7-15.5,12.3
			C143.9,104.9,137.2,99.1,134.9,92.8z"/>
		<path class="st1" d="M30.3,85.4c-1.4,0-2.8,0-4.1,0c-0.2,0-0.3,0-0.3-0.3c0.1-2.4,0.6-4.8,1.7-7c1.7-3.6,4.3-6.4,7.9-8.3
			c3.4-1.8,7-2.5,10.8-2c3.6,0.5,6.9,2,9.6,4.5c3.5,3.1,5.4,7.1,5.9,11.7c0,0.3,0,0.7,0.1,1c0,0.2-0.1,0.3-0.3,0.3
			c-1.6,0-3.2,0-4.8,0c-1.1,0-2.3,0-3.4,0c-0.3,0-0.4-0.1-0.4-0.4c-0.2-2.7-1.4-4.8-3.4-6.5c-1.3-1.1-2.8-1.6-4.5-1.8
			c-3-0.4-5.5,0.6-7.6,2.7c-1.4,1.5-2.2,3.3-2.4,5.4c-0.1,0.7,0.1,0.6-0.7,0.6C32.8,85.4,31.5,85.4,30.3,85.4
			C30.3,85.4,30.3,85.4,30.3,85.4z"/>
		<path class="st1" d="M51.9,85.7c-0.1,4.6-3.6,8.1-8.1,8.2c-4.4,0-8.2-3.4-8.3-8.2c-0.1-4.3,3.7-8.1,8-8.2
			C48.2,77.5,51.9,81.2,51.9,85.7z M36.5,85.7c-0.1,3.7,2.9,7.3,7.4,7.3c3.9,0,7.4-3.4,7.1-7.8c-0.2-3.5-3.1-6.7-7.3-6.7
			C39.7,78.4,36.4,81.7,36.5,85.7z"/>
		<path class="st1" d="M60.4,92.9c-2.2,6.1-8.6,11.5-17.2,11.3c-9.3-0.2-14.9-6.6-16.6-12.6c3.3,7.2,8.6,11.6,16.6,11.7
			C51.2,103.5,56.8,99.6,60.4,92.9z"/>
		<path class="st1" d="M151.6,79.1c3.7,0,6.6,3,6.6,6.8c-0.1,3.2-2.9,6.5-6.7,6.3c-3.6-0.1-6.4-2.9-6.4-6.6
			C145,82.1,148.1,79.1,151.6,79.1z M156.6,84.7c0-0.2,0-0.5-0.1-0.8c-0.6-1.8-1.8-2.8-3.6-3.3c-2-0.6-4.2,0.3-5.4,2
			c-0.5,0.7-0.9,1.6-0.7,2.5c0.1,0.4,0.3,0.6,0.7,0.5c0.4-0.1,0.7-0.3,1.1-0.4c0.8-0.3,1.7-0.6,2.5-0.8c1.1-0.2,2.2,0.1,3.2,0.5
			c0.5,0.2,1.1,0.4,1.6,0.6c0.5,0.1,0.7,0,0.7-0.5C156.5,85,156.5,84.9,156.6,84.7z M145.7,87.5c0.5,2.3,3.1,4.6,6.1,4.4
			c2.7-0.1,5.5-2.4,5.6-4.3c-1.1,2.4-3,4-5.7,4.1C148.8,91.7,146.8,90.2,145.7,87.5z"/>
		<path class="st1" d="M43.7,92.2c-3.6,0-6.6-3-6.5-6.8c0.1-3.4,2.8-6.4,6.6-6.3c3.6,0,6.6,3.1,6.5,6.7
			C50.2,89.4,47.2,92.3,43.7,92.2z M43.8,80.5c-1.2,0-2.2,0.3-3.1,1c-1.1,0.8-1.8,1.8-1.8,3.2c0,0.8,0.3,1,1.1,0.8
			c0.5-0.2,0.9-0.4,1.4-0.5c1-0.4,2-0.7,3-0.6c0.9,0.1,1.7,0.4,2.6,0.8c0.4,0.2,0.7,0.3,1.1,0.4c0.5,0.1,0.7-0.1,0.7-0.5
			c0-0.6,0-1.1-0.3-1.6C47.4,81.6,45.9,80.5,43.8,80.5z M37.9,87.3c0.8,2.9,3.4,5,6.9,4.6c1.8-0.2,4.5-2.3,4.6-3.7
			c-1.4,2.3-3.3,3.7-6.1,3.5C40.6,91.4,38.8,89.9,37.9,87.3z"/>
	</g>
	<g>
		<path class="st2" d="M575,90.8c-0.4-0.6-0.9-1.1-1.4-1.4c0-0.1-0.1-0.1-0.1-0.2c1.5-3.5,2.8-6.8,3.7-9.9c1-3.3,1.5-5.9,1.5-8
			c0-1.9-0.3-3.7-0.9-5.4c-0.6-1.6-1.5-2.9-2.8-4c-0.4-0.5-0.9-1-1.4-1.4c-0.4-0.5-0.9-1-1.4-1.4c-0.4-0.5-0.9-1-1.4-1.4
			c-0.4-0.5-0.9-1-1.4-1.4c-0.4-0.5-0.9-1-1.4-1.4c-0.1-0.2-0.3-0.3-0.4-0.5c0.8-0.3,1.6-0.6,2.4-0.9l2.2-0.7l0.2-2.3
			c0-0.4,0.1-0.8,0.1-1.2c0-2.9-1.1-5.6-3.2-7.6c-0.2-0.2-0.4-0.3-0.5-0.5c-0.3-0.3-0.5-0.6-0.8-0.9c-0.2-0.2-0.4-0.3-0.5-0.5
			c-0.3-0.3-0.5-0.6-0.8-0.9c-0.2-0.2-0.4-0.3-0.5-0.5c-0.3-0.3-0.5-0.6-0.8-0.9c-0.2-0.2-0.4-0.3-0.5-0.5c-0.3-0.3-0.5-0.6-0.8-0.9
			c-0.2-0.2-0.4-0.3-0.5-0.5c-0.3-0.3-0.5-0.6-0.8-0.9c-0.2-0.2-0.4-0.3-0.5-0.5c-0.3-0.3-0.5-0.6-0.8-0.9c-0.2-0.2-0.4-0.3-0.5-0.5
			c-0.3-0.3-0.5-0.6-0.8-0.9c-0.2-0.2-0.4-0.3-0.5-0.5c-0.3-0.3-0.5-0.6-0.8-0.9c-0.2-0.2-0.4-0.3-0.5-0.5c-0.3-0.3-0.5-0.6-0.8-0.9
			c-0.2-0.2-0.4-0.3-0.5-0.5c-0.3-0.3-0.5-0.6-0.8-0.9c-2.3-2.2-5.3-3.4-8.7-3.4h-0.2c-1.5,0-3,0.3-4.5,0.9c-1,0.5-2,0.9-2.9,1.5
			c-7.2,1.9-14.9,2.9-22.8,2.9c-0.7,0-1.4,0-2.1,0c-6.1-0.1-11.5-0.8-16-2l-0.7-0.5l0-0.3l-1.4-1.1l0-0.3l-1.4-1.1l0-0.3l-1.4-1.1
			l0-0.3l-1.4-1.1l0-0.3l-1.4-1.1l0-0.3l-1.4-1.1l0-0.3l-1.4-1.1l0-0.3l-1.4-1.1l0-0.3l-1.6-1.2c-1.8-1.3-3.8-2-6.1-2
			c-0.3,0-0.7,0-1,0.1c-3.7,0.3-6.9,1.8-9.3,4.6c-2.4,2.7-3.6,6-3.6,9.6c0,1.3,0.1,2.6,0.4,4.1l0,0.2c0.8,3.3,2.4,6,4.9,8.2
			c0.4,0.5,0.9,0.9,1.4,1.4c0.4,0.5,0.9,0.9,1.4,1.4c0.4,0.5,0.9,0.9,1.4,1.4c0.4,0.5,0.9,0.9,1.4,1.4c0.4,0.5,0.9,0.9,1.4,1.4
			c0.4,0.5,0.9,0.9,1.4,1.4c0.2,0.2,0.4,0.4,0.5,0.6c-0.3,0.7-0.6,1.1-0.6,1.2c-0.6-0.7-1.2-1.3-2-1.8c-2.5-1.8-5.3-2.7-8.3-2.7
			c-4,0-7.7,1.2-10.9,3.5c-0.9-2.8-2.5-5.3-4.9-7.6c-0.3-0.3-0.6-0.5-0.8-0.8c-0.2-0.2-0.3-0.4-0.5-0.6c-0.3-0.3-0.6-0.5-0.8-0.8
			c-0.2-0.2-0.3-0.4-0.5-0.6c-0.3-0.3-0.6-0.5-0.8-0.8c-0.2-0.2-0.3-0.4-0.5-0.6c-0.3-0.3-0.6-0.5-0.8-0.8c-0.2-0.2-0.3-0.4-0.5-0.6
			c-0.3-0.3-0.6-0.5-0.8-0.8c-0.2-0.2-0.3-0.4-0.5-0.6c-0.3-0.3-0.6-0.5-0.8-0.8c-0.2-0.2-0.3-0.4-0.5-0.6c-0.3-0.3-0.6-0.5-0.8-0.8
			c-0.2-0.2-0.3-0.4-0.5-0.6c-0.3-0.3-0.6-0.5-0.8-0.8c-0.2-0.2-0.3-0.4-0.5-0.6c-0.3-0.3-0.6-0.5-0.8-0.8c-0.2-0.2-0.3-0.4-0.5-0.6
			c-0.3-0.3-0.6-0.5-0.8-0.8c-0.2-0.2-0.3-0.4-0.5-0.6c-5-5-12-7.8-20.7-8.4l-0.1,0h-0.9c-0.4-0.1-0.9-0.1-1.3-0.1
			c-0.5,0-0.9,0-1.4,0.1c-11.1,0.5-18.8,3.2-23.6,8c-4.8,4.9-7.3,9.8-7.3,14.7c0,0.9,0.1,1.9,0.3,2.8c0.4,2,1.3,4.9,3.9,7
			c0.4,0.5,0.9,0.9,1.4,1.4c0.4,0.5,0.9,0.9,1.4,1.4c0.4,0.5,0.9,0.9,1.4,1.4c0.4,0.5,0.9,0.9,1.4,1.4c0.4,0.5,0.9,0.9,1.4,1.4
			c0.4,0.5,0.9,0.9,1.4,1.4c0.4,0.5,0.9,0.9,1.4,1.4c0.3,0.3,0.6,0.6,0.9,0.9c-2.8,7.6-5.8,13.3-9.2,16.8c-4.1,4.4-6.5,5-7.5,5
			c-1.7,0-3.5-0.9-5.5-2.6l-2.3-2l-2.2,2c-3.9,3.5-5.9,7.5-5.9,11.9c0,1.4,0.2,2.8,0.6,4.1c0.6,2.1,1.7,4.4,3.8,6.2
			c0.4,0.5,0.9,0.9,1.4,1.4c0.4,0.5,0.9,0.9,1.4,1.4c0.4,0.5,0.9,0.9,1.4,1.4c0.4,0.5,0.9,0.9,1.4,1.4c0.4,0.5,0.9,0.9,1.4,1.4
			c0.4,0.5,0.9,0.9,1.4,1.4c0.4,0.5,0.9,0.9,1.4,1.4c0.4,0.5,0.9,0.9,1.4,1.4c0.4,0.5,0.9,0.9,1.4,1.4c2.2,2.6,5.9,4.7,12.3,4.7
			c7.9,0,14.7-3.9,20.2-11.7c0.2,0.2,0.4,0.4,0.7,0.6c0.4,0.5,0.9,0.9,1.4,1.4c0.4,0.5,0.9,0.9,1.4,1.4c0.4,0.5,0.9,0.9,1.4,1.4
			c0.4,0.5,0.9,0.9,1.4,1.4c3.2,3.7,8.3,5.6,15.1,5.6c7,0,12.8-2.5,17.3-7.4c2.4-2.6,4.1-5.3,5.3-8.2c0.4,0.4,0.8,0.9,1.3,1.2
			c2.3,2.7,5.8,4.2,10.4,4.2c4,0,7.9-1.5,11.5-4.4c0.3,0.3,0.5,0.5,0.8,0.8c1.8,2.3,4.8,3.6,8.6,3.6c3.8,0,7.6-1.8,11.1-5.3
			c0.6-0.5,1.1-1.1,1.6-1.7c0.2,0.2,0.5,0.5,0.7,0.7c0.1,0.1,0.1,0.1,0.2,0.2c0.4,0.4,0.8,0.8,1.2,1.2c0.1,0.1,0.1,0.1,0.2,0.2
			c2.7,3,6.6,4.6,11.5,4.6h0l0,0c6-0.1,10.3-2.1,12.8-6c0.2-0.3,0.4-0.7,0.6-1c0.4,0.4,0.8,0.8,1.2,1.2c0.4,0.5,0.9,1,1.4,1.4
			c0.4,0.5,0.9,1,1.4,1.4c1.4,1.8,3.4,3,6.4,3h0.5c1.2,0,2.4-0.2,3.4-0.6l0.1-0.1c0.9-0.4,1.7-0.8,2.4-1.2l0.2-0.1l0.1-0.1l1.9-1.1
			l-0.3-2.2c0-0.3-0.1-0.7-0.1-1c0.1,0.1,0.1,0.1,0.2,0.2c0.4,0.5,0.9,1,1.4,1.4c0.4,0.5,0.9,1,1.4,1.4c1.8,2.3,4.7,3.5,8.3,3.5
			c4.4,0,7.9-1.5,10.6-4.3c2.4-2.6,3.9-4.9,4.4-6.9c0.5-1.8,0.7-3,0.7-3.9C577.3,92.8,576,91.5,575,90.8z"/>
		<g>
			<path class="st1" d="M415.2,22.8c0.3-0.1,0.7-0.1,1-0.1c0.3,0,0.7,0,1,0.1h1c7.9,0.5,14,3,18.5,7.4c3.2,3.2,4.8,6.8,4.8,11
				c0,1.6-0.2,3.3-0.7,5c-1.2,3.4-2.9,6.2-5.3,8.4c-2.4,2.2-4.9,3.8-7.4,5.1c-2.6,1.2-4.8,2-6.7,2.5l-2.8,0.7
				c4.8,0,10.1,1.6,15.9,4.8c5.8,3.2,8.9,8.6,9.1,16.1c-0.3,5-2.3,9.5-6.2,13.7c-3.8,4.2-8.8,6.3-14.8,6.3c-6,0-10.2-1.6-12.8-4.7
				c-2.4-2.8-3.5-5.9-3.5-9.3c0-0.3,0.1-1.4,0.2-3.4c0.1-2,1.4-4.1,3.9-6.3c0,4.7,1.6,7.7,4.8,9.2c1.6,0.7,3.2,1.1,4.7,1.1
				c1.6,0,3.6-0.6,5.9-1.8c2.4-1.2,3.8-4,4.3-8.6v-0.1c0-3.9-1.1-6.8-3.4-8.6c-2.3-1.8-5-2.9-8-3.2c-1.2-0.1-2.4-0.2-3.4-0.2
				c-1.6,0-3.1,0.2-4.4,0.5c-3.2,9.3-7.2,17.5-12.1,24.6c-4.8,7.1-10.7,10.6-17.6,10.6c-6.3,0-10.2-2.3-11.4-7
				c-0.3-1.1-0.5-2.1-0.5-3.2c0-3.4,1.6-6.5,4.7-9.3c2.6,2.3,5.2,3.4,7.7,3.4c2.8,0,6.2-2,10-6.1c3.9-4.1,7.3-10.5,10.3-19.2
				c1-2.8,2-5.6,3-8.5c0.8-2.5,1.7-5.1,2.6-7.6c2.1-4.6,4.8-7.1,8.2-7.6c0.4-0.1,0.7-0.1,1-0.1c2.9,0,4.9,1.8,6.2,5.5
				c-1.8,0.9-3.4,2.7-4.8,5.2c-1.4,2.6-2.6,5.3-3.7,8.3c3.7-0.8,7.4-2.8,11.1-5.9c3.2-2.8,4.8-6.4,4.8-10.9c0-0.6,0-1.2-0.1-1.9
				c-1.3-5.4-4.7-8.6-10.3-9.7c-1.3-0.2-2.6-0.4-3.9-0.4c-4.2,0-8.2,1.4-12,4.2c-4.5,3.2-6.7,8.5-6.7,15.8c0,0.8,0,1.7,0.1,2.6
				c-5.9,0-9.3-2.4-10.1-7.1c-0.1-0.7-0.2-1.4-0.2-2.2c0-4,2.1-8.1,6.3-12.3C397.9,25.7,405.1,23.3,415.2,22.8z"/>
			<path class="st1" d="M468.7,49c2.4,0,4.5,0.7,6.4,2c1.9,1.3,3.2,3.7,3.9,7.1c1.2-2.7,2.3-4.8,3.2-6.6l1.2-2.5
				c1.9,0,3.7,0.5,5.4,1.6c1.7,1.1,2.9,2.6,3.4,4.6c-1.5,3.4-3.1,7.3-4.8,11.5c-1.7,4.3-2.9,8.1-3.7,11.3c-0.2,1.1-0.4,2-0.4,2.7
				c0,1.5,0.5,2.2,1.5,2.2c1.5,0,3.6-1.8,6.2-5.4c2.6-3.6,5-7.6,7.3-12h4.2l-2.2,4.3c-1.4,2.9-3.3,6.1-5.7,9.8
				c-2.4,3.7-5,6.9-7.9,9.8c-2.9,2.9-5.8,4.3-8.7,4.3c-4.9,0-7.4-2.4-7.4-7.1c0-0.3,0-0.6,0-1c-4.2,5.4-8.8,8.1-13.6,8.1
				c-6.7,0-10.2-3.7-10.3-11.1v-0.8c0-7.2,2.1-14.4,6.2-21.7C457,52.7,462.3,49,468.7,49z M471.6,59.1c-2.4,0.3-4.9,2.6-7.6,7
				c-2.3,4.2-3.5,8-3.6,11.5v0.6c0,3.1,1.1,4.7,3.3,4.7c1.4,0,2.9-1,4.4-2.9c1.6-1.9,2.9-4.2,4.1-6.8c1.2-2.6,1.9-4.9,2.3-7.1
				c0.1-1,0.2-1.8,0.2-2.6c0-3-0.8-4.4-2.5-4.4C472,59,471.8,59.1,471.6,59.1z"/>
			<path class="st1" d="M512.6,48.4c3,0,5,0.8,6.2,2.4c0.9,1.2,1.3,2.4,1.3,3.7c0,0.4-0.1,1.2-0.4,2.3c-0.2,1.1-1.2,2-2.9,2.8
				c-0.7,0.2-1.3,0.4-1.9,0.4c-0.6,0-1.4-0.2-2.1-0.6c-0.8-0.4-1.4-1.1-1.9-2.1c-0.5,1-0.7,2-0.7,3c0,0.8,0.2,2,0.7,3.4
				c0.5,1.4,1.4,3.2,2.6,5.4c1.6,2.8,2.8,5.6,3.5,8.5c0.2,1.1,0.3,2.1,0.3,3c0,2.9-0.9,5.8-2.8,8.6c-1.9,2.8-5.2,4.3-10,4.4
				c-3.9,0-6.9-1.1-9-3.5c-2.1-2.3-3.3-4.8-3.7-7.6c-0.1-0.8-0.2-1.6-0.2-2.2c0-1.8,0.4-3.4,1.1-4.7c0.7-1.3,1.8-1.9,3.2-1.9
				c0.6,0,1.2,0.1,1.8,0.3c-0.9,1.6-1.3,3-1.3,4.2c0,0.5,0.2,1.2,0.5,2.2c0.3,1,1.2,1.7,2.6,2.2c0.6,0.2,1.1,0.3,1.7,0.3
				c0.8,0,1.6-0.2,2.4-0.6c1.2-0.7,1.8-1.7,1.8-3c0-0.2-0.1-0.7-0.2-1.6c-0.1-0.9-0.6-2.5-1.3-4.7c-0.8-2.2-1.4-4.5-1.9-7
				c-0.2,0.2-0.5,0.4-0.9,0.7c-0.4,0.3-0.9,0.6-1.4,0.8c-0.4,0.2-0.7,0.3-0.9,0.3c-0.1,0-0.1,0-0.2,0c-0.2-0.1-0.3-0.3-0.4-0.5
				c-0.1-0.2-0.1-0.4-0.1-0.6v-0.7l0-0.2c1.2-2.4,2.5-5.2,3.9-8.3c0.3-0.6,0.6-1.2,0.8-1.8c1.3-2.8,2.9-4.7,4.7-5.7
				C509.3,48.9,511,48.4,512.6,48.4z"/>
			<path class="st1" d="M478.7,16.9c0.2,0,0.4,0,0.7,0c1.5,0,2.9,0.4,4,1.3c-0.1,0.6-0.1,1.1-0.1,1.6c0,4.2,2.9,7.6,8.7,10
				c5.8,2.5,13.3,3.8,22.5,4c0.7,0,1.4,0,2.2,0c8.4,0,16.5-1.1,24.2-3.2c0.8-0.5,1.8-1,2.9-1.5c1-0.4,2-0.6,3.1-0.6h0.2
				c2.5,0,4.6,0.8,6.3,2.4c1.4,1.4,2.2,3.1,2.2,5.1c0,0.3,0,0.6,0,0.9c-6.3,1.9-11.3,5.9-15.2,12c-3.9,6.1-6.5,12.5-7.9,19.4
				c1.9-5.7,4.7-10.3,8.2-13.9c3.5-3.6,7.3-5.4,11.5-5.4c4.9,0.2,7.8,1.8,8.8,4.5c0.5,1.3,0.7,2.7,0.7,4.2c0,1.7-0.4,4.1-1.3,7
				c-0.9,2.9-2.1,6.1-3.6,9.5c-1.1,2.5-1.9,4.5-2.4,6.1c-0.2,0.5-0.2,1-0.2,1.3c0,0.7,0.3,1,0.9,1c1,0,2.4-1,4.2-2.9
				c0.7,0.3,1,0.9,1,1.9c0,0.6-0.2,1.6-0.6,3c-0.4,1.5-1.6,3.3-3.6,5.4c-2,2.2-4.7,3.2-8.1,3.2c-4.8,0-7.1-2.5-7.1-7.4v-0.7
				c0-3.5,1.1-8,3.5-13.4c1.2-3.3,2.1-6.2,2.6-8.6c0.2-0.7,0.2-1.4,0.2-2c0-1.3-0.4-2.1-1.2-2.3c-2.1,0.1-4.2,2-6.3,5.7
				c-2.1,3.7-3.8,8-5.1,13.1c-0.9,3.7-1.4,7.1-1.4,10.4c0,1.2,0.1,2.4,0.2,3.6c-0.1,0.1-0.3,0.2-0.4,0.2c-0.6,0.3-1.2,0.7-2,1
				c-0.7,0.2-1.4,0.4-2.2,0.4h-0.5c-3.6,0-5.7-3.2-6.1-9.7c-0.1-1.2-0.1-2.4-0.1-3.6c0-5.6,0.9-12.2,2.7-19.8
				c1.8-7.6,4.6-14.6,8.3-21.2c-5.4,1.4-11.4,2.5-18,3.4c-6.5,0.7-12.3,1.1-17.4,1.1c-17,0-26.6-4.2-28.6-12.6
				c-0.2-1.2-0.3-2.4-0.3-3.5c0-2.8,0.9-5.3,2.7-7.4C473.5,18.2,475.8,17.1,478.7,16.9z"/>
		</g>
	</g>
</g>
<text transform="matrix(1 0 0 1 194.3429 113.2149)" class="st1 st3 st4">AUG 6-AUG 12th</text>
<g>
	<path class="st2" d="M387.1,56.4L387.1,56.4l0-0.2c-0.4-3.2-1.5-5.4-3.1-6.7c-0.3-0.4-0.6-0.7-1-1c-0.3-0.4-0.6-0.7-1-1
		c-0.3-0.4-0.6-0.7-1-1c-0.3-0.4-0.6-0.7-1-1c-0.3-0.4-0.6-0.7-1-1c-0.3-0.4-0.6-0.7-1-1c-0.3-0.4-0.6-0.7-1-1c-0.3-0.4-0.6-0.7-1-1
		c-0.3-0.4-0.6-0.7-1-1c-0.7-0.8-1.5-1.5-2.5-1.8c-1.9-0.8-3.5-1.2-4.8-1.2c-1,0-1.9,0.2-2.9,0.5c-0.2-0.2-0.3-0.3-0.5-0.4
		c-0.3-0.3-0.6-0.7-1-1c-0.3-0.3-0.6-0.7-1-1c-0.3-0.3-0.6-0.7-1-1c-0.3-0.3-0.6-0.7-1-1c-1-1.3-2.9-2.5-6.3-2.5
		c-1.4,0-2.7,0.3-3.9,0.9c-0.9,0.5-1.7,0.9-2.4,1.4c-0.1-0.1-0.1-0.1-0.2-0.2c-1.4-1.7-3-2.1-4.3-2.1c-0.4,0-0.7,0-1,0.1
		c-1.4,0.2-3.1,1.1-4.5,3.5c-0.2-0.3-0.5-0.5-0.7-0.8c-2-1.8-4.3-2.7-6.7-2.7c-0.1,0-0.1,0-0.2,0c-0.3-0.4-0.7-0.8-1.1-1.1
		c-0.3-0.3-0.6-0.7-1-1c-0.3-0.3-0.6-0.7-1-1c-0.3-0.3-0.6-0.7-1-1c-0.3-0.3-0.6-0.7-1-1c-0.3-0.3-0.6-0.7-1-1c-0.3-0.3-0.6-0.7-1-1
		c-0.3-0.3-0.6-0.7-1-1c-0.3-0.3-0.6-0.7-1-1c-0.3-0.3-0.6-0.7-1-1c-0.5-0.6-1.2-1.2-1.9-1.7c-1.4-1-2.8-1.5-4.1-1.5
		c-0.2,0-0.4,0-0.5,0c-1.8,0-4.3,0.8-6.2,4c-0.9,1.3-1.8,3-2.8,5.2l-0.6-0.4l0.1-0.2l-1-0.7l0.1-0.2l-1-0.7l0.1-0.2l-1.3-0.9
		c-1.4-1-2.8-1.5-4.2-1.5c-0.6,0-1.1,0.1-1.7,0.3l-0.1,0c-2.2,0.8-3.2,2.1-3.7,3.1c-0.5,1.2-0.8,2.2-0.8,3.1c0,0.7,0.1,1.4,0.3,2.1
		c-1,0.2-2,0.6-2.9,1.1c-1.7,0.9-3.2,2.7-4.4,5.2c-0.2,0.4-0.3,0.8-0.5,1.1c-0.1-0.1-0.2-0.1-0.2-0.2c-0.3-0.3-0.6-0.7-1-1
		c-0.3-0.3-0.6-0.7-1-1c-0.3-0.3-0.6-0.7-1-1c-0.3-0.3-0.6-0.7-1-1c-0.5-0.6-1.2-1.2-1.9-1.7c-1.6-1-3.3-1.5-5.1-1.5h-1.5
		c0,0-1.6,3.2-1.6,3.2c-0.4-0.5-0.9-0.9-1.4-1.3c-1.7-1.2-3.7-1.9-5.9-1.9c-4.9,0-9,2.4-12.2,7.2c-0.2-0.3-0.5-0.6-0.8-0.8
		c-0.1-0.1-0.1-0.1-0.2-0.2c0-0.1-0.1-0.1-0.1-0.2c0.8-1.6,1.1-3.2,1.1-4.7c0-0.9-0.1-1.8-0.3-2.7c-0.4-1.5-1.2-3.2-2.9-4.6
		c-0.3-0.3-0.6-0.7-1-1c-0.3-0.3-0.6-0.7-1-1c-0.3-0.3-0.6-0.7-1-1c-0.3-0.3-0.6-0.7-1-1c-0.3-0.3-0.6-0.7-1-1c-0.3-0.3-0.6-0.7-1-1
		c-0.3-0.3-0.6-0.7-1-1c-0.3-0.3-0.6-0.7-1-1c-0.3-0.3-0.6-0.7-1-1c-1.6-1.9-4.4-3.5-9.2-3.9c-0.3-0.1-0.5-0.1-0.8-0.1
		c-0.2,0-0.5,0-0.8,0.1h-0.4l-0.2,0c-7.7,1-14.5,4.1-20.3,9.1l0.2-0.7h-1.2l0.3-1h-1.2l0.3-1h-1.2l0.3-1h-1.2l0.3-1h-1.2l0.3-1h-3.2
		c-6.6,0-10.3,2-11,5.9c-0.6,3.6-0.6,4.5-0.6,5c0,3.4,1.4,6.4,4.2,8.9c0.3,0.3,0.6,0.7,1,1c0.3,0.3,0.6,0.7,1,1
		c0.2,0.2,0.4,0.4,0.6,0.6c-3.4,6.9-5.2,13.6-5.2,20.2v0.8c0,4.3,1.2,8.1,3.6,11.1c0.6,0.7,1.2,1.4,1.8,1.9c0.3,0.3,0.6,0.7,1,1
		c0.3,0.3,0.6,0.7,1,1c0.3,0.3,0.6,0.7,1,1c0.3,0.3,0.6,0.7,1,1c0.3,0.3,0.6,0.7,1,1c0.3,0.3,0.6,0.7,1,1c0.3,0.3,0.6,0.7,1,1
		c0.3,0.3,0.6,0.7,1,1c0.3,0.3,0.6,0.7,1,1c2.3,2.6,5.3,4.1,9,4.3c0.4,0,0.8,0,1.2,0c5.2,0,9.8-2.3,13.8-6.7
		c1.8-2.1,3.3-4.3,4.3-6.4c0.3,0.3,0.5,0.6,0.8,0.8c0.3,0.4,0.6,0.7,1,1c1.7,1.9,4.1,3,7.4,3c4.5,0,8.5-2.4,12-7
		c0.1,0.1,0.2,0.2,0.3,0.3c0.3,0.4,0.6,0.7,1,1c0.3,0.4,0.6,0.7,1,1c0.3,0.4,0.6,0.7,1,1c0.3,0.4,0.6,0.7,1,1c1.7,1.9,4.1,3,7.4,3
		c2.9,0,5.6-1,8.1-3.1c0.2,0.2,0.4,0.4,0.6,0.5c1.3,1.7,3.4,2.6,6.1,2.6c2.7,0,5.4-1.3,7.9-3.7c0.4-0.4,0.8-0.8,1.1-1.2
		c0.2,0.2,0.3,0.3,0.5,0.5c0,0,0.1,0.1,0.1,0.1c0.3,0.3,0.6,0.6,0.8,0.8c0,0,0.1,0.1,0.1,0.1c1.9,2.2,4.7,3.3,8.2,3.3h0l0,0
		c4.2-0.1,7.2-1.5,9-4.2c0,0,0,0,0,0c0.3,0.4,0.6,0.7,1,1c0.3,0.4,0.6,0.7,1,1c1.5,1.9,3.6,2.2,4.7,2.2c4.1,0,7.8-1.9,10.8-5.8
		c0.1,0.1,0.2,0.2,0.3,0.3c0.3,0.3,0.6,0.7,1,1c0.3,0.3,0.6,0.7,1,1c2,2.3,5.2,3.6,9.2,3.6c3.8,0,7.7-1.9,12-5.9
		c0.3-0.3,0.6-0.6,0.9-0.8c0.1,0.1,0.2,0.2,0.3,0.3c0.3,0.3,0.6,0.7,1,1c0.3,0.3,0.6,0.7,1,1c0.3,0.3,0.6,0.7,1,1
		c0.3,0.3,0.6,0.7,1,1c0.3,0.3,0.6,0.7,1,1c0.3,0.3,0.6,0.7,1,1c0.3,0.3,0.6,0.7,1,1c0.3,0.3,0.6,0.7,1,1c1.3,1.5,3.2,2.8,6.1,3.6
		l0.1,0l0.1,0c0.8,0.1,1.6,0.2,2.3,0.2c2.9,0,6-1.1,9.2-3.2c3.8-2.5,7-5.8,9.5-9.8c2.6-4.1,3.9-8.2,3.9-12.3
		C387.1,57.1,387.1,56.7,387.1,56.4z"/>
	<g>
		<path class="st1" d="M228.3,15.3c5.1,0.3,8.1,2.2,9,5.7c0.2,0.7,0.3,1.3,0.3,2c0,2.9-1.8,6-5.3,9.4c-3.5,3.4-10,5.7-19.4,6.9
			c-1.6,0.2-3.1,0.2-4.6,0.2c-1,0-2,0-2.9-0.1c-0.3,0.5-0.5,1-0.8,1.5c-0.5,0.8-0.9,1.6-1.3,2.5c-1.9,4.5-2.9,8.6-2.9,12.3
			c0,0.7,0.1,2.3,0.3,4.8c0.2,2.5,2.1,3.8,5.5,3.8c2,0,3.7-1.1,5.3-3.2c1.6-2.1,2.6-4.3,3-6.5c0.2-0.9,0.3-1.7,0.3-2.4
			c0-1.1-0.2-2.1-0.7-3c0.5-0.1,1-0.1,1.4-0.1c2.8,0,4.3,1.9,4.4,5.7v0.5c0,4.2-1.8,8.4-5.4,12.5c-3.5,3.9-7.4,5.9-11.9,5.9
			c-0.4,0-0.7,0-1.1,0c-3.3-0.3-6-1.7-8-4.4c-2-2.7-3-5.9-3.1-9.7V59c0-6.9,2.1-14.1,6.2-21.5c-5.1-2.7-7.7-6.1-7.7-10.1
			c0-0.5,0.2-2,0.6-4.6s3.3-3.9,8.6-3.9c-0.5,1.9-0.8,3.6-0.8,5.2c0,3.2,1.1,5.6,3.4,7.3c6.7-9.3,15.3-14.7,25.8-16h0.5
			c0.2,0,0.4-0.1,0.5-0.1C228,15.3,228.1,15.3,228.3,15.3z M228.1,20.6L228.1,20.6c-2.1,0-4.9,1.2-8.5,3.5
			c-3.6,2.4-7.2,5.8-10.7,10.4c0.7,0.1,1.3,0.1,2,0.1c1.1,0,2.1-0.1,3-0.4c6.1-1.6,10.5-3.8,13.2-6.6c2-2.1,3-3.8,3-5.2
			c0-0.5-0.1-0.9-0.4-1.2c-0.2-0.2-0.4-0.4-0.6-0.5C228.8,20.8,228.5,20.7,228.1,20.6z"/>
		<path class="st1" d="M230.1,65.4c-4.8,0-7.2-2.6-7.3-7.9v-0.6c0-5.1,1.4-10.1,4.3-15.1c2.9-5,6.6-7.6,11.3-8c2,0,3.7,0.6,5.1,1.9
			c1.4,1.3,2.2,3.6,2.4,6.9c0,5.4-1.6,10.6-4.8,15.5C237.8,63,234.1,65.4,230.1,65.4z M241.6,46c0.1-0.8,0.1-1.5,0.1-2.1
			c0-1.3-0.2-2.1-0.7-2.4c-0.3-0.2-0.5-0.3-0.9-0.3c-0.6,0-1.3,0.4-2.3,1.1c-0.9,0.7-1.9,2-2.9,3.7c-1.6,3-2.4,5.7-2.6,8.2
			c0,0.3,0,0.6,0,0.9c0,1.8,0.6,2.8,1.7,2.8c1,0,2-0.7,3.1-2c1.1-1.4,2-3,2.9-4.8C240.8,49.2,241.3,47.5,241.6,46z"/>
		<path class="st1" d="M261.9,33.9c1.7,0,3.2,0.5,4.5,1.4c1.3,1,2.2,2.6,2.7,5c0.9-1.9,1.6-3.4,2.2-4.7l0.9-1.8
			c1.3,0,2.6,0.4,3.8,1.1c1.2,0.8,2,1.8,2.4,3.2c-1.1,2.4-2.2,5.1-3.4,8.2c-1.2,3-2.1,5.7-2.6,8c-0.2,0.8-0.3,1.4-0.3,1.9
			c0,1.1,0.4,1.6,1.1,1.6c1.1,0,2.5-1.3,4.4-3.8c1.8-2.5,3.6-5.4,5.2-8.5h3l-1.5,3c-1,2-2.4,4.3-4.1,6.9c-1.7,2.6-3.5,4.9-5.6,6.9
			c-2.1,2-4.1,3-6.2,3c-3.5,0-5.2-1.7-5.2-5.1c0-0.2,0-0.4,0-0.7c-3,3.8-6.2,5.7-9.7,5.7c-4.8,0-7.2-2.6-7.3-7.9V57
			c0-5.1,1.5-10.2,4.4-15.4S257.3,33.9,261.9,33.9z M263.9,41c-1.7,0.2-3.5,1.9-5.4,4.9c-1.6,3-2.5,5.7-2.6,8.2v0.4
			c0,2.2,0.8,3.3,2.4,3.3c1,0,2-0.7,3.1-2.1c1.1-1.4,2.1-3,2.9-4.8c0.8-1.8,1.4-3.5,1.6-5c0.1-0.7,0.1-1.3,0.1-1.8
			c0-2.1-0.6-3.2-1.8-3.2C264.2,41,264.1,41,263.9,41z"/>
		<path class="st1" d="M293.1,33.4c2.1,0,3.6,0.6,4.4,1.7c0.6,0.8,0.9,1.7,0.9,2.6c0,0.3-0.1,0.8-0.3,1.6c-0.2,0.8-0.9,1.4-2,2
			c-0.5,0.2-0.9,0.3-1.4,0.3c-0.5,0-1-0.1-1.5-0.4c-0.6-0.3-1-0.8-1.4-1.5c-0.3,0.7-0.5,1.4-0.5,2.2c0,0.6,0.2,1.4,0.5,2.4
			c0.3,1,1,2.3,1.8,3.8c1.2,2,2,4,2.5,6c0.1,0.7,0.2,1.5,0.2,2.2c0,2.1-0.7,4.1-2,6.1c-1.3,2-3.7,3.1-7.1,3.1
			c-2.8,0-4.9-0.8-6.4-2.4c-1.5-1.6-2.3-3.4-2.6-5.4c-0.1-0.6-0.1-1.1-0.1-1.6c0-1.3,0.3-2.4,0.8-3.3c0.5-0.9,1.3-1.4,2.3-1.4
			c0.4,0,0.8,0.1,1.3,0.2c-0.6,1.1-0.9,2.1-0.9,3c0,0.4,0.1,0.9,0.3,1.5c0.2,0.7,0.8,1.2,1.8,1.5c0.4,0.2,0.8,0.2,1.2,0.2
			c0.6,0,1.1-0.1,1.7-0.4c0.8-0.5,1.3-1.2,1.3-2.2c0-0.1,0-0.5-0.1-1.2c-0.1-0.6-0.4-1.7-0.9-3.3c-0.5-1.5-1-3.2-1.4-5
			c-0.1,0.1-0.4,0.3-0.7,0.5c-0.3,0.2-0.6,0.4-1,0.6c-0.3,0.1-0.5,0.2-0.6,0.2c0,0-0.1,0-0.1,0c-0.1-0.1-0.2-0.2-0.3-0.3
			c-0.1-0.1-0.1-0.3-0.1-0.5v-0.5l0-0.1c0.8-1.7,1.8-3.7,2.7-5.9c0.2-0.4,0.4-0.8,0.6-1.3c0.9-2,2-3.3,3.3-4
			C290.7,33.8,291.9,33.5,293.1,33.4z"/>
		<path class="st1" d="M314.3,20.9c0.1,0,0.2,0,0.4,0c0.8,0,1.8,0.4,2.8,1.1c1.7,1.1,2.6,2.6,2.9,4.5c-1.4,0.5-2.8,1.8-4.2,3.9
			c0.2,0,0.4,0,0.6-0.1c0.2,0,0.4-0.1,0.6-0.1c0.3,0,0.5,0,0.8,0c1,0,1.7,0.2,2.1,0.7c0.3,0.4,0.5,0.8,0.5,1.3
			c0,0.2-0.1,0.6-0.2,1.1c-0.2,0.5-0.6,1-1.4,1.5c-0.4-0.5-1-0.7-1.7-0.7H317c-0.6,0-1.4,0.1-2.4,0.2c-0.2,0-0.5,0.1-0.7,0.1
			c-1.7,3.2-3.1,6.6-4.3,10.2c-1.2,3.6-2,6.7-2.4,9.3c-0.1,0.8-0.2,1.4-0.2,2c0,1.3,0.3,2,0.9,2.1c1.2-0.2,2.7-1.5,4.5-3.9
			c1.8-2.4,3.5-5.2,5.1-8.2h3c-1.8,4.1-4.2,8.5-7.1,13c-2.9,4.5-6.4,6.8-10.4,6.8c-2.4,0-3.7-1.6-3.9-4.8c0-0.6-0.1-1.2-0.1-1.8
			c0-2.8,0.5-6.3,1.4-10.4c1-4.1,2.3-8.4,3.9-12.7c-5.4-0.3-9-1.9-10.7-4.7c-0.3-0.6-0.4-1.2-0.4-1.8c0-0.6,0.2-1.3,0.6-2.1
			c0.4-0.8,1.1-1.4,2.3-1.8c0.3-0.1,0.6-0.1,1-0.1c0.9,0,1.8,0.4,2.8,1.1c-0.1,0.3-0.1,0.5-0.1,0.8c0,2.2,2.1,3.7,6.3,4.4
			c1.4-3.3,2.7-5.8,3.8-7.5C311.1,21.8,312.6,20.9,314.3,20.9z"/>
		<path class="st1" d="M330.7,33.9c1.8,0,3.5,0.7,5,2.1c1.4,1.3,2.1,3.2,2.1,5.7c0,0.3,0,0.6,0,0.9c-0.4,3.5-1.8,6.6-4.1,9.3
			c-2.4,2.7-5,4.1-8,4.2c0.1,0.6,0.4,1.2,0.9,1.7c0.5,0.5,1.1,0.8,1.9,0.9c0.3,0,0.5,0.1,0.8,0.1c3.9,0,8.2-4.4,12.9-13.1h3
			c-2.6,6.2-5.8,11-9.6,14.5c-3.8,3.5-7.3,5.3-10.4,5.3c-5.7,0-8.9-2.6-9.5-7.9c-0.1-0.9-0.1-1.8-0.1-2.7c0-4.4,1.3-8.9,3.9-13.7
			C322.3,36.3,325.9,33.9,330.7,33.9z M332.4,40.9c-0.1,0-0.2,0-0.3,0c-0.6,0-1.5,0.5-2.5,1.4c-1,0.9-2,2.3-2.8,4.2
			c-0.3,0.9-0.5,1.7-0.5,2.3c0,0.6,0.2,1.1,0.5,1.4c0.2,0.2,0.4,0.3,0.7,0.3c0.6,0,1.5-0.5,2.6-1.6c0.7-0.7,1.3-1.7,1.9-2.9
			c0.5-1.2,0.9-2.3,1-3.3c0-0.2,0-0.4,0-0.6C333,41.4,332.8,41,332.4,40.9z"/>
		<path class="st1" d="M354.4,33.8c2.9,0,4.6,1,5,3c0.1,0.6,0.2,1.3,0.2,2c0,1.5-0.3,3.3-1,5.5c-0.7,2.2-1.5,4.3-2.4,6.4
			c-1.2,2.8-2,5.5-2.5,8.1c-0.1,0.7-0.2,1.4-0.2,2c0,1.6,0.4,2.7,1.2,3.6c0.3,0.2,0.5,0.3,0.9,0.3c0.7,0,1.7-0.5,3-1.6
			c1.3-1.1,2.6-2.7,3.9-4.8c1.3-2.2,1.9-4.2,1.9-6.2c0-2-1.2-3.4-3.5-4.2c0.1-3.3,1.2-5.5,3.4-6.7c1.2-0.7,2.5-1,3.7-1
			c1,0,2.3,0.3,3.9,1c1.6,0.7,2.7,2.6,3.1,5.7c0,0.3,0,0.6,0,1c0,3.6-1.2,7.3-3.5,11c-2.3,3.7-5.2,6.7-8.8,9.1
			c-2.8,1.8-5.4,2.8-7.9,2.8c-0.6,0-1.3-0.1-1.9-0.2c-3.6-1-5.8-3-6.5-6c-0.4-1.4-0.5-2.9-0.5-4.4c0-1.6,0.3-3.7,0.9-6.2
			c0.6-2.5,1.3-4.9,2.1-7.1c0.1-0.2,0.1-0.4,0.2-0.6c0.2-0.5,0.4-1.1,0.6-1.7c0.2-0.7,0.3-1.2,0.3-1.8c0-0.5-0.2-0.8-0.5-0.8h-0.1
			c-0.3,0-0.6,0.1-0.9,0.4c-0.3,0.3-0.6,0.7-0.9,1.1c-0.4,0.6-0.9,1.3-1.5,1.9s-1.3,1-2.3,1.1c-0.3,0-0.5,0.1-0.7,0.1
			c-1.5,0-2.7-0.7-3.5-2.1c-0.5-0.8-0.7-1.9-0.7-3.1c0-1.1,0.2-2.4,0.6-3.9c0.8-2.1,2-3.3,3.5-3.6c0.2,0,0.4-0.1,0.6-0.1
			c1.2,0,2.2,0.7,3,2.2c0.2,0.5,0.5,0.7,0.9,0.7c0.1,0,0.3,0,0.5-0.1c0.3-0.1,0.7-0.4,1.4-0.8c0.6-0.5,1.4-0.9,2.2-1.3
			C352.4,34,353.3,33.8,354.4,33.8z"/>
	</g>
</g>
</svg>
