<?xml version="1.0" encoding="utf-8"?>
<!-- Generator: Adobe Illustrator 27.7.0, SVG Export Plug-In . SVG Version: 6.00 Build 0)  -->
<svg version="1.1" id="Layer_1" xmlns="http://www.w3.org/2000/svg" xmlns:xlink="http://www.w3.org/1999/xlink" x="0px" y="0px"
	 viewBox="0 0 302.9 49.1" style="enable-background:new 0 0 302.9 49.1;" xml:space="preserve">
<style type="text/css">
	.st0{fill:#FFFFFF;}
</style>
<g>
	<g>
		<path class="st0" d="M7.6,18.7c-0.1-0.4-0.2-0.7-0.2-2v-2.5c0-1.5-0.5-2-1.7-2H4.8v6.6H2.3V2.6h3.8c2.6,0,3.7,1.2,3.7,3.7v1.3
			c0,1.7-0.5,2.7-1.7,3.3c1.3,0.5,1.7,1.7,1.7,3.4v2.5c0,0.8,0,1.4,0.3,2H7.6z M4.8,4.9v4.9h1c0.9,0,1.5-0.4,1.5-1.7V6.6
			c0-1.1-0.4-1.7-1.3-1.7H4.8z"/>
		<path class="st0" d="M14,9.4h3.5v2.3H14v4.7h4.4v2.3h-6.9V2.6h6.9v2.3H14V9.4z"/>
		<path class="st0" d="M23.8,9.7h3.5v5.1c0,2.6-1.3,4-3.8,4c-2.5,0-3.8-1.5-3.8-4V6.5c0-2.6,1.3-4,3.8-4c2.5,0,3.8,1.5,3.8,4V8h-2.4
			V6.3c0-1.1-0.5-1.6-1.3-1.6c-0.8,0-1.3,0.4-1.3,1.6V15c0,1.1,0.5,1.6,1.3,1.6c0.8,0,1.3-0.4,1.3-1.6v-3h-1.2V9.7z"/>
		<path class="st0" d="M28.9,2.6h2.5v16.1h-2.5V2.6z"/>
		<path class="st0" d="M36.7,2.4c2.5,0,3.7,1.5,3.7,4V7h-2.4V6.3c0-1.1-0.5-1.6-1.3-1.6s-1.3,0.4-1.3,1.6c0,3.3,4.9,3.9,4.9,8.5
			c0,2.6-1.3,4-3.8,4c-2.5,0-3.8-1.5-3.8-4v-1h2.4V15c0,1.1,0.5,1.6,1.3,1.6s1.3-0.4,1.3-1.6c0-3.3-4.9-3.9-4.9-8.5
			C33,3.9,34.3,2.4,36.7,2.4z"/>
		<path class="st0" d="M41.2,2.6H49v2.3h-2.6v13.8h-2.5V4.9h-2.6V2.6z"/>
		<path class="st0" d="M52.6,9.4h3.5v2.3h-3.5v4.7H57v2.3h-6.9V2.6H57v2.3h-4.4V9.4z"/>
		<path class="st0" d="M63.9,18.7c-0.1-0.4-0.2-0.7-0.2-2v-2.5c0-1.5-0.5-2-1.7-2h-0.9v6.6h-2.5V2.6h3.8c2.6,0,3.7,1.2,3.7,3.7v1.3
			c0,1.7-0.5,2.7-1.7,3.3c1.3,0.5,1.7,1.7,1.7,3.4v2.5c0,0.8,0,1.4,0.3,2H63.9z M61.1,4.9v4.9h1c0.9,0,1.5-0.4,1.5-1.7V6.6
			c0-1.1-0.4-1.7-1.3-1.7H61.1z"/>
		<path class="st0" d="M73.6,7.1v11.7h-2.3V2.6h3.2l2.6,9.6V2.6h2.3v16.1h-2.6L73.6,7.1z"/>
		<path class="st0" d="M81,6.5c0-2.6,1.4-4,3.8-4c2.5,0,3.8,1.5,3.8,4v8.4c0,2.6-1.4,4-3.8,4c-2.5,0-3.8-1.5-3.8-4V6.5z M83.5,15
			c0,1.1,0.5,1.6,1.3,1.6c0.8,0,1.3-0.4,1.3-1.6V6.3c0-1.1-0.5-1.6-1.3-1.6c-0.8,0-1.3,0.4-1.3,1.6V15z"/>
		<path class="st0" d="M95.9,10.1L95,18.7h-3.5L89.7,2.6h2.5l1.4,12.7l1.2-12.7h2.4l1.3,12.8l1.3-12.8h2.2l-1.8,16.1h-3.4L95.9,10.1
			z"/>
		<path class="st0" d="M109.4,9.8h3.3v2.3h-3.3v6.6h-2.5V2.6h6.7v2.3h-4.2V9.8z"/>
		<path class="st0" d="M114.5,6.5c0-2.6,1.4-4,3.8-4c2.5,0,3.8,1.5,3.8,4v8.4c0,2.6-1.4,4-3.8,4c-2.5,0-3.8-1.5-3.8-4V6.5z
			 M117.1,15c0,1.1,0.5,1.6,1.3,1.6c0.8,0,1.3-0.4,1.3-1.6V6.3c0-1.1-0.5-1.6-1.3-1.6c-0.8,0-1.3,0.4-1.3,1.6V15z"/>
		<path class="st0" d="M129.1,18.7c-0.1-0.4-0.2-0.7-0.2-2v-2.5c0-1.5-0.5-2-1.7-2h-0.9v6.6h-2.5V2.6h3.8c2.6,0,3.7,1.2,3.7,3.7v1.3
			c0,1.7-0.5,2.7-1.7,3.3c1.3,0.5,1.7,1.7,1.7,3.4v2.5c0,0.8,0,1.4,0.3,2H129.1z M126.4,4.9v4.9h1c0.9,0,1.5-0.4,1.5-1.7V6.6
			c0-1.1-0.4-1.7-1.3-1.7H126.4z"/>
		<path class="st0" d="M140.5,15.7l1.9-13.1h2.3l-2.5,16.1h-3.8L136,2.6h2.6L140.5,15.7z"/>
		<path class="st0" d="M145.9,2.6h2.5v16.1h-2.5V2.6z"/>
		<path class="st0" d="M157.8,6.6v2.1c0,2.6-1.2,4-3.8,4h-1.2v6h-2.5V2.6h3.7C156.5,2.6,157.8,4,157.8,6.6z M152.8,4.9v5.4h1.2
			c0.8,0,1.2-0.4,1.2-1.5V6.4c0-1.1-0.4-1.5-1.2-1.5H152.8z"/>
		<path class="st0" d="M170.1,6.6v2.1c0,2.6-1.2,4-3.8,4h-1.2v6h-2.5V2.6h3.7C168.9,2.6,170.1,4,170.1,6.6z M165.1,4.9v5.4h1.2
			c0.8,0,1.2-0.4,1.2-1.5V6.4c0-1.1-0.4-1.5-1.2-1.5H165.1z"/>
		<path class="st0" d="M176.7,18.7c-0.1-0.4-0.2-0.7-0.2-2v-2.5c0-1.5-0.5-2-1.7-2h-0.9v6.6h-2.5V2.6h3.8c2.6,0,3.7,1.2,3.7,3.7v1.3
			c0,1.7-0.5,2.7-1.7,3.3c1.3,0.5,1.7,1.7,1.7,3.4v2.5c0,0.8,0,1.4,0.3,2H176.7z M173.9,4.9v4.9h1c0.9,0,1.5-0.4,1.5-1.7V6.6
			c0-1.1-0.4-1.7-1.3-1.7H173.9z"/>
		<path class="st0" d="M180.7,2.6h2.5v16.1h-2.5V2.6z"/>
		<path class="st0" d="M184.8,6.5c0-2.6,1.4-4,3.8-4s3.8,1.5,3.8,4v8.4c0,2.6-1.4,4-3.8,4s-3.8-1.5-3.8-4V6.5z M187.3,15
			c0,1.1,0.5,1.6,1.3,1.6s1.3-0.4,1.3-1.6V6.3c0-1.1-0.5-1.6-1.3-1.6s-1.3,0.4-1.3,1.6V15z"/>
		<path class="st0" d="M199.4,18.7c-0.1-0.4-0.2-0.7-0.2-2v-2.5c0-1.5-0.5-2-1.7-2h-0.9v6.6h-2.5V2.6h3.8c2.6,0,3.7,1.2,3.7,3.7v1.3
			c0,1.7-0.5,2.7-1.7,3.3c1.3,0.5,1.7,1.7,1.7,3.4v2.5c0,0.8,0,1.4,0.3,2H199.4z M196.7,4.9v4.9h1c0.9,0,1.5-0.4,1.5-1.7V6.6
			c0-1.1-0.4-1.7-1.3-1.7H196.7z"/>
		<path class="st0" d="M203.4,2.6h2.5v16.1h-2.5V2.6z"/>
		<path class="st0" d="M207,2.6h7.8v2.3h-2.6v13.8h-2.5V4.9H207V2.6z"/>
		<path class="st0" d="M218.3,13.4l-3.2-10.8h2.6l1.9,7.3l1.9-7.3h2.4l-3.2,10.8v5.3h-2.5V13.4z"/>
		<path class="st0" d="M236.8,18.7h-2.6l-0.4-2.9h-3.1l-0.4,2.9h-2.3l2.6-16.1h3.7L236.8,18.7z M231,13.6h2.4l-1.2-8.1L231,13.6z"/>
		<path class="st0" d="M245.3,12.7v2.1c0,2.6-1.3,4-3.8,4s-3.8-1.5-3.8-4V6.5c0-2.6,1.3-4,3.8-4s3.8,1.5,3.8,4V8h-2.4V6.3
			c0-1.1-0.5-1.6-1.3-1.6s-1.3,0.4-1.3,1.6V15c0,1.1,0.5,1.6,1.3,1.6s1.3-0.4,1.3-1.6v-2.3H245.3z"/>
		<path class="st0" d="M254.2,12.7v2.1c0,2.6-1.3,4-3.8,4s-3.8-1.5-3.8-4V6.5c0-2.6,1.3-4,3.8-4s3.8,1.5,3.8,4V8h-2.4V6.3
			c0-1.1-0.5-1.6-1.3-1.6s-1.3,0.4-1.3,1.6V15c0,1.1,0.5,1.6,1.3,1.6s1.3-0.4,1.3-1.6v-2.3H254.2z"/>
		<path class="st0" d="M258.3,9.4h3.5v2.3h-3.5v4.7h4.4v2.3h-6.9V2.6h6.9v2.3h-4.4V9.4z"/>
		<path class="st0" d="M267.6,2.4c2.5,0,3.7,1.5,3.7,4V7h-2.4V6.3c0-1.1-0.5-1.6-1.3-1.6c-0.8,0-1.3,0.4-1.3,1.6
			c0,3.3,4.9,3.9,4.9,8.5c0,2.6-1.3,4-3.8,4s-3.8-1.5-3.8-4v-1h2.4V15c0,1.1,0.5,1.6,1.3,1.6c0.8,0,1.3-0.4,1.3-1.6
			c0-3.3-4.9-3.9-4.9-8.5C263.9,3.9,265.1,2.4,267.6,2.4z"/>
		<path class="st0" d="M276.2,2.4c2.5,0,3.7,1.5,3.7,4V7h-2.4V6.3c0-1.1-0.5-1.6-1.3-1.6c-0.8,0-1.3,0.4-1.3,1.6
			c0,3.3,4.9,3.9,4.9,8.5c0,2.6-1.3,4-3.8,4s-3.8-1.5-3.8-4v-1h2.4V15c0,1.1,0.5,1.6,1.3,1.6c0.8,0,1.3-0.4,1.3-1.6
			c0-3.3-4.9-3.9-4.9-8.5C272.5,3.9,273.7,2.4,276.2,2.4z"/>
		<path class="st0" d="M284.2,2.6h7.8v2.3h-2.6v13.8h-2.5V4.9h-2.6V2.6z"/>
		<path class="st0" d="M292.9,6.5c0-2.6,1.4-4,3.8-4s3.8,1.5,3.8,4v8.4c0,2.6-1.4,4-3.8,4s-3.8-1.5-3.8-4V6.5z M295.5,15
			c0,1.1,0.5,1.6,1.3,1.6s1.3-0.4,1.3-1.6V6.3c0-1.1-0.5-1.6-1.3-1.6s-1.3,0.4-1.3,1.6V15z"/>
		<path class="st0" d="M32.8,30.2h7.8v2.3H38v13.8h-2.5V32.5h-2.6V30.2z"/>
		<path class="st0" d="M44.3,46.3h-2.5V30.2h2.5v6.9h2.9v-6.9h2.6v16.1h-2.6v-6.9h-2.9V46.3z"/>
		<path class="st0" d="M54.1,37h3.5v2.3h-3.5V44h4.4v2.3h-6.9V30.2h6.9v2.3h-4.4V37z"/>
		<path class="st0" d="M71.2,33.9v0.6c0,1.7-0.5,2.7-1.6,3.2c1.4,0.5,1.9,1.7,1.9,3.4v1.3c0,2.5-1.3,3.8-3.8,3.8h-4V30.2h3.8
			C70.1,30.2,71.2,31.4,71.2,33.9z M66.1,32.5v4.3h1c0.9,0,1.5-0.4,1.5-1.7v-0.9c0-1.1-0.4-1.7-1.3-1.7H66.1z M66.1,39.1V44h1.4
			c0.9,0,1.3-0.4,1.3-1.6V41c0-1.5-0.5-2-1.6-2H66.1z"/>
		<path class="st0" d="M73,30.2h2.5v16.1H73V30.2z"/>
		<path class="st0" d="M81.1,37.3h3.5v5.1c0,2.6-1.3,4-3.8,4c-2.5,0-3.8-1.5-3.8-4v-8.4c0-2.6,1.3-4,3.8-4c2.5,0,3.8,1.5,3.8,4v1.6
			h-2.4v-1.7c0-1.1-0.5-1.6-1.3-1.6s-1.3,0.4-1.3,1.6v8.7c0,1.1,0.5,1.6,1.3,1.6s1.3-0.4,1.3-1.6v-3h-1.1V37.3z"/>
		<path class="st0" d="M90.1,37.3h3.5v5.1c0,2.6-1.3,4-3.8,4s-3.8-1.5-3.8-4v-8.4c0-2.6,1.3-4,3.8-4s3.8,1.5,3.8,4v1.6h-2.4v-1.7
			c0-1.1-0.5-1.6-1.3-1.6s-1.3,0.4-1.3,1.6v8.7c0,1.1,0.5,1.6,1.3,1.6s1.3-0.4,1.3-1.6v-3h-1.2V37.3z"/>
		<path class="st0" d="M97.8,37h3.5v2.3h-3.5V44h4.4v2.3h-6.9V30.2h6.9v2.3h-4.4V37z"/>
		<path class="st0" d="M107.1,30c2.5,0,3.7,1.5,3.7,4v0.5h-2.4v-0.7c0-1.1-0.5-1.6-1.3-1.6s-1.3,0.4-1.3,1.6c0,3.3,4.9,3.9,4.9,8.5
			c0,2.6-1.3,4-3.8,4c-2.5,0-3.8-1.5-3.8-4v-1h2.4v1.1c0,1.1,0.5,1.6,1.3,1.6c0.8,0,1.3-0.4,1.3-1.6c0-3.3-4.9-3.9-4.9-8.5
			C103.4,31.5,104.7,30,107.1,30z"/>
		<path class="st0" d="M111.6,30.2h7.8v2.3h-2.6v13.8h-2.5V32.5h-2.6V30.2z"/>
		<path class="st0" d="M126.6,37h3.5v2.3h-3.5V44h4.4v2.3h-6.9V30.2h6.9v2.3h-4.4V37z"/>
		<path class="st0" d="M136.4,43.3l1.9-13.1h2.3l-2.5,16.1h-3.8l-2.5-16.1h2.6L136.4,43.3z"/>
		<path class="st0" d="M144.3,37h3.5v2.3h-3.5V44h4.4v2.3h-6.9V30.2h6.9v2.3h-4.4V37z"/>
		<path class="st0" d="M152.5,34.7v11.7h-2.3V30.2h3.2l2.6,9.6v-9.6h2.3v16.1h-2.6L152.5,34.7z"/>
		<path class="st0" d="M159.3,30.2h7.8v2.3h-2.6v13.8H162V32.5h-2.6V30.2z"/>
		<path class="st0" d="M171.6,34.1c0-2.6,1.4-4,3.8-4s3.8,1.5,3.8,4v8.4c0,2.6-1.4,4-3.8,4s-3.8-1.5-3.8-4V34.1z M174.2,42.6
			c0,1.1,0.5,1.6,1.3,1.6s1.3-0.4,1.3-1.6v-8.7c0-1.1-0.5-1.6-1.3-1.6s-1.3,0.4-1.3,1.6V42.6z"/>
		<path class="st0" d="M183.5,37.4h3.3v2.3h-3.3v6.6h-2.5V30.2h6.7v2.3h-4.2V37.4z"/>
		<path class="st0" d="M191.7,30.2h7.8v2.3h-2.6v13.8h-2.5V32.5h-2.6V30.2z"/>
		<path class="st0" d="M203.1,46.3h-2.5V30.2h2.5v6.9h2.9v-6.9h2.6v16.1H206v-6.9h-2.9V46.3z"/>
		<path class="st0" d="M213,37h3.5v2.3H213V44h4.4v2.3h-6.9V30.2h6.9v2.3H213V37z"/>
		<path class="st0" d="M224.8,41l-3.2-10.8h2.6l1.9,7.3l1.9-7.3h2.4L227.3,41v5.3h-2.5V41z"/>
		<path class="st0" d="M234.1,37h3.5v2.3h-3.5V44h4.4v2.3h-6.9V30.2h6.9v2.3h-4.4V37z"/>
		<path class="st0" d="M248.2,46.3h-2.6l-0.4-2.9h-3.1l-0.4,2.9h-2.3l2.6-16.1h3.7L248.2,46.3z M242.4,41.2h2.4l-1.2-8.1L242.4,41.2
			z"/>
		<path class="st0" d="M254.7,46.3c-0.1-0.4-0.2-0.7-0.2-2v-2.5c0-1.5-0.5-2-1.7-2h-0.9v6.6h-2.5V30.2h3.8c2.6,0,3.7,1.2,3.7,3.7
			v1.3c0,1.7-0.5,2.7-1.7,3.3c1.3,0.5,1.7,1.7,1.7,3.4v2.5c0,0.8,0,1.4,0.3,2H254.7z M251.9,32.5v4.9h1c0.9,0,1.5-0.4,1.5-1.7v-1.6
			c0-1.1-0.4-1.7-1.3-1.7H251.9z"/>
		<path class="st0" d="M262.5,42.8l-0.3-5.8v-6.7h2.5v6.7l-0.3,5.8H262.5z M264.7,43.9v2.4h-2.4v-2.4H264.7z"/>
		<path class="st0" d="M266.9,42.8l-0.3-5.8v-6.7h2.5v6.7l-0.3,5.8H266.9z M269.1,43.9v2.4h-2.4v-2.4H269.1z"/>
	</g>
</g>
</svg>
