<?xml version="1.0" encoding="utf-8"?>
<!-- Generator: Adobe Illustrator 27.7.0, SVG Export Plug-In . SVG Version: 6.00 Build 0)  -->
<svg version="1.1" id="Layer_1" xmlns="http://www.w3.org/2000/svg" xmlns:xlink="http://www.w3.org/1999/xlink" x="0px" y="0px"
	 viewBox="0 0 99.3 792" style="enable-background:new 0 0 99.3 792;" xml:space="preserve">
<style type="text/css">
	.st0{fill:#1E1B1C;}
	.st1{fill:#FFFFFF;}
</style>
<g>
	<rect class="st0" width="99.3" height="792"/>
</g>
<g>
	<polygon class="st1" points="65.6,28.8 69.7,46.6 86.8,53.3 71.1,62.8 70,81.1 56.2,69.1 38.4,73.7 45.5,56.8 35.7,41.4 53.9,42.9 
			"/>
	<g>
		<polygon class="st0" points="45,67.4 49.8,56.3 43.3,46.1 55.4,47.2 63.1,37.9 65.7,49.6 77,54.1 66.6,60.3 65.8,72.3 56.7,64.4 
					"/>
	</g>
	<polygon class="st1" points="51.5,61.7 54.1,55.9 50.7,50.4 57.1,51.1 61.2,46.3 62.5,52.5 68.4,54.9 62.9,58.1 62.4,64.4 
		57.7,60.2 	"/>
</g>
<g>
	<polygon class="st1" points="45.6,705.4 62,717.3 81,710.6 74.8,729.8 87,745.8 66.8,745.8 55.3,762.4 49.1,743.2 29.7,737.4 
		46.1,725.6 	"/>
	<g>
		<polygon class="st0" points="56.3,752.4 52.2,739.7 39.5,735.8 50.3,728.1 50.1,714.8 60.8,722.7 73.4,718.3 69.2,730.9 
			77.2,741.6 63.9,741.5 		"/>
	</g>
	<polygon class="st1" points="57.6,743 55.5,736.3 48.9,734.1 54.6,730.1 54.6,723.1 60.2,727.4 66.8,725.2 64.5,731.8 68.7,737.4 
		61.7,737.3 	"/>
</g>
<path class="st1" d="M10.9,775.9c-0.8,1.3-1.7,1.6-2.9,1.4c-0.1-1-0.3-2.1-0.5-3.2c1.7-0.6,1.7-0.6,2-3.7c-0.1-1.9-2.1-1.3-1.7-3.9
	c1,1.4,1,1.4,2.1,1.5c0.3-2,3-4.6,1.4-6.5c-6.1,8.5-3.8-8.5-2.9-11.5l0,0l0-0.1l0,0.1c0.1-4.9,5.2-8.9,3.4-14.2
	c-1.3-0.1-1.1,1.7-1.3,3.1c-1,0.4-2,1-2.8-1c0.7-3.5,2.2-6,4-9.3c-1.9-2.3,0.9-2.3,1.7,0.5c0.8-2.4,1.9-4,1.3-6.8
	c0.2-0.5,1,0.7,1.4-0.8c0.3-1,1.3-1.4,2.2-2.2c-1.1-2.6-2-3,0.1-5.7c-1.7-3.8-3.2-1.4-1.9,1.4c-0.3,0.3-0.7,0.9-1,0.8
	c-2-0.9-3.8,0.9-5.8,0.9c-0.8-3.7-3.7-1.7-2.6-6c3.2-1.3-1.4-6.7,2.5-7.1c0.8-2.4,0.2-3.8,2.6-2.1c1.6-1.3,1.3-4.4,2.1-6.6
	c-1.6-1.2-2.8,0.1-4.3,0.5c-1,0.5-0.6,2.6-0.7,3.6c-0.6,0.9-1.9,0.9-1.6-0.9c1.3-6.3-5.1-22.9,5.9-20.9c-0.6,2.2,0.3,4.9-1.5,6.5
	c2.6,1.8,3.1-4.8,3.2-6.6c1.9-4.4,7.6-2.1,4.6-7.5c0.8,0.3,1.5,1.3,2.4,0.6c0.8-3.3-2.6-2.9-2.4-6.3c0,0,0,0,0,0
	c0.6-6.2,4.5-0.1,5.6-5.5c-3.9-2.4-4.3,3.2-7.4-5.7c0.4,0,0.6,0.1,0.9,0.1c0.2-5.5,0.5-10.5,0.1-16.1c-0.8,2-0.8,4.2-0.8,6.3
	c-2.8-1.1,1-3.7-0.9-5.3c-0.9,2-2.7,2.7-1.1,4.8c3.7,10.1-7.9,11.3-4.5,0.1c2,1,2.6-1.2,1.7-2.8c-0.8,0.3-1.6,0.6-2.3,1
	c-0.5-0.7-1.1-1.3-1.8-2.3c2.4-0.7,2.1-3.2-0.5-3.1c0.4-1.3,0.8-2.2,1.2-3.5c-4.1-0.5-0.4-8.6-1.6-11.9c-0.9-3,2.8-8.1-0.4-9.4
	c1.3-2.5,0.6-5.3,1.9-7.8c0.4,0.8,0.8,1.5,1.2,2.2c1-0.4,0.8-2.9,2.3-2.2c1,1.5-1.1,4.2-0.5,6c2.7-0.9,0.8-5.4,3.2-6.7
	c-1.2-1.2-3.9-2.5-5.4-1c-2.6-2.7-0.1-3.9,2.3-5.2c-1-0.4-1.5-0.6-2.2-0.8c1-4.4,4.8-6,2.9-11.1c-1,2.1-0.3,3.4-2,4.8
	c-0.4-4.6,2.2-9.3-0.4-13.5c-0.6,4.8-1.6,8.9-2.9,13c-0.5-1.8-2-4.1-1.3-6c1.1-1.1,0.6-2.7,0.2-3.7c-0.5-0.9,1-4.1-0.6-2.3
	c-1.9-1.7,0.2-10.5,1.6-12.4c0.6-10.6-5.3-11.1,1.4-17.6c-1.6,0.6-1.6,0.6-1.8-1.1c1-0.7,2.3-0.8,3-2.8c-1.5-1.4-1.5-1.4-2.8,0
	c-2-2-2-2-0.7-5.8c-3.2-1.3-0.9-2.2,1.5-2.4c1.2-1.4,0.4-4,1.5-5.9c-0.7-1.2-1.4-0.3-2.1-0.5c-0.3-2.3-0.3-2.3,1.2-3.4
	c-0.5-0.3-0.8-0.5-1.2-0.8c0.7-1.8,1.9-4.2-0.5-5c1-4.3-0.2-8.7,0.7-13.1c-0.8-1.9-1.8-2.8-0.2-4.8c-1.7-16.2-0.4-33.5-1-50.6
	c-0.4-4.5,4.4-3.6,7.2-5.3c-1.4-2.3-4.7-0.6-6.2,1c-1.3-2.8,0.3-7.4,3-9.2c-2.6-3.8,0.4-5.9,1.7-9.4c-2.9-2-1.7,2.3-5.5,3.2
	c-2.5-5.1,6.8-5,3.1-9.1c-1.4,1.5-3.9,0.2-3-2c2-2,2.5-9.5-0.7-10.7c-0.9-7.9,2.3-15.3,0.3-21.9c0.9-0.9,2.3-0.4,3.5-0.6
	c0.3-3.3-2.4-0.5-2.7-3.6c-1.7-2.2-0.9-2.6,0-4.9c-2.1-1.5-0.7-3.9-0.5-7.1c0.7,2,1.7,2.7,3,3.5c0.5-2.9-0.7-3.9-1.3-6.4
	c-2.4-1.4-2.7-2.7-1.2-6.5c-2-1.6-1-5-0.8-7.4c1.7-0.7,1.7-0.7,2.5,1.3c2.4,0.3,4.5,1.8,6.8,1.4c1.7,2,3.3-0.3,5.3-0.1
	c0.2-3-2.7-1.7-3.9-4.6c-1.8,2.7-2,2.7-3.3-0.3c-0.4,0.8-0.6,1.2-0.9,1.7c-1.4-2.2,1.7-3.8-1.5-5.1c-0.4,0.4-0.9,1-1.4,1.5
	c-0.2-0.1-0.5-0.1-0.7-0.1c0.1-1.5-0.8-1.7-1.5-2.8c1.1-0.3,1.9-0.6,3-0.9c-1.5-4.6-0.2-8.8,1.2-13.4c-3.2-0.2-5.7-5.7-3.8-8.1
	l-2-0.1c0-2.6,1.7-2.1,2.8-4c-2.8-0.6-1-3-0.8-4.8c-1.3-5.3-0.4-12.1,0.4-17.6c-0.9-0.4-1.6-0.7-2.4-1c-0.3-2.3-1.2-14.4,1.9-6.4
	c0.6-0.3,1.2-0.6,2-1c-1-2.3-2.6-2.4-4.2-3.8c-1.2-4.3,2.7-9.2,4.2-3.1c2.6,4.4,4.5,2,2.4-1.3c-1.5-0.3-2.3-2.9-4-2.8
	c-4.5-0.4-2.5-15.6-2.7-19.3c0.5-3.3,5.7,0.5,7.9,0.5c-1,2.1-1,2.1-0.1,4.1c1.2-0.9,2-1.5,1.6-3.3c1-0.8,2.5-1.3,2.1-3
	c-2.9,0.8-5.9-1.1-7.9-3.6c-1.4,3.5-4.3,1.9-6.5,4.6c1.3,6.3-0.7,12.6,0.6,18.8c-1.3,17.5-0.8,35.6-0.7,53.6c0.7,0.1,1.3,0.2,2,0.3
	c-3.8,27.4-0.5,54.9-1.4,82.4c-0.6,1.7-0.5,3.2-0.1,4.6c0.8,1.9-1,3.9,0.5,5.4c-0.3,1.1-1.9,3.5,0.4,3.9
	c-1.1,27.3-2.2,55.8-0.6,82.3c0,0,0,0,0,0c-1.3,16.9-0.7,34.7,0,52.1c0.4,0,0.8-0.1,1.4-0.1c0.1,0.4,0.3,0.9,0.5,1.8
	c-0.9-0.3-1.7-0.6-2.6-0.9c1.8,8.7-3.4,22.7,3.3,27.9c-5.8,2.1-1.5,27.6-3.4,34.5l0,0c0.3,19.8,2.1,42.6-0.4,61
	c3.8,2.8-1.7,7.5,1.9,9.5c-1.7,1.9,0.6,7.7-2.3,7.5l0.1-0.1c0,0-0.1,0.1-0.1,0.2c-0.7,0.2-1.1,1-1.3,2.1c4.2,5.4-0.8,7.8,0.8,11.7
	c2-0.4,0.5,3.5,1.6,4.3c-0.3,0.9-0.7,1.8-1,2.7l-0.1-0.2l0.1,0.2c-4.9,1.9-0.3,7.1-1.8,10.9c-0.8,1.9,1.1,4.1,0.5,5.6
	c-1.4,2.9,1.3,4.7,0.6,7.5c-0.3,0-0.5,0-0.8,0C2,749.6,2,750.9,0,752.1c6.4,0.6,0,5.1,2.8,7.8c-0.1,0.1-0.2,0.1-0.4,0.2
	c0.1-0.1,0.3-0.1,0.4-0.2l0-0.1c2.4,1.8,0.1,5.6,1.2,7.9c1.1,5.5,0.2,11.5,2.7,16.5C8.4,782.4,16.9,770,10.9,775.9z M15.7,716.9
	c0.2,0.7,0.4,1.1,0.6,1.7c-0.4,0.3-0.8,0.5-1.2,0.8C14.6,718.5,15.4,717.8,15.7,716.9z M12.4,718.2c0.1,0,0.2,0.3,0.4,0.5
	c-0.1,0.2-0.3,0.4-0.4,0.5C11.9,718.9,12.1,718.4,12.4,718.2z M13.1,724.1c-2.2,0.4-3.3,2.4-4,5c-2.2,0.2-2-2.2-0.1-2.8
	C8.1,723.6,10.9,721.9,13.1,724.1z M8.8,720.1c-0.6,1.4-1,1.1-1.4,0.2C7.8,720.3,8.2,720.2,8.8,720.1z M12.1,697.2
	c0.6,0.6,0.6,0.6,0,1.7L12.1,697.2z M18.4,667.5c0.5,0.6,1,1.3,1.5,1.9C18.7,669.5,17.2,669.1,18.4,667.5z M7.9,349.4
	c0.9,0.7,0.9,1.1,0.2,2.1C7.8,350.6,7.2,349.9,7.9,349.4z M11.3,640.7c-0.2,0.8-0.5,1.6-1.2,1.6C10.1,640.6,10.7,640.6,11.3,640.7z
	 M8.4,643.2c1,0.2,0.8,0.9,1.2,2.2l-1.5,0C8.3,644.5,8.3,643.8,8.4,643.2z M8,659.5c0.3-0.4,0.3-1.3,0.4-1.9c1,0.3,1.5,0.7,2.3,1.5
	c0.2-3.2-1.6-3.6-2.3-5c-0.3-1.9,1.2-2.9,0.6-5.1c0-0.6,0.7-2.1,1.7-1.6c-1.4,2.4-0.2,4,0.9,6.1c0.7,0,0.5,0.1,0.9-0.2
	c2.1-2.2,3.3,2.3,2.7,3.9c0.4,4.4,1.2,9.4-2,12.6c4.3,3.1-1.5,9.4-4.8,3.5c0.3-0.5,0.6-0.9,1-1.5C6.5,670.2,7.2,662.1,8,659.5z"/>
<path class="st1" d="M4.5,206.5c1.4,5-1.2,11.1,1.6,15.6c-1.5,2.3-0.6,5.9,0.6,7.8c-3.4,7.3-1.8,15.2-2.1,23.1
	c5.1,5,1.2-4.3,6.8-4.7l0,0c0.8,0.1,0.6,1.2,1,1.9c4-4.1,9.1-3.2,12.2-8c-0.6-0.2-0.8-0.5-1-0.4c-2.6,1.9-5.7,0.6-8,2.4
	c-1.2,0.6-2.9-1.1-3.9,0.8c-1-1.2-1.8-1.9-3.4-2c0-2.3-0.9-4.8,0.1-6.9c1.2-1.4,1-6-0.7-2.2c-0.4-1.1,0.1-2,0.5-2.2
	c1.4-0.3,2.5-3,4-1.8c1.6,1.9,3.1-0.9,4.7,0.6c2.1,1.6,4.9,0.9,7,2.4c2.6,1.3,4.5,2.3,4.4-3.1c2.2-0.5,3.9-3.3,6.5-3.3
	c0.8,2.5,2.6,9.2-1.6,9.1c0.3,8,10.3-2.2,4.2-3.3c1-0.7,2.3,0.5,2.7-2.1c0.7,0.7,1.1,1.2,1.6,1.7c0.6-1.9-1.1-4.3,1-6.1
	c2.6,1.1,2.1,5.6,5.7,6.8c0.1-0.4,0.2-0.9,0.4-1.6c0.4,2.6,3.6,0.9,3.9-1.3c0-0.3,0.6-0.4,0.9-0.5c2.6-1.4-0.1-4.7,3.2-8.3
	c-1.1-1.3-1.2-2.3-0.6-3.9c-1.6-1.2-1,2.6-2.6,2.1c0.5-1.2,0.9-2.4,1.5-3.8c-1.5-1-2.2-2-1.6-3.8c-1.5,0.4-0.5,4.1-2.9,3.3
	c1.2-0.4,1.7-6.4,0.1-4c0,0,0,0,0,0c0,0,0,0.1,0,0.1l0,0c0,0.4-0.1,0.9-0.1,1.4c-1.3-0.5,0.1-2.7-1.8-2.4c-0.6,1.4-1.3,3-2.1,4.8
	c-0.2-0.8-0.3-1.4-0.5-2.2c-1.9,1.8-0.6,7.5-4,7.1c-1.4-0.2-2.5,1.5-3.7,0c-1.9,4-4-0.4-5.2,4c-1.3-0.2-2.5-0.3-3.8,0.3
	c1.6,5.2-7.5,8.1-8.8,4.7c1.5-1.6,2.7-3.7,5-3.7c-4-2.4-7.2,1.5-11.4-1c0.6-0.7,1-1.2,1.4-1.8c-1.4-3.8-2.4,1.2-4.5,1.3
	c-1.3-3.6-2.4,0.4-3.1-3.1c-0.7-9.8-0.2-19.8,0.3-29.7c2.6,0.8,0,7.9,1.7,10.8c-0.3,1.9,0.4,3.1,1,4.3c0.5,2.2-1.5,7.4,1.5,8.5
	c0.3-0.1,0.6-0.8,0.6-1.2c-0.3-3.3,2.5-4.2,1.5-7.6c-0.6,0.4-1.1,0.8-1.8,1.3c-0.4-2.2-3.7-20.6,0.9-14.8c0.5-3.5-0.9-7.6,1-10.5
	c-0.2-1.8-1.7-1.1-1.7-3.5c0.5,0,0.9,0,1.4,0.1c-0.5-2.9-3.2-4.2-3.1-7.8c0.1-2.8-1.4-2.3-2.1-0.5c1.6,5,0.2,9.4,0.4,14.4
	c3-2.6,3.9,2.7-0.2,1.3c-0.3,0.8-0.6,1.7-1.1,2.8c-2.4-7.8,1.3-17.5-1.4-25.5c2.2-5.9-0.4-13,0.9-20.1c2.8,7.8,1.5,15.7,2.1,24.3
	c0.7-1.7,1.1-2.9,1.6-4.1c3,0.3,3.3,5,5.5,7.1c0.2-2.1,0.8-4.3-0.3-5.9l0,0c-0.8-0.5-1.2-2-1.7-2.9c-1.3,0-1.6-2.3-2.6-3.1
	c-0.2-0.6,0.1-2.2-1.3-2.6c0.6-1.2,0.7-2.4,0.6-3.8c0.6,0.2,1,0.4,1.5,0.6c1-2.7-1.5-3-1.4-5.8c-1.7-3-1.7-6.3-2.1-9.7
	c-1.5,0.7-0.4,4-2,4.6c-1-2.1-1-15,2.3-7.7c1.1-0.3,2.4,1,3.4-1.6c1,2,2.1,2.4,3.3,2.7c1.7,0,2.9,2.8,4.8,2.4
	c-0.2-4.3-5.5-3-4.7-6.8c-1.8,0.7-1.4-1.5-2-2.3c-0.6-0.5-0.1-2.2-0.8-2.1c-1-0.1-0.9-1.9-1.4-2.7c-1.2-4-2.8-7.4,1.4-9
	c1.8,2.2,3.6,3.6,3.8,6.9c2.4-1.2,0.9-2.4,0.3-4.1c-0.8-2-1.2-4.3-2.7-5.7c-3.2-0.9,0.3-6.9,2.7-5.6c0.3,0.1,0.6-0.3,1.5-0.7
	c-3.3-0.5-1.8-2.9-4-3.5c2-1.7,1.2-3.1,0.3-5.2c-4.8,2.8-4-6.2-1.6-8.6c-0.8-4.2-3.1-7.1-3.2-11.2c0.4-0.2,0.9-0.3,1.4-0.5
	c0-0.8-0.1-1.5-0.1-2.3c1.5,1.4,1.6,3.3,2.8,5.6c0.4-5.4-1.9-7.9-3.8-12.6c6.1-9,2-11.3-0.5-19.5c0.7-0.2,1.5-0.5,2.5-0.8
	c-0.6-1.5-1.1-1.5-2.3-1.8c-0.8,0.4-0.9-0.9-1.5-1.5c2.6-1.6,3.7-5.8,7.2-6.4c2.1,5.4,8.9,0,1.9-0.4c1.6-0.3,1.6-0.3,2.2-2.1
	c-2.2-1.5-4.7,0.8-6.6-2.3c-2.8-0.6-2.1-3.2-0.3-5c-2.4-1-1.6-4.6-3.4-5.1c-0.7-0.3-0.6-1.2-0.1-1.8c2.8-4.4,1.8-8.6,0.8-13.4
	c-0.1,0-0.1,0-0.2,0c-0.7-2.3-1.5-2.3-2,0c-0.3,0-0.5-0.1-0.8-0.1c0.1,2.5-0.1,4.6-0.6,6.7C7.2,11.1,6.6,6.4,6.9,4
	C5.9,3.9,5.9,0.4,4.7,6.2c2,16.7-1.4,34.2,1.8,50.4c1.6-4.2-0.1-9.2,1.1-13.4C8.5,50,7.7,57,9.9,63.6c-0.6,0.3-1.2,0.7-1.8,1
	C9.5,75.2,8.7,85,8.7,95.7C3.6,85.2,10,69.5,6,57.8C3.9,107.7,5.6,156.7,4.5,206.5z M51,217.5c0.2,0.1,0.3,0.2,0.4,0.3
	C50.8,218.7,50.3,218.1,51,217.5z M48.9,225.4c1.1-1.7,2.6-3.4,4.6-3.7c-1,2.3-2.6,3.7-2.1,7.1C50.4,226.9,48,228.5,48.9,225.4z
	 M48.7,222.5c-0.6,0.1-1,0.2-1.7,0.3C47.9,221.5,47.9,221.5,48.7,222.5z M38.7,225.8c-0.3,2.2-0.3,2.2-1.9,2.2
	C37.2,226.5,37.8,225.8,38.7,225.8z M18.6,227.5c0.2,0,0.4,0.3,0.8,0.5C18.8,228.7,18.2,227.8,18.6,227.5z M10.3,149.4
	c0.2,0.4,0.3,0.8,0.5,1.2c-0.2,0.2-0.5,0.3-0.7,0.5C10.1,150.5,9.6,149.7,10.3,149.4z M11.1,72.8c0.2,0.3,0.4,0.6,0.7,0.8
	c-0.3-0.2-0.5-0.3-0.8-0.5C11.1,73,11.1,72.9,11.1,72.8z M12.8,32.3c0.8,1.4,1.7,2.1,1.6,3.4c-0.6,0-1.1,0-1.7-0.1
	C12.7,34.5,12.8,33.6,12.8,32.3z M10.1,41.3c0.3-1.9,0.3-1.9,1.1-0.9C10.8,40.7,10.5,41,10.1,41.3z M7.6,15.3
	c0.8,2.9,0.8,3.1-0.2,3.6C7.3,17.3,7.3,17.3,7.6,15.3z M7.3,34.8c1-2,1.6-3.7,3.3-4.1c-0.3,2,0.2,3.5,0.9,5.1
	C9.9,37.2,8.9,34.7,7.3,34.8z M11,87.8c1,0.4,0.1,1.5-0.3,1.6C10.6,88.8,10.4,88.1,11,87.8z M12.6,59.3c0.2,0.7,0,1.1-0.5,1.5
	C11.7,60.3,12,59.5,12.6,59.3z M9.6,53.9c2.7,0.4,2.3,1.7,2.5,4.2C9.8,61,10.2,55.5,9.6,53.9z M7.6,97.9c2-0.4,3.5,1.2,5.7,1.1
	c-0.5,0.7-1.6,1-1.3,1.8c2.7-1.2,1.6,1.7,1.9,3.1c-0.8,0.5-0.9,1-0.8,2c-0.5,0-0.9,0.1-1.3,0.1c-0.6-1.4-1.1-2.6-1.6-3.8l0,0
	l0.1-0.2l-0.1,0.1c-0.4-0.7-0.8-1.5-1.3-2.4c-0.6,1.7-1,3.1-1.5,4.5C7.5,102.1,7.5,100,7.6,97.9z M7.5,107.6c0.5-0.3,1-0.6,1.6-1
	c0,1.3,1,1.8,0.6,3.6c-0.6-1.3-1-1.8-2.2-2.1C7.5,108,7.5,107.8,7.5,107.6z M6.9,125.7c0.3-4.8-0.6-10.9,1-15.3
	c1.2,1.2-1,3.1,2.5,2.5c-0.9,4.9-1.4,9.4-1.2,14.4c2.2-0.9,2.4-0.8,3.3,3c-0.8-0.3-1.4-0.6-2.1-0.9c-0.2,0.5-0.3,1-0.5,1.5
	C8.1,128.8,5.9,129.2,6.9,125.7z"/>
<path class="st1" d="M20.3,685.2c-0.6,1-1.2,0.5-2.1-0.3c-5.5,12.8,0.2,11.3,0.2,3.3C19.8,688.2,21.9,686.1,20.3,685.2z"/>
<path class="st1" d="M25.1,511.8c-3.1-2.6-1.1-3-1.7-5.8c-2.7,2.5-1.6,7-0.1,10.2C22.7,513.4,25.1,514.1,25.1,511.8z"/>
<path class="st1" d="M13.1,516.5c0.7,1,1.3,0.3,2.1-0.3c-0.3,1.3-0.1,4,1.7,2.5c0.2-1.9-1.8-2.8-0.7-5.1c-0.5-0.4-1-0.8-1.5-1.1
	C14.1,515.1,14.1,515.1,13.1,516.5z"/>
<path class="st1" d="M25.6,278c0.4-2.4-3.8-2.8-5.8-2.6C20.3,277,23.9,277.9,25.6,278z"/>
<path class="st1" d="M11.7,511.8c-1.9,0.5-0.9,3,0.2,4.1C13.8,514.7,13,512.7,11.7,511.8z"/>
<path class="st1" d="M19.6,681.3c-0.6-1.5-1.2-1.1-1.8-0.5C16.5,683.7,18.7,685.3,19.6,681.3z"/>
<path class="st1" d="M16.3,532c0.1-2.3-0.3-4.6-0.4-7C15.3,525.7,14.4,534.6,16.3,532z"/>
<path class="st1" d="M18.5,547.3c-1-0.6-1.9-1.1-2.7-1.7C14.5,547.7,17.4,550.1,18.5,547.3z"/>
<path class="st1" d="M12.4,644c0.4,2-0.7,4.3,1.2,4.9C14,645.3,14,645.3,12.4,644z"/>
<path class="st1" d="M14.5,569.1c-0.8,2.9-0.8,2.9-0.5,6.8C15.3,573.7,14.7,571.4,14.5,569.1z"/>
<path class="st1" d="M13.9,376.1c-1.1,1.1-1.7,1.2-3.5,1c1.4,1.6,2.5,1,3.5,1.4C14.3,377.3,14.3,377.3,13.9,376.1z"/>
<path class="st1" d="M17.4,764.9c1.3-0.4,2.1-2.1,3.2-3C18.6,762.1,17.5,761.8,17.4,764.9z"/>
<path class="st1" d="M20.4,612.9c0.2-1.5,0.4-2.6,0.6-3.9c-0.4-0.2-0.8-0.3-1.4-0.6c0.4,1.9,0.4,2.4-0.2,4.1
	C19.8,612.7,20,612.8,20.4,612.9z"/>
<path class="st1" d="M18.8,216.1c-1.2,0.1-1.2,0.1-3,2.2C17,218.6,17.9,217.9,18.8,216.1z"/>
<path class="st1" d="M16.4,634.6c0.5-0.1,1.3,0.5,1.4-1.3c-0.7-0.1-1.3-0.2-2.1-0.4C16,633.7,16.2,634.7,16.4,634.6z"/>
<path class="st1" d="M28.5,685.5c0.5-0.5,1-1.2,1.6-2c-0.6-0.3-1.1-0.6-1.6-0.8c-0.2,0.9-0.5,1.7-0.7,2.6
	C28.1,685.4,28.4,685.7,28.5,685.5z"/>
<path class="st1" d="M9.8,703.5C9.8,703.5,9.8,703.6,9.8,703.5C9.8,703.5,9.8,703.5,9.8,703.5L9.8,703.5z"/>
<path class="st1" d="M9.8,703.6c-0.7,1.1-0.9,2.1-0.9,3.5C10.4,706.3,10.4,706.3,9.8,703.6z"/>
<path class="st1" d="M31.4,235.9c-0.4-1.6-1.1-1.5-2.2-1.3C30,236.1,30.6,236.3,31.4,235.9z"/>
<path class="st1" d="M15.7,557.4c-0.2,1.7-0.4,3-0.6,5C16,560.6,17,559.1,15.7,557.4z"/>
<path class="st1" d="M14.6,510.6c0.8,0.5,1.1-0.7,1.8-0.8c-0.3-0.8-0.5-1.3-0.9-2.4C15.1,508.8,14.8,509.6,14.6,510.6z"/>
<path class="st1" d="M15.7,702c1,1.5,1.3-1.4,1.6-2.5C16.2,700,15.7,700.6,15.7,702z"/>
<path class="st1" d="M14.5,541.6c-0.1,1.9-0.1,2.7,1.2,3.9C15.5,544,16.1,542.5,14.5,541.6z"/>
<path class="st1" d="M15.7,545.5c0,0,0,0.1,0,0.1C15.8,545.6,15.8,545.5,15.7,545.5z"/>
<path class="st1" d="M14.5,203.7c0.8-0.5,0.8-0.5,1.1-1.6C14.4,201.7,14.4,201.7,14.5,203.7z"/>
<path class="st1" d="M14.5,544.1C14.5,544.1,14.5,544.1,14.5,544.1C14.5,544.1,14.5,544,14.5,544.1C14.5,544,14.5,544.1,14.5,544.1z
	"/>
<path class="st1" d="M14,545.7c0.5-0.1,0.5-0.9,0.5-1.6c-0.7,0.2-1.5,0.4-2.5,0.6C12.7,545.8,13.4,545.8,14,545.7z"/>
<path class="st1" d="M18,286.6c0.5,0.7,0.9,1.9,1.8,1.1C19.4,286.2,18.7,286.4,18,286.6z"/>
<path class="st1" d="M13.7,510.9c-0.4-2-1.5-2-1.4-0.5C12.7,511.4,13.1,510.9,13.7,510.9z"/>
<path class="st1" d="M11.8,527.9c0.2-0.9,1.1-1.7,0.2-2.4C11.1,525.4,11.1,527.1,11.8,527.9z"/>
<path class="st1" d="M11.5,566.7c0.6-1.5,0.6-1.6-0.1-2.7C10.8,565,11.3,565.3,11.5,566.7z"/>
<path class="st1" d="M14.3,566.7c0.7-0.9,0.7-0.9,0.9-3.3C14.2,564.8,14.2,564.8,14.3,566.7z"/>
<path class="st1" d="M14.8,578.1c-1.5-0.4-1.3,1.5-0.8,2.6C14.2,579.7,14.5,579.1,14.8,578.1z"/>
<path class="st1" d="M14.1,287.7c-0.5-1.8-1.3,0.4-1.8,1.5C13.4,289.3,13.8,288.7,14.1,287.7z"/>
<path class="st1" d="M26.6,293.8c0.1,0.1,0.4-0.2,0.9-0.5C26.5,291.4,25.7,292.6,26.6,293.8z"/>
<path class="st1" d="M20.2,594.3c-0.6-0.7-1.3-0.9-2.2-0.3C18.8,595.3,19.6,594.1,20.2,594.3z"/>
<path class="st1" d="M20.4,594.5c0-0.1-0.1-0.1-0.2-0.1C20.3,594.4,20.3,594.4,20.4,594.5z"/>
<path class="st1" d="M22.8,605.1c0,0.1,0,0.1,0.1,0.2C22.8,605.2,22.8,605.2,22.8,605.1C22.8,605.1,22.8,605.1,22.8,605.1z"/>
<path class="st1" d="M21.3,604.5c0.4,0.8,0.9,0.7,1.5,0.6C22.2,603.2,22.2,603.2,21.3,604.5z"/>
<path class="st1" d="M17.6,365.5c-0.7,0.5-0.7,0.8-0.2,1.7C17.7,366.6,18.1,366,17.6,365.5z"/>
<path class="st1" d="M27,224.7c0,0,0.2,0.4,0.4,0.9C28.3,224.4,27.9,222.8,27,224.7z"/>
<path class="st1" d="M11.6,570.4c0.8-0.7-0.1-1.2-0.4-2.3C11,569.7,11.1,570.4,11.6,570.4z"/>
<path class="st1" d="M20.3,681.3c-0.2,0.8-0.3,1.3-0.4,1.8c0.3,0.1,0.7,0.1,1.4,0.2C20.9,682.4,20.7,682,20.3,681.3z"/>
<path class="st1" d="M14.6,752.6c-0.6,0.4-0.4,1.3,0.1,1.7c0.2-0.3,0.3-0.6,0.6-1.1C15,752.9,14.8,752.5,14.6,752.6z"/>
<path class="st1" d="M14.3,554.5c0-0.3-0.2-0.7-0.4-1c-0.8,0.8-0.6,1.1-0.2,2.3C14.1,555.1,14.3,554.8,14.3,554.5z"/>
<path class="st1" d="M16.7,552.8c0.4-0.6,0.3-1.6-0.1-2.1C15.7,550.7,16.1,552.8,16.7,552.8z"/>
<path class="st1" d="M15.1,594.2c-0.4,0.2-0.8,0.5-1.6,0.9C14.5,595.8,14.9,595.3,15.1,594.2z"/>
<path class="st1" d="M13.7,692c-0.1,0.2,0.1,0.6,0.1,1c0.3-0.3,0.6-0.5,1-0.9C14.3,691.3,14,691.1,13.7,692z"/>
<path class="st1" d="M13.3,572.6c-0.2-1.1-0.4-1.7-0.6-2.6C12.4,571.2,12.4,572,13.3,572.6z"/>
<path class="st1" d="M15,300.9c-0.1-0.6-0.3-1-0.8-1.4c-0.4,0.5,0.4,1.1,0.5,1.6C14.8,301,14.9,301,15,300.9z"/>
<path class="st1" d="M20.8,289.2c0.4,0.7,0.5,1.2,1,0.1C21.4,288.7,21.2,288.6,20.8,289.2z"/>
<path class="st1" d="M12.8,272.9c-0.8,0.6-0.4,2.2,0.5,0.8C13.1,273.3,12.9,272.9,12.8,272.9z"/>
<path class="st1" d="M14.4,269.3c-0.4-0.4-0.6-0.6-1.1-0.7C13.6,269.7,13.6,269.7,14.4,269.3z"/>
<path class="st1" d="M12.1,22.4c0.9,1.3,1.4-0.5,0.4-1.2C12.4,21.8,12.2,22.1,12.1,22.4z"/>
<path class="st1" d="M16.8,630.7c0.5-0.5,0.4-0.9,0-1.5C16.2,629.7,16.4,630.1,16.8,630.7z"/>
<path class="st1" d="M30.1,670c-0.9,0-1.4,0-2-0.1C28.9,670.6,28.9,670.6,30.1,670z"/>
<path class="st1" d="M14.3,302.3c-0.6,0.2-1-0.1-1,0.7C13.6,303.4,14.5,302.6,14.3,302.3z"/>
<path class="st1" d="M25.4,241c0,0.1,0,0.2,0,0.3c0.4,0.1,0.8,0.1,1.1,0.2c0-0.2,0-0.3,0-0.5C26.2,241,25.8,241,25.4,241z"/>
<path class="st1" d="M21.7,732.9c0.6-0.8,0.9-1.2,1.3-1.7C22.1,731.3,22.1,731.4,21.7,732.9z"/>
<path class="st1" d="M23.1,731.2L23.1,731.2C23.1,731.2,23.1,731.2,23.1,731.2C23.1,731.2,23.1,731.2,23.1,731.2z"/>
<path class="st1" d="M14.2,712.5c0.1,0,0.1-0.3,0.2-0.5c-0.1-0.1-0.2-0.2-0.4-0.2c-0.1,0.2-0.2,0.3-0.3,0.5
	C14,712.3,14.1,712.5,14.2,712.5z"/>
<path class="st1" d="M13.1,549.3c-0.2,0.2-0.3,0.6-0.5,0.9c0.6,0.5,0.7,0.2,1.1-0.4C13.4,549.6,13.2,549.2,13.1,549.3z"/>
<path class="st1" d="M15.4,535.4c0-0.6,0-1.2,0-1.7c-0.1,0-0.2,0-0.3,0c-0.1,0.6-0.1,1.2-0.2,1.8C15.1,535.4,15.3,535.4,15.4,535.4z
	"/>
<path class="st1" d="M17.5,709.2c0.4,0.3,0.4,0.1,0.5-0.4C17.6,708.4,17.7,708.7,17.5,709.2z"/>
<path class="st1" d="M17.2,514c0.2-0.4,0.2-0.7,0.1-1.1C17,513.3,16.9,513.5,17.2,514z"/>
<path class="st1" d="M16.5,382c-0.1,0-0.3,0.1-0.4,0.1c0,0.2,0.1,0.3,0.1,0.5C16.4,382.4,16.7,382.2,16.5,382z"/>
<path class="st1" d="M13.6,328.6c0.1-0.1,0.2-0.3,0.4-0.6C13.2,327.8,12.6,328.7,13.6,328.6z"/>
<path class="st1" d="M15.9,771.3c0,0,0-0.4-0.1-0.6c-0.4,0.3-0.8,0.5-0.6,1C15.5,771.5,15.7,771.4,15.9,771.3z"/>
<path class="st1" d="M18,99.7c-0.4,0-0.8,0-1.2,0C17.5,101,17.6,101,18,99.7z"/>
<path class="st1" d="M16.8,99.7C16.7,99.6,16.7,99.6,16.8,99.7C16.7,99.6,16.7,99.7,16.8,99.7z"/>
<path class="st1" d="M21.6,600.9c-0.3-0.1-0.5,0.1-0.7,0.3C21,602.1,21.5,601.5,21.6,600.9z"/>
<path class="st1" d="M30.4,692.4c-0.1-0.2-0.2-0.4-0.4-0.8c-0.2,0.3-0.3,0.5-0.4,0.7C30,692.7,30.2,692.9,30.4,692.4z"/>
<path class="st1" d="M8.1,61.9c-0.7,0.4-0.3,0.8,0,1.7C8.4,62.9,8.7,62.3,8.1,61.9z"/>
<path class="st1" d="M25.2,682.5c-0.1,0-0.2,0-0.3,0c-0.1,0.3,0.1,0.5,0.3,0.7C25.2,683,25.2,682.7,25.2,682.5z"/>
<path class="st1" d="M11.6,760.4c0.3-0.1,0.6-0.2,0.9-0.3c0-0.2,0-0.3-0.1-0.5c-0.3,0.1-0.6,0.2-0.9,0.3
	C11.5,760.1,11.5,760.2,11.6,760.4z"/>
<path class="st1" d="M4.7,510.8C4.7,510.8,4.7,510.8,4.7,510.8C4.6,510.8,4.6,510.9,4.7,510.8L4.7,510.8z"/>
<path class="st1" d="M4.7,510.8c0.1-0.5,0.3-0.9,0.4-1.4C4.4,509.6,4,510.5,4.7,510.8z"/>
<path class="st1" d="M11.3,408.4c-0.1-0.1-0.2-0.2-0.3-0.3c0,0.2-0.1,0.3-0.1,0.5C11.2,408.6,11.2,408.7,11.3,408.4z"/>
<path class="st1" d="M25.2,359.5c0.4,0,0.5-0.4,0-0.4C25.1,359.3,25.1,359.4,25.2,359.5z"/>
<path class="st1" d="M23.7,354.6c0.4-0.4-0.3-1.2-0.3-0.2C23.5,354.4,23.6,354.6,23.7,354.6z"/>
<path class="st1" d="M28.3,293.1c0.2,0.2,0.3-0.1,0.4-0.2C28.3,292.7,28.3,292.6,28.3,293.1z"/>
<path class="st1" d="M15.5,240.7c0.1-0.1,0.2-0.2,0.3-0.3c-0.1-0.1-0.1-0.2-0.2-0.4C15.4,240.3,15.2,240.6,15.5,240.7z"/>
<path class="st1" d="M44.1,233.6c-0.2,0-0.5,0.1-0.8,0.1C43.7,234.4,44,234.1,44.1,233.6z"/>
<path class="st1" d="M25,662.2c0-0.1-0.2-0.2-0.3-0.3c-0.1,0.1-0.1,0.3-0.2,0.4c0.1,0.1,0.3,0.3,0.4,0.4
	C25,662.6,25.1,662.3,25,662.2z"/>
<path class="st1" d="M44.2,233.5C44.2,233.5,44.1,233.6,44.2,233.5C44.2,233.6,44.2,233.6,44.2,233.5z"/>
<path class="st1" d="M44.9,233c-0.2-0.5-0.6,0.3-0.7,0.5C44.6,233.7,44.7,233.3,44.9,233z"/>
<path class="st1" d="M20.2,215.3c0.1-0.3,0-0.4-0.2-0.5C19.9,215.2,20,215.1,20.2,215.3z"/>
<path class="st1" d="M22.5,213.5c0.3,0,0.3,0.1,0.4-0.2C22.6,213,22.6,213.2,22.5,213.5z"/>
<path class="st1" d="M21.6,599.8c0,0.3,0,0.6,0,0.9C21.6,600.4,21.9,600,21.6,599.8z"/>
<path class="st1" d="M21.6,600.7c0,0.1,0,0.2,0,0.2c0,0,0,0,0.1,0C21.6,600.9,21.6,600.8,21.6,600.7z"/>
<path class="st1" d="M21.2,86.5c0,0.2,0.1,0.4,0.2,0.6c0.1-0.1,0.2-0.3,0.3-0.4C21.4,86.5,21.3,86.1,21.2,86.5z"/>
<path class="st1" d="M18.8,629.3c0.3-0.1,0.1-0.5,0.1-0.7C18.6,628.7,18.8,629,18.8,629.3z"/>
<path class="st1" d="M13.2,637.1c0.4,0.4,0.4,0,0.5-0.3C13.3,636.4,13.4,636.7,13.2,637.1z"/>
<path class="st1" d="M21,594.6c-0.2-0.1-0.4-0.1-0.6-0.2c0.2,0.2,0.4,0.4,0.5,0.6C21,594.9,21,594.8,21,594.6z"/>
<path class="st1" d="M11.3,628c0.3,0.5,0.5,0.1,0.3-0.3C11.5,627.8,11.4,627.9,11.3,628z"/>
<path class="st1" d="M26.8,726.8c0.2-0.2,0.1-0.7-0.1-0.9c-0.1,0.2-0.2,0.5-0.2,0.7C26.6,726.7,26.7,726.8,26.8,726.8z"/>
<path class="st1" d="M14.2,614.6c0,0.2,0.1,0.4,0.1,0.6c0.3-0.2,0.3-0.5,0.2-0.8C14.4,614.4,14.2,614.5,14.2,614.6z"/>
<polygon class="st1" points="21.3,733.2 21.2,733 21.1,733.2 "/>
<path class="st1" d="M2.8,716.1c-0.2,0.6-0.5,0.6-0.1,1.1C2.8,716.8,3.1,716.5,2.8,716.1z"/>
<path class="st1" d="M16.3,696.4c0.1-0.2,0.3-0.3,0.1-0.6C16.4,696.1,16.4,696.3,16.3,696.4z"/>
<path class="st1" d="M22.8,605.3C22.8,605.3,22.8,605.3,22.8,605.3C22.8,605.3,22.8,605.3,22.8,605.3z"/>
<path class="st1" d="M22.8,605.3C22.8,605.5,22.8,605.6,22.8,605.3L22.8,605.3z"/>
<path class="st1" d="M23.5,598.6c0-0.3,0.3-0.5,0-0.7C23.4,598.1,23.2,598.4,23.5,598.6z"/>
<path class="st1" d="M10.5,513.9C10.6,513.9,10.6,513.9,10.5,513.9C10.6,513.9,10.5,513.9,10.5,513.9z"/>
<path class="st1" d="M10.2,514.4c0.1-0.2,0.2-0.3,0.3-0.5c-0.1,0.1-0.3,0.2-0.4,0.2C10.2,514.3,10.2,514.3,10.2,514.4z"/>
<path class="st1" d="M18.2,513.3c-1.6,1.8,2.5,2.9,1.8-4.8c-0.5,1.2-0.7,1.6-0.8,2.1l0,0c-0.1,0.2-0.1,0.4-0.2,0.6
	c0.1-0.2,0.1-0.3,0.2-0.5C19.5,511.6,19.4,513.4,18.2,513.3z"/>
<path class="st1" d="M12.3,411.2c0-0.3,0.3-0.6,0-0.8C12.3,410.7,12.1,411,12.3,411.2z"/>
<path class="st1" d="M28.8,295c-0.1,0-0.1-0.1-0.2-0.1c0,0.1-0.1,0.1-0.1,0.2C28.6,295,28.7,295,28.8,295z"/>
<path class="st1" d="M50.4,210.8c0-0.3,0.1-0.6-0.1-0.9C50.1,210.4,50.1,210.5,50.4,210.8z"/>
<polygon class="st1" points="12,171.7 11.9,171.7 11.9,171.9 "/>
<path class="st1" d="M9.6,136.6c0,0-0.1,0.1,0,0.1C9.6,136.7,9.6,136.6,9.6,136.6z"/>
<path class="st1" d="M9.6,136c0,0.2,0,0.3-0.1,0.5c0.1-0.1,0.2-0.2,0.3-0.3C9.8,136.2,9.7,136.1,9.6,136z"/>
<path class="st1" d="M19,257.1c-0.1,0-0.1,0.1-0.2,0.1l0,0C18.9,257.1,19,257.1,19,257.1z"/>
<path class="st1" d="M10.7,319.8c-0.1,0-0.1,0.1-0.2,0.1l0,0.1C10.6,319.9,10.6,319.8,10.7,319.8z"/>
<path class="st1" d="M2.1,704.7l0,0.1C2.1,704.8,2.2,704.8,2.1,704.7z"/>
<path class="st1" d="M20.4,715.7c0.1,0.2,0.1,0.2,0.2,0C20.5,715.4,20.5,715.5,20.4,715.7z"/>
<path class="st1" d="M18.1,99.5c0,0-0.1,0.1-0.1,0.1c0,0,0,0,0,0L18.1,99.5z"/>
<path class="st1" d="M14,659.8c-0.6-0.8-1-1.6-1.6-0.4C12.9,660.8,13.4,660.6,14,659.8z"/>
<path class="st1" d="M23.6,780.6c0.4,0.2,0.6,0.3,0.9,0.4C25.4,780.2,24.1,779.7,23.6,780.6z"/>
<path class="st1" d="M12.7,2.2c-0.1,0-0.1,0-0.2,0C12.5,2.3,12.6,2.3,12.7,2.2C12.6,2.3,12.7,2.2,12.7,2.2z"/>
<path class="st1" d="M12.4,2.2L12.4,2.2C12.4,2.2,12.4,2.2,12.4,2.2C12.4,2.2,12.4,2.2,12.4,2.2z"/>
<g>
	<polygon class="st1" points="9.2,0 0,0 0,792 9.2,792 9.2,0 	"/>
</g>
<g>
	<path class="st1" d="M86.4,556.2c1.8,0,3.2,0.8,4.4,2.3c0.7,1.1,1,2.5,1,4.2c0,3.7-1.2,7.6-3.7,11.6c-0.7,1.1-1.9,2.5-3.5,4.2
		c-1.8,1.6-3.5,2.9-5,3.8c-2.6,1.6-5.3,2.9-8,3.9c-0.9,0.4-1.8,0.6-2.7,0.8v0c-4.6-5.6-7.3-9.1-7.9-10.7c-1.2-2.1-1.8-4.2-1.8-6
		v-0.1c0-2,0.7-3.4,2-4c0.7-0.4,1.5-0.7,2.3-0.7H64c2,0,4.1,1.1,6.2,3.3c2,2.1,3.4,3.8,4.3,5.2h0c1.3-5.3,2.5-9.2,3.8-11.5
		c0.6-1,1.2-1.8,1.7-2.5C82.2,557.5,84.3,556.2,86.4,556.2z"/>
</g>
<g>
	<path class="st1" d="M51.2,256.1h0.2c1.7,0,2.9,0.7,3.6,2.2c0.3,0.7,0.5,1.5,0.5,2.4v0.4c0,0.8,0,1.1-0.1,1.1
		c-0.8,0.2-1.5,0.5-2.3,0.9c-0.6,0.3-1.4,0.9-2.3,1.7c-1,1.2-1.7,2.5-2.2,3.7c-0.4,0.9-0.7,1.5-1,1.8c-1.2,1.1-2.5,2.2-3.7,3.2h0v0
		c2.3-3.4,3.7-5.5,4.1-6.3c1.1-2,1.6-3.6,1.6-4.8v-0.3c0-0.5-0.2-0.8-0.6-1l-0.2,0h-0.1c-1.2,0-2.3,1.5-3.3,4.4
		c-0.2,0.6-0.4,1.2-0.5,2h0c0-0.9-0.3-2-0.9-3.5c-0.7-1.3-1.5-2-2.3-2c-0.5,0-0.8,0.3-1,0.8c0,0.1-0.1,0.3-0.1,0.6
		c0,1.1,0.5,2.5,1.6,4.4c0,0,0.1,0.2,0.3,0.4h0c-1.1-0.8-2.1-1.8-2.9-2.9c-0.9-1.3-1.3-2.4-1.3-3.6c0-1.3,0.5-2.4,1.6-3.2
		c0.5-0.3,0.9-0.4,1.4-0.4c1.3,0,2.4,0.8,3.3,2.3c0.1,0.3,0.3,0.7,0.4,1h0c1.1-2.5,2.5-4.2,4.4-5C50,256.2,50.6,256.1,51.2,256.1z
		 M56.8,262.8h0.5c1.5,0,3,0.6,4.4,1.7c1.3,1.3,1.9,2.8,1.9,4.5v0.4c0,2.2-0.9,4.8-2.8,7.8h0c1.5-0.6,2.8-0.9,4-0.9
		c1.4,0,2.6,0.4,3.5,1.2c1,1,1.5,2.1,1.5,3.3v0c0,1.6-0.8,3-2.3,4c-1.1,0.7-2.7,1.1-4.7,1.1h-0.4c-3.4,0-6.8-1-10.2-2.9
		c-0.5-0.3-0.8-0.5-0.9-0.7h0c3.4,1.1,6.2,1.6,8.5,1.6c2,0,3.6-0.5,4.6-1.5c0.3-0.4,0.5-0.7,0.5-1c0-0.7-0.6-1.3-1.8-1.8
		c-0.6-0.2-1.2-0.3-1.7-0.3c-1.2,0-2.5,0.2-3.8,0.7v0c1.2-2.9,1.8-5.4,1.8-7.4v-0.6c0-1.5-0.4-2.7-1.1-3.6c-0.6-0.6-1.3-0.9-2-0.9
		c-0.8,0-1.5,0.3-2.3,1c-0.9,0.8-1.4,1.5-1.6,2.1c-0.5,0.7-0.9,1.8-1.4,3.3c-1.1,4.3-1.7,8.6-1.7,12.9c0,1.1,0,2,0.1,2.9v0h0
		c-1.1-4.6-1.7-8.9-1.7-12.9c0-6.6,1.9-11,5.7-13.2C54.6,263.1,55.8,262.8,56.8,262.8z"/>
</g>
</svg>
