<?xml version="1.0" encoding="utf-8"?>
<!-- Generator: Adobe Illustrator 27.7.0, SVG Export Plug-In . SVG Version: 6.00 Build 0)  -->
<svg version="1.1" id="Layer_1" xmlns="http://www.w3.org/2000/svg" xmlns:xlink="http://www.w3.org/1999/xlink" x="0px" y="0px"
	 viewBox="0 0 371.6 496.7" style="enable-background:new 0 0 371.6 496.7;" xml:space="preserve">
<style type="text/css">
	.st0{fill:#FFFFFF;}
	.st1{fill:#1E1B1C;}
</style>
<g>
	<g>
		<path class="st0" d="M27.1,370.2c0-49.9,0-99.8,0-149.6c0.1,0.3,0.2,0.7,0.3,1c0.2-0.7,0.3-1.5,0.6-2.1c0.5-1.3,1.5-2.5,2.7-3.1
			c1.3-0.6,1.4-1.5,1.4-2.8c-0.1-9.9-0.1-19.8-0.1-29.6c0-2.1,0-4.1,0.1-6.2c0.2-2.5,1.3-4.7,4.7-4.4c1,0.1,1.7-0.5,2.4-0.9
			c0,0,0-0.2,0-0.3c97.6,0,195.2,0,292.8,0c0.8,0.6,1.5,1.2,2.7,1.1c2.5-0.1,4,1,4.5,3.3c0.2,1.1,0.3,2.2,0.3,3.3
			c0,10.3,0,20.5,0,30.8c0,1.4,0,2.9,0,4.3c0,0.3,0.1,0.6,0.3,0.7c3.2,1.6,4.6,4.1,4.6,7.6c0,45.1,0,90.2,0,135.3c0,3.1,0,6.2,0,9.3
			c0,1.8-0.5,3.5-1.7,4.9c-1.7,2.1-3.9,3-6.5,3c-100.1,0-200.2,0-300.4,0c-0.7,0-1.4-0.1-2.1-0.1c-3.5-0.4-6.1-3.1-6.2-6.5
			c0-0.1,0-0.2,0-0.4C27.4,369.3,27.2,369.8,27.1,370.2z M30.6,260.2c0,1.6,0,3.2,0,4.7c0,33.9,0,67.8,0,101.8c0,0.7,0,1.4,0.1,2.1
			c0.2,1.8,1.6,3.2,3.3,3.4c1,0.1,2,0.1,3,0.1c97.9,0,195.8,0,293.7,0c1.8,0,3.6,0,5.4,0c0.9,0,1.8-0.1,2.6-0.4
			c1.6-0.8,2.3-2.2,2.3-4c0-7.8,0-15.7,0-23.5c0-26.9,0-53.8,0-80.7c0-1.1,0-2.2,0-3.4c-0.9,0-1.6,0-2.3,0c-0.6,0-0.8-0.2-0.8-0.7
			c0-2.2-0.6-4.2-1.8-6c-0.1-0.1-0.1-0.3-0.2-0.5c1.7,0,3.3,0,5,0c0-0.4,0.1-0.7,0.1-1c0-2.6,0-5.1,0-7.7c0-7.1,0-14.2,0-21.2
			c0-2.2-1.2-3.7-2.8-4.2c-0.8-0.3-1.7-0.3-2.6-0.3c-12.4,0-24.7,0-37.1,0c-7.6,0-15.2,0-22.8,0c-60.8,0-121.5,0-182.3,0
			c-14.1,0-28.1,0-42.2,0c-5.2,0-10.5,0-15.7,0c-1,0-2,0-2.8,0.5c-1.5,0.9-2.1,2.2-2.1,3.9c0,8.3,0,16.6,0,24.9c0,1.5,0,3,0,4.5
			c0,0.4,0.1,0.6,0.6,0.6c1.3,0,2.6,0,4,0c0.2,0,0.3,0,0.6,0.1c-1.4,2.2-2.1,4.6-2.1,7.2C32.6,260.2,31.7,260.2,30.6,260.2z
			 M38.3,187.6c0,0.8,0,1.6,0,2.5c0,8,0,16,0,24c0,0.9,0,0.9,0.9,0.9c7,0,14,0,21,0c15.1,0,30.1,0,45.2,0c64.1,0,128.3,0,192.4,0
			c10.3,0,20.6,0,30.9,0c1.5,0,3,0,4.6,0c0-9.2,0-18.3,0-27.5c-0.8,0.6-1.7,0.7-2.6,0.7c-18.5,0-36.9,0-55.4,0
			c-20.7,0-41.5,0-62.2,0s-41.5,0-62.2,0s-41.5,0-62.2,0c-15.3,0-30.7,0-46-0.1C41.1,188.3,39.6,188.5,38.3,187.6z M41.2,175.7
			c0,2.9,0,5.8,0,8.6c0,0.4,0.2,0.5,0.6,0.5c1.2,0,2.4,0,3.6,0c88.2,0,176.3,0,264.5,0c6.5,0,13.1,0,19.6,0c0.6,0,0.8-0.2,0.8-0.8
			c0-2.5,0-5.1,0-7.6c0-0.6-0.2-0.8-0.7-0.7c-1.3,0-2.6,0-4,0c-37.5,0-75,0-112.6,0c-47.1,0-94.2,0-141.3,0c-9.7,0-19.5,0-29.2,0
			C42.1,175.7,41.7,175.7,41.2,175.7z"/>
		<path class="st0" d="M227.8,357.5c3.3-0.6,5.7-3.3,5.8-6.8c0.1-1.5,0-3,0-4.5c0-16.4,0-32.8,0-49.2c0-4.3-2.9-7.6-7.5-7.6
			c-0.6,0-1.3,0-1.9,0c0.7-0.5,1.5-0.9,2.1-1.5c1.1-1,1.5-2.3,1.5-3.7c0-5.6,0-11.1,0-16.7c0-2.4-1.2-4-3.4-4.9
			c-0.1,0-0.1-0.1-0.2-0.1c0,0-0.1-0.1-0.2-0.2c0.9,0,1.8,0,2.6,0c19.6,0,39.2,0,58.9,0c8.9,0,17.9,0,26.8,0c0.6,0,1.1,0,1.7,0
			c0.6-0.1,0.8,0.2,0.9,0.7c0.8,2.8,2.4,5,5,6.4c3.8,2.1,7.7,2.1,11.5-0.1c2.4-1.4,3.9-3.5,4.6-6.2c0.2-0.6,1.2-1.1,1.7-0.7
			c0.1,0.1,0.1,0.3,0.1,0.5c0,13.7,0,27.4-0.1,41.1c0,2.2,0,4.4,0,6.7c0,0.1,0,0.2-0.1,0.3c-1-8.9-3.8-17.2-9.3-24.4
			c0.9-0.9,1.7-1.8,2.6-2.6c2.9-2.7,2.2-6.9,0.1-8.9c-0.8-0.8-1.6-1.7-2.4-2.4c-2.2-1.9-5.2-2.1-7.5-0.3c-1.1,0.8-2.1,1.9-3.1,2.9
			c-0.4,0.4-0.6,0.4-1,0.1c-5.8-4.1-12.3-6.8-19.3-8.1c-6.4-1.2-12.7-1.1-19.1,0.1c-6.4,1.2-12.2,3.9-17.6,7.4
			c-0.4,0.3-0.9,0.8-1.3,0.8c-0.4,0-0.7-0.6-1.1-1c-1-1-2-2.1-3.3-2.7c-2.3-1.1-4.9-0.7-6.7,1c-0.8,0.8-1.6,1.6-2.4,2.4
			c-2.4,2.5-2.4,6.1,0,8.6c0.8,0.8,1.5,1.6,2.3,2.3c0.4,0.3,0.3,0.6,0.1,0.9c-3.8,5.2-6.3,10.9-7.7,17.1c-1.3,5.7-1.6,11.5-0.9,17.4
			c0.9,7.4,3.4,14.1,7.3,20.3c0.4,0.6,0.8,1.3,1.3,1.9c0.3,0.4,0.2,0.7-0.1,1c-0.8,0.8-1.7,1.7-2.5,2.5c-2.3,2.4-1.9,6.5,0.2,8.4
			c0.8,0.7,1.5,1.5,2.2,2.2c2.3,2.3,6,2.4,8.5,0.2c0.8-0.7,1.5-1.5,2.3-2.2c0.6-0.7,0.6-0.7,1.4-0.1c2.5,1.7,5.1,3.2,7.8,4.4
			c5.4,2.4,11,3.8,16.9,4.2c8.1,0.6,15.8-0.8,23.2-4c2.9-1.3,5.7-2.8,8.4-4.7c0.9-0.6,0.8-0.6,1.5,0.1c0.8,0.8,1.6,1.6,2.5,2.4
			c2.1,1.9,5.5,1.9,7.7,0.1c1.1-1,2.2-2,3.2-3.1c1.9-2.2,1.7-5.8-0.3-8c-0.8-0.8-1.6-1.6-2.4-2.4c-0.4-0.4-0.4-0.6-0.1-1
			c3.2-4.4,5.5-9.2,7-14.4c0.9-3.1,1.5-6.2,1.8-9.5c0-0.1,0-0.2,0.2-0.4c0,2.4,0,4.7,0,7.1c0,12.1,0,24.2,0,36.3c0,1,0,2-0.1,3
			c-0.1,2.1-1.8,3.7-4,3.8c-1.2,0-2.3,0-3.5,0c-33.6,0-67.3,0-100.9,0c-1.7,0-3.5,0-5.3,0c0.1-0.1,0.2-0.2,0.2-0.2
			c2.3-1.1,3.3-3,3.3-5.5c0-2.1,0-4.1,0-6.2C227.8,357.7,227.8,357.6,227.8,357.5z"/>
		<path class="st0" d="M33.7,310.7c0-5.4,0-10.8,0-16.2c0-9.7,0-19.5,0-29.2c0-0.8,0-1.6,0-2.4c0-0.4,0.1-0.6,0.6-0.6
			c0.3,0,0.7,0,0.9,0.1c0.6,1.2,1,2.5,1.7,3.7c1.7,2.8,4.2,4.2,7.4,4.6c4.2,0.5,7.8-0.8,10.5-4.1c0.9-1.1,1.5-2.3,1.8-3.6
			c0.1-0.5,0.3-0.6,0.8-0.6c7.7,0,15.3-0.1,23-0.1c20.7,0,41.5,0,62.2,0c1.6,0,3.3,0,4.9,0.1c-0.1,0.1-0.2,0.2-0.4,0.2
			c-2.3,0.9-3.3,2.7-3.3,5c-0.1,2.7,0,5.3,0,8c0,2.8,0,5.6,0,8.4c0,2.5,1.1,4.1,3.4,5c0.1,0,0.2,0.1,0.3,0.2c0,0.1,0,0.1,0,0.2
			c-1,0-2-0.1-2.9,0c-3.5,0.3-6.3,3-6.5,6.6c0,0.6,0,1.3,0,1.9c0,17.4,0,34.9,0,52.3c0,3.5,2.1,6.2,5.4,7.1c0.4,0.1,0.5,0.3,0.5,0.7
			c0,1.9,0,3.7,0,5.6c-0.1,2.7,1,4.7,3.4,6c-0.6,0-1.3,0-1.9,0c-1.8,0-3.6,0-5.4,0c-33.7,0-67.3,0-101,0c-0.6,0-1.3,0-1.9-0.1
			c-2-0.3-3.4-1.8-3.4-3.8c-0.1-4.4,0-8.9,0-13.3c0-8.5,0-17,0-25.5c0-2,0-4.1,0-6.1c0-0.3,0-0.6,0.1-0.9c1,8.8,4,16.9,9.2,24.2
			c-0.3,0.4-0.6,0.7-1,1.1c-0.5,0.5-1.1,1.1-1.6,1.6c-2.4,2.3-2.5,6.4,0,8.8c0.8,0.7,1.4,1.5,2.2,2.2c2.5,2.3,5.9,2.3,8.4,0
			c0.8-0.8,1.6-1.6,2.4-2.4c0.4-0.4,0.6-0.4,1.1-0.1c2.8,2,5.7,3.7,8.9,5.1c4,1.6,8.2,2.9,12.5,3.4c4.3,0.5,8.6,0.6,12.9,0.1
			c7.9-1,15.1-3.8,21.7-8.2c1.2-0.8,1.2-0.8,2.2,0.2c0.6,0.6,1.2,1.2,1.8,1.8c2.4,2.2,6,2.2,8.4,0c0.9-0.8,1.7-1.7,2.6-2.6
			c2.2-2.4,2.1-6.1-0.2-8.4c-0.8-0.8-1.6-1.6-2.4-2.4c-0.2-0.2-0.4-0.4-0.1-0.8c2.5-3.3,4.3-7.1,5.9-10.9c1.6-4,2.5-8.1,2.9-12.4
			c0.3-3.3,0.4-6.5,0.1-9.8c-0.4-4.7-1.5-9.3-3.3-13.7c-1.4-3.6-3.3-6.9-5.5-10.1c-0.2-0.3-0.3-0.6,0.1-0.9c0.8-0.8,1.6-1.6,2.4-2.5
			c2.3-2.5,2.3-5.9,0-8.4c-0.8-0.8-1.6-1.7-2.4-2.5c-2.1-1.9-5.3-2.2-7.6-0.6c-1,0.7-1.8,1.6-2.7,2.4c-1.2,1.1-0.7,1.1-2.1,0.2
			c-3.8-2.5-7.7-4.6-12-6c-4-1.3-8.1-2.1-12.3-2.4c-4.2-0.3-8.5-0.1-12.6,0.7c-6.6,1.2-12.8,3.8-18.4,7.5c-0.2,0.1-0.4,0.2-0.5,0.4
			c-0.7,0.6-0.7,0.6-1.4-0.1c-0.8-0.8-1.6-1.5-2.4-2.3c-2.3-2.1-5.9-2.1-8.2,0c-1,0.9-2,1.8-2.8,2.9c-2,2.4-1.8,6,0.4,8.2
			c0.8,0.8,1.5,1.5,2.3,2.3c0.3,0.3,0.3,0.6,0.1,1c-3.6,5-6,10.4-7.5,16.4c-0.5,2-0.8,4.2-1.1,6.2C33.9,310.1,33.8,310.4,33.7,310.7
			C33.7,310.7,33.7,310.7,33.7,310.7z"/>
		<path class="st0" d="M177.5,220.8c39.2,0,78.3,0,117.5,0c0.9,0,1.7,0,2.6,0.1c2.9,0.4,5.1,2.8,5.1,5.8c0,3.8,0,7.5,0,11.3
			c0,1.6,0,3.2-0.1,4.7c-0.2,3.2-2.7,5.6-6,5.6c-7.3,0-14.7,0-22,0c-71.3,0-142.5,0-213.8,0c-1.2,0-2.5,0-3.7-0.2
			c-2.9-0.6-4.7-3-4.7-6c0-5,0-9.9,0-14.9c0-2.7,1.1-4.8,3.6-5.9c0.8-0.4,1.7-0.5,2.6-0.5c10.7,0,21.3,0,32,0
			C119.6,220.8,148.5,220.8,177.5,220.8z M236.1,245.8c0-3.3,0-6.4,0-9.5c0-0.5-0.2-0.6-0.7-0.6c-0.8,0-1.6,0-2.3,0
			c-47.6,0-95.1,0-142.7,0c-0.2,0-0.4,0-0.6,0c-0.8-0.1-1.2-0.5-1.2-1.2c0-0.8,0.3-1.2,1.1-1.4c0.4-0.1,0.7-0.1,1.1-0.1
			c1.9,0,3.8,0,5.6,0c45.5,0,91,0,136.4,0c0.9,0,1.8,0,2.7,0c0.2,0,0.5-0.1,0.5-0.2c0.1-0.4,0.1-0.9,0-1.3c0-0.1-0.5-0.2-0.8-0.2
			c-7.3,0-14.7,0-22,0c-39.2,0-78.4,0-117.5,0c-1.9,0-3.8,0-5.6-0.1c-0.4,0-0.7,0-0.7-0.5c0-0.5,0.3-0.5,0.7-0.5c1.3,0,2.5,0,3.8,0
			c39.8,0,79.6,0,119.4,0c7.4,0,14.8,0,22.2,0c0.6,0,0.7-0.2,0.7-0.7c0-1,0-2,0-3c0-1,0-1.9,0-2.9c-0.8,0-1.5,0-2.2,0
			c-55,0-110.1,0-165.1,0c-3.3,0-6.6,0-9.9,0c-2.6,0-3.9,1.3-3.9,4c0,4.9,0,9.8,0,14.7c0,2.3,1.3,3.6,3.6,3.6c5.3,0,10.5,0,15.8,0
			c30.1,0,60.2,0,90.2,0c8.3,0,16.5,0,24.8,0c4.3,0,8.6,0,12.8,0c4.8,0,9.5,0,14.3,0c5.9,0,11.8,0,17.7,0
			C234.9,245.8,235.5,245.8,236.1,245.8z M239.9,223.4c0,1.7,0,3.4,0,5c0,1.6,0,1.6,1.6,1.6c18.1,0,36.2,0,54.3,0
			c0.3,0,0.6,0,0.8,0.1c0.2,0.1,0.4,0.3,0.6,0.5c-0.2,0.2-0.4,0.4-0.6,0.5c-0.1,0.1-0.3,0-0.4,0c-18.6,0-37.1,0-55.7,0
			c-0.2,0-0.4,0-0.7,0c0,0.4,0,0.8,0,1.2c0,0.4,0.2,0.6,0.6,0.5c1.2,0,2.4-0.1,3.6-0.1c17.2,0,34.5,0,51.7,0c0.5,0,1.1,0,1.5,0.2
			c0.9,0.3,1.1,1.6,0.3,2.1c-0.3,0.2-0.8,0.3-1.2,0.3c-18.6,0-37.2,0-55.8,0c-0.6,0-0.8,0.1-0.8,0.7c0,2.9,0,5.8,0,8.7
			c0,0.6,0.2,0.7,0.7,0.7c3,0,6.1,0,9.1,0c15.5,0,31.1,0,46.6,0c1.4,0,2.6-0.3,3.2-1.6c0.3-0.6,0.5-1.3,0.5-2c0-4.9,0-9.8,0-14.6
			c0-0.4,0-0.7-0.1-1.1c-0.2-1.4-1-2.4-2.4-2.7c-0.9-0.2-1.8-0.2-2.8-0.2c-17.6,0-35.2,0-52.8,0
			C241.4,223.4,240.7,223.4,239.9,223.4z"/>
		<path class="st0" d="M225.9,355.9c0,2.9,0,5.7,0,8.4c0,1.8-1.1,3.2-2.8,3.6c-0.6,0.1-1.2,0.2-1.8,0.2c-19.3,0-38.5,0-57.8,0
			c-4.5,0-9.1,0-13.6,0c-2.2,0-3.6-1-4.1-2.9c-0.1-0.4-0.1-0.9-0.1-1.3c0-2.5,0-5.1-0.1-7.6c0-0.1,0-0.3,0-0.4
			c-0.7-0.1-1.4-0.1-2-0.3c-2.5-0.8-3.9-2.7-3.9-5.4c0-6.2,0-12.4,0-18.6c0-11.5,0-22.9,0-34.4c0-3.6,2.3-5.8,5.9-5.8
			c1.2,0,2.4-0.1,3.6-0.1c8.5,0,17,0,25.5,0c5.5,0,11,0,16.5,0c9.9,0,19.8,0,29.8,0c1.8,0,3.5,0,5.3,0c3.2,0.1,5.5,2.4,5.5,5.6
			c0,17.6,0,35.2,0,52.9c0,1.4-0.2,2.7-1.1,3.9c-1,1.3-2.3,1.9-3.8,2.1C226.6,355.8,226.3,355.8,225.9,355.9z M222,345.8
			c0-0.9,0.1-1.6,0.1-2.4c0-0.3,0.1-0.7,0.3-0.9c0.6-0.5,0.7-1.1,0.7-1.8c0-1.1,0-2.2,0-3.4c0-2,0-4.1,0-6.1c0-0.6-0.1-1.3-0.5-1.8
			c-0.3-0.5-0.6-0.9-0.6-1.5c0-5,0-10,0-15c0-3.4,0-6.7,0-10.1c0-1.1-0.3-2.1-1.3-2.6c-0.6-0.3-1.3-0.4-1.9-0.4
			c-21.6,0-43.3,0-64.9,0c-2.2,0-3,0.9-3,3c0,8.5,0,16.9,0,25.4c0,0.4-0.2,0.9-0.5,1.1c-0.4,0.4-0.6,0.8-0.6,1.2c0,3.5,0,7,0,10.5
			c0,0.6,0.2,1,0.7,1.4c0.2,0.1,0.4,0.3,0.4,0.5c0.1,0.9,0.1,1.8,0.1,2.8c-1.3,0-2.6,0-3.8,0c0,2.3,0,4.6,0,6.8
			c0,0.6,0.4,0.6,0.8,0.6c25.5,0,51,0,76.6,0.1c0.5,0,0.7-0.1,0.7-0.7c0-1.5,0-3.1,0-4.6c0-0.7,0-1.3,0-2.1
			C224.1,345.8,223,345.8,222,345.8z M228.6,341.9c0.1,0,0.2,0,0.3,0c0-1.1,0-2.2,0-3.2c0.1-11.4,0.2-22.9,0.3-34.3
			c0-2.3,0-4.6,0-6.9c-0.1-1.9-1.7-3.6-3.6-3.7c-1.3-0.1-2.7-0.1-4-0.1c-16.1,0-32.2,0-48.3,0c-9.2,0-18.4,0.1-27.6,0.1
			c-0.3,0-0.7,0-1,0.1c-1.8,0.5-3,2.1-3,4.2c0,2.5,0,5,0.1,7.4c0.1,11.4,0.2,22.9,0.3,34.3c0,0.7,0.1,1.5,0.1,2.2
			c0.2-0.2,0.2-0.4,0.2-0.7c0.1-12.5,0.2-25.1,0.3-37.6c0-1.8,0-3.6,0-5.4c0-2.3,1.2-3.5,3.4-3.5c0.6,0,1.3,0,1.9,0
			c20.6,0,41.2,0,61.8,0c5,0,10,0,15,0c1,0,1.8,0.3,2.5,1c0.8,0.8,0.8,1.9,0.8,2.9c0.1,8,0.1,16.1,0.1,24.1c0,6.1,0.1,12.1,0.2,18.2
			C228.6,341.3,228.6,341.6,228.6,341.9z M176,355.9c-0.1-0.1-0.2-0.1-0.2-0.1c-4.3,0-8.5,0-12.8-0.1c-0.6,0-0.8,0.3-0.8,0.9
			c0,2.3,0,4.7,0,7c0,0.5-0.2,1.2,0.1,1.3c0.3,0.2,0.9,0.1,1.4,0.1c3.8,0,7.7,0,11.5,0c0.5,0,0.7-0.1,0.7-0.7c0-1,0-2.1,0-3.1
			C176,359.5,176,357.7,176,355.9z M202.5,365.1C202.5,365.1,202.5,365.1,202.5,365.1c2.1,0,4.2,0,6.3,0c0.5,0,0.6-0.2,0.6-0.6
			c0-2.5,0-5,0-7.6c0-1.1,0-1.1-1-1.1c-4,0-8,0-12,0c-0.5,0-0.7,0.1-0.7,0.7c0,2.6,0,5.3,0,7.9c0,0.6,0.2,0.7,0.7,0.7
			C198.4,365.1,200.5,365.1,202.5,365.1z M185.8,355.8c-2.1,0-4.2,0-6.3,0c-0.5,0-0.6,0.2-0.6,0.6c0,2.7,0,5.3,0,8
			c0,0.5,0.2,0.7,0.7,0.7c4.2,0,8.3,0,12.5,0c0.4,0,0.5-0.2,0.5-0.6c0-2.7,0-5.4,0-8c0-0.5-0.2-0.7-0.7-0.7
			C189.9,355.8,187.9,355.8,185.8,355.8z M154,355.8C154,355.8,154,355.8,154,355.8c-1.5,0-3.1,0-4.6,0c-0.4,0-0.7,0.1-0.7,0.6
			c0,2.6,0,5.2,0,7.8c0,0.6,0.2,0.8,0.8,0.8c3,0,6,0,9,0c0.5,0,0.6-0.2,0.6-0.6c0-2.7,0-5.4,0-8.1c0-0.4-0.2-0.6-0.6-0.6
			C157.1,355.8,155.5,355.8,154,355.8z M217.5,365.1C217.5,365.1,217.5,365.1,217.5,365.1c1.5,0,3,0,4.5,0c0.9,0,1-0.1,1-1
			c0-2.5,0-5,0-7.5c0-0.6-0.2-0.8-0.8-0.8c-2.8,0-5.6,0-8.4,0c-1.3,0-1.3,0-1.2,1.3c0,0,0,0,0,0.1c0,2.4,0,4.9-0.1,7.3
			c0,0.5,0.1,0.7,0.7,0.7C214.5,365.1,216,365.1,217.5,365.1z"/>
		<path class="st0" d="M58.4,260.2c0-2.6-0.7-4.9-2-7.1c86.4,0,172.7,0,259.1,0c-1.4,2.2-2.1,4.5-2,7.1
			C228.3,260.2,143.4,260.2,58.4,260.2z"/>
		<path class="st0" d="M318,278.3c1.2-1.2,2.4-2.4,3.6-3.6c0.8-0.8,1.7-1.5,3-1.6c1-0.1,2,0.1,2.8,0.8c0.9,0.8,1.8,1.6,2.6,2.5
			c1.8,1.9,1.9,4.1,0.1,6c-1.1,1.2-2.3,2.4-3.5,3.5c-0.4,0.3-0.4,0.6-0.1,1c4.9,6.4,8,13.6,9.2,21.7c1.3,8.9,0.1,17.5-3.4,25.7
			c-1.5,3.5-3.4,6.7-5.7,9.7c-0.3,0.4-0.3,0.6,0.1,1c1.1,1.1,2.2,2.2,3.3,3.2c1.9,2,2,4.3,0.1,6.3c-0.8,0.9-1.7,1.7-2.6,2.5
			c-1.5,1.3-3.9,1.1-5.5-0.3c-1.2-1.1-2.3-2.2-3.4-3.4c-0.4-0.5-0.7-0.5-1.2-0.1c-3.7,2.9-7.7,5-12.1,6.6
			c-5.8,2.1-11.8,3.2-17.9,2.9c-7.1-0.3-13.9-1.9-20.2-5.3c-2.3-1.2-4.4-2.8-6.6-4.2c-0.5-0.4-0.8-0.5-1.3,0.1
			c-1,1.1-2.1,2.2-3.2,3.2c-1.8,1.8-4.2,1.9-6.1,0.1c-0.8-0.7-1.5-1.5-2.2-2.3c-1.6-1.8-1.7-3.9,0-5.7c1.1-1.2,2.3-2.4,3.5-3.6
			c0.4-0.4,0.4-0.7,0.1-1.1c-1.4-2.1-2.9-4.2-4.1-6.4c-2.9-5.4-4.6-11.3-5.2-17.4c-0.6-5.5-0.2-11,1.2-16.4
			c1.6-6.2,4.3-11.8,8.2-16.9c0.3-0.4,0.2-0.6-0.1-0.9c-1.1-1.1-2.2-2.2-3.2-3.3c-2.1-2.1-2.1-4.4-0.1-6.5c0.8-0.8,1.6-1.6,2.4-2.3
			c1.4-1.2,3.6-1.2,5,0c1.4,1.2,2.7,2.6,4,3.9c0.3,0.3,0.6,0.4,1,0.1c5.4-4.1,11.4-7,18-8.5c5.1-1.2,10.2-1.4,15.4-0.9
			c8.4,0.8,16,3.8,22.8,8.7C317,277.6,317.5,277.9,318,278.3z M290,359.5c23.3-0.2,45.3-20.9,42.9-48c-1.9-21.6-20.5-40.7-45.6-40.1
			c-23.1,0.6-44.1,20.8-42.4,47.1C246.4,340.9,265.5,360.1,290,359.5z M325,284.6c0.5-0.5,0.9-1,1.4-1.5c0.7-0.7,1.5-1.4,2.1-2.2
			c0.7-0.8,0.8-1.8,0.2-2.5c-0.8-0.9-1.6-1.7-2.5-2.5c-0.9-0.8-1.9-0.7-2.8,0.1c-0.8,0.8-1.7,1.7-2.5,2.5c-1.1,1.2-1.1,0.9,0,2
			C322.2,281.8,323.5,283.2,325,284.6z M248.6,279.5c0.4,0.6,0.7,1.4,1.2,2c0.9,1,1.9,1.9,2.9,2.8c0.1,0.1,0.5,0.1,0.6,0
			c1.5-1.4,2.9-2.9,4.4-4.3c0.1-0.1,0.1-0.5,0-0.6c-1.2-1.2-2.4-2.3-3.6-3.4c-0.8-0.7-1.4-0.7-2.2,0c-1,0.8-1.9,1.7-2.7,2.7
			C248.9,278.7,248.8,279,248.6,279.5z M320,351.6c0.8,0.8,1.7,1.7,2.6,2.6c0.4,0.4,0.9,0.8,1.4,1.2c0.8,0.5,1.5,0.5,2.1-0.1
			c0.8-0.7,1.6-1.5,2.3-2.3c1-1.1,1-1.7,0-2.8c-0.8-0.9-1.7-1.8-2.6-2.7c-0.3-0.3-0.6-0.6-1-1C323.2,348.1,321.6,349.8,320,351.6z
			 M257.9,351.5c-1.6-1.7-3.1-3.2-4.7-4.8c-0.1-0.1-0.4-0.1-0.5,0c-1.2,1.1-2.4,2.2-3.5,3.4c-0.7,0.8-0.7,1.8,0,2.6
			c0.8,0.9,1.7,1.7,2.6,2.5c0.6,0.5,1.3,0.6,1.9,0.1C255.2,354.1,256.6,352.8,257.9,351.5z"/>
		<path class="st0" d="M111.8,278.3c0.6-0.6,1.2-1.2,1.7-1.8c0.7-0.7,1.4-1.4,2.1-2c1.9-1.8,4.3-1.7,6.2,0.1
			c0.7,0.7,1.4,1.4,2.1,2.1c1.6,1.6,1.7,3.9,0.2,5.6c-1.2,1.3-2.4,2.5-3.7,3.7c-0.4,0.4-0.4,0.6-0.1,1.1c3.4,4.4,5.9,9.3,7.5,14.6
			c1.6,5.1,2.2,10.3,2.1,15.6c-0.3,7.9-2.5,15.3-6.5,22.1c-1,1.7-2.1,3.2-3.2,4.8c-0.2,0.3-0.3,0.5,0.1,0.8c1.3,1.2,2.5,2.4,3.7,3.7
			c1.5,1.6,1.5,3.8,0,5.5c-0.8,0.9-1.7,1.8-2.6,2.6c-1.6,1.4-3.8,1.5-5.4,0.1c-1.3-1.2-2.6-2.5-3.8-3.7c-0.3-0.3-0.6-0.4-1-0.1
			c-5.5,4.2-11.7,7.1-18.5,8.6c-5,1.1-10,1.4-15.1,0.8c-8-0.9-15.4-3.7-22-8.3c-0.7-0.5-1.3-1-2-1.5c-1.3,1.4-2.6,2.7-4,4
			c-1.7,1.6-4,1.6-5.7,0.1c-0.8-0.8-1.6-1.5-2.4-2.4c-1.7-1.8-1.6-4.2,0.1-5.9c1.2-1.2,2.3-2.4,3.5-3.5c0.4-0.4,0.1-0.6,0-0.9
			c-1.2-1.8-2.4-3.5-3.5-5.3c-2.9-5-4.8-10.4-5.6-16.1c-0.5-3.8-0.8-7.6-0.4-11.4c0.5-4.9,1.6-9.6,3.6-14.2c1.6-3.6,3.5-7.1,6-10.2
			c0.3-0.4,0.1-0.6-0.2-0.8c-1.1-1.1-2.2-2.1-3.3-3.2c-1.2-1.2-1.8-2.6-1.3-4.3c0.2-0.6,0.5-1.2,0.9-1.7c0.9-1,1.8-1.9,2.8-2.7
			c1.5-1.3,3.6-1.3,5.1,0c1.4,1.2,2.6,2.5,3.9,3.7c0.2,0.2,0.3,0.4,0.4,0.6c8.7-6.7,18.3-10,29.1-10.1
			C93.5,268.3,103.1,271.7,111.8,278.3z M126.8,315.5c0.3-23.4-19.2-44.3-44.4-44.1c-23.3,0.1-43.5,19-43.7,43.6
			c-0.2,24.7,19.7,44.1,43.5,44.5C106.3,359.9,126.9,340,126.8,315.5z M46.6,346.5c-1.2,1.2-2.5,2.5-3.7,3.8
			c-0.7,0.8-0.7,1.6,0.1,2.4c0.7,0.8,1.4,1.5,2.2,2.2c1,1,1.8,1.1,2.8,0.1c1.3-1.1,2.4-2.4,3.6-3.6
			C50.1,349.8,48.4,348.2,46.6,346.5z M113.7,279.4c0,0.1,0,0.2,0.1,0.2c1.5,1.6,3.1,3.2,4.6,4.7c0.1,0.1,0.5,0.1,0.5,0
			c1.2-1.2,2.4-2.4,3.5-3.7c0.7-0.8,0.6-1.5-0.1-2.3c-0.8-0.9-1.7-1.7-2.6-2.5c-0.8-0.7-1.4-0.7-2.2,0
			C116.2,276.9,115,278.2,113.7,279.4z M47,284.4c1.4-1.4,2.9-2.9,4.4-4.4c0.3-0.3,0.4-0.5,0-0.8c-1-1-2-2-3-3
			c-1.1-1.1-2.1-1.1-3.3,0c-0.7,0.7-1.4,1.4-2,2.1c-0.5,0.6-0.7,1.7-0.2,2.3C44.2,281.9,45.6,283.1,47,284.4z M118.6,355.7
			c0.4-0.1,0.7-0.1,0.9-0.3c1-0.9,2.1-1.9,3-2.9c0.6-0.7,0.6-1.6-0.1-2.3c-1.1-1.2-2.2-2.3-3.3-3.4c-0.2-0.3-0.4-0.3-0.7,0
			c-1.4,1.4-2.9,2.9-4.3,4.3c-0.3,0.3-0.3,0.5,0,0.7c1.1,1.1,2.2,2.2,3.3,3.3C117.7,355.4,118.2,355.5,118.6,355.7z"/>
		<path class="st0" d="M207.2,287.6c-4.8,0-9.7,0-14.5,0c-0.4,0-0.8,0-1.2,0c-2-0.1-3.2-1.4-3.2-3.3c0-5.6,0-11.2,0-16.8
			c0-1.7,1.3-3,3-3.1c1.6-0.1,3.1-0.1,4.7-0.1c8.7,0,17.5,0,26.2,0c0.7,0,1.4,0.1,2,0.3c1.5,0.6,2,1.8,2,3.3c0,1.5,0,3.1,0,4.6
			c0,3.5,0,7,0,10.6c0,0.5,0,1-0.1,1.6c-0.2,1.8-1.5,3-3.3,3c-3.5,0-7,0-10.6,0C210.5,287.6,208.9,287.6,207.2,287.6
			C207.2,287.6,207.2,287.6,207.2,287.6z M223.1,267.1c-2.6,0-5.1,0-7.6,0c-0.2,0-0.5,0.3-0.6,0.5c-0.8,1.7-2,3.1-3.9,3.4
			c-1.4,0.2-1.7,1-2,2c-0.5,1.9-1.2,3.8-1.8,5.7c-0.2,0.5-0.4,1-1,0.8c-0.5-0.1-0.7-0.5-0.4-1.3c0.7-2.1,1.3-4.3,2-6.4
			c0.2-0.6,0.2-0.9-0.5-1.2c-1.4-0.6-2.5-1.6-3-3.2c-0.1-0.4-0.4-0.5-0.7-0.5c-4,0-8.1,0-12.1,0c-0.5,0-0.5,0.3-0.5,0.6
			c0,5.4,0,10.9,0,16.3c0,0.5,0.2,0.7,0.7,0.7c1.1,0,2.2,0,3.2,0c4.7,0,9.3,0,14,0c4.3,0,8.6,0,12.8,0c0.4,0,0.9-0.1,1.3-0.1
			C223.1,278.7,223.1,273,223.1,267.1z"/>
		<path class="st0" d="M164.6,287.6c-5,0-10,0-15,0c-0.6,0-1.2,0-1.8-0.2c-1.5-0.4-2.3-1.7-2.3-3.4c0-2.3,0-4.7,0-7
			c0-2.9,0-5.8,0-8.7c0-0.4,0-0.8,0.1-1.2c0.2-1.7,1.3-2.8,3-2.9c3.2-0.1,6.4-0.1,9.7-0.1c7,0,14,0,20.9,0c0.1,0,0.1,0,0.2,0
			c2.8,0,4,1.2,4,4c0,5.1,0,10.2,0,15.3c0,0.9,0,1.7-0.5,2.5c-0.7,1-1.6,1.5-2.9,1.5C174.9,287.6,169.7,287.6,164.6,287.6
			C164.6,287.6,164.6,287.6,164.6,287.6z M148.5,284.7c1.2,0,2.4,0,3.6,0c8.4,0,16.7,0,25.1,0c1,0,1.9,0,2.9-0.1
			c0.4,0,0.6-0.2,0.6-0.6c0-5.4,0-10.9,0-16.3c0-0.5-0.1-0.7-0.7-0.7c-3.1,0-6.2,0-9.3,0c-0.4,0-0.7,0.1-0.8,0.5
			c-0.9,2.2-2.5,3.4-4.8,3.7c-0.2,0-0.6,0.3-0.6,0.6c-0.7,2.2-1.4,4.4-2.1,6.6c-0.1,0.3-0.2,0.6-0.3,0.8c-0.2,0.4-0.5,0.5-0.9,0.3
			c-0.7-0.3-0.5-0.8-0.3-1.3c0.7-2.2,1.4-4.4,2.1-6.5c0.2-0.5,0-0.7-0.4-0.9c-1.4-0.7-2.6-1.7-3.1-3.3c-0.1-0.4-0.3-0.5-0.7-0.5
			c-0.9,0-1.9,0-2.8,0c-2.1,0-4.2,0-6.3,0c-1,0-1,0.1-1,1c0,5.2,0,10.4,0,15.5C148.5,283.9,148.5,284.2,148.5,284.7z"/>
		<path class="st0" d="M55.1,259.9c0,4.9-4.1,9.2-9,9.1c-5.7,0-9-3.8-9.1-8.9c-0.1-5.6,3.6-9.3,8.9-9.3
			C50.9,250.8,55.1,254.9,55.1,259.9z M40.2,260.3C40.2,260.3,40.2,260.3,40.2,260.3c-0.3,0-0.6,0-1,0c-0.5,0-0.7,0.1-0.6,0.7
			c0.5,3.6,3.7,6.4,7.3,6.4c3.8,0,7-2.7,7.5-6.4c0.1-0.5-0.1-0.6-0.5-0.6c-0.6,0-1.3,0-1.9,0c-0.6,0-0.8-0.2-0.9-0.8
			c0-0.4-0.1-0.7-0.2-1.1c-0.7-1.7-2.4-2.7-4.3-2.6c-1.7,0.1-3.2,1.5-3.6,3.3c-0.1,0.4-0.1,0.9-0.3,1.1c-0.3,0.2-0.8,0.1-1.2,0.1
			C40.3,260.3,40.2,260.3,40.2,260.3z"/>
		<path class="st0" d="M334.7,260.1c0,5-3.7,8.9-8.7,8.9c-5.2,0-9.4-4-9.4-9.1c0-4.9,4.1-9.1,9-9.1
			C331,250.7,334.6,254.5,334.7,260.1z M318.2,260.3c0.1,3.7,3.2,6.8,6.9,7c4,0.2,7.3-2.4,7.8-6.4c0.1-0.5,0-0.6-0.5-0.6
			c-0.9,0-1.7,0-2.6,0c-0.1-1.2-0.4-2.3-1.3-3.2c-0.9-0.9-2-1.3-3.2-1.2c-1,0.1-1.9,0.4-2.6,1.1c-0.9,0.9-1.4,2-1.3,3.3
			C320.4,260.3,319.3,260.3,318.2,260.3z"/>
		<path class="st0" d="M32.9,228.6c2.6,0,5.1,0,7.6,0c0,0.8,0,1.6,0,2.4c0,3.6,0,7.3,0,10.9c0,0.5-0.1,0.7-0.7,0.7
			c-2.3,0-4.6,0-6.9,0C32.9,238,32.9,233.3,32.9,228.6z M37.4,230c1,0.3,1,0.3,1,1.3c0,0.2,0,0.3,0,0.5c0,1.4,0,2.7,0,4.1
			c0,1.4,0,2.8,0,4.3c0,0.2-0.2,0.4-0.4,0.4c-1.1,0-2.1,0-3.2,0c0-3.5,0-7,0-10.5c-0.4-0.1-0.7-0.1-0.7,0.4c0,3.4,0,6.8,0,10.2
			c0,0.2,0.2,0.4,0.4,0.5c1.5,0,2.9,0,4.4,0c0-0.3,0-0.6,0-0.8c0-3,0-6,0-9.1c0-1.3,0-1.3-1.4-1.3C37.6,230,37.5,230,37.4,230z
			 M35.1,233C35.1,233,35.1,233,35.1,233c0.1,0.5,0,1,0.1,1.5c0,0.2,0.3,0.5,0.5,0.5c0.7,0,1.3,0,2,0c0.3,0,0.6-0.2,0.6-0.6
			c0-1-0.1-2-0.1-3c0-0.3-0.1-0.5-0.4-0.5c-0.6,0-1.3,0-1.9,0c-0.4,0-0.6,0.2-0.6,0.5C35.1,232,35.1,232.5,35.1,233z M35.3,235.5
			c0.4,0.4,2.6,0.4,3,0C37.2,235.5,36.3,235.5,35.3,235.5z"/>
		<path class="st0" d="M43,228.6c0.8,0,1.6,0,2.4,0c1.5,0,3,0,4.5,0c0.6,0,0.8,0.2,0.8,0.8c0,3.9,0,7.7,0,11.6c0,0.4,0.1,0.8,0,1.2
			c0,0.2-0.3,0.4-0.5,0.4c-2.2,0-4.4,0-6.6,0c-0.6,0-0.6-0.3-0.6-0.7c0-2.2,0-4.5,0-6.7c0-2,0-4,0-6C42.9,229,42.9,228.9,43,228.6z
			 M45.1,234.2c-0.1,0-0.1,0-0.2,0c0-0.2,0-0.3,0-0.5c0.1-1,0.2-2.1,0.2-3.1c0-0.2-0.2-0.5-0.4-0.6c-0.3-0.1-0.4,0.2-0.4,0.5
			c0,3.4,0,6.7,0,10.1c0,0.2,0.2,0.4,0.4,0.4c1.3,0,2.6,0.1,3.9,0.1c0.4,0,0.6-0.2,0.6-0.6c0-3.1,0.1-6.2,0.1-9.3
			c0-0.2,0.1-0.5,0-0.7c-0.1-0.2-0.4-0.4-0.6-0.5c-0.1,0.2-0.2,0.4-0.3,0.5c-0.1,0.1-0.1,0.3-0.1,0.4c-0.7,0-1.4,0-2.1,0
			c-0.9,0-1,0.1-1,1C45.1,232.7,45.1,233.5,45.1,234.2z"/>
		<path class="st0" d="M190.2,289.4c-2.9,0-5.8,0-8.7,0c0.7-0.4,1.4-0.7,1.9-1.2c1.3-1,1.8-2.4,1.8-3.9c0-5.6,0-11.1,0-16.7
			c0-2.4-1.2-4.1-3.4-4.9c-0.1,0-0.2-0.1-0.2-0.1c0,0,0,0-0.1-0.1c2.9,0,5.8,0,8.6,0c-1.8,0.5-2.9,1.7-3.5,3.4
			c-0.2,0.6-0.3,1.3-0.3,2c0,5.5,0,10.9,0,16.4c0,2.1,1.4,4.5,3.5,5C190,289.2,190.1,289.3,190.2,289.4
			C190.2,289.3,190.2,289.4,190.2,289.4z"/>
		<path class="st0" d="M337.2,234.6c0,3.8-2.8,7.4-7.4,7.4c-3.9,0-7.2-3.2-7.2-7.3c0.1-4,3.2-7.3,7.4-7.2
			C334.2,227.4,337.3,230.9,337.2,234.6z M329.8,241.6c4.3-0.1,6.8-3.2,7-6.5c0.3-4.7-3.3-7.4-6.6-7.5c-4.1-0.1-7.1,3-7.1,7
			C323.1,238.7,326.2,241.4,329.8,241.6z"/>
		<path class="st0" d="M313.3,241.9c-3.7,0.1-7.2-3.1-7.3-6.8c-0.1-4,2.8-7.4,6.8-7.7c4.3-0.2,7.5,2.9,7.7,6.9
			C320.7,238.2,317.5,242,313.3,241.9z M313.1,241.6c4.7,0,7.2-4,7-7.3c-0.1-1.9-0.9-3.5-2.3-4.8c-1.4-1.3-3.2-1.9-5-1.8
			c-4,0.4-6.8,3.4-6.5,7.4C306.6,239,309.9,241.6,313.1,241.6z"/>
		<path class="st0" d="M82.2,214.1c0-1.6,0-3.1,0-4.6c0-0.8,0.3-1.1,1.1-1.1c4.7,0,9.3,0,14,0c0.6,0,0.9,0.2,1,0.8
			c0.1,1.5,0.1,3.1,0,4.6c0,0.1-0.4,0.3-0.6,0.3c-1.1,0-2.2,0-3.4,0c-3.8,0-7.6,0-11.3,0C82.8,214.1,82.6,214.1,82.2,214.1z
			 M87.2,213.5c0-1,0-2,0-2.9c0-0.2-0.3-0.3-0.4-0.4c-0.1,0.2-0.3,0.3-0.4,0.5c0,0.7,0,1.5,0,2.3C86.3,213.7,86.4,213.7,87.2,213.5z
			 M88.7,210.3c0,1,0,1.9,0,2.8c0,0.3,0,0.6,0.4,0.6c0.4,0,0.5-0.2,0.5-0.6c0-0.8,0-1.6,0-2.3C89.6,210.3,89.3,210.1,88.7,210.3z
			 M84,212C84,212,84,212,84,212c0,0.4-0.1,0.8,0,1.2c0,0.2,0.2,0.5,0.4,0.5c0.3,0.1,0.5-0.1,0.5-0.5c0-0.8,0-1.7-0.1-2.5
			c0-0.2-0.3-0.3-0.4-0.4c-0.1,0.1-0.4,0.3-0.4,0.4C84,211.1,84,211.5,84,212z M91.9,213.6c0-1,0-2,0-2.9c0-0.2-0.2-0.4-0.4-0.5
			c-0.1,0.2-0.4,0.4-0.4,0.6c-0.1,0.7,0,1.5-0.1,2.2C91.1,213.6,91.1,213.7,91.9,213.6z M94.3,212C94.3,212,94.3,212,94.3,212
			c0-0.5,0-0.9,0-1.4c0-0.1-0.2-0.3-0.4-0.3c-0.1,0-0.3,0.2-0.3,0.3c0,0.9,0,1.8,0,2.8c0,0.1,0.3,0.4,0.4,0.4c0.2,0,0.4-0.2,0.4-0.4
			C94.3,212.8,94.3,212.4,94.3,212z M95.8,211.9C95.8,211.9,95.8,211.9,95.8,211.9c0,0.5,0,0.9,0,1.4c0,0.1,0.2,0.3,0.3,0.3
			c0.1,0,0.4-0.1,0.4-0.2c0-0.9,0-1.9,0-2.8c0-0.1-0.3-0.3-0.4-0.4c-0.1,0.1-0.3,0.3-0.3,0.4C95.8,211,95.8,211.5,95.8,211.9z"/>
		<path class="st0" d="M75.8,214.1c-5.4,0-10.7,0-16,0c0-1.6,0-3.2,0-4.8c0-0.6,0.3-0.9,1-0.9c4.8,0,9.5,0,14.3,0
			c0.4,0,0.7,0.2,0.7,0.6C75.8,210.7,75.8,212.3,75.8,214.1z M73.3,211.9c0,0.5,0,0.9,0,1.3c0,0.3,0.1,0.5,0.4,0.5
			c0.2-0.1,0.5-0.3,0.5-0.4c0-0.9,0-1.8-0.1-2.6c0-0.2-0.2-0.3-0.4-0.4c-0.1,0.1-0.4,0.3-0.4,0.4C73.3,211.1,73.3,211.6,73.3,211.9z
			 M71,211.9C71,211.9,70.9,211.9,71,211.9c0,0.5-0.1,0.9,0,1.3c0,0.2,0.3,0.4,0.4,0.4c0.2,0,0.4-0.2,0.4-0.4c0-0.9,0-1.8,0-2.6
			c0-0.2-0.3-0.3-0.5-0.4c-0.1,0.2-0.3,0.3-0.3,0.5C70.9,211,71,211.5,71,211.9z M68.6,211.9c0,0.5,0,0.9,0,1.3
			c0,0.1,0.3,0.4,0.4,0.3c0.2,0,0.5-0.2,0.5-0.3c0-0.9,0-1.8,0-2.7c0-0.1-0.2-0.3-0.4-0.4c-0.2,0.2-0.4,0.3-0.5,0.5
			C68.5,211.1,68.6,211.5,68.6,211.9z M62.3,213.6c0-1,0-1.9,0-2.9c0-0.2-0.3-0.3-0.4-0.5c-0.1,0.2-0.3,0.3-0.4,0.5
			c-0.1,0.8-0.1,1.6-0.1,2.4C61.5,213.6,61.7,213.8,62.3,213.6z M66.3,211.9C66.2,211.9,66.2,211.9,66.3,211.9c0,0.4-0.1,0.9,0,1.3
			c0,0.2,0.2,0.4,0.3,0.4c0.2,0,0.6-0.2,0.6-0.3c0-0.9,0-1.8-0.1-2.8c0-0.1-0.3-0.3-0.4-0.4c-0.1,0.1-0.3,0.3-0.3,0.4
			C66.2,211,66.3,211.5,66.3,211.9z M64.7,211.9C64.7,211.9,64.7,211.9,64.7,211.9c0-0.5,0-0.9,0-1.4c0-0.1-0.3-0.3-0.5-0.4
			c-0.1,0.1-0.3,0.3-0.3,0.4c0,0.9,0,1.8,0,2.6c0,0.2,0.2,0.3,0.4,0.5c0.1-0.2,0.4-0.3,0.4-0.5C64.8,212.8,64.7,212.4,64.7,211.9z"
			/>
		<path class="st0" d="M185.8,183.7c-46.4,0-92.7,0-139.1,0c-1.3,0-2.6,0-4,0c-0.4,0-0.5-0.1-0.5-0.5c0-1,0-1.9,0-2.9
			c0-0.5,0.2-0.6,0.6-0.6c1.4,0,2.9,0,4.3,0c92.8,0,185.6,0,278.5,0c1.1,0,2.1,0,3.2,0c0.5,0,0.6,0.2,0.6,0.6c0,0.9,0,1.9,0.1,2.8
			c0,0.4-0.1,0.6-0.6,0.6c-1.6,0-3.2,0-4.9,0C277.9,183.7,231.9,183.7,185.8,183.7z"/>
		<path class="st0" d="M42.3,178.2c-0.1-0.2-0.1-0.2-0.1-0.2c0-1.7,0-1.7,2-1.7c32.9,0,65.8,0,98.7,0c44.1,0,88.1,0,132.2,0
			c16.8,0,33.6,0,50.4,0c1,0,2,0,3,0c0.5,0,0.8,0.1,0.8,0.7c-0.1,1.3,0,1.3-1.3,1.3c-27.8,0-55.7,0-83.5,0c-51.6,0-103.3,0-154.9,0
			c-15,0-30.1,0-45.1,0C43.8,178.2,43.1,178.2,42.3,178.2z"/>
		<path class="st0" d="M67.4,226.2c1.4,0.2,2.9,0.1,4.3,0.6c3,0.9,4.9,3,5.1,6.2c0.1,1.5,0.1,3-0.2,4.4c-0.6,2.9-3.2,5.4-6.3,5.5
			c-2.3,0.1-4.6,0.2-6.8-0.2c-3.3-0.5-5.6-3.5-5.7-6.9c0-1.5-0.2-3.1,0.4-4.6c1.2-3,3.6-4.8,6.9-4.8c0.7,0,1.5,0,2.2,0
			C67.4,226.3,67.4,226.2,67.4,226.2z"/>
		<path class="st0" d="M162,243c0-1.2,0-2.3,0-3.4c3.8,0,7.5,0,11.3,0c0,1,0,2,0,3c0,0.1-0.3,0.3-0.5,0.4c-0.4,0.1-0.8,0-1.2,0
			c-3,0-6.1,0-9.1,0C162.3,243,162.2,243,162,243z"/>
		<path class="st0" d="M218.1,240.9c0-0.5,0-1,0-1.5c0-0.4,0.2-0.6,0.5-0.5c0.2,0,0.6,0.3,0.6,0.5c0,1.1,0,2.1,0,3.2
			c0,0.4-0.3,0.5-0.6,0.4c-0.2-0.1-0.4-0.3-0.4-0.5C218.1,242,218.1,241.4,218.1,240.9C218.1,240.9,218.1,240.9,218.1,240.9z"/>
		<path class="st0" d="M190.6,241c0,0.5,0,1,0,1.5c0,0.2-0.2,0.5-0.4,0.5c-0.3,0.1-0.7,0-0.7-0.5c0-1.1,0-2.2,0-3.4
			c0-0.1,0.4-0.3,0.5-0.3c0.2,0.1,0.6,0.3,0.6,0.5C190.7,239.9,190.6,240.4,190.6,241C190.6,241,190.6,241,190.6,241z"/>
		<path class="st0" d="M194.3,240.8c0-0.4,0-0.9,0-1.3c0-0.4,0.1-0.6,0.5-0.6c0.4,0,0.6,0.1,0.6,0.6c0,0.9,0,1.9,0,2.8
			c0,0.3,0,0.7-0.5,0.7c-0.5,0-0.5-0.4-0.5-0.7C194.3,241.8,194.3,241.3,194.3,240.8C194.3,240.8,194.3,240.8,194.3,240.8z"/>
		<path class="st0" d="M213.3,242.9c0-1.2,0-2.5,0-3.7c0-0.1,0.3-0.4,0.4-0.3c0.2,0.1,0.6,0.2,0.7,0.5c0.1,0.4,0,0.8,0,1.2
			c0,0.5-0.1,1.1,0,1.6c0.1,0.6-0.1,0.9-0.7,0.8C213.6,242.9,213.5,242.9,213.3,242.9z"/>
		<path class="st0" d="M199,240.8c0-0.5,0-1,0-1.6c0-0.4,0.2-0.4,0.5-0.4c0.3,0,0.6-0.1,0.6,0.4c0,1,0,2,0,3c0,0.4-0.1,0.7-0.6,0.7
			c-0.5,0-0.5-0.3-0.5-0.7C199,241.8,199,241.3,199,240.8C199,240.8,199,240.8,199,240.8z"/>
		<path class="st0" d="M224,240.8c0,0.5,0,1.1,0,1.6c0,0.4-0.2,0.5-0.6,0.5c-0.4,0-0.5-0.2-0.5-0.6c0-1,0-2,0-3
			c0-0.5,0.3-0.5,0.7-0.6c0.5,0,0.4,0.3,0.4,0.6C224,239.9,224,240.4,224,240.8C224,240.8,224,240.8,224,240.8z"/>
		<path class="st0" d="M181.1,242.9c-0.2,0-0.4,0.1-0.6,0c-0.2-0.1-0.5-0.3-0.5-0.4c0-1,0-2,0-3c0-0.4,0.3-0.7,0.6-0.6
			c0.2,0,0.4,0.4,0.4,0.6C181.1,240.6,181.1,241.7,181.1,242.9z"/>
		<path class="st0" d="M203.8,240.9c0-0.5,0-1,0-1.6c0-0.5,0.4-0.4,0.7-0.4c0.4,0,0.5,0.1,0.4,0.5c-0.1,1-0.1,1.9-0.1,2.9
			c0,0.4-0.1,0.7-0.6,0.7c-0.5,0-0.5-0.3-0.5-0.7C203.8,241.8,203.8,241.3,203.8,240.9C203.8,240.9,203.8,240.9,203.8,240.9z"/>
		<path class="st0" d="M228.7,240.9c0,0.5,0,1,0,1.6c0,0.4-0.2,0.5-0.6,0.5c-0.4,0-0.6-0.2-0.5-0.6c0-1,0-2,0-3
			c0-0.4,0.2-0.5,0.5-0.5c0.4,0,0.5,0.1,0.5,0.5C228.7,239.9,228.7,240.4,228.7,240.9C228.7,240.9,228.7,240.9,228.7,240.9z"/>
		<path class="st0" d="M209.7,243c-0.4-0.1-0.7-0.1-1-0.2c0-1.2,0-2.4,0-3.5c0-0.2,0.3-0.5,0.3-0.4c0.2,0.1,0.7,0.3,0.7,0.4
			C209.7,240.5,209.7,241.7,209.7,243z"/>
		<path class="st0" d="M185.8,240.9c0,0.5,0,0.9,0,1.4c0.1,0.6-0.4,0.6-0.7,0.6c-0.4,0-0.4-0.3-0.4-0.6c0-1,0-1.9,0-2.9
			c0-0.5,0.3-0.6,0.6-0.7c0.4,0,0.5,0.3,0.4,0.6C185.8,239.9,185.8,240.4,185.8,240.9C185.8,240.9,185.8,240.9,185.8,240.9z"/>
		<path class="st0" d="M151.6,330c0.1,1.7,0.2,3.4,0.3,4.8c0-1.3,0-2.9,0-4.5c0-1.1-0.1-2.3-0.1-3.4c0-8,0-16.1,0-24.1
			c0-1.4,0.7-2,2.2-2c6.4,0,12.7,0,19.1,0c13.7,0,27.4,0,41.2,0c1.7,0,3.5,0,5.2,0c1.2,0,1.7,0.5,1.7,1.8c0,2.1,0,4.3,0,6.4
			c0,6.9,0,13.7,0,20.6c0,1.2,0.1,2.4,0.2,3.5c0.1,0,0.1,0,0.2,0c0-0.3,0.1-0.6,0.1-1c0-0.3-0.1-0.7,0-1c0.1-0.4,0.2-0.7,0.3-1.1
			c0.1,0.3,0.4,0.7,0.4,1c0,3.2,0,6.5,0,9.7c0,0.9-0.1,1-1.1,1.3c0,0.6,0.1,1.1,0.1,1.7c0,1.8-0.6,2.4-2.3,2.4
			c-10.7,0-21.4,0-32.1,0c-10.2,0-20.4,0-30.6,0c-0.8,0-1.6,0-2.5,0c-1.1,0-1.8-0.6-1.8-1.8c0-0.6,0-1.2,0-1.7
			c0-0.3-0.2-0.6-0.4-0.7c-0.4-0.2-0.6-0.5-0.6-0.9c0-2.2-0.1-4.4-0.1-6.5c0-1.3,0-2.6,0.1-3.9C150.8,330.3,150.9,329.9,151.6,330z
			 M186.6,309.3C186.6,309.3,186.6,309.3,186.6,309.3c10.2,0,20.3,0,30.5,0c1,0,0.9,0,1-1c0-0.8-0.2-1.4-0.8-1.9
			c-0.7-0.6-1.3-1.2-1.9-1.9c-0.5-0.5-1-0.7-1.6-0.7c-10.9,0-21.7,0-32.6,0c-7.1,0-14.1,0-21.2,0c-0.8,0-1.4,0.2-2,0.8
			c-0.6,0.7-1.2,1.3-1.9,1.8c-0.6,0.5-0.8,1-0.8,1.7c0,1.1,0,1.1,1.1,1.1C166.5,309.3,176.6,309.3,186.6,309.3z M209.7,316.6
			c0,0.8,0,1.5,0,2.2c-0.1,2.7-1.9,5.4-4.5,6.5c-1.2,0.5-2.4,0.7-3.7,0.7c-10.1,0-20.1,0-30.2,0c-1,0-2.1-0.1-3-0.4
			c-3.1-1.2-4.7-3.6-4.9-6.9c0-0.6,0-1.3,0-2c-0.4,0-0.6,0-0.8,0c-2.1,0-4.2,0-6.4,0c-0.6,0-0.8,0.2-0.8,0.8c0,1.3,0,2.7,0,4
			c0,2.9-0.1,5.7,0,8.6c0,1.7,1.2,2.9,2.9,2.9c1.6,0.1,3.2,0.1,4.7,0.1c7.9,0,15.9,0,23.8,0c9.3,0,18.6,0,27.9,0
			c2.1,0,3.5-1.5,3.4-3.4c-0.1-4,0-8.1,0-12.1c0-0.3,0-0.5,0-0.8C215.2,316.6,212.5,316.6,209.7,316.6z M205.4,310.1
			c0,0.1-0.1,0.2-0.1,0.2c0.1,0,0.2,0.1,0.2,0.1c2,1.1,3.3,2.7,3.9,4.9c0.1,0.4,0.3,0.4,0.7,0.4c2.5,0,5,0,7.5,0
			c0.5,0,0.6-0.2,0.6-0.7c0-1.5,0-2.9,0-4.4c0-0.5-0.1-0.7-0.7-0.7c-2.9,0-5.8,0-8.7,0C207.6,310.1,206.5,310.1,205.4,310.1z
			 M168.1,310.1c-0.7,0-1.4,0-2.1,0c-3.3,0-6.6,0-10,0c-0.5,0-0.8,0.2-0.7,0.7c0,1.4,0,2.8,0,4.3c0,0.5,0.2,0.7,0.7,0.7
			c2.2,0,4.3,0,6.5,0c0.7,0,1.1-0.2,1.3-0.9c0.6-2,1.8-3.4,3.6-4.4C167.7,310.4,167.9,310.2,168.1,310.1z M192.3,316.4
			C192.4,316.4,192.4,316.4,192.3,316.4c0.2-0.6,0.3-1.3,0.3-1.9c0-0.1-0.3-0.4-0.4-0.4c-0.5,0-1,0-1.3-0.5c0-0.1-0.2-0.1-0.3-0.1
			c-2.1,0-4.2,0-6.3,0c-0.5,0-0.5,0.3-0.4,0.6c0.2,0.8,0.5,1.7,0.6,2.5c0.2,1.5,0.1,3.1-0.4,4.6c-0.3,0.8-0.2,0.8,0.6,0.8
			c1.9,0,3.8,0,5.8,0c0.2,0,0.4-0.1,0.6-0.1c0-0.2,0-0.3-0.1-0.4c-0.7-2-0.7-4.1-0.4-6.2c0-0.3,0.1-0.6,0.2-0.8
			c0.3-0.6,0.8-0.3,1.2-0.2c0.4,0,0.3,0.4,0.3,0.7C192.3,315.5,192.3,315.9,192.3,316.4z M201.9,323.4c3.4,0,5.5-2.4,5.6-5.4
			c0.1-3.1-2.4-5.7-5.3-5.7c-3.7-0.1-5.9,2.6-5.8,5.7C196.4,321,198.9,323.4,201.9,323.4z M171.1,312.3c-3.6,0.1-5.7,2.4-5.5,6.2
			c0.1,2.1,1.9,5,5.9,4.9c2.9-0.1,5.2-2.8,5.1-6C176.5,314.5,174,312.2,171.1,312.3z M164,340.9c0,0,0.1,0,0.1,0
			c0.4-1.1,0.7-2.1,1.1-3.2c0.1-0.4,0.2-0.7,0.3-1.1c0.3-1.1,0.3-1.1,1.4-1.2c0.4,0,0.7,0,1.1,0c4.4,0,8.9,0.1,13.3,0.1
			c8.1,0,16.2-0.1,24.3-0.2c1.4,0,1.4,0,1.8,1.3c0.5,1.5,1,3.1,1.5,4.6c0-0.3-0.1-0.6-0.1-0.9c-0.5-1.6-1-3.3-1.4-4.9
			c-0.1-0.4-0.3-0.4-0.6-0.4c-6.4,0-12.7-0.1-19.1-0.1c-7.2,0-14.3,0.1-21.5,0.2c-0.5,0-0.7,0.2-0.8,0.6c-0.3,1-0.6,2-0.9,3
			C164.4,339.4,164.2,340.2,164,340.9z M167.2,323.5c-1.7-1.5-2.8-3.3-2.7-5.7c0.1-2.3,1.1-4.2,3-5.6c1.8-1.3,3.9-1.4,5.9-0.7
			c2.1,0.7,3.5,2.1,4.1,4.2c-0.2-2.1-2.5-4.7-5.7-5c-3.3-0.4-6.4,1.6-7.5,4.6C163.3,318.4,164.6,321.9,167.2,323.5z M196.8,322.4
			c-1.1-1.7-2.1-3.5-1.6-5.7c0.5-2.1,1.7-3.8,3.7-4.8c1.9-0.9,3.8-0.9,5.7-0.1c1.9,0.8,3.1,2.3,3.6,4.5c0.5-1.7-2.1-4.5-4.2-5.1
			c-3.5-1-7.1,0.2-8.6,3.3C194,317.6,194.8,320.7,196.8,322.4z M183.6,321.4c0-0.1,0-0.1,0-0.2c-0.8,0-1.6,0-2.4,0
			c-0.3,0-0.6-0.1-0.6-0.5c0-2,0-4,0-6c0-0.4,0.2-0.5,0.6-0.5c0.6,0,1.3,0.1,1.9,0.1c0.2,0,0.4-0.1,0.5-0.2
			c-0.2-0.1-0.3-0.2-0.5-0.2c-0.7,0-1.4,0.1-2.1,0c-0.7-0.1-0.9,0.2-0.9,0.9c0,2,0,4.1,0,6.1c0,0.4,0.2,0.6,0.6,0.6
			c0.8,0,1.7,0,2.5,0C183.4,321.6,183.5,321.5,183.6,321.4z M218.6,344.6c0.5,0,0.8-0.3,0.9-0.8c0-0.4-0.4-0.8-0.8-0.9
			c-0.5,0-0.9,0.3-1,0.8C217.6,344.1,218.1,344.6,218.6,344.6z M218.7,302.2c-0.5,0-1.1,0.6-1,0.9c0.2,0.3,0.6,0.7,0.9,0.8
			c0.3,0.1,0.8-0.4,0.8-0.8C219.4,302.6,219.1,302.1,218.7,302.2z M153.5,302.3c0.3,0.5-0.3,1.2,0.4,1.4c0.3,0.1,0.9,0.2,1,0
			c0.2-0.3,0.2-0.8,0.1-1.1C154.8,301.9,154.2,302.4,153.5,302.3z M153.8,343c-0.2,1.1,0,1.5,0.5,1.6c0.7,0.1,0.9-0.1,0.9-0.9
			c0-0.5-0.2-0.7-1-0.8c0.2,0.4,0.4,0.8,0.5,1.1c-0.1,0-0.1,0.1-0.2,0.1C154.4,343.8,154.1,343.5,153.8,343z M169.8,341.8
			c-0.6-0.2-1.2,0.1-1.4,0.5c-0.2,0.5-0.1,1.2,0,1.8c0.1,0.4,0.8,0.4,1.3,0.2c-1-0.1-1.1-0.2-1.2-1.1
			C168.5,342.3,168.6,342.1,169.8,341.8z M191.6,316.8c-0.4,0.5-0.5,1.2-0.4,1.8c0,0.1,0.2,0.2,0.3,0.2c0.1,0,0.3-0.1,0.3-0.2
			C191.8,318.1,191.8,317.4,191.6,316.8z M203.2,341.9c-1.1,0-1.4,0.4-1.4,1.5c0,0.8,0.4,1.1,1.5,1.1c-0.8-0.2-1.2-0.5-1.1-1.4
			C202.2,342.4,202.5,342,203.2,341.9z M176.3,339.3c-0.5-0.5-1.6-0.6-2-0.2c-0.3,0.2-0.4,0.7-0.1,1.3
			C174.4,339.1,174.7,338.9,176.3,339.3z M186.3,340.4c-0.8-1.5-0.8-1.5,0-2.2c-0.5-0.2-0.7,0.3-0.8,0.6
			C185.2,339.2,185.4,339.7,186.3,340.4z M197.3,323c0.8,0.8,1.7,1.3,2.9,1.5C199.2,324,198.2,323.5,197.3,323z"/>
		<path class="st0" d="M162.7,356.9c0.3,0,0.5,0,0.8,0c3.5,0,6.9,0,10.4,0c0.6,0,0.8,0.2,0.8,0.8c0,0.9,0,1.8,0,2.7
			c0,0.4-0.1,0.6-0.5,0.6c-3.6,0-7.2,0-10.8,0c-0.4,0-0.6-0.1-0.6-0.5C162.7,359.3,162.7,358.1,162.7,356.9z"/>
		<path class="st0" d="M208,356.9c0,1.3,0,2.5,0,3.7c0,0.1-0.4,0.3-0.6,0.3c-1.8,0-3.6,0-5.4,0c-1.8,0-3.5,0-5.3,0
			c-0.4,0-0.6-0.1-0.6-0.6c0-1,0-1.9,0-2.9c0-0.4,0.1-0.5,0.5-0.5C200.4,356.9,204.2,356.9,208,356.9z"/>
		<path class="st0" d="M191.5,357c0,1.1,0,2.2,0,3.2c0,0.6-0.1,0.8-0.7,0.7c-3.6,0-7.1,0-10.7,0c-0.5,0-0.6-0.2-0.6-0.6
			c0-1,0-1.9,0-2.9c0-0.3,0.1-0.5,0.5-0.5c3.7,0,7.4,0,11.1,0C191.2,356.9,191.4,357,191.5,357z"/>
		<path class="st0" d="M157.6,356.9c0,1.3,0,2.4,0,3.6c0,0.1-0.3,0.4-0.4,0.4c-2.5,0-4.9,0-7.4,0c0,0-0.1,0-0.2-0.1
			c0-1.2,0-2.4,0-3.6c0-0.1,0.2-0.4,0.4-0.4C152.5,356.9,155.1,356.9,157.6,356.9z"/>
		<path class="st0" d="M217.3,360.9c-1.4,0-2.7,0-4.1,0c-0.4,0-0.6-0.1-0.6-0.5c0-1,0-2,0.1-3c0-0.2,0.3-0.4,0.4-0.4
			c2.8,0,5.6,0,8.3,0c0.4,0,0.5,0.1,0.5,0.5c0,1,0,2,0,3c0,0.5-0.3,0.5-0.6,0.5C220,360.9,218.6,360.9,217.3,360.9
			C217.3,360.9,217.3,360.9,217.3,360.9z"/>
		<path class="st0" d="M245.5,314.5c0.4-23.6,20-42.7,43.5-42.5c23.9,0.3,43.8,19.1,43.4,44c-0.4,23.8-19.5,43.1-44,42.9
			C263.3,358.7,245.4,338.3,245.5,314.5z M290.1,357.2c22.3-0.3,42.3-20.2,40.5-44.9c-1.5-20.4-18.8-38.6-41.8-38.6
			c-23.5,0.1-41.6,19.3-41.6,41.8C247.2,338.6,266.2,357.9,290.1,357.2z"/>
		<path class="st0" d="M324.8,281.2c-0.8,0-1.7-0.9-1.7-1.7c0-1,0.8-1.8,1.8-1.8c0.9,0,1.7,0.8,1.7,1.7
			C326.6,280.5,325.9,281.2,324.8,281.2z M325,278.3c-0.3,0-0.5,0-0.6,0.1c-0.2,0.1-0.4,0.3-0.5,0.5c0.2,0.1,0.4,0.2,0.6,0.2
			c0.3,0,0.7,0,1,0c0.1,0,0.3-0.1,0.4-0.1c0-0.2-0.1-0.4-0.1-0.4C325.5,278.4,325.1,278.3,325,278.3z"/>
		<path class="st0" d="M326.5,281.5c-0.5,0.6-1.1,0.9-1.9,0.9c-0.5,0-1-0.3-1.2-0.9C324.4,282.2,325.4,282.1,326.5,281.5z"/>
		<path class="st0" d="M254.7,279.6c0,0.9-0.9,1.8-1.9,1.7c-0.7-0.1-1.6-0.7-1.6-1.7c0-0.9,0.9-1.8,1.8-1.8
			C253.9,277.8,254.7,278.6,254.7,279.6z M251.8,279.1c0.7,0,1.3,0,1.9,0c0.1,0,0.3-0.2,0.3-0.3c-0.1-0.2-0.2-0.4-0.3-0.4
			c-0.4-0.1-0.8-0.1-1.2-0.1C252.1,278.2,251.9,278.5,251.8,279.1z"/>
		<path class="st0" d="M254.5,281.3c-0.2,0.6-0.8,0.9-1.5,0.9c-0.8,0-1.3-0.2-1.6-1.1C252.5,282.2,253.5,281.9,254.5,281.3z"/>
		<path class="st0" d="M325,353.1c-1,0-1.8-0.7-1.8-1.8c0-0.8,0.9-1.7,1.7-1.7c0.8,0,1.8,1,1.8,1.8
			C326.7,352.3,325.8,353.1,325,353.1z M325.9,351.2c0-0.5-0.2-0.8-0.6-0.8c-0.5,0-1,0.2-1.4,0.3c0.1,0.2,0.2,0.5,0.2,0.5
			C324.7,351.2,325.3,351.2,325.9,351.2z"/>
		<path class="st0" d="M323.8,353.5c0.4,0,0.7,0,1.1,0c0.4,0,0.7-0.1,1.3-0.1c-0.3,0.2-0.4,0.5-0.6,0.5
			C325,354,324.3,354.2,323.8,353.5z"/>
		<path class="st0" d="M254.7,351.5c0,1-0.8,1.7-1.8,1.7c-0.9,0-1.7-0.8-1.7-1.7c0-0.9,0.9-1.8,1.7-1.8
			C253.9,349.7,254.7,350.5,254.7,351.5z M253,350.4c-0.3,0-0.6,0-0.7,0.1c-0.2,0.1-0.3,0.3-0.4,0.5c0.2,0.1,0.3,0.3,0.5,0.3
			c0.4,0,0.8,0,1.3,0c0.2,0,0.3-0.2,0.4-0.3c-0.1-0.1-0.2-0.3-0.3-0.4C253.5,350.4,253.2,350.4,253,350.4z"/>
		<path class="st0" d="M251.1,352.3c0.1,1.4,2.2,1.6,3.3,0.9c-0.3,0.6-0.9,0.9-1.9,0.8c-0.7-0.1-1.6-0.7-1.8-1.3
			c0-0.1,0.1-0.3,0.1-0.5C251,352.2,251,352.3,251.1,352.3z"/>
		<path class="st0" d="M39.3,314.7c0.3-24.1,19.8-42.6,44.3-42.6c23.1,0,43.6,20,42.6,44.7c-0.9,22.7-18.6,42.2-43.5,42.1
			C58.2,358.9,38.9,338.9,39.3,314.7z M124.4,315.4c0.1-22.4-18.1-41.6-41.6-41.6c-23.3,0-41.8,18.7-42,41.4
			c-0.2,23.2,18.9,42.2,42.1,42C105.6,357.1,124.5,338.6,124.4,315.4z"/>
		<path class="st0" d="M46.7,353.1c-1,0-1.8-0.8-1.7-1.7c0-0.9,0.9-1.7,1.8-1.7c0.9,0,1.8,0.9,1.7,1.7
			C48.4,352.5,47.7,353.1,46.7,353.1z M47.5,351.1c0,0,0,0.1,0,0.1c0.1-0.1,0.3-0.2,0.3-0.2c0-0.2-0.2-0.5-0.2-0.5
			c-0.6,0-1.1,0-1.7,0c-0.1,0-0.2,0.3-0.2,0.4c0,0.1,0.3,0.2,0.4,0.2C46.6,351.2,47,351.1,47.5,351.1z"/>
		<path class="st0" d="M45.7,353.5c0.7,0,1.5,0,2.2,0C47.5,354.1,46.2,354.1,45.7,353.5z"/>
		<path class="st0" d="M118.8,277.8c0.9,0,1.7,0.8,1.7,1.8c0,0.8-1,1.7-1.8,1.7c-0.8,0-1.7-1-1.7-2
			C116.9,278.5,117.8,277.8,118.8,277.8z M117.5,279c0.8,0,1.6,0,2.4,0c-0.2-0.8-0.8-0.6-1.3-0.7C118.2,278.3,117.7,278.2,117.5,279
			z"/>
		<path class="st0" d="M117.2,281.4c1.1,0.8,2.1,0.5,3.1-0.1c-0.3,0.8-1,1-1.6,1C118.1,282.3,117.5,282.1,117.2,281.4z"/>
		<path class="st0" d="M46.6,281.2c-0.9,0-1.7-0.8-1.6-1.7c0-1,0.7-1.7,1.7-1.7c1,0,1.8,0.8,1.8,1.7
			C48.5,280.6,47.7,281.2,46.6,281.2z M47.8,279c-0.1-0.6-0.5-0.8-0.9-0.8c-0.4,0-0.8,0.2-1.2,0.4c0.1,0.1,0.1,0.4,0.2,0.4
			C46.5,279.1,47.2,279,47.8,279z"/>
		<path class="st0" d="M45,281.4c1.1,0.7,2.1,0.8,3.2,0.1c-0.2,0.6-0.5,0.8-1.3,0.9C46.2,282.5,45.5,282.2,45,281.4z"/>
		<path class="st0" d="M118.7,349.7c1,0,1.8,0.9,1.8,2c0,0.6-0.9,1.5-1.7,1.5c-1,0-1.8-0.8-1.8-1.8
			C116.9,350.5,117.8,349.7,118.7,349.7z M119.9,351.1c-0.5-0.7-1.5-0.9-2-0.5c-0.1,0.1-0.2,0.3-0.3,0.5c0.2,0.1,0.3,0.2,0.5,0.2
			c0.4,0,0.7,0,1.1,0C119.3,351.2,119.6,351.1,119.9,351.1z"/>
		<path class="st0" d="M120.7,352.2c0.2,0.7-0.3,1.3-1.2,1.6c-1,0.3-1.9,0-2.3-0.7C118.7,353.9,119.5,353.7,120.7,352.2z"/>
		<path class="st0" d="M206.6,281.4c0,0.3,0.1,0.6,0.1,0.8c0,0.5,0,1,0,1.5c0,0.1-0.1,0.2-0.2,0.3c-0.1-0.1-0.2-0.2-0.2-0.2
			c0-0.8,0.1-1.6,0.1-2.4C206.4,281.4,206.5,281.4,206.6,281.4z"/>
		<path class="st0" d="M209.2,284.1c-0.5-0.3-0.7-2.2-0.3-2.8C209,282.3,209.1,283.2,209.2,284.1z"/>
		<path class="st0" d="M207.5,281.4c0.5,0.9,0.4,2.5,0,2.8C207.5,283.3,207.5,282.3,207.5,281.4z"/>
		<path class="st0" d="M202.4,283.8c0.1-0.9,0.3-1.8,0.4-2.7c0.1,0,0.2,0,0.3,0c-0.1,0.9-0.3,1.8-0.4,2.7
			C202.6,283.8,202.5,283.8,202.4,283.8z"/>
		<path class="st0" d="M203.6,284c0.1-0.9,0.3-1.8,0.4-2.8c0.1,0,0.2,0,0.3,0c-0.1,0.9-0.2,1.9-0.3,2.8
			C203.8,284,203.7,284,203.6,284z"/>
		<path class="st0" d="M211.3,281.1c0.2,0.9,0.3,1.9,0.5,2.8c-0.1,0-0.1,0-0.2,0c-0.4-0.9-0.4-1.8-0.5-2.8
			C211.1,281.1,211.2,281.1,211.3,281.1z"/>
		<path class="st0" d="M210.2,284.1c-0.1-1-0.2-1.9-0.4-2.8C210.3,281.6,210.6,283.4,210.2,284.1z"/>
		<path class="st0" d="M212.4,280.8c0.2,0.9,0.4,1.8,0.6,2.7c-0.1,0-0.2,0-0.3,0.1c-0.2-0.9-0.4-1.9-0.6-2.8
			C212.3,280.8,212.3,280.8,212.4,280.8z"/>
		<path class="st0" d="M213.6,280.5c0.3,0.9,0.5,1.8,0.8,2.8c-0.1,0-0.2,0.1-0.3,0.1c-0.3-0.9-0.5-1.8-0.8-2.8
			C213.4,280.6,213.5,280.5,213.6,280.5z"/>
		<path class="st0" d="M201.9,280.9c-0.2,0.9-0.4,1.7-0.6,2.6c-0.1,0-0.2,0-0.3-0.1c0.2-0.9,0.4-1.7,0.6-2.6
			C201.7,280.9,201.8,280.9,201.9,280.9z"/>
		<path class="st0" d="M205.4,281.4c-0.1,0.9-0.1,1.8-0.2,2.7c-0.1,0-0.2,0-0.3,0c0.1-0.9,0.1-1.8,0.2-2.7
			C205.2,281.4,205.3,281.4,205.4,281.4z"/>
		<path class="st0" d="M197.3,279.5c-0.3,0.9-0.7,1.7-1,2.6c-0.1,0-0.2-0.1-0.3-0.1c0.3-0.9,0.7-1.7,1-2.6
			C197.2,279.4,197.2,279.5,197.3,279.5z"/>
		<path class="st0" d="M215.3,283c-0.3-1-0.6-1.9-0.9-2.8C215,280.7,215.5,282.3,215.3,283z"/>
		<path class="st0" d="M199.6,280.3c-0.3,0.9-0.5,1.8-0.8,2.6c-0.1,0-0.2-0.1-0.3-0.1c0.3-0.9,0.5-1.7,0.8-2.6
			C199.4,280.2,199.5,280.3,199.6,280.3z"/>
		<path class="st0" d="M199.8,283.1c0.3-0.8,0.3-1.7,0.7-2.5c0.1,0,0.1,0,0.2,0.1c-0.2,0.8-0.5,1.7-0.7,2.5
			C200,283.2,199.9,283.2,199.8,283.1z"/>
		<path class="st0" d="M217.7,281.9c-0.4-0.8-0.7-1.6-1.1-2.4c0.1,0,0.1-0.1,0.2-0.1c0.4,0.8,0.8,1.6,1.1,2.4
			C217.9,281.8,217.8,281.9,217.7,281.9z"/>
		<path class="st0" d="M197.3,282.4c0.3-0.8,0.6-1.6,0.9-2.5C198.4,280.4,197.9,282,197.3,282.4z"/>
		<path class="st0" d="M216.6,282.5c-0.3-0.8-0.6-1.6-1-2.5c0.1,0,0.2-0.1,0.2-0.1c0.3,0.8,0.7,1.7,1,2.5
			C216.8,282.4,216.7,282.5,216.6,282.5z"/>
		<path class="st0" d="M168.7,283.9c-0.1-1-0.2-1.9-0.3-2.9c0.1,0,0.2,0,0.3,0c0,1,0.5,1.9,0.3,2.9
			C168.9,283.9,168.8,283.9,168.7,283.9z"/>
		<path class="st0" d="M166.3,281.3c0.1,0.8,0.2,1.7,0.2,2.5c0,0.1-0.1,0.2-0.2,0.2c-0.1,0-0.2-0.1-0.2-0.1c0-0.9,0-1.7,0-2.6
			C166.2,281.3,166.2,281.3,166.3,281.3z"/>
		<path class="st0" d="M164.9,284c0-0.9,0-1.7,0-2.6c0.1,0,0.1,0,0.2,0c0,0.9,0,1.7,0,2.6C165,284,165,284,164.9,284z"/>
		<path class="st0" d="M154.7,279.4c-0.3,0.8-0.7,1.7-1,2.5c-0.1,0-0.1,0-0.2-0.1c-0.1-1,0.8-1.6,0.9-2.5
			C154.5,279.4,154.6,279.4,154.7,279.4z"/>
		<path class="st0" d="M160,284.1c-0.4-0.7-0.1-2.5,0.5-3C160.3,282.1,160.1,283,160,284.1z"/>
		<path class="st0" d="M167.4,284c-0.1-0.9-0.2-1.9-0.3-2.8c0.1,0,0.2,0,0.3,0c0.1,0.9,0.2,1.9,0.4,2.8
			C167.7,284,167.6,284,167.4,284z"/>
		<path class="st0" d="M171.4,283.4c-0.2-0.9-0.5-1.8-0.7-2.7c0.1,0,0.2,0,0.3-0.1c0.2,0.9,0.5,1.8,0.7,2.7
			C171.6,283.3,171.5,283.3,171.4,283.4z"/>
		<path class="st0" d="M162.2,284c0.1-0.9,0.2-1.8,0.3-2.6c0.1,0,0.2,0,0.3,0c-0.1,0.9-0.1,1.8-0.2,2.7
			C162.4,284,162.3,284,162.2,284z"/>
		<path class="st0" d="M161.6,281.1c-0.1,1.1-0.2,2-0.2,2.9C160.9,283.7,161,281.8,161.6,281.1z"/>
		<path class="st0" d="M172.1,280.2c0.3,0.9,0.6,1.8,0.9,2.8C172.4,282.6,171.8,280.8,172.1,280.2z"/>
		<path class="st0" d="M155,282.4c-0.3-0.5-0.1-1.3,0.6-2.6c0.1,0,0.1,0,0.2,0.1C155.5,280.7,155.2,281.6,155,282.4z"/>
		<path class="st0" d="M157.1,283.1c0.2-0.9,0.5-1.7,0.7-2.6c0.1,0,0.2,0,0.3,0.1c-0.2,0.9-0.4,1.7-0.7,2.6
			C157.3,283.1,157.2,283.1,157.1,283.1z"/>
		<path class="st0" d="M163.9,281.3c0,1,0,1.8,0,2.8C163.5,283.7,163.5,282,163.9,281.3z"/>
		<path class="st0" d="M169.8,280.8c0.2,0.9,0.4,1.8,0.5,2.7c-0.1,0-0.2,0-0.3,0.1c-0.2-0.9-0.4-1.8-0.5-2.8
			C169.6,280.9,169.7,280.8,169.8,280.8z"/>
		<path class="st0" d="M159.3,280.9c-0.2,0.8-0.4,1.7-0.6,2.5c-0.1,0-0.2-0.1-0.3-0.1c0.2-0.8,0.4-1.7,0.6-2.5
			C159.1,280.9,159.2,280.9,159.3,280.9z"/>
		<path class="st0" d="M156.9,280.3c-0.3,0.9-0.5,1.7-0.8,2.6c-0.1,0-0.2-0.1-0.3-0.1c0.3-0.9,0.6-1.7,0.9-2.6
			C156.8,280.3,156.9,280.3,156.9,280.3z"/>
		<path class="st0" d="M173.2,279.8c0.3,0.9,0.7,1.7,1,2.6c-0.1,0-0.1,0.1-0.2,0.1c-0.5-0.8-0.8-1.7-1-2.6
			C173,279.9,173.1,279.8,173.2,279.8z"/>
		<path class="st0" d="M175.1,282c-0.4-0.8-0.8-1.7-1.1-2.5c0.1,0,0.2-0.1,0.2-0.1c0.4,0.8,0.8,1.7,1.2,2.5
			C175.3,281.9,175.2,282,175.1,282z"/>
		<path class="st0" d="M152.4,281.1c0.3-0.5,0.6-1,0.9-1.6c0,0,0.1,0,0.1,0.1c-0.3,0.5-0.6,1.1-0.9,1.6
			C152.5,281.2,152.5,281.1,152.4,281.1z"/>
		<path class="st0" d="M49.4,259.8c0.1,2.4-1.9,3.7-3.5,3.7c-1.9-0.1-3.5-1.7-3.4-3.6c0.1-1.9,1.5-3.3,3.2-3.4
			C48,256.3,49.4,258.1,49.4,259.8z M47.6,262.1c1.3-1,1.5-2.5,0.6-3.8c-0.9-1.1-3-1.4-4.1-0.5c-1.2,1.1-1.2,2.8,0,4.2
			c0.6,0.7,2.1,0.9,2.6,0.4c-0.9-0.5-1.9-0.7-2.5-1.6c-0.4-0.5-0.3-0.7,0.2-0.9c1.2-0.4,2.2,0.2,3.3,0.2c0,0.1,0.1,0.1,0.1,0.2
			c-0.4,0.5-0.8,0.9-1.2,1.4C47,261.8,47.3,261.9,47.6,262.1z"/>
		<path class="st0" d="M322.2,259.9c0-2,1.6-3.5,3.6-3.5c1.6,0,3.4,1.4,3.3,3.7c0,1.8-1.7,3.4-3.5,3.4
			C323.7,263.4,322.2,261.9,322.2,259.9z M325.6,257.2c-1.6,0.1-2.7,1.3-2.7,2.6c-0.1,1.3,1.7,2.9,2.9,2.9c1.4,0,2.7-1.4,2.7-2.9
			C328.3,258.5,327.3,257.2,325.6,257.2z"/>
		<path class="st0" d="M48.6,235.8c0,0.6,0,1.2,0,1.7c0,0.8,0,1.5,0,2.3c0,0.5-0.2,0.7-0.7,0.6c-0.8,0-1.6,0-2.4,0
			c-0.3,0-0.5-0.1-0.5-0.5c0-1.4,0-2.8,0-4.2C46.1,235.8,47.3,235.8,48.6,235.8z"/>
		<path class="st0" d="M44.9,235.5c0-0.2,0-0.4,0-0.5c1.1,0,2.2,0,3.3,0c0.1,0,0.3,0.1,0.3,0.2c0,0.1,0,0.3,0,0.3
			c-0.1,0.1-0.3,0.1-0.4,0.1C47.1,235.5,46.1,235.5,44.9,235.5z"/>
		<path class="st0" d="M334.4,238.9c-1.4-1.3-2.7-2.6-4-3.8c-0.3-0.3-0.6-0.2-0.9,0c-1.2,1.1-2.3,2.3-3.5,3.5
			c-0.1,0.1-0.2,0.3-0.3,0.5c-1.1-1-1.8-2.3-1.9-3.8c-0.2-2.1,0.5-3.8,1.9-5.2c0.9,0.9,1.8,1.8,2.6,2.7c0.4,0.4,0.9,0.9,1.3,1.3
			c0.2,0.2,0.5,0.4,0.8,0c1.1-1.1,2.2-2.2,3.3-3.3c0.2-0.2,0.4-0.5,0.6-0.7C337.2,232.5,336.6,237.2,334.4,238.9z"/>
		<path class="st0" d="M327.2,230.8c0.4,0.5,0.9,1,1.3,1.6c0.1,0.2,0.3,0.3,0.5,0.5c0.6,0.6,1.2,0.5,2,0.2c-0.3,0.2-0.6,0.5-1.1,0.8
			c-1-0.9-1.9-1.8-2.9-2.7C327.1,230.9,327.1,230.8,327.2,230.8z"/>
		<path class="st0" d="M330.5,231.5c-0.9,0.6-1.9,0.2-2.6-1.1C328.6,231.1,329.3,231.9,330.5,231.5z"/>
		<path class="st0" d="M329.3,240.7c0.7-0.1,1.4-0.1,2-0.2c0,0,0,0.1,0,0.1c-0.7,0.1-1.4,0.2-2,0.3
			C329.3,240.8,329.3,240.8,329.3,240.7z"/>
		<path class="st0" d="M327.2,240.2c0.6-0.3,1.1-0.7,1.7-1c0,0,0.1,0.1,0.1,0.1c-0.6,0.3-1.1,0.7-1.7,1
			C327.3,240.3,327.2,240.3,327.2,240.2z"/>
		<path class="st0" d="M309,239.1c-2.6-1.9-2.8-7-0.1-8.9c1.3,1.3,2.6,2.6,3.9,3.9c0.5,0.5,0.8,0,1.1-0.2c0.6-0.6,1.2-1.2,1.8-1.8
			c0.6-0.6,1.3-1.2,2-1.8c2.5,2,2.7,6.6-0.5,9c0.3-0.7-0.1-0.9-0.5-1.2c-0.9-0.9-1.8-1.8-2.7-2.7c-0.2-0.2-0.4-0.4-0.7-0.5
			c-0.2-0.1-0.5,0-0.6,0.1c-0.9,0.9-1.8,1.8-2.7,2.7C309.8,238.2,309.4,238.7,309,239.1z"/>
		<path class="st0" d="M310.7,240.6c0-0.2,0-0.4,0-0.4c0.4-0.3,0.9-0.6,1.3-0.9c0.9-0.6,1.8-0.5,2.7,0.1c0.4,0.3,0.9,0.6,1.2,1
			c-0.2-0.1-0.4-0.2-0.6-0.3c-0.5-0.3-0.9-0.6-1.4-0.8c-1.2-0.5-2,0.2-2.8,0.9C311,240.2,310.9,240.4,310.7,240.6z"/>
		<path class="st0" d="M313.8,230.1c-1.4,0.5-2.1-0.7-3.1-1.2C311.9,229,312.5,230.4,313.8,230.1z"/>
		<path class="st0" d="M314.2,240.7c-0.7,0-1.5,0.1-2.2,0.1C312.6,240.3,313.4,240.3,314.2,240.7z"/>
		<path class="st0" d="M314.5,237.9c-0.7-0.5-1.5-0.7-2.4-0.1C312.7,237.1,313.6,237.2,314.5,237.9z"/>
		<path class="st0" d="M312.5,233c0.6,0.4,1.1,0.4,1.7-0.2C313.8,233.7,313.3,233.7,312.5,233z"/>
		<path class="st0" d="M316.7,239.9c-0.4-0.3-0.7-0.6-1.1-1c0,0,0.1-0.1,0.1-0.1c0.4,0.3,0.8,0.6,1.2,0.9
			C316.8,239.8,316.8,239.8,316.7,239.9z"/>
		<path class="st0" d="M212.2,306.2c-16.9,0-33.8,0-50.7,0c-0.2,0-0.3-0.1-0.6-0.2c0.9-0.5,50.6-0.4,51.3,0
			C212.2,306,212.2,306.1,212.2,306.2z"/>
		<path class="st0" d="M212.3,307.4c-0.9,0.5-50.6,0.4-51.2,0c0.3,0,0.6-0.1,0.9-0.1c11.8,0,23.6,0,35.4,0c4.7,0,9.4,0,14.1,0
			C211.7,307.3,212,307.4,212.3,307.4z"/>
		<path class="st0" d="M217.4,319.1c0,3.5,0,6.9,0,10.3c0,2-0.8,2.9-2.8,2.9c-15.8,0-31.6,0-47.4,0c-2.5,0-5.1,0-7.6,0
			c-2.7,0-3.4-0.7-3.4-3.4c0-3,0-6,0-8.9c0-0.6,0.2-0.9,0.9-0.8c1.6,0,3.3,0,4.9,0c0.4,0,0.6,0.1,0.7,0.6c0.7,3.7,3,6,6.7,6.9
			c0.8,0.2,1.7,0.2,2.6,0.2c8.5,0,17,0,25.5-0.1c1.9,0,3.8,0.1,5.8-0.1c3.6-0.2,6.7-3.4,7.1-7c0-0.2,0.2-0.5,0.4-0.5
			C212.9,319.1,215.2,319.1,217.4,319.1z M161.1,328.8c0.1,0,0.1,0.1,0.2,0.1c0.1,1,0.1,1.1,1.2,1.1c0.4,0,0.9,0,1.4,0
			c-0.5-1.8-1-3.5-1.5-5.2c-0.4-1.4-0.5-1.4-1.9-1.3c-0.3,0-0.5,0.1-0.6,0.4c-0.4,1.5-0.9,3-1.3,4.5c-0.5,1.7-0.4,1.7,1.3,1.6
			c0.4,0,0.7-0.1,0.8-0.6C160.8,329.2,161,329,161.1,328.8z"/>
		<path class="st0" d="M197.8,317.7c0-2.4,2-3.9,4.1-4c2.1-0.1,4.2,1.9,4.2,3.9c0,2.4-1.9,4.4-4.2,4.4
			C199.6,321.9,197.8,320,197.8,317.7z M205,318.7c-0.4-0.4-0.7-0.6-1-0.9c0.3-0.2,0.6-0.4,0.9-0.6c-0.1-0.9-0.8-1.5-1.5-2.3
			c-0.1,0.6-0.2,1.2-0.8,1.1c-0.7-0.2,0-0.8-0.3-1.2c-0.9,0-1.8,0-2.4,0.8c0.2,0.4,0.3,0.8,0.5,1.2c-0.1,0-0.1,0.1-0.2,0.1
			c-0.3-0.1-0.6-0.2-1.1-0.4c-0.1,0.6-0.2,1.1-0.2,1.6c0,0.8,0.2,0.9,1,0.8c0.1,0,0.2,0,0.4,0c0,0.1,0,0.2,0,0.3
			c-0.1,0.3-0.3,0.8-0.2,1c0.2,0.3,0.6,0.4,1,0.5c0.4,0.1,0.8,0.1,1.1,0.2c0.4,0,0.5-0.1,0.4-0.5c0-0.2,0.1-0.5,0.2-0.8
			c0.2,0.1,0.5,0.2,0.6,0.4c0.2,0.2,0.4,0.4,0.6,0.1C204.4,319.6,204.8,319.1,205,318.7z"/>
		<path class="st0" d="M197.2,316.8c-0.1-2.2,2.1-3.8,4.1-3.8C199.3,313.6,197.8,314.8,197.2,316.8z"/>
		<path class="st0" d="M175.2,317.8c0.1,2-1.8,4.3-4.4,4.1c-2.1-0.1-3.9-2-3.8-4.3c0-2.1,2-4,4.1-3.9
			C173.4,313.7,175.3,315.6,175.2,317.8z M173.9,319c0.3-0.7,0.3-1.3,0.2-2.1c-0.1-0.4-0.3-0.5-0.7-0.3c-0.1,0.1-0.5,0.1-0.5,0
			c-0.1-0.1-0.1-0.4,0-0.5c0.1-0.2,0.2-0.3,0.4-0.5c-0.6-0.7-1.4-0.8-2.2-0.8c-0.1,0-0.3,0.2-0.4,0.4c-0.1,0.1,0.1,0.3,0,0.4
			c-0.1,0.2-0.3,0.4-0.4,0.5c-0.1-0.2-0.2-0.3-0.3-0.5c-0.1-0.1-0.1-0.3-0.1-0.4c-0.7,0.2-1.2,0.7-1.4,1.3c-0.4,0.8-0.4,0.8,0.4,1
			c0.1,0,0.2,0.1,0.4,0.2c-0.3,0.2-0.6,0.4-0.8,0.6c-0.1,0.1-0.3,0.4-0.3,0.5c0.3,0.5,0.7,1,1.1,1.4c0.3-0.3,0.6-0.5,0.9-0.8
			c0,0,0,0,0.2-0.1c0,0.5,0,0.9,0,1.4c0.9,0.2,1.8,0,2.6-0.5c0.1-0.1,0.2-0.3,0.1-0.5c-0.1-0.3-0.2-0.6-0.3-0.9
			C173.1,318.9,173.5,319,173.9,319z"/>
		<path class="st0" d="M170.5,313.1c-2.2,0.6-3.7,1.8-4.2,3.9C165.8,315.3,168.3,312.8,170.5,313.1z"/>
		<path class="st0" d="M288.5,354.5c-20.2,0.1-39-17.1-38.6-39.8c0.4-21.7,18.2-38.2,38.5-38.2c21.7,0,40,16.9,39.5,40
			C327.4,338.5,309.4,354.3,288.5,354.5z M326.2,315.2c0.1-19.7-16.2-37-37.4-37c-20.6,0-36.6,16.6-37.2,36.2
			c-0.6,20.8,16,38.1,36.9,38.4C308.7,353,326.3,336.8,326.2,315.2z"/>
		<path class="st0" d="M249.4,306.4c0.3-1.2,0.6-2.5,1-3.7c1-3.2,2.2-6.3,4-9.2c2.4-4,5.3-7.6,9-10.5c2.3-1.7,4.7-3.2,7.3-4.5
			c3.1-1.5,6.4-2.5,9.8-3.2c5.9-1.2,11.8-1.1,17.7,0.3c5.2,1.2,10.1,3.4,14.5,6.4c2.6,1.8,4.9,4,7,6.4c3.9,4.6,6.5,9.8,8.1,15.6
			c0.2,0.8,0.4,1.6,0.5,2.5c-0.2-0.8-0.5-1.6-0.7-2.4c-2.3-7.4-6.4-13.7-12.3-18.8c-4.3-3.6-9.1-6.4-14.5-7.9
			c-5.4-1.6-10.9-2.2-16.5-1.6c-5.9,0.6-11.5,2.3-16.5,5.4c-6,3.7-10.7,8.6-14.1,14.8c-1.3,2.4-2.3,4.9-3.2,7.5
			c-0.3,0.8-0.5,1.7-0.7,2.6c0,0.1-0.1,0.2-0.1,0.3C249.5,306.4,249.5,306.4,249.4,306.4z"/>
		<path class="st0" d="M264.5,347.7c8.2,5.8,17.4,8.1,27.3,7.6c10-0.5,18.4-4.9,25.9-11.5c-6.6,6.9-14.6,11.2-24.1,12.4
			C282.7,357.5,273.1,354.4,264.5,347.7z"/>
		<path class="st0" d="M83.3,354.5c-21.1-0.3-39-16-39.5-38.1c-0.5-23,17.7-39.9,39.4-39.9c20.4-0.1,38.5,16.8,38.6,38.9
			C121.8,336.6,104.3,354.4,83.3,354.5z M82.9,352.7c20,0.1,37.7-16.5,37.1-38.7c-0.5-18.5-16-35.9-37.4-35.8
			c-20.6,0.1-37.1,16.9-37.1,37.2C45.4,335.8,62.1,352.9,82.9,352.7z"/>
		<path class="st0" d="M122.1,306.8c-1.4-5.8-3.9-11.1-7.4-15.9c-3.8-5-8.6-8.9-14.3-11.6c-3.5-1.6-7.1-2.7-10.8-3.3
			c-4-0.6-8-0.7-12.1-0.1c-9.9,1.4-18.3,5.7-25,13.1c-3.2,3.5-5.6,7.6-7.4,12.1c-0.5,1.3-0.9,2.7-1.3,4c-0.1,0.2-0.2,0.5-0.4,0.7
			c0.2-0.6,0.3-1.2,0.5-1.8c1.3-4.7,3.3-9.2,6.2-13.2c3.2-4.5,7.2-8.1,12-10.9c3.4-1.9,6.9-3.4,10.7-4.3c5.1-1.2,10.3-1.6,15.5-0.9
			c2.6,0.4,5.2,1,7.7,1.7c5.1,1.6,9.6,4.1,13.6,7.6c2.8,2.4,5,5.2,7,8.3c1.8,2.7,3.1,5.7,4.1,8.8c0.5,1.6,0.9,3.2,1.4,4.8
			C122.1,306.3,122.1,306.6,122.1,306.8z"/>
		<path class="st0" d="M107,347.7c-13.5,11.6-37.5,13.1-53-3.8c0.6,0.5,1.1,0.9,1.7,1.4c5.1,4.3,10.9,7.3,17.4,9
			c5,1.3,10.1,1.3,15.2,0.6c4.3-0.6,8.5-1.7,12.4-3.6c2-1,3.8-2.2,5.7-3.3C106.7,347.9,106.9,347.8,107,347.7z"/>
		<path class="st0" d="M43.7,259.4c0.5-1.9,1.9-1.8,3.5-1.5c0.7,0.2,1.5,1.3,1,2.1c-0.2-0.5-0.3-1.1-0.6-1.4c-0.4-0.4-1-0.6-1.5-0.6
			C45.1,258.1,44.1,258.3,43.7,259.4z"/>
		<path class="st0" d="M327.9,260.2c-0.5,0.5-1,1.1-1.6,1.5c-0.5,0.4-1.1,0.6-1.6-0.1c-0.2-0.2-0.6-0.3-0.8-0.6
			c-0.2-0.2-0.2-0.5-0.2-0.8c0-0.1,0.3-0.2,0.5-0.2C325.5,259.9,326.7,259.6,327.9,260.2z"/>
		<path class="st0" d="M327.9,259.6c-0.3-0.8-0.8-1.3-1.6-1.5c0-0.1,0.1-0.1,0.1-0.2c0.2,0,0.4,0,0.6,0.1
			C327.5,258.3,327.9,258.8,327.9,259.6z"/>
		<path class="st0" d="M325.9,257.7c-0.7,0.3-1.3,0.6-2,0.9c0-0.1-0.1-0.1-0.1-0.2c0.7-0.3,1.3-0.6,2-0.9
			C325.8,257.5,325.9,257.6,325.9,257.7z"/>
		<path class="st0" d="M161.5,327.8c-0.9-0.1-1.3,0.2-1.4,0.9c0,0.2-0.2,0.4-0.4,0.5c-0.3,0.1-0.6,0-0.4-0.4
			c0.4-1.5,0.9-2.9,1.3-4.4c0-0.1,0.3-0.4,0.4-0.3c0.2,0.1,0.5,0.2,0.5,0.4c0.2,0.6,0.4,1.2,0.6,1.8c0.2,0.7,0.5,1.4,0.6,2.2
			c0.1,0.2,0,0.5-0.1,0.7c-0.2-0.2-0.5-0.3-0.6-0.5c-0.1-0.2-0.2-0.5-0.3-0.7C161.7,327.9,161.5,327.8,161.5,327.8z"/>
		<path class="st0" d="M306.2,314.9c-0.2-1.2-0.3-2.3-0.6-3.4c-1.3-5.5-4.5-9.6-9.7-11.8c-7.5-3.2-15-1.6-20.5,5
			c-2.3,2.8-3.5,6-3.7,9.6c0,0.5-0.2,0.6-0.7,0.6c-5.2,0-10.4,0-15.6,0c-0.9,0-0.9,0-0.8-0.9c0.2-6.2,2.1-11.9,5.4-17.1
			c3.3-5.2,7.8-9.3,13.4-12.1c6.3-3.2,12.9-4.4,19.9-3.4c7.7,1,14.3,4.3,19.8,9.8c5.1,5.1,8.2,11.1,9.5,18.1
			c0.3,1.7,0.4,3.4,0.5,5.1c0,0.4-0.1,0.6-0.6,0.6c-4.7,0-9.3,0-14,0C307.8,314.9,307,314.9,306.2,314.9z"/>
		<path class="st0" d="M289,331.1c-8.1,0-15.5-6.3-15.7-15.5c-0.2-8.4,7-15.7,15.3-15.7c9,0,16,6.8,16,15.7
			C304.5,324.8,296.6,331.2,289,331.1z M302.8,315.4c-0.1-7.8-6.2-14-14.5-13.8c-7.8,0.2-13.7,6.8-13.3,14.6
			c0.3,7.3,6.5,13.6,14.6,13.2C296.9,329.1,302.8,323,302.8,315.4z"/>
		<path class="st0" d="M257,329.1c7.1,13,18,20.6,33.3,20.2c15.2-0.5,25.2-8.8,31.3-22c-3.6,11.8-13.6,22.4-29.7,23.6
			C274.2,352.2,261.3,341.2,257,329.1z"/>
		<path class="st0" d="M56.9,314.9c-2.6,0-5.3,0-7.9,0c-0.4,0-0.6-0.1-0.6-0.5c0.2-4.7,1.2-9.1,3.2-13.4c3.3-6.9,8.3-12.2,15.1-15.9
			c6.5-3.5,13.4-4.7,20.6-3.7c7,0.9,13.1,3.8,18.3,8.5c6.6,6,10.3,13.5,11.2,22.4c0.1,0.7,0.1,1.3,0.1,2c0,0.5-0.1,0.6-0.6,0.6
			c-3.1,0-6.2,0-9.3,0c-2.2,0-4.3,0-6.5,0c-0.6,0-0.7-0.2-0.8-0.7c-0.3-5.1-2.6-9.2-6.6-12.4c-2.5-2-5.4-3.1-8.5-3.5
			c-5.7-0.7-10.6,1.1-14.6,5.2c-2.8,2.9-4.2,6.3-4.6,10.2c-0.2,1.3,0.1,1.2-1.3,1.2C61.8,314.9,59.4,314.9,56.9,314.9
			C56.9,314.9,56.9,314.9,56.9,314.9z"/>
		<path class="st0" d="M98.3,315.5c-0.1,8.9-7,15.5-15.5,15.6c-8.4,0.1-15.6-6.6-15.8-15.6c-0.1-8.3,7.1-15.5,15.3-15.6
			C91.2,299.8,98.3,306.9,98.3,315.5z M68.8,315.5c-0.2,7,5.6,14,14.2,13.9c7.4,0,14.2-6.5,13.6-15c-0.5-6.8-6-12.8-13.9-12.9
			C74.9,301.5,68.7,307.9,68.8,315.5z"/>
		<path class="st0" d="M114.5,329.3c-4.1,11.7-16.4,22-32.9,21.6c-17.7-0.4-28.5-12.6-31.7-24.2c6.3,13.8,16.5,22.1,31.8,22.5
			C96.9,349.6,107.7,342,114.5,329.3z"/>
		<path class="st0" d="M288.9,302.9c7.1,0.1,12.7,5.8,12.5,12.9c-0.1,6.2-5.5,12.3-12.8,12.1c-7-0.2-12.3-5.6-12.3-12.7
			C276.4,308.6,282.3,302.9,288.9,302.9z M298.4,313.6c-0.1-0.4-0.1-0.9-0.2-1.5c-1.1-3.4-3.4-5.4-6.9-6.4
			c-3.8-1.1-8.1,0.5-10.3,3.8c-1,1.4-1.7,3-1.4,4.8c0.1,0.8,0.5,1.1,1.3,0.9c0.7-0.2,1.3-0.5,2-0.7c1.6-0.5,3.2-1.2,4.8-1.5
			c2.1-0.4,4.1,0.3,6.1,1.1c1,0.4,2.1,0.8,3.1,1.1c0.9,0.3,1.2,0,1.4-0.9C298.4,314.2,298.4,314,298.4,313.6z M277.7,319
			c1,4.4,5.9,8.8,11.7,8.5c5.1-0.3,10.6-4.5,10.7-8.3c-2.2,4.7-5.6,7.7-11,7.8C283.6,327,279.8,324.2,277.7,319z"/>
		<path class="st0" d="M82.6,328c-6.9,0-12.6-5.7-12.4-12.9c0.2-6.5,5.4-12.2,12.7-12.1c7,0.1,12.6,6,12.4,12.8
			C95.1,322.6,89.2,328.2,82.6,328z M82.7,305.5c-2.2-0.1-4.2,0.7-6,2c-2,1.6-3.5,3.5-3.5,6.2c0,1.6,0.5,2,2,1.5
			c0.9-0.3,1.7-0.7,2.6-1c1.9-0.7,3.7-1.3,5.8-1.1c1.7,0.2,3.3,0.8,4.9,1.5c0.7,0.3,1.4,0.6,2.1,0.8c0.9,0.2,1.3-0.2,1.4-1
			c0.1-1.1,0-2.1-0.5-3.1C89.8,307.6,86.9,305.6,82.7,305.5z M71.4,318.6c1.5,5.5,6.5,9.6,13.2,8.8c3.5-0.4,8.6-4.4,8.8-7.1
			c-2.7,4.3-6.3,7.1-11.6,6.7C76.7,326.5,73.2,323.5,71.4,318.6z"/>
	</g>
	<g>
		<path class="st1" d="M366.2,109.7c-0.9-1.3-1.9-2.4-2.9-3.3c-0.5-0.6-1-1.1-1.6-1.6c-0.5-0.6-1-1.1-1.6-1.6
			c-0.5-0.6-1-1.1-1.6-1.6c-0.5-0.6-1-1.1-1.6-1.6c-0.5-0.6-1-1.1-1.6-1.6c-0.5-0.6-1-1.1-1.6-1.6c-0.5-0.6-1-1.1-1.6-1.6
			c-0.5-0.6-1-1.1-1.6-1.6c-0.5-0.6-1-1.1-1.6-1.6c-3.7-4.2-7.8-5.1-10.8-5.1c-0.3,0-0.7,0-1,0.1c-3.4,0.1-8.1,1.5-11.7,7.4
			l-1.5,2.4l1.9,2.2c1.6,1.9,2.4,3.6,2.5,5c0,2.3,0.1,3.5,0.1,3.7c0,0.1,0,0.2,0,0.3c-0.4-0.5-0.9-1-1.5-1.5c-0.5-0.6-1-1.1-1.6-1.6
			c-0.5-0.6-1-1.1-1.6-1.6c-0.5-0.6-1-1.1-1.6-1.6c-0.5-0.6-1-1.1-1.6-1.6c-0.5-0.6-1-1.1-1.6-1.6c-2.1-2.6-5.4-4-10-4
			c-2.3,0-4.9,0.7-7.5,1.9c-2.9,1.4-5.3,4.2-7,8.3c-0.5,1-1,2-1.4,3c-0.2-0.2-0.3-0.3-0.4-0.5c-0.1-0.1-0.2-0.2-0.4-0.3
			c-0.4-0.4-0.8-0.9-1.2-1.3c-0.1-0.1-0.2-0.2-0.4-0.3c-0.4-0.4-0.8-0.9-1.2-1.3c-0.1-0.1-0.2-0.2-0.4-0.3c-0.4-0.4-0.8-0.9-1.2-1.3
			c-0.1-0.1-0.2-0.2-0.4-0.3c-0.4-0.4-0.8-0.9-1.2-1.3c-0.1-0.1-0.2-0.2-0.4-0.3c-0.4-0.4-0.8-0.9-1.2-1.3c-1.3-1.1-2.6-2-3.9-2.7
			c-0.7-1.5-1.8-2.9-3.2-4.1c-0.5-0.6-1-1.1-1.6-1.6c-0.5-0.6-1-1.1-1.6-1.6c-0.5-0.6-1-1.1-1.6-1.6c-0.5-0.6-1-1.1-1.6-1.6
			c-0.5-0.6-1-1.1-1.6-1.6c-0.5-0.6-1-1.1-1.6-1.6c-0.5-0.6-1-1.1-1.6-1.6c-0.5-0.6-1-1.1-1.6-1.6c-0.5-0.6-1-1.1-1.6-1.6
			c-0.6-0.7-1.2-1.4-2-1.9c-2.5-2-5.5-3-8.8-3c-1.1,0-2.1,0.1-3.3,0.3l-0.2,0l-0.2,0c-6.4,1.7-12,6.8-16.5,15
			c-2.3,4.1-4.2,8.3-5.8,12.7c-0.4-0.5-0.9-0.9-1.4-1.4c-1-1.2-2.3-2.2-3.7-3.1c-2.6-1.5-5.4-2.3-8.2-2.3h-3.3l-0.3,2
			c-2.3-1.3-4.9-2-7.7-2h-0.1l-0.1,0c-8,0.6-14.6,4.8-19.7,12.4c-0.1-0.1-0.2-0.1-0.3-0.2c-0.4-0.5-1-1.1-1.6-1.6
			c-0.4-0.5-1-1.1-1.6-1.6c-0.4-0.5-1-1.1-1.6-1.6c-0.4-0.5-1-1.1-1.6-1.6c-0.4-0.5-1-1.1-1.6-1.6c-1.8-2.3-5.2-4.3-11.2-4.3
			c-4.2,0-8.2,1.5-12,4.6c-0.9-0.9-2-1.8-3.3-2.4c-1.7-0.9-3.4-1.5-5-1.9c-0.2-0.2-0.4-0.4-0.6-0.5c-0.2-0.3-0.5-0.6-0.7-0.8
			c-0.3-0.3-0.5-0.5-0.8-0.7c-0.2-0.3-0.5-0.6-0.7-0.8c-0.3-0.3-0.5-0.5-0.8-0.7c-0.2-0.3-0.5-0.6-0.7-0.8c-0.3-0.3-0.5-0.5-0.8-0.7
			c-0.2-0.3-0.5-0.6-0.7-0.8c-0.3-0.3-0.5-0.5-0.8-0.7c-0.2-0.3-0.5-0.6-0.7-0.8c-0.3-0.3-0.5-0.5-0.8-0.7c-0.2-0.3-0.5-0.6-0.7-0.8
			c-0.3-0.3-0.5-0.5-0.8-0.7c-0.2-0.3-0.5-0.6-0.7-0.8c-0.3-0.3-0.5-0.5-0.8-0.7c-0.2-0.3-0.5-0.6-0.7-0.8c-1.9-1.9-4.4-3-7.2-3
			c-1.7,0-3.3,0.4-4.7,1.2c-0.3-0.3-0.7-0.6-1-0.9c-0.4-0.5-1-1.1-1.6-1.6c-0.4-0.5-1-1.1-1.6-1.6c-0.4-0.5-1-1.1-1.6-1.6
			c-0.4-0.5-1-1.1-1.6-1.6c-0.4-0.5-1-1.1-1.6-1.6c-0.4-0.5-1-1.1-1.6-1.6c-0.4-0.5-1-1.1-1.6-1.6c-1.8-2.3-5.1-4.3-10.9-4.3
			c-3.5,0-8.5,1.3-12.7,7.6c-0.4,0.6-0.7,1.2-1.1,1.9l-2.2-0.8l0.8-0.7l-6.3-2.4c-3.3-1.2-6.4-1.9-9.2-1.9c-3.7,0-7,1-9.8,3.1
			c-5,3.6-7.6,7.2-7.8,11c-0.2,3.9-0.2,4.3-0.2,4.5c0,5,2.1,9.4,6.3,13.2c0.5,0.5,1,1.1,1.6,1.6c0.3,0.4,0.7,0.7,1.1,1.1
			c-0.4,0-0.9,0-1.3,0c-11.4,0.6-19.7,6.4-24.8,17.4l-0.1,0.2l-0.1,0.2c-1.8,5.2-2.7,10.1-2.7,14.7c0,8.9,3.4,16.7,10,23.3
			c0.2,0.2,0.4,0.4,0.6,0.6c0.3,0.3,0.6,0.6,0.9,0.9c0.2,0.2,0.4,0.4,0.6,0.6c0.3,0.3,0.6,0.6,0.9,1c0.2,0.2,0.4,0.4,0.6,0.6
			c0.3,0.3,0.6,0.6,0.9,1c0.2,0.2,0.4,0.4,0.6,0.6c0.3,0.3,0.6,0.6,0.9,1c0.2,0.2,0.4,0.4,0.6,0.6c0.3,0.3,0.6,0.6,0.9,1
			c0.2,0.2,0.4,0.4,0.6,0.6c0.3,0.3,0.6,0.6,0.9,1c0.2,0.2,0.4,0.4,0.6,0.6c0.3,0.3,0.6,0.6,0.9,1c0.2,0.2,0.4,0.4,0.6,0.6
			c0.3,0.3,0.6,0.6,0.9,0.9c0.2,0.2,0.4,0.4,0.6,0.6c0.3,0.3,0.6,0.6,0.9,1c0.2,0.2,0.4,0.4,0.6,0.6c0.3,0.3,0.6,0.6,0.9,1
			c6.4,6.3,14.1,9.5,23,9.5c5.3,0,11-1.1,17-3.4l0.2-0.1l0.2-0.1c7.1-3.6,12.9-8.8,17.2-15.5c0.3-0.5,0.6-1,0.9-1.6
			c0.1,0.1,0.3,0.3,0.4,0.4c0.5,0.6,1,1.1,1.6,1.6c2.1,2.6,5.5,4.1,9.8,4.1h0.1l0.1,0c4.4-0.2,8.6-2.2,12.6-6
			c0.2-0.2,0.4-0.5,0.7-0.7c0.4,0.4,0.7,0.8,1.1,1.1c0.5,0.6,1,1.1,1.6,1.6c2.1,2.6,5.4,4,9.6,4c4,0,7.5-1.5,10.7-4.4l2.1-2
			l-0.7-1.4c0.2,0.2,0.4,0.4,0.7,0.6c0.5,0.6,1,1.1,1.6,1.6c0.5,0.6,1,1.1,1.6,1.6c1.9,2.4,5,3.9,8.9,4c0.1,0.3,0.2,0.7,0.3,1
			c0.5,1.4,1.5,3.4,3.5,5c0.4,0.5,1,1.1,1.6,1.6c0.4,0.5,1,1.1,1.6,1.6c0.4,0.5,1,1.1,1.6,1.6c0.4,0.5,1,1.1,1.6,1.6
			c0.4,0.5,1,1.1,1.6,1.6c0.4,0.5,1,1.1,1.6,1.6c0.4,0.5,1,1.1,1.6,1.6c0.4,0.5,1,1.1,1.6,1.6c0.4,0.5,1,1.1,1.6,1.6
			c1.8,2.2,5,4.3,10.4,4.3c12.6,0,22.1-8.2,28.3-24.2c1.3-3.3,2.4-6.6,3.6-9.8c0,0,0.1,0,0.1,0.1c0.5,0.6,1,1.1,1.6,1.6
			c0.5,0.6,1,1.1,1.6,1.6c0.5,0.6,1,1.1,1.6,1.6c0.5,0.6,1,1.1,1.6,1.6c1.6,2,3.9,3.5,7.3,3.5h0.1l0.1,0c4.4-0.2,8.5-2.2,12.4-6.1
			c1-1,2-2.1,3-3.3c0.2,0.2,0.3,0.3,0.5,0.5c0.5,0.6,1,1.1,1.6,1.6c0.5,0.6,1,1.1,1.6,1.6c2.5,2.9,6.1,4.7,10.5,5.4
			c0.8,1.3,1.7,2.5,2.9,3.7c0.4,0.4,0.9,0.9,1.3,1.3c0.1,0.1,0.2,0.2,0.3,0.3c0.4,0.4,0.9,0.9,1.3,1.3c0.1,0.1,0.2,0.2,0.3,0.3
			c0.4,0.4,0.9,0.9,1.3,1.3c0.1,0.1,0.2,0.2,0.3,0.3c0.4,0.4,0.9,0.9,1.3,1.3c0.1,0.1,0.2,0.2,0.3,0.3c0.4,0.4,0.9,0.9,1.3,1.3
			c0.1,0.1,0.2,0.2,0.3,0.3c0.4,0.4,0.9,0.9,1.3,1.3c0.1,0.1,0.2,0.2,0.3,0.3c0.4,0.4,0.9,0.9,1.3,1.3c0.1,0.1,0.2,0.2,0.3,0.3
			c0.4,0.4,0.9,0.9,1.3,1.3c0.1,0.1,0.2,0.2,0.3,0.3c0.4,0.4,0.9,0.9,1.3,1.3c0.1,0.1,0.2,0.2,0.3,0.3c0.4,0.4,0.9,0.9,1.3,1.3
			c0.1,0.1,0.2,0.2,0.3,0.3c3.9,4.2,9.2,6.3,16,6.3c0.6,0,1.3,0,2-0.1c7.4-0.6,13-3.6,16.8-9.1c3.5-5.1,5.3-10.6,5.3-16.3
			c0-3.8-0.3-7.2-1-10.3c6.8-2.9,13.2-6.4,19-10.5c7.2-5.1,12.1-11.8,14.6-19.8l0-0.1l0-0.1c0.8-3.1,1.2-6.1,1.2-8.6
			C369.3,116.1,368.3,112.6,366.2,109.7z M81.5,75.9l-0.2-0.1l0.4-0.3C81.6,75.6,81.5,75.7,81.5,75.9z"/>
		<g>
			<path class="st1" d="M59.9,169.1c-8.9,0-16.6-3.2-23-9.5c-6.6-6.6-10-14.5-10-23.3c0-4.6,0.9-9.6,2.7-14.7l0.1-0.2l0.1-0.2
				c5.1-11,13.5-16.8,24.8-17.4c0.7,0,1.4,0,2.1-0.1c-0.4-0.3-0.8-0.6-1.2-0.9c-5.6-4.2-8.4-9.2-8.4-15c0-0.2,0-0.6,0.2-4.5
				c0.2-3.8,2.8-7.4,7.8-11c2.8-2,6.1-3.1,9.8-3.1c2.8,0,5.9,0.6,9.2,1.9l6.3,2.4l-5.2,4.3c-1.4,1.2-2.1,2.6-2.1,4.6v0.2
				c0,2.2,0.8,4.2,2.3,6.1c0.7,0.9,1.6,1.6,2.7,2.1c0.6-8.1,2.2-13.9,4.7-17.8c4.2-6.3,9.2-7.6,12.7-7.6c9.5,0,12.2,5.4,12.9,8.5
				c0.3,1.3,0.5,2.7,0.5,4.2c0,3.4-1,7.2-3.1,11.7c-1.8,3.9-4.4,7.5-8,10.7c0.1,1,0.3,2,0.4,2.9c1.1,6.4,1.9,12.9,2.5,19.4
				c0.1,1.2,0.1,2.2,0.1,3.2c0,9-2.2,16.9-6.5,23.7c-4.3,6.7-10.1,12-17.2,15.5l-0.2,0.1l-0.2,0.1C70.9,167.9,65.2,169.1,59.9,169.1
				z M53.4,147.2c1.9,0.9,3.7,1.3,5.6,1.3c3.7,0,7.6-1.8,11.6-5.3c3.4-3,5.8-7.4,7.2-13.1c-1.9,3.9-5.2,7.9-9.9,12.1l-5.2,4.6
				l-1.3-6.8c-0.5-2.8-1.5-4.6-3-5.4c-1.1-0.6-2.1-0.9-3.2-0.9c-0.2,0-1,0-3.1,0.7c-0.7,0.2-1.4,1.1-2,2.6c-0.5,1.1-0.7,2-0.7,3
				C49.5,142.3,50.8,144.7,53.4,147.2z M72.1,107.9c3,2.1,4.8,4.8,6,7.2c0.4,0.8,0.7,1.6,1,2.5c0-1.5,0-3.1-0.1-4.6
				c-0.2-1.7-0.4-3.4-0.5-5c-0.9,0-1.7,0-2.5,0C74.6,108,73.3,107.9,72.1,107.9z"/>
			<path class="st1" d="M107.2,154.4c-7.7,0-12.3-4.5-12.3-12.1c0-0.4,0-0.8,0-1.2c0-7.2,2-15.3,5.9-24.3c3.8-8.8,6.9-15.1,9.3-19.2
				l1.1-1.9h2.2c0.3,0,0.6,0,0.9,0c-0.8-1.5-1.3-3.1-1.3-4.9c0-2.8,1-5.3,2.9-7.2c1.9-2,4.4-3,7.1-3c2.8,0,5.3,1,7.2,3
				c1.9,2,3,4.5,3,7.3c0,2.7-1,5.2-3,7.1c-1.5,1.5-3.4,2.5-5.5,2.8c1.1,1.4,1.9,3,2.3,4.9l0.2,1.1l-0.4,1.1
				c-0.3,0.7-0.5,1.4-0.9,2.1c-1.6,3.8-3.3,8.1-5.1,12.6c-1.2,3-2.1,5.7-2.8,8.2c0.2-0.3,0.4-0.5,0.6-0.8c2.8-3.9,5.5-8.3,8.1-13.2
				l1.1-2.1h13.6l-5.3,10.6c-1.7,3.4-4,7.3-6.8,11.5c-2.9,4.4-6.1,8.4-9.6,11.7c-4,3.8-8.2,5.8-12.6,6L107.2,154.4L107.2,154.4z"/>
			<path class="st1" d="M158.6,154.4c-7.6,0-12.1-4.4-12.1-11.8c0-0.5,0-1,0-1.5c0-4.5,1.4-9.9,4.1-16.6c1-2.8,1.8-5.4,2.4-7.6
				c-0.8,0.8-1.6,1.9-2.5,3.2c-2.7,4.2-4.8,9-6.1,14.3c-0.6,2.3-0.9,4.4-0.9,6.2c0,1.9,0.3,3.6,1,4.9l1.3,2.6l-2.1,2
				c-3.1,2.9-6.7,4.4-10.7,4.4c-7.6,0-12.1-4.6-12.1-12.2c0-0.4,0-0.8,0.1-1.2c0.3-7.9,2.2-15.7,5.4-23.3c3.1-7.3,6.1-13.7,9.1-18.9
				c0,0,0-0.1,0.1-0.1v-3.1h3.9c2.8,0,5.6,0.8,8.5,2.3c1.3,0.7,2.4,1.5,3.3,2.4c3.8-3,7.8-4.6,12-4.6c8.6,0,11.8,4,12.9,7.4
				c0.6,1.8,0.9,3.9,0.9,6c0,2.3-0.5,5.2-1.4,8.8c-0.7,2.6-1.5,5.4-2.6,8.4c1.9-3,3.8-6.2,5.6-9.7l1.1-2.1H193l-5.3,10.6
				c-1.7,3.4-4,7.3-6.7,11.5c-2.9,4.4-6.1,8.4-9.6,11.8C167.3,152.4,163,154.4,158.6,154.4z"/>
			<path class="st1" d="M186.1,178.7c-8.4,0-11.3-4.8-12.3-7.7c-0.6-1.6-0.8-3.2-0.8-4.7c0-3.1,1.1-5.9,3.3-8.4l1.6-1.8l2.3,0.5
				c1.2,0.3,2.3,0.4,3.3,0.4c2.4,0,4.7-0.9,7.1-2.8c-0.5,0-1,0.1-1.4,0.1c-9.8,0-15.4-5.9-15.6-16.6l0-1.1c0-8.8,2.5-17.7,7.4-26.3
				c5.3-9.2,12.4-14.2,21.2-14.8l0.1,0h0.1c2.8,0,5.4,0.7,7.7,2l0.3-2h3.3c2.8,0,5.6,0.8,8.2,2.3c2.9,1.6,4.9,4.1,6.1,7.2l0.4,1.1
				l-0.3,1.2c-0.3,1.4-0.7,2.8-1,4.2c-2.9,13.9-7.2,28.4-12.8,42.9C208.2,170.6,198.7,178.7,186.1,178.7z M196.9,133
				c0,0.5,0,0.8,0.1,1.1c0.4-0.2,1-0.7,1.8-1.7c1.6-1.9,3-4.3,4.3-6.9c1.2-2.6,2-4.9,2.4-7c0.1-0.9,0.2-1.7,0.2-2.4c0-0.4,0-0.7,0-1
				c-1.1,0.6-2.8,2.2-4.9,5.8c-2.3,4.2-3.5,8-3.7,11.3V133z"/>
			<path class="st1" d="M231.5,154.4c-8.4,0-10.3-8.8-10.7-14c-0.1-1.5-0.2-3.1-0.2-4.6c0-6.1,1-13.5,2.9-21.9
				c2-8.5,5.1-16.6,9.3-24.2c4.6-8.2,10.2-13.3,16.5-15l0.2,0l0.2,0c1.1-0.2,2.2-0.3,3.3-0.3c3.4,0,6.3,1,8.8,3
				c3,2.4,4.6,5.6,4.6,9.3c0,0.5,0,1-0.1,1.5l-0.2,2.8l-2.7,0.7c-3.8,0.9-7.4,3.6-10.5,8c-3.5,4.8-6.4,10.3-8.6,16.2
				c-2.2,6-3.6,11.4-4.2,15.8c0,0,0,0,0,0c0.4-0.5,0.9-1.2,1.4-1.9c2.9-4.1,5.5-8.4,7.9-12.9l1.1-2.1h13.3l-4.7,10.4
				c-1.5,3.4-3.6,7.3-6.1,11.6c-2.6,4.4-5.6,8.4-9,11.8c-3.8,3.9-8,5.9-12.4,6.1L231.5,154.4L231.5,154.4z"/>
			<path class="st1" d="M265.5,154.4c-11.2,0-18-5.8-19.2-16.2c-0.2-1.6-0.3-3.3-0.3-4.9c0-7.7,2.3-15.8,6.9-24
				c5-9,12.1-13.6,21.3-13.6c3.9,0,7.5,1.5,10.8,4.4c3.1,2.9,4.7,7,4.7,12.2c0,0.6,0,1.1-0.1,1.7l0,0.2c-0.1,1-0.3,2-0.5,2.9
				c0.1-0.1,1.3-2.5,1.3-2.5h13.1l-2.3,5.4c-4.4,10.4-9.9,18.8-16.4,24.8C278,151.3,271.7,154.4,265.5,154.4z"/>
			<path class="st1" d="M295.7,179.8c-6.7,0-12.1-2.1-16-6.3c-3.8-4.1-5.7-8.5-5.7-13.2c0-7.4,3.2-13.4,9.3-17.4
				c4.4-2.8,9.1-5.2,14.1-7c-0.6-3.1-1.3-6-2.1-8.8c-0.2-0.8-0.5-1.6-0.7-2.4c-0.3,0-0.5,0.1-0.8,0.1c-0.5,0-1-0.1-1.5-0.3l-0.1,0
				c-1.1-0.4-2.1-1.2-2.7-2.3c-0.4-0.8-0.7-1.7-0.7-2.6v-1.2l0.3-1.1l0.2-0.4c0.8-1.5,1.5-3.2,2.4-4.9c1-2,2-4.2,3.2-6.6
				c1.7-4.1,4.1-6.9,7-8.3c2.6-1.3,5.1-1.9,7.5-1.9c4.7,0,8.2,1.4,10.2,4.3c1.5,2.1,2.2,4.2,2.2,6.5c0,0.7-0.1,1.7-0.5,3.3
				c-0.5,2.5-2.3,4.5-5.3,5.9l-0.2,0.1l-0.2,0.1c-1.2,0.4-2.4,0.6-3.6,0.6c-0.3,0-0.6,0-0.9-0.1c0.2,1,0.4,2.1,0.7,3.6
				c0.5,2.4,1.3,5.3,2.4,8.7c3.8-2.4,7.4-5.7,10.8-9.7c2.4-3.4,3.6-6.8,3.6-10.3c0-0.2,0-1.4-0.1-3.7c0-1.4-0.9-3.1-2.5-5l-1.9-2.2
				l1.5-2.4c3.6-5.9,8.4-7.3,11.7-7.4c0.3,0,0.7-0.1,1-0.1c3.4,0,8.2,1.2,12.1,6.8c2,2.8,3,6.4,3,10.7c0,2.6-0.4,5.5-1.2,8.6l0,0.1
				l0,0.1c-2.5,8.1-7.4,14.8-14.6,19.8c-5.8,4.1-12.2,7.6-19,10.5c0.7,3.1,1,6.5,1,10.3c0,5.7-1.8,11.2-5.3,16.3
				c-3.8,5.5-9.4,8.5-16.8,9.1C296.9,179.7,296.3,179.8,295.7,179.8z M297.7,152.7c-2.2,1.2-4.1,2.6-5.8,4.1
				c-0.7,0.6-1.1,1.2-1.3,1.6c0.4-0.1,1-0.2,2.1-0.5c0.1,0,1.4-0.4,4-3.8c0.4-0.5,0.7-1,1-1.6C297.8,152.7,297.8,152.7,297.7,152.7z
				"/>
		</g>
		<g>
			<path class="st0" d="M95.6,69.4c5.2,0,8.2,1.8,9.1,5.5c0.3,1,0.4,2.1,0.4,3.3c0,2.8-0.9,6.2-2.7,10.1c-1.8,3.9-4.7,7.5-8.6,10.8
				c0.3,1.6,0.5,3.3,0.8,5c1.1,6.4,1.9,12.7,2.4,19.1c0.1,1,0.1,2,0.1,2.9c0,8.2-2,15.5-5.9,21.6s-9.1,10.9-15.6,14.1
				c-5.6,2.1-10.8,3.1-15.6,3.1c-7.8,0-14.6-2.8-20.2-8.4c-5.9-5.9-8.8-12.7-8.8-20.5c0-4.2,0.8-8.7,2.5-13.4
				c4.5-9.6,11.6-14.7,21.5-15.2c0.7,0,1.5,0,2.2,0c8.7,0,14.5,3.1,17.5,9.2c0.9,1.7,1.3,3.5,1.3,5.3c0,5.2-3.5,11-10.5,17.2
				c-0.8-4-2.4-6.7-5-8.1c-1.6-0.9-3.3-1.4-5-1.4c-1,0-2.3,0.3-4.2,0.8s-3.3,2.1-4.5,4.8c-0.7,1.6-1,3.1-1,4.6
				c0,3.6,1.9,7.1,5.7,10.5c2.6,1.3,5.2,2,7.8,2c4.7,0,9.4-2.1,14.2-6.3c6.5-5.8,9.8-15.2,9.8-28.3c0-1.7,0-3.5-0.1-5.3
				c-0.3-3.1-0.6-6-0.8-8.8c-2.2,0.2-4.2,0.2-6.1,0.2c-8.1,0-14.2-1.5-18.1-4.4c-4.6-3.4-6.8-7.4-6.8-11.8c0-0.3,0.1-1.7,0.2-4.3
				c0.2-2.6,2.2-5.2,6.2-8.1c2.2-1.6,4.7-2.3,7.5-2.3c2.4,0,5,0.5,7.8,1.6c-2.3,1.9-3.5,4.4-3.5,7.6v0.3c0,3,1,5.9,3.1,8.5
				c2.1,2.6,5.2,4.2,9.5,4.6c0.3-9.8,1.7-16.6,4.3-20.5C88.8,71.4,91.9,69.4,95.6,69.4z M96.4,78.7c-0.1,0.1-0.3,0.2-0.5,0.2
				c-0.1,0-0.3,0.1-0.5,0.1c-1.9,1-2.9,3.5-2.9,7.4c0,1.3,0.1,2.7,0.3,4.3c2.6-2.8,4.2-5.5,4.9-8.1c0.2-0.8,0.3-1.5,0.3-2
				C98.1,79.4,97.5,78.7,96.4,78.7z"/>
			<path class="st0" d="M113.5,99.6c2.1,0,4.1,0.6,6.1,1.8c2,1.2,3.3,2.9,3.7,5.1c-0.2,0.6-0.5,1.2-0.8,1.9c-1.7,4-3.4,8.2-5.2,12.8
				c-1.8,4.6-3,8.6-3.8,12c-0.2,1-0.3,1.9-0.3,2.7c0,1.6,0.6,2.5,1.7,2.5c1.7,0,4.1-2,7-6.1s5.7-8.6,8.4-13.7h4.9l-2.5,4.9
				c-1.6,3.3-3.8,7-6.6,11.2c-2.7,4.2-5.7,7.9-9,11s-6.6,4.8-10,4.9c-5.6,0-8.4-2.7-8.4-8.2c0-0.3,0-0.7,0-1.1
				c0-6.7,1.9-14.3,5.6-22.9C108.2,109.7,111.2,103.5,113.5,99.6z M123.2,84.5c1.7,0,3.2,0.6,4.4,1.8c1.2,1.2,1.8,2.7,1.8,4.5
				c0,1.7-0.6,3.1-1.8,4.3c-1.2,1.2-2.7,1.8-4.4,1.8c-1.7,0-3.1-0.6-4.3-1.8c-1.2-1.2-1.8-2.6-1.8-4.3c0-1.8,0.6-3.3,1.8-4.5
				C120.1,85.1,121.6,84.5,123.2,84.5z"/>
			<path class="st0" d="M139.3,99.6v-0.2c2.1,0,4.4,0.6,6.7,1.9c2.3,1.2,3.7,3,4.3,5.2c4.1-4.6,8.4-6.9,12.8-6.9
				c5.1,0,8.1,1.6,9.1,4.7c0.5,1.5,0.7,3,0.7,4.8c0,2-0.4,4.6-1.3,7.9c-0.8,3.3-2,6.9-3.6,10.9c-1.1,3-2,5.6-2.5,7.6
				c-0.2,0.6-0.2,1.2-0.2,1.6c0,0.9,0.4,1.4,1.1,1.4c1.8,0,4.1-2,7.1-6.1s5.7-8.7,8.4-13.8h4.8l-2.5,4.9c-1.6,3.3-3.8,7-6.5,11.2
				c-2.7,4.2-5.7,7.9-9,11.2c-3.3,3.3-6.7,4.9-10,4.9c-5.5,0-8.2-2.6-8.2-7.9c0-0.4,0-0.9,0-1.4c0-4,1.3-9.1,3.8-15.3
				c1.4-3.8,2.3-7.1,2.9-9.9c0.2-0.9,0.3-1.6,0.3-2.2c0-1.5-0.5-2.4-1.5-2.7c-2.9,0.1-5.8,2.4-8.8,6.9c-2.9,4.6-5.2,9.7-6.6,15.4
				c-0.7,2.6-1,5-1,7.1c0,2.5,0.5,4.7,1.4,6.6c-2.4,2.2-5,3.3-8,3.3c-5.5,0-8.2-2.8-8.2-8.3c0-0.3,0-0.6,0-1
				c0.3-7.5,2-14.8,5.1-22.1c3.1-7.3,6-13.5,8.9-18.6C138.9,100.2,139.1,99.9,139.3,99.6z"/>
			<path class="st0" d="M202.4,99.5c4.3,0,7.7,1.9,10.2,5.8c0.6-2.7,1-4.6,1.1-5.8c2.1,0,4.2,0.6,6.3,1.8c2.1,1.2,3.5,2.9,4.3,5.1
				c-0.3,1.4-0.7,2.8-1,4.3c-2.9,13.8-7.1,27.9-12.6,42.4c-5.5,14.5-13.7,21.7-24.6,21.7c-4.6,0-7.5-1.7-8.7-5.1
				c-0.4-1.2-0.6-2.3-0.6-3.4c0-2.1,0.8-4,2.4-5.9c1.5,0.3,2.9,0.5,4.2,0.5c3.5,0,6.9-1.4,10.2-4.2c3.3-2.8,6.2-7.1,8.8-12.8
				c-4.2,4.3-8.7,6.5-13.4,6.5c-7.6,0-11.5-4.2-11.7-12.7v-1c0-8.2,2.3-16.3,6.9-24.3C188.8,104.4,194.9,100.1,202.4,99.5z
				 M205.9,110.9c-2.9,0.5-5.8,3.2-8.8,8.2c-2.6,4.8-4,9.2-4.2,13.2v0.8c0,3.5,1.2,5.2,3.6,5.2c1.6,0,3.3-1.1,5.2-3.3
				c1.8-2.2,3.4-4.8,4.8-7.7c1.4-2.9,2.3-5.6,2.7-8.1c0.1-1.1,0.2-2.1,0.2-2.9c0-3.5-1-5.3-3-5.3
				C206.3,110.8,206.1,110.8,205.9,110.9z"/>
			<path class="st0" d="M231.5,150.5c-4,0-6.3-3.5-6.8-10.4c-0.1-1.4-0.1-2.8-0.1-4.3c0-5.9,0.9-12.9,2.8-21s4.9-15.9,8.9-23.2
				c4.1-7.3,8.8-11.7,14.2-13.2c0.9-0.2,1.7-0.2,2.6-0.2c2.5,0,4.6,0.7,6.4,2.1c2.1,1.6,3.1,3.7,3.1,6.3c0,0.4,0,0.8,0,1.1
				c-4.8,1.2-9,4.3-12.7,9.5c-3.7,5.1-6.8,10.9-9.1,17.2c-2.3,6.3-3.8,11.9-4.4,16.7c-0.2,1.4-0.2,2.5-0.2,3.5
				c0,2.5,0.5,3.7,1.6,3.7c1.8,0,4.2-2.1,7.1-6.4c3-4.2,5.7-8.7,8.1-13.3h4.9l-2.2,4.9c-1.5,3.3-3.5,7-5.9,11.2s-5.2,7.9-8.4,11
				S234.9,150.4,231.5,150.5z"/>
			<path class="st0" d="M274.3,99.6c2.9,0,5.6,1.1,8.1,3.4c2.3,2.1,3.4,5.2,3.4,9.3c0,0.5,0,1,0,1.4c-0.6,5.6-2.9,10.6-6.7,15
				c-3.8,4.4-8.1,6.6-12.8,6.8c0.2,1,0.7,1.9,1.5,2.7c0.8,0.8,1.8,1.3,3,1.4c0.4,0.1,0.8,0.1,1.2,0.1c6.3,0,13.3-7,20.9-21.1h4.9
				c-4.2,10-9.3,17.8-15.4,23.5c-6.1,5.7-11.7,8.5-16.8,8.5c-9.2,0-14.3-4.2-15.3-12.7c-0.2-1.5-0.2-3-0.2-4.4
				c0-7,2.1-14.4,6.4-22.2C260.7,103.4,266.6,99.6,274.3,99.6z M277.1,110.9c-0.1,0-0.3,0-0.4,0c-1,0-2.4,0.7-4,2.2
				c-1.7,1.5-3.2,3.7-4.5,6.8c-0.5,1.5-0.8,2.8-0.8,3.8c0,1,0.3,1.7,0.8,2.2c0.3,0.3,0.7,0.4,1.1,0.4c1,0,2.4-0.8,4.2-2.5
				c1.1-1.1,2.1-2.7,3-4.6c0.9-1.9,1.4-3.7,1.6-5.3c0-0.3,0-0.7,0-1C278.1,111.7,277.7,111.1,277.1,110.9z"/>
			<path class="st0" d="M337.7,91.2c0.3,0,0.5,0,0.8,0c3.6,0,6.5,1.7,8.9,5.1c1.6,2.2,2.3,5,2.3,8.4c0,2.3-0.3,4.9-1,7.7
				c-2.2,7.3-6.6,13.2-13.1,17.8c-6.5,4.6-13.7,8.4-21.5,11.4c1.2,3.5,1.8,7.7,1.8,12.7c0,4.9-1.5,9.7-4.6,14.1
				c-3.1,4.5-7.7,6.9-13.9,7.4c-0.6,0-1.1,0-1.7,0c-5.6,0-10-1.7-13.1-5c-3.1-3.4-4.7-6.9-4.7-10.6c0-6.1,2.5-10.8,7.5-14.1
				c5-3.3,10.5-5.8,16.5-7.7c-0.8-4.5-1.7-8.6-2.9-12.5c-0.8-2.8-1.4-5.2-1.8-7.2c-0.2,0.2-0.5,0.5-1,0.8c-0.5,0.4-1,0.7-1.5,0.9
				c-0.3,0.2-0.7,0.3-0.9,0.3c-0.1,0-0.2,0-0.3,0c-0.3-0.1-0.4-0.3-0.6-0.5c-0.1-0.2-0.2-0.5-0.2-0.7v-0.8l0-0.2
				c0.8-1.6,1.6-3.2,2.4-4.9c1-2,2-4.2,3.2-6.6c1.4-3.3,3.1-5.4,5.2-6.4s4-1.5,5.8-1.5c3.4,0,5.8,0.9,7.1,2.7c1,1.4,1.5,2.8,1.5,4.2
				c0,0.4-0.1,1.3-0.4,2.5s-1.3,2.3-3.1,3.1c-0.8,0.3-1.6,0.4-2.3,0.4c-0.7,0-1.5-0.2-2.4-0.7c-0.9-0.5-1.6-1.2-2.2-2.4
				c-0.4,0.9-0.6,2.1-0.6,3.5c0,1.7,0.4,4.3,1.2,7.8c0.8,3.5,2.1,8.1,3.9,13.6c5.9-2.8,11.3-7.1,16.2-13c2.9-4.1,4.4-8.3,4.4-12.7
				c0-0.2,0-1.4-0.1-3.8c0-2.4-1.2-4.9-3.4-7.5C331.2,93.2,334.1,91.3,337.7,91.2z M302.2,146.1c-1.8,0.8-3.9,1.8-6.4,3.2
				c-2.5,1.4-4.7,2.9-6.5,4.7c-1.8,1.6-2.7,3.3-2.7,5v0.3c0.5,2.1,1.8,3.2,3.7,3.2c0.5,0,1.7-0.2,3.4-0.7c1.8-0.4,3.8-2.2,6.2-5.1
				c1.8-2.2,2.7-4.7,2.7-7.5C302.6,148.1,302.4,147.1,302.2,146.1z"/>
		</g>
	</g>
	<g>
		<path class="st1" d="M78.6,456.8c0.4,0.5,0.9,1,1.5,1.5c0.4,0.5,0.9,1,1.5,1.5c0.4,0.5,0.9,1,1.5,1.5c0.4,0.5,0.9,1,1.5,1.5
			c0.4,0.5,0.9,1,1.5,1.5h40.4c0.4-0.5,0.8-1.1,1.2-1.7c0.2,0.2,0.5,0.5,0.7,0.7c0.3,0.4,0.7,0.7,1,1h43.1c1.4-1.9,2.5-3.9,3.3-5.9
			c0.4,0.5,0.9,1,1.4,1.4c2.2,2.6,5.4,4.1,9.5,4.5h3.8c3.8-0.4,7.4-2,10.8-4.7c0.3,0.3,0.6,0.6,0.9,0.8c1.7,2.2,4.4,3.6,7.8,3.9h3.3
			c3.6-0.4,7.2-2.3,10.6-5.7c0.6-0.6,1.2-1.2,1.8-1.9c0.3,0.3,0.5,0.5,0.8,0.8c0.1,0.1,0.1,0.2,0.2,0.2c0.4,0.5,0.9,0.9,1.3,1.3
			c0.1,0.1,0.1,0.2,0.2,0.2c3,3.3,7.2,5,12.6,5h0.1c6.6-0.2,11.3-2.4,14.1-6.6c0.2-0.4,0.5-0.8,0.7-1.1c0.4,0.5,0.9,0.9,1.3,1.3
			c0.4,0.6,0.9,1.1,1.5,1.5c0.4,0.6,0.9,1.1,1.5,1.5c1.6,2,3.8,3.3,7,3.3h0.5c1.3,0,2.6-0.2,3.7-0.6l0.2-0.1c1-0.4,1.9-0.9,2.6-1.3
			l0.2-0.2l0.2-0.1l2.1-1.2l-0.3-2.4c0-0.4-0.1-0.7-0.1-1.1c0.1,0.1,0.1,0.1,0.2,0.2c0.4,0.6,0.9,1.1,1.5,1.5
			c0.4,0.6,0.9,1.1,1.5,1.5c2,2.5,5.1,3.9,9.2,3.9c4.8,0,8.7-1.6,11.6-4.8c2.7-2.9,4.2-5.4,4.8-7.6c0.5-2,0.7-3.3,0.7-4.3
			c0-2.9-1.4-4.4-2.5-5.1c-0.5-0.7-1-1.2-1.5-1.5c0-0.1-0.1-0.1-0.1-0.2c1.7-3.9,3.1-7.5,4-10.8c1.1-3.6,1.6-6.5,1.6-8.8
			c0-2.1-0.3-4.1-1-5.9c-0.6-1.8-1.7-3.2-3.1-4.3c-0.4-0.5-0.9-1.1-1.5-1.5c-0.4-0.5-0.9-1.1-1.5-1.5c-0.4-0.5-0.9-1.1-1.5-1.5
			c-0.4-0.5-0.9-1.1-1.5-1.5c-0.4-0.5-0.9-1.1-1.5-1.5c-0.1-0.2-0.3-0.3-0.4-0.5c0.9-0.4,1.7-0.7,2.7-1l2.4-0.7l0.2-2.5
			c0-0.4,0.1-0.9,0.1-1.3c0-3.2-1.2-6.1-3.5-8.3c-0.2-0.2-0.4-0.3-0.6-0.5c-0.3-0.3-0.6-0.7-0.9-1c-0.2-0.2-0.4-0.3-0.6-0.5
			c-0.3-0.3-0.6-0.7-0.9-1c-0.2-0.2-0.4-0.3-0.6-0.5c-0.3-0.3-0.6-0.7-0.9-1c-0.2-0.2-0.4-0.3-0.6-0.5c-0.3-0.3-0.6-0.7-0.9-1
			c-0.2-0.2-0.4-0.3-0.6-0.5c-0.3-0.3-0.6-0.7-0.9-1c-0.2-0.2-0.4-0.3-0.6-0.5c-0.3-0.3-0.6-0.7-0.9-1c-0.2-0.2-0.4-0.3-0.6-0.5
			c-0.3-0.3-0.6-0.7-0.9-1c-0.2-0.2-0.4-0.3-0.6-0.5c-0.3-0.3-0.6-0.7-0.9-1c-0.2-0.2-0.4-0.3-0.6-0.5c-0.3-0.3-0.6-0.7-0.9-1
			c-0.2-0.2-0.4-0.3-0.6-0.5c-0.3-0.3-0.6-0.7-0.9-1c-2.6-2.4-5.8-3.7-9.5-3.7h-0.2c-1.7,0-3.3,0.3-4.9,1c-1.1,0.5-2.2,1-3.2,1.6
			c-8,2.1-16.4,3.2-25.1,3.2c-0.7,0-1.5,0-2.3,0c-6.7-0.1-12.6-0.9-17.6-2.2l-0.7-0.5l0-0.3l-1.6-1.2l0-0.3l-1.6-1.2l0-0.3l-1.6-1.2
			l0-0.3l-1.6-1.2l0-0.3l-1.6-1.2l0-0.3l-1.6-1.2l0-0.3l-1.6-1.2l0-0.3l-1.6-1.2l0-0.3l-1.8-1.3c-1.9-1.5-4.2-2.2-6.7-2.2
			c-0.4,0-0.7,0-1.1,0.1c-4.1,0.3-7.5,2-10.2,5.1c-2.6,3-3.9,6.6-3.9,10.6c0,1.4,0.1,2.9,0.4,4.5l0,0.2c0.8,3.6,2.7,6.6,5.4,9
			c0.5,0.5,1,1,1.5,1.5c0.5,0.5,1,1,1.5,1.5c0.5,0.5,1,1,1.5,1.5c0.5,0.5,1,1,1.5,1.5c0.5,0.5,1,1,1.5,1.5c0.5,0.5,1,1,1.5,1.5
			c0.2,0.2,0.4,0.4,0.6,0.6c-0.4,0.7-0.6,1.3-0.6,1.3c-0.6-0.8-1.4-1.4-2.2-2c-2.7-1.9-5.8-2.9-9.2-2.9c-4.4,0-8.4,1.3-12,3.9
			c-1-3-2.8-5.9-5.3-8.4c-0.3-0.3-0.6-0.6-0.9-0.9c-0.2-0.2-0.4-0.4-0.6-0.6c-0.3-0.3-0.6-0.6-0.9-0.9c-0.2-0.2-0.4-0.4-0.6-0.6
			c-0.3-0.3-0.6-0.6-0.9-0.9c-0.2-0.2-0.4-0.4-0.6-0.6c-0.3-0.3-0.6-0.6-0.9-0.9c-0.2-0.2-0.4-0.4-0.6-0.6c-0.3-0.3-0.6-0.6-0.9-0.9
			c-0.2-0.2-0.4-0.4-0.6-0.6c-0.3-0.3-0.6-0.6-0.9-0.9c-0.2-0.2-0.4-0.4-0.6-0.6c-0.3-0.3-0.6-0.6-0.9-0.9c-0.2-0.2-0.4-0.4-0.6-0.6
			c-0.3-0.3-0.6-0.6-0.9-0.9c-0.2-0.2-0.4-0.4-0.6-0.6c-0.3-0.3-0.6-0.6-0.9-0.9c-0.2-0.2-0.4-0.4-0.6-0.6c-0.3-0.3-0.6-0.6-0.9-0.9
			c-0.2-0.2-0.4-0.4-0.6-0.6c-5.5-5.5-13.2-8.6-22.7-9.2l-0.1,0h-1c-0.5-0.1-0.9-0.1-1.4-0.1c-0.5,0-1,0-1.5,0.1
			c-12.2,0.6-20.6,3.5-26,8.8c-5.3,5.3-8,10.8-8,16.2c0,1,0.1,2.1,0.3,3c0.4,2.2,1.5,5.3,4.2,7.7c0.4,0.5,0.9,1,1.5,1.5
			c0.4,0.5,0.9,1,1.5,1.5c0.4,0.5,0.9,1,1.5,1.5c0.4,0.5,0.9,1,1.5,1.5c0.4,0.5,0.9,1,1.5,1.5c0.4,0.5,0.9,1,1.5,1.5
			c0.4,0.5,0.9,1,1.5,1.5c0.3,0.4,0.6,0.7,1,1c-3,8.4-6.4,14.6-10.1,18.4c-4.6,4.8-7.1,5.5-8.3,5.5c-1.8,0-3.9-1-6-2.8l-2.5-2.2
			l-2.5,2.2c-4.3,3.8-6.5,8.2-6.5,13c0,1.5,0.2,3,0.6,4.5C75,452.3,76.3,454.8,78.6,456.8z"/>
		<g>
			<path class="st1" d="M136.1,460.4c-7.7,0-13.4-2.2-16.9-6.5c-2.4-2.9-3.9-6-4.5-9.4c-0.6,0.9-1.1,1.7-1.7,2.5
				c-6,8.8-13.6,13.3-22.5,13.3c-11,0-14.9-5.7-16.2-10.4c-0.4-1.5-0.6-3-0.6-4.5c0-4.8,2.2-9.2,6.5-13l2.5-2.2l2.5,2.2
				c2.2,1.9,4.2,2.8,6,2.8c1.1,0,3.7-0.7,8.3-5.5c3.8-4.1,7.4-10.7,10.6-19.8c0.9-2.3,1.7-4.6,2.5-7h-3.9
				c-11.2,0-14.1-6.8-14.8-10.9c-0.2-1-0.3-2-0.3-3c0-5.4,2.7-10.8,8-16.2c5.3-5.4,13.8-8.2,26-8.8c0.5-0.1,1-0.1,1.5-0.1
				c0.5,0,0.9,0,1.4,0.1h1l0.1,0c9.5,0.6,17.2,3.7,22.7,9.2c4.2,4.2,6.4,9.2,6.4,14.7c0,2.1-0.3,4.3-0.9,6.5l0,0.1l0,0.1
				c-1.5,4.3-3.8,7.9-6.9,10.7c-2.4,2.2-5,4-7.6,5.4c1.9,0.8,3.9,1.7,5.8,2.8c7.6,4.2,11.6,11.2,11.9,20.9l0,0.2l0,0.2
				c-0.4,6.3-3,12.2-7.8,17.4C150.2,457.7,143.8,460.4,136.1,460.4z M126.5,430.8c0,5.3,2.2,6.3,3.1,6.7c1.2,0.6,2.4,0.9,3.6,0.9
				c0.6,0,2.1-0.2,4.9-1.6c1.3-0.7,2.3-2.9,2.7-6.3c0-3.1-0.8-5.2-2.3-6.5c-2-1.5-4.2-2.4-6.9-2.7c-1.2-0.1-2.4-0.2-3.4-0.2
				c-0.7,0-1.4,0-2,0.1c-0.3,0.8-0.6,1.6-0.9,2.4l1.3-1.2V430.8z M129.1,378.1c-3.8,0-7.4,1.3-11,3.9c-3.9,2.8-5.8,7.5-5.8,14.3
				c0,0.8,0,1.7,0.1,2.7l0.2,3.7c0.2-0.7,0.5-1.4,0.7-2c0.9-2.8,1.9-5.7,2.9-8.4l0.1-0.2l0.1-0.2c2.8-6.2,6.8-9.8,11.9-10.5
				c0.5-0.1,1.1-0.1,1.7-0.1c2.8,0,7.8,1.1,10.4,8.6l0.4,1.1c0.3-1.1,0.4-2.3,0.4-3.5c0-0.5,0-1-0.1-1.5c-1.1-4.3-3.7-6.7-8.3-7.6
				C131.4,378.2,130.2,378.1,129.1,378.1z M138.4,394.4c-1.2,0.6-2.4,2-3.5,3.9c0.7-0.5,1.4-1.1,2.2-1.7c0.9-0.8,1.7-1.7,2.3-2.7
				L138.4,394.4z"/>
			<path class="st1" d="M196.8,449.3c-4.8,0-8.3-1.8-10.2-5c-4,3.3-8.3,5-12.8,5c-9.5,0-14.9-5.7-15.1-15.9l0-1
				c0-8.5,2.5-17.2,7.3-25.7c5.2-9.2,12.2-13.9,20.6-13.9c3.4,0,6.5,1,9.2,2.9c0.8,0.6,1.5,1.2,2.2,2c0,0,2.4-4.9,2.4-4.9h2.3
				c2.7,0,5.4,0.8,7.9,2.3c2.7,1.7,4.6,4.2,5.4,7.3l0.3,1.3l-0.5,1.2c-1.6,3.7-3.4,7.9-5.2,12.5c-1.3,3.4-2.4,6.5-3.2,9.3
				c0.2-0.3,0.4-0.6,0.7-0.9c2.7-3.8,5.3-8.1,7.7-12.7l1-2h13.1l-5.1,10.2c-1.6,3.2-3.8,7-6.5,11.1c-2.7,4.2-5.8,8.1-9.2,11.4
				C205.1,447.4,201,449.3,196.8,449.3z M181.2,428.5c0,0.6,0,1,0.1,1.2c0.3-0.2,0.9-0.6,1.7-1.7c1.5-1.9,2.9-4.1,4-6.6
				c1.1-2.5,1.9-4.7,2.2-6.7c0.1-0.9,0.1-1.7,0.1-2.3c0-0.3,0-0.5,0-0.8c-0.9,0.6-2.5,2-4.8,5.5c-2.2,4-3.3,7.6-3.5,10.8V428.5z"/>
			<path class="st1" d="M226,449.2c-5.4,0-9.7-1.7-12.7-5c-2.8-3.1-4.4-6.6-5-10.4c-0.1-1.1-0.2-2.1-0.2-3c0-2.7,0.6-5,1.7-7
				c1.5-2.6,3.9-4,6.8-4c0.2,0,0.3,0,0.5,0c-0.7-0.5-1.2-1.2-1.5-2c-0.3-0.7-0.4-1.4-0.4-2.1v-1.2l0.3-1l0.2-0.4
				c1.3-2.6,2.7-5.6,4.2-9c0.3-0.7,0.6-1.3,0.9-2c1.8-3.9,4.1-6.6,6.8-8.1c2.5-1.3,5-2,7.3-2.1c0,0,0,0,0,0c4.6,0,7.9,1.4,9.9,4.2
				c1.4,1.9,2.1,4,2.1,6.2c0,0.8-0.2,1.8-0.5,3.3c-0.5,2.4-2.3,4.3-5.3,5.6l-0.1,0l-0.1,0c-1.1,0.4-2.3,0.7-3.4,0.7
				c-0.2,0-0.4,0-0.6,0c0.5,1.2,1.2,2.7,2.3,4.5c1.9,3.3,3.4,6.8,4.3,10.3l0,0.1l0,0.1c0.3,1.4,0.4,2.7,0.4,4
				c0,3.9-1.2,7.8-3.7,11.5C237.4,446.9,232.6,449.1,226,449.2L226,449.2L226,449.2z M221.3,429.5c0.1,0.1,0.3,0.2,0.6,0.3
				c0.3,0.1,0.5,0.1,0.6,0.1c0.3,0,0.5-0.1,0.8-0.2c0,0,0,0,0,0c0,0,0,0,0,0c0-0.1-0.1-0.6-0.2-1.3c0-0.3-0.2-1.1-0.9-3.2l-0.3,0.6
				c-0.8,1.5-1,2.4-1,2.8c0,0,0,0,0,0C221,428.5,221,428.8,221.3,429.5z"/>
			<path class="st1" d="M273.7,449.1c-7.3,0-11.6-4.4-11.6-11.8v-0.8c0-4.4,1.3-9.6,4-16.1c0.6-1.6,1.1-3,1.5-4.4
				c-2.1,3.7-3.8,8.1-5,13.2c-0.9,3.7-1.4,7.2-1.4,10.5c0,1.2,0.1,2.4,0.2,3.5l0.3,2.4l-2.1,1.2l-0.2,0.1l-0.2,0.2
				c-0.8,0.5-1.6,0.9-2.6,1.3l-0.2,0.1c-1.2,0.4-2.4,0.6-3.7,0.6h-0.5c-8.3,0-10.1-8.9-10.4-14.2c-0.1-1.4-0.1-2.8-0.1-4.2
				c0-6.4,1-14,3.1-22.6c1.4-5.9,3.4-11.6,5.8-16.9c-3.9,0.8-8,1.4-12.3,2c-7.3,0.8-13.9,1.3-19.6,1.3c-20.6,0-32.4-5.6-35-16.8
				l0-0.2c-0.3-1.6-0.4-3.1-0.4-4.5c0-4,1.3-7.5,3.9-10.6c2.7-3.1,6.1-4.8,10.2-5.1c0.4,0,0.7-0.1,1.1-0.1c2.5,0,4.8,0.8,6.7,2.2
				l1.8,1.3l-0.3,2.2c-0.1,0.4-0.1,0.8-0.1,1.2c0,1.1,0,4.5,7.3,7.6c5.9,2.5,13.8,3.9,23.4,4.1c0.8,0,1.6,0,2.3,0
				c8.7,0,17.1-1.1,25.1-3.2c0.9-0.6,2-1.1,3.2-1.6c1.6-0.7,3.2-1,4.9-1h0.2c3.8,0,7,1.2,9.5,3.7c2.3,2.2,3.5,5.1,3.5,8.3
				c0,0.4,0,0.9-0.1,1.3l-0.2,2.5l-2.4,0.7c-4.3,1.3-8,3.6-11.1,7c2-0.7,4.1-1.1,6.2-1.1l0.2,0c7,0.4,11.4,2.9,13,7.5
				c0.7,1.8,1,3.8,1,5.9c0,2.3-0.5,5.2-1.6,8.8c-1,3.3-2.4,7-4.1,10.9c-0.1,0.2-0.2,0.5-0.3,0.7l1.1,0.4c1,0.4,3.4,1.8,3.4,5.6
				c0,1-0.2,2.3-0.7,4.3c-0.6,2.2-2.1,4.7-4.8,7.6C282.4,447.5,278.5,449.1,273.7,449.1z"/>
		</g>
		<g>
			<path class="st0" d="M127.9,367.7c0.4-0.1,0.7-0.1,1.1-0.1c0.4,0,0.7,0,1.1,0.1h1.1c8.6,0.5,15.4,3.3,20.3,8.1
				c3.5,3.5,5.3,7.5,5.3,12.1c0,1.8-0.3,3.6-0.8,5.5c-1.3,3.7-3.2,6.8-5.8,9.2c-2.6,2.4-5.3,4.2-8.2,5.5s-5.3,2.2-7.3,2.7l-3.1,0.8
				c5.3,0,11.1,1.8,17.5,5.3s9.7,9.4,10,17.7c-0.3,5.4-2.6,10.5-6.8,15.1c-4.2,4.6-9.6,6.9-16.2,6.9c-6.5,0-11.2-1.7-14-5.1
				c-2.6-3.1-3.9-6.5-3.9-10.2c0-0.3,0.1-1.5,0.2-3.7c0.1-2.2,1.6-4.5,4.3-6.9c0,5.1,1.8,8.5,5.3,10.1c1.7,0.8,3.5,1.2,5.2,1.2
				c1.7,0,3.9-0.6,6.5-1.9c2.6-1.3,4.2-4.4,4.7-9.4v-0.1c0-4.3-1.3-7.5-3.8-9.5c-2.5-2-5.5-3.2-8.8-3.5c-1.3-0.2-2.6-0.2-3.8-0.2
				c-1.8,0-3.4,0.2-4.8,0.5c-3.5,10.3-8,19.3-13.3,27.1s-11.8,11.7-19.4,11.7c-7,0-11.2-2.6-12.6-7.7c-0.3-1.2-0.5-2.4-0.5-3.5
				c0-3.7,1.7-7.1,5.2-10.2c2.9,2.5,5.7,3.7,8.5,3.7c3.1,0,6.8-2.2,11-6.7c4.2-4.5,8-11.5,11.4-21.1c1.1-3,2.2-6.1,3.2-9.3
				c0.9-2.8,1.9-5.6,2.8-8.4c2.3-5,5.3-7.8,9-8.3c0.4-0.1,0.8-0.1,1.1-0.1c3.1,0,5.4,2,6.8,6.1c-1.9,1-3.7,3-5.2,5.8
				c-1.5,2.8-2.9,5.8-4,9.1c4.1-0.9,8.2-3,12.1-6.5c3.5-3.1,5.3-7.1,5.3-12c0-0.7,0-1.4-0.1-2.1c-1.4-5.9-5.2-9.5-11.3-10.6
				c-1.4-0.3-2.8-0.4-4.2-0.4c-4.6,0-9,1.5-13.2,4.6c-4.9,3.5-7.4,9.3-7.4,17.4c0,0.9,0,1.9,0.1,2.9c-6.5,0-10.2-2.6-11.1-7.8
				c-0.2-0.8-0.2-1.6-0.2-2.4c0-4.4,2.3-8.9,6.9-13.5C108.8,370.8,116.7,368.3,127.9,367.7z"/>
			<path class="st0" d="M186.6,396.5c2.6,0,4.9,0.7,7,2.2c2.1,1.5,3.5,4.1,4.2,7.8c1.4-2.9,2.5-5.3,3.5-7.2l1.4-2.8
				c2,0,4,0.6,5.9,1.8c1.9,1.2,3.2,2.8,3.7,5c-1.7,3.7-3.4,8-5.3,12.7c-1.8,4.7-3.2,8.9-4,12.4c-0.3,1.2-0.4,2.2-0.4,3
				c0,1.6,0.6,2.5,1.7,2.5c1.7,0,3.9-2,6.8-5.9c2.8-3.9,5.5-8.3,8-13.2h4.7l-2.4,4.7c-1.6,3.1-3.7,6.7-6.3,10.7
				c-2.6,4-5.5,7.6-8.7,10.7c-3.2,3.1-6.4,4.7-9.6,4.7c-5.4,0-8.1-2.6-8.1-7.9c0-0.3,0-0.7,0-1.1c-4.7,5.9-9.7,8.9-15,8.9
				c-7.4,0-11.2-4.1-11.3-12.2v-0.9c0-7.9,2.3-15.8,6.8-23.9C173.8,400.5,179.6,396.5,186.6,396.5z M189.8,407.6
				c-2.6,0.3-5.4,2.9-8.4,7.7c-2.5,4.6-3.9,8.8-4,12.6v0.6c0,3.4,1.2,5.1,3.7,5.1c1.5,0,3.1-1.1,4.9-3.2c1.7-2.1,3.2-4.6,4.5-7.4
				c1.3-2.8,2.1-5.4,2.5-7.8c0.1-1.1,0.2-2,0.2-2.8c0-3.3-0.9-4.9-2.7-4.9C190.2,407.5,190,407.5,189.8,407.6z"/>
			<path class="st0" d="M234.9,395.8c3.3,0,5.5,0.9,6.8,2.6c0.9,1.3,1.4,2.6,1.4,4c0,0.5-0.1,1.3-0.4,2.5c-0.3,1.2-1.3,2.2-3.2,3
				c-0.7,0.3-1.4,0.4-2.1,0.4c-0.7,0-1.5-0.2-2.4-0.7c-0.9-0.4-1.6-1.2-2.1-2.3c-0.5,1.1-0.8,2.2-0.8,3.3c0,0.9,0.3,2.2,0.8,3.7
				c0.5,1.6,1.5,3.6,2.9,6c1.8,3.1,3.1,6.2,3.9,9.3c0.2,1.2,0.3,2.3,0.3,3.3c0,3.2-1,6.4-3.1,9.5c-2,3.1-5.7,4.7-11,4.9
				c-4.3,0-7.6-1.3-9.9-3.8c-2.3-2.5-3.6-5.3-4-8.4c-0.1-0.9-0.2-1.7-0.2-2.5c0-2,0.4-3.7,1.2-5.2c0.8-1.4,2-2.1,3.6-2.1
				c0.6,0,1.3,0.1,2,0.3c-0.9,1.7-1.4,3.3-1.4,4.6c0,0.5,0.2,1.3,0.5,2.4c0.3,1,1.3,1.8,2.8,2.4c0.6,0.2,1.3,0.4,1.9,0.4
				c0.9,0,1.8-0.2,2.6-0.7c1.3-0.8,2-1.9,2-3.3c0-0.2-0.1-0.8-0.2-1.8c-0.1-1-0.6-2.7-1.5-5.1c-0.9-2.4-1.6-4.9-2.1-7.7
				c-0.2,0.2-0.6,0.4-1,0.8c-0.5,0.4-1,0.6-1.5,0.9c-0.4,0.2-0.7,0.3-1,0.3c-0.1,0-0.1,0-0.2,0c-0.2-0.1-0.4-0.3-0.5-0.5
				c-0.1-0.2-0.1-0.5-0.1-0.7V415l0-0.2c1.3-2.7,2.7-5.7,4.2-9.1c0.3-0.6,0.6-1.3,0.9-2c1.4-3.1,3.1-5.2,5.1-6.2
				C231.3,396.4,233.2,395.9,234.9,395.8z"/>
			<path class="st0" d="M197.6,361.2c0.2,0,0.5,0,0.7,0c1.7,0,3.2,0.5,4.4,1.5c-0.1,0.6-0.1,1.2-0.1,1.7c0,4.6,3.2,8.3,9.6,11
				c6.4,2.7,14.6,4.2,24.7,4.4c0.8,0,1.6,0,2.4,0c9.3,0,18.1-1.2,26.6-3.5c0.9-0.6,2-1.1,3.2-1.6c1.1-0.5,2.2-0.7,3.4-0.7h0.2
				c2.8,0,5.1,0.9,6.9,2.6c1.6,1.5,2.4,3.4,2.4,5.6c0,0.3,0,0.7,0,1c-6.9,2.1-12.4,6.5-16.7,13.2c-4.2,6.7-7.1,13.8-8.7,21.3
				c2.1-6.2,5.1-11.3,9-15.3c3.9-4,8.1-6,12.6-6c5.4,0.3,8.6,1.9,9.7,5c0.5,1.4,0.8,3,0.8,4.7c0,1.9-0.5,4.5-1.4,7.7
				c-1,3.2-2.3,6.7-3.9,10.4c-1.2,2.7-2.1,5-2.6,6.7c-0.2,0.6-0.3,1.1-0.3,1.5c0,0.8,0.3,1.1,1,1.1c1.1,0,2.6-1.1,4.6-3.2
				c0.7,0.3,1.1,1,1.1,2.1c0,0.6-0.2,1.7-0.6,3.3c-0.4,1.6-1.7,3.6-3.9,6c-2.2,2.4-5.2,3.6-8.9,3.6c-5.2,0-7.9-2.7-7.9-8.1v-0.8
				c0-3.8,1.3-8.8,3.8-14.7c1.3-3.6,2.3-6.8,2.9-9.5c0.2-0.8,0.3-1.5,0.3-2.1c0-1.4-0.5-2.3-1.4-2.6c-2.3,0.1-4.6,2.2-6.9,6.2
				s-4.2,8.8-5.6,14.4c-1,4-1.5,7.8-1.5,11.4c0,1.3,0.1,2.7,0.2,4c-0.2,0.1-0.3,0.2-0.4,0.3c-0.6,0.4-1.3,0.7-2.2,1.1
				c-0.7,0.3-1.5,0.4-2.4,0.4h-0.5c-4,0-6.2-3.5-6.7-10.6c-0.1-1.3-0.1-2.6-0.1-4c0-6.1,1-13.4,3-21.7c2-8.3,5-16.1,9.2-23.2
				c-5.9,1.5-12.5,2.8-19.8,3.7c-7.1,0.8-13.5,1.2-19.1,1.2c-18.7,0-29.2-4.6-31.4-13.9c-0.2-1.3-0.4-2.6-0.4-3.8c0-3.1,1-5.8,3-8.1
				C191.9,362.7,194.4,361.4,197.6,361.2z"/>
		</g>
	</g>
</g>
<g>
	<rect x="51.2" y="464.2" class="st0" width="269.1" height="27.5"/>
	<g>
		<path class="st1" d="M75.9,476.6h3.8v5.5c0,2.8-1.4,4.4-4.1,4.4s-4.1-1.6-4.1-4.4v-9c0-2.8,1.4-4.4,4.1-4.4s4.1,1.6,4.1,4.4v1.7
			h-2.6v-1.9c0-1.2-0.5-1.7-1.4-1.7c-0.9,0-1.4,0.5-1.4,1.7v9.4c0,1.2,0.5,1.7,1.4,1.7c0.9,0,1.4-0.4,1.4-1.7v-3.2h-1.2V476.6z"/>
		<path class="st1" d="M84.3,476.2H88v2.5h-3.7v5.1H89v2.5h-7.4v-17.4H89v2.5h-4.7V476.2z"/>
		<path class="st1" d="M89.9,468.9h8.4v2.5h-2.9v14.9h-2.7v-14.9h-2.9V468.9z"/>
		<path class="st1" d="M109,486.3c-0.1-0.4-0.2-0.7-0.2-2.1v-2.7c0-1.6-0.5-2.2-1.8-2.2H106v7.1h-2.7v-17.4h4.1c2.8,0,4,1.3,4,4v1.4
			c0,1.8-0.6,3-1.8,3.5c1.4,0.6,1.8,1.9,1.8,3.7v2.7c0,0.8,0,1.5,0.3,2.1H109z M106,471.4v5.3h1.1c1,0,1.6-0.4,1.6-1.8v-1.7
			c0-1.2-0.4-1.8-1.4-1.8H106z"/>
		<path class="st1" d="M116,476.2h3.7v2.5H116v5.1h4.7v2.5h-7.4v-17.4h7.4v2.5H116V476.2z"/>
		<path class="st1" d="M131.2,486.3h-2.8l-0.5-3.1h-3.3l-0.5,3.1h-2.5l2.8-17.4h4L131.2,486.3z M125,480.8h2.6l-1.3-8.8L125,480.8z"
			/>
		<path class="st1" d="M132.5,468.9h4.3c2.7,0,4.1,1.5,4.1,4.3v8.8c0,2.8-1.3,4.3-4.1,4.3h-4.3V468.9z M135.2,471.4v12.4h1.5
			c0.9,0,1.4-0.4,1.4-1.7v-9c0-1.2-0.5-1.7-1.4-1.7H135.2z"/>
		<path class="st1" d="M144.8,480.5l-3.4-11.6h2.9l2.1,7.9l2.1-7.9h2.6l-3.4,11.6v5.8h-2.7V480.5z"/>
		<path class="st1" d="M155.1,468.9h8.4v2.5h-2.9v14.9H158v-14.9h-2.9V468.9z"/>
		<path class="st1" d="M164.5,473.1c0-2.8,1.5-4.4,4.1-4.4c2.7,0,4.1,1.6,4.1,4.4v9c0,2.8-1.5,4.4-4.1,4.4c-2.7,0-4.1-1.6-4.1-4.4
			V473.1z M167.2,482.3c0,1.2,0.5,1.7,1.4,1.7c0.9,0,1.4-0.5,1.4-1.7v-9.4c0-1.2-0.5-1.7-1.4-1.7c-0.9,0-1.4,0.5-1.4,1.7V482.3z"/>
		<path class="st1" d="M184.2,481.2l1.9-12.3h3.8v17.4h-2.6v-12.4l-1.9,12.4h-2.6l-2-12.3v12.3h-2.4v-17.4h3.8L184.2,481.2z"/>
		<path class="st1" d="M191.8,468.9h2.7v17.4h-2.7V468.9z"/>
		<path class="st1" d="M205.6,468.9l-2.9,8.4l3,8.9h-2.9l-2.2-6.9l-2.3,6.9h-2.6l3-8.9l-2.9-8.4h2.8l2.1,6.4l2.1-6.4H205.6z"/>
		<path class="st1" d="M219.8,486.3h-2.8l-0.5-3.1h-3.3l-0.5,3.1h-2.5l2.8-17.4h4L219.8,486.3z M213.6,480.8h2.6l-1.3-8.8
			L213.6,480.8z"/>
		<path class="st1" d="M223.5,473.7v12.6h-2.5v-17.4h3.4l2.8,10.4v-10.4h2.4v17.4h-2.8L223.5,473.7z"/>
		<path class="st1" d="M231.7,468.9h4.3c2.7,0,4.1,1.5,4.1,4.3v8.8c0,2.8-1.3,4.3-4.1,4.3h-4.3V468.9z M234.4,471.4v12.4h1.5
			c0.9,0,1.4-0.4,1.4-1.7v-9c0-1.2-0.5-1.7-1.4-1.7H234.4z"/>
		<path class="st1" d="M251.4,481.2l1.9-12.3h3.8v17.4h-2.6v-12.4l-1.9,12.4H250l-2-12.3v12.3h-2.4v-17.4h3.8L251.4,481.2z"/>
		<path class="st1" d="M259.1,468.9h2.7v17.4h-2.7V468.9z"/>
		<path class="st1" d="M266.2,473.7v12.6h-2.5v-17.4h3.4l2.8,10.4v-10.4h2.4v17.4h-2.8L266.2,473.7z"/>
		<path class="st1" d="M278.5,476.6h3.8v5.5c0,2.8-1.4,4.4-4.1,4.4s-4.1-1.6-4.1-4.4v-9c0-2.8,1.4-4.4,4.1-4.4s4.1,1.6,4.1,4.4v1.7
			h-2.6v-1.9c0-1.2-0.5-1.7-1.4-1.7c-0.9,0-1.4,0.5-1.4,1.7v9.4c0,1.2,0.5,1.7,1.4,1.7c0.9,0,1.4-0.4,1.4-1.7v-3.2h-1.2V476.6z"/>
		<path class="st1" d="M284,468.9h2.7v14.9h4.5v2.5H284V468.9z"/>
		<path class="st1" d="M295.2,476.2h3.7v2.5h-3.7v5.1h4.7v2.5h-7.4v-17.4h7.4v2.5h-4.7V476.2z"/>
	</g>
</g>
<g>
	<path class="st0" d="M138.6,4c1.7,0,2.4,1,2.4,2.6v1.3c0,1.7-0.8,2.5-2.4,2.5h-1v4.1h-1.2V4H138.6z M138.5,9.3
		c0.9,0,1.3-0.4,1.3-1.4V6.5c0-1-0.3-1.4-1.2-1.4h-1.1v4.2H138.5z"/>
	<path class="st0" d="M151.1,4c1.7,0,2.3,0.8,2.3,2.4v0.9c0,1.2-0.4,1.9-1.3,2.2c1,0.3,1.3,1.1,1.3,2.2v1.6c0,0.5,0,0.9,0.2,1.3
		h-1.2c-0.1-0.3-0.2-0.6-0.2-1.3v-1.6c0-1.2-0.6-1.6-1.5-1.6H150v4.5h-1.2V4H151.1z M150.8,8.9c0.9,0,1.5-0.3,1.5-1.4v-1
		c0-0.9-0.3-1.4-1.2-1.4H150v3.9H150.8z"/>
	<path class="st0" d="M165.3,8.6v1h-2.6v3.7h3.2v1.1h-4.3V4h4.3V5h-3.2v3.6H165.3z"/>
	<path class="st0" d="M178.4,6.5v0.3h-1.1V6.4c0-0.9-0.4-1.5-1.2-1.5s-1.2,0.6-1.2,1.5c0,2.4,3.5,2.6,3.5,5.5c0,1.6-0.8,2.6-2.4,2.6
		s-2.4-1-2.4-2.6v-0.6h1.1V12c0,0.9,0.4,1.5,1.2,1.5s1.2-0.6,1.2-1.5c0-2.3-3.5-2.6-3.5-5.5c0-1.6,0.7-2.6,2.3-2.6
		C177.7,3.9,178.4,4.9,178.4,6.5z"/>
	<path class="st0" d="M190.1,8.6v1h-2.6v3.7h3.2v1.1h-4.3V4h4.3V5h-3.2v3.6H190.1z"/>
	<path class="st0" d="M199.7,14.5h-1V4h1.5l2.4,7.6V4h1v10.5h-1.2L199.7,6V14.5z"/>
	<path class="st0" d="M213.2,14.5V5h-1.9V4h5V5h-1.9v9.4H213.2z"/>
	<path class="st0" d="M228.6,6.5v0.3h-1.1V6.4c0-0.9-0.4-1.5-1.2-1.5s-1.2,0.6-1.2,1.5c0,2.4,3.5,2.6,3.5,5.5c0,1.6-0.8,2.6-2.4,2.6
		s-2.4-1-2.4-2.6v-0.6h1.1V12c0,0.9,0.4,1.5,1.2,1.5s1.2-0.6,1.2-1.5c0-2.3-3.5-2.6-3.5-5.5c0-1.6,0.7-2.6,2.3-2.6
		C227.9,3.9,228.6,4.9,228.6,6.5z"/>
</g>
<g>
	<path class="st0" d="M119.5,36h10.8v3.2h-3.6v19h-3.5v-19h-3.6V36z"/>
	<path class="st0" d="M135.2,58.1h-3.5V36h3.5v9.5h4V36h3.5v22.1h-3.5v-9.5h-4V58.1z"/>
	<path class="st0" d="M148.7,45.3h4.8v3.2h-4.8V55h6v3.2h-9.5V36h9.5v3.2h-6V45.3z"/>
	<path class="st0" d="M165.1,36v17.1c0,1.6,0.7,2.2,1.8,2.2s1.8-0.6,1.8-2.2V36h3.3v16.9c0,3.5-1.8,5.6-5.2,5.6s-5.2-2-5.2-5.6V36
		H165.1z"/>
	<path class="st0" d="M174.4,36h3.5v19h5.7v3.2h-9.2V36z"/>
	<path class="st0" d="M182.5,36h10.8v3.2h-3.6v19h-3.5v-19h-3.6V36z"/>
	<path class="st0" d="M194.8,36h3.5v22.1h-3.5V36z"/>
	<path class="st0" d="M208.2,51.7l2.4-15.7h4.8v22.1h-3.3V42.3l-2.4,15.9h-3.3l-2.6-15.7v15.7h-3V36h4.8L208.2,51.7z"/>
	<path class="st0" d="M229.2,58.1h-3.5l-0.6-4h-4.3l-0.6,4H217l3.5-22.1h5.1L229.2,58.1z M221.2,51.1h3.4l-1.7-11.2L221.2,51.1z"/>
	<path class="st0" d="M229.8,36h10.8v3.2h-3.6v19h-3.5v-19h-3.6V36z"/>
	<path class="st0" d="M245.5,45.3h4.8v3.2h-4.8V55h6v3.2H242V36h9.5v3.2h-6V45.3z"/>
</g>
</svg>
