<?xml version="1.0" encoding="utf-8"?>
<!-- Generator: Adobe Illustrator 27.7.0, SVG Export Plug-In . SVG Version: 6.00 Build 0)  -->
<svg version="1.1" id="Layer_1" xmlns="http://www.w3.org/2000/svg" xmlns:xlink="http://www.w3.org/1999/xlink" x="0px" y="0px"
	 viewBox="0 0 302.7 24" style="enable-background:new 0 0 302.7 24;" xml:space="preserve">
<style type="text/css">
	.st0{fill:#FFFFFF;}
</style>
<g id="Logo_00000083053836954604116880000002797823095396302240_">
	<g>
		<path class="st0" d="M42.3,22.2c-3.1,0-5.7-0.9-7.6-2.8c-2.1-2-3.2-4.5-3.2-7.4c0-2.9,1.1-5.3,3.2-7.4c1.9-1.9,4.5-2.8,7.7-2.8
			c3.2,0,5.7,0.9,7.6,2.8c2.1,2,3.1,4.5,3.1,7.4c0,2.9-1.1,5.4-3.2,7.4C48,21.2,45.4,22.2,42.3,22.2z M42.3,19.9
			c1.8,0,3.2-0.8,4.5-2.3c1.2-1.5,1.8-3.4,1.8-5.6c0-2.2-0.6-4.1-1.8-5.6c-1.2-1.5-2.7-2.3-4.5-2.3c-1.8,0-3.2,0.8-4.5,2.3
			C36.6,7.9,36,9.7,36,12c0,2.2,0.6,4.1,1.8,5.6C39,19.1,40.5,19.9,42.3,19.9z"/>
		<path class="st0" d="M55.5,21.9c0.3-1.3,0.5-2.6,0.5-3.9V6c0-1.3-0.1-2.6-0.4-3.9h5c-0.3,1.3-0.4,2.6-0.4,3.9v11.1
			c0,0.9,0,1.7,0.1,2.5h3.5c1.4,0,2.7-0.1,3.9-0.4v2.7H55.5z"/>
		<path class="st0" d="M69,21.9c0.3-1.3,0.4-2.6,0.4-3.9V6c0-1.3-0.1-2.6-0.4-3.9h7.7c3.5,0,6.2,0.9,8.2,2.8C87,6.9,88,9.3,88,12
			c0,2.7-1.1,5.1-3.2,7.1c-1.9,1.8-4.6,2.8-8.1,2.8H69z M73.6,19.6h3.1c2.1,0,3.7-0.8,5-2.3c1.2-1.5,1.8-3.3,1.8-5.4
			c0-2.1-0.6-3.8-1.8-5.3c-1.2-1.5-2.9-2.3-5-2.3h-3.1c-0.1,0.6-0.1,1.1-0.1,1.6v12C73.5,18.6,73.5,19.1,73.6,19.6z"/>
		<path class="st0" d="M101.5,22.2c-1.9,0-3.8-0.5-5.6-1.6v-4.8H96c0.4,0.8,0.9,1.6,1.5,2.2c1.2,1.3,2.6,1.9,4.1,1.9
			c1,0,1.8-0.4,2.5-1.1c0.7-0.7,1-1.5,1-2.5c0-1.1-0.7-2.1-2.2-3.1l-2.3-1.5c-2.2-1.4-3.3-3.1-3.3-4.9c0-1.8,0.7-3.1,2.2-3.9
			c1.1-0.6,2.3-1,3.8-1s2.9,0.3,4.3,0.9v3.9h-0.1c-1-1.7-2.3-2.6-3.8-2.6c-0.5,0-1,0.1-1.3,0.4c-0.6,0.4-0.8,0.9-0.8,1.6
			c0,0.9,0.7,1.7,2,2.6l2.1,1.4c2.7,1.7,4,3.7,4,5.8c0,1.8-0.7,3.2-2,4.4C106,21.5,104,22.2,101.5,22.2z"/>
		<path class="st0" d="M122.1,22.2c-3.4,0-6.2-0.9-8.3-2.8c-2-1.9-3-4.3-3-7.4c0-3.1,1-5.5,3.1-7.4c2-1.8,4.8-2.8,8.3-2.8
			c2.8,0,5.2,0.6,7.2,1.9v4.8h-0.1c-2-2.9-4.4-4.4-7.1-4.4c-2,0-3.6,0.8-5,2.4c-1.2,1.4-1.8,3.2-1.8,5.5s0.6,4.1,1.8,5.5
			c1.4,1.6,3,2.4,4.9,2.4c3,0,5.5-1.5,7.5-4.4h0.1v4C127.5,21.3,125,22.2,122.1,22.2z"/>
		<path class="st0" d="M132.2,21.9c0.3-1.3,0.4-2.6,0.4-3.9V6c0-1.3-0.1-2.6-0.4-3.9h4.9c-0.3,1.3-0.4,2.6-0.4,3.9v4.8h8.5V6
			c0-1.3-0.1-2.6-0.4-3.9h4.9c-0.3,1.3-0.4,2.6-0.4,3.9V18c0,1.3,0.1,2.6,0.4,3.9h-4.9c0.3-1.3,0.4-2.6,0.4-3.9v-4.9h-8.5V18
			c0,1.3,0.1,2.6,0.4,3.9H132.2z"/>
		<path class="st0" d="M162.9,22.2c-3.1,0-5.7-0.9-7.6-2.8c-2.1-2-3.2-4.5-3.2-7.4c0-2.9,1.1-5.3,3.2-7.4c1.9-1.9,4.5-2.8,7.7-2.8
			c3.2,0,5.7,0.9,7.6,2.8c2.1,2,3.1,4.5,3.1,7.4c0,2.9-1.1,5.4-3.2,7.4C168.6,21.2,166.1,22.2,162.9,22.2z M162.9,19.9
			c1.8,0,3.2-0.8,4.5-2.3c1.2-1.5,1.8-3.4,1.8-5.6c0-2.2-0.6-4.1-1.8-5.6c-1.2-1.5-2.7-2.3-4.5-2.3s-3.2,0.8-4.5,2.3
			c-1.2,1.5-1.8,3.4-1.8,5.6c0,2.2,0.6,4.1,1.8,5.6C159.7,19.1,161.2,19.9,162.9,19.9z"/>
		<path class="st0" d="M186.1,22.2c-3.1,0-5.7-0.9-7.6-2.8c-2.1-2-3.2-4.5-3.2-7.4c0-2.9,1.1-5.3,3.2-7.4c1.9-1.9,4.5-2.8,7.7-2.8
			s5.7,0.9,7.6,2.8c2.1,2,3.1,4.5,3.1,7.4c0,2.9-1.1,5.4-3.2,7.4C191.8,21.2,189.3,22.2,186.1,22.2z M186.1,19.9
			c1.8,0,3.2-0.8,4.5-2.3c1.2-1.5,1.8-3.4,1.8-5.6c0-2.2-0.6-4.1-1.8-5.6c-1.2-1.5-2.7-2.3-4.5-2.3s-3.2,0.8-4.5,2.3
			c-1.2,1.5-1.8,3.4-1.8,5.6c0,2.2,0.6,4.1,1.8,5.6C182.9,19.1,184.4,19.9,186.1,19.9z"/>
		<path class="st0" d="M199.4,21.9c0.3-1.3,0.5-2.6,0.5-3.9V6c0-1.3-0.1-2.6-0.4-3.9h5C204.2,3.4,204,4.7,204,6v11.1
			c0,0.9,0,1.7,0.1,2.5h3.5c1.4,0,2.7-0.1,3.9-0.4v2.7H199.4z"/>
		<path class="st0" d="M218.8,21.9c0.3-1.3,0.4-2.6,0.4-3.9V6c0-1.3-0.1-2.6-0.4-3.9h7.7c3.5,0,6.2,0.9,8.2,2.8
			c2.1,2,3.1,4.4,3.1,7.1c0,2.7-1.1,5.1-3.2,7.1c-1.9,1.8-4.6,2.8-8.1,2.8H218.8z M223.3,19.6h3.1c2.1,0,3.7-0.8,5-2.3
			c1.2-1.5,1.8-3.3,1.8-5.4c0-2.1-0.6-3.8-1.8-5.3c-1.2-1.5-2.9-2.3-5-2.3h-3.1c-0.1,0.6-0.1,1.1-0.1,1.6v12
			C223.2,18.6,223.3,19.1,223.3,19.6z"/>
		<path class="st0" d="M237.3,21.9c0.8-1.1,1.5-2.2,2-3.4l5.8-12.7c0.5-1.1,0.9-2.4,1.3-3.7h4.1c0.4,1.4,0.8,2.6,1.3,3.8l5.8,12.7
			c0.5,1.1,1.2,2.2,2,3.4h-5.2c-0.3-1.3-0.8-2.6-1.3-3.7l-1.7-3.8h-6.9l-1.7,3.8c-0.6,1.2-1,2.5-1.3,3.7H237.3z M248,6.8l-2.5,5.4h5
			L248,6.8z"/>
		<path class="st0" d="M263.3,21.9c0.3-1.3,0.4-2.6,0.4-3.9V6c0-0.6,0-1.1-0.1-1.7H262c-1.3,0-2.6,0.1-3.9,0.4V2.1h15.5v2.7
			c-1.3-0.3-2.6-0.4-3.9-0.4h-1.6c-0.1,0.5-0.1,1.1-0.1,1.7V18c0,1.3,0.1,2.6,0.4,3.9H263.3z"/>
		<path class="st0" d="M274.7,21.9c0.3-1.3,0.4-2.6,0.4-3.9V6c0-1.3-0.1-2.6-0.4-4h10.5v2.7c-1.3-0.3-2.6-0.4-3.9-0.4h-1.9
			c-0.1,0.5-0.1,1.1-0.1,1.7v4.8h2.1c1.3,0,2.6-0.1,3.9-0.4v3.1c-1.3-0.3-2.6-0.4-3.9-0.4h-2.1V18c0,0.6,0,1.1,0.1,1.7h3.5
			c1.4,0,2.7-0.1,3.9-0.4v2.7H274.7z"/>
		<path class="st0" d="M293.2,22.2c-1.9,0-3.8-0.5-5.6-1.6v-4.8h0.1c0.4,0.8,0.9,1.6,1.5,2.2c1.2,1.3,2.6,1.9,4.1,1.9
			c1,0,1.8-0.4,2.5-1.1c0.7-0.7,1-1.5,1-2.5c0-1.1-0.7-2.1-2.2-3.1l-2.3-1.5c-2.2-1.4-3.3-3.1-3.3-4.9c0-1.8,0.7-3.1,2.2-3.9
			c1.1-0.6,2.3-1,3.8-1c1.4,0,2.9,0.3,4.3,0.9v3.9h-0.1c-1-1.7-2.3-2.6-3.8-2.6c-0.5,0-1,0.1-1.3,0.4c-0.6,0.4-0.8,0.9-0.8,1.6
			c0,0.9,0.7,1.7,2,2.6l2.1,1.4c2.7,1.7,4,3.7,4,5.8c0,1.8-0.7,3.2-2,4.4C297.7,21.5,295.7,22.2,293.2,22.2z"/>
	</g>
	<path class="st0" d="M8.5,18.1c0,0,0.1,0.1,0.1,0.1C8.5,18.2,8.5,18.1,8.5,18.1L8.5,18.1z M23.2,3.3c-1.3-1.1-2.8-1.7-4.5-1.4
		c-1.2,0.2-2.3,0.7-3.3,1.5c-0.5,0.4-1,0.9-1.5,1.3c0,0-0.1-0.1-0.1-0.2c-0.6-0.7-1.3-1.3-2.1-1.7c-1.2-0.7-2.4-1.1-3.8-0.9
		C5.1,2.2,2.8,4.7,2.5,7.5C2.4,9.3,2.8,11,3.6,12.6c0.3,0.6,0.7,1.2,1.2,1.8c1.6-1.3,3.1-2.6,4.7-3.9l1.1-0.9c0.4-0.3,0.8-0.6,1.2-1
		c1.2-1,2.5-2,3.7-3.1c0.6-0.5,1.2-0.5,2-0.2c1,0.4,1.6,1.1,2.2,1.8c0.9,1.1,1.5,2.1,2,3.2c0.1,0.3,0.2,0.7,0.3,1
		c0.2,1-0.2,1.8-1.1,2.4C19,15,17,16.2,15.1,17.3c-0.7,0.4-1.4,0.8-2.1,1.3c-0.7,0.4-1.5,0.9-2.2,1.3c1,0.7,2,1.3,3,1.9
		c0.1,0,0.2,0,0.3,0c1.3-0.8,2.6-1.7,3.8-2.6c1.9-1.3,3.5-2.9,5-4.7c1.3-1.6,2.2-3.3,2.4-5.4C25.6,6.9,25,4.8,23.2,3.3z M8.4,18.1
		c-0.4-0.3-0.8-0.7-1.2-1c0,0,0,0,0.1,0c0.2-0.2,0.4,0,0.5,0.2C8,17.5,8.2,17.8,8.4,18.1z M20.6,13.2c-2.7,1.6-5.3,3.2-7.9,4.8
		c-0.8,0.5-1.7,1-2.5,1.5c-0.1-0.1-0.3-0.2-0.4-0.3c0.1-0.1,0.2-0.2,0.3-0.2c-0.6-0.7-1.1-1.4-1.7-2.1c-0.1-0.1-0.2-0.3-0.1-0.4
		c0-0.1,0.2-0.3,0.3-0.3c0.1,0,0.3,0.1,0.3,0.2c0.5,0.7,1,1.4,1.6,2c0.2,0.2,0.4,0.3,0.7,0c0.1-0.1,0.1-0.1,0.1-0.1
		c-0.6-0.7-1.1-1.4-1.7-2.1c-0.1-0.1-0.1-0.2-0.2-0.3c-0.1-0.2,0-0.4,0.2-0.5c0.2-0.1,0.3,0,0.4,0.2c0.5,0.9,1.2,1.7,2,2.3
		c0.2-0.1,0.4-0.2,0.6-0.3c-0.4-0.4-0.8-0.8-1.2-1.3c-0.3-0.4-0.6-0.8-0.8-1.2c-0.2-0.2-0.1-0.4,0.1-0.6c0.2-0.2,0.4,0,0.5,0.2
		c0.5,0.8,1.1,1.5,1.8,2.2c0.2,0.2,0.4,0.2,0.6,0c0.1-0.1,0.1-0.1,0.2-0.1c-0.4-0.4-0.8-0.8-1.2-1.3c-0.3-0.4-0.6-0.9-0.9-1.3
		c-0.2-0.2-0.1-0.4,0.1-0.6c0.2-0.1,0.4,0,0.5,0.2c0.5,0.9,1.1,1.6,1.9,2.3c0.2,0.2,0.4,0.2,0.6,0.1c0.1-0.1,0.2-0.1,0.4-0.2
		c-1-0.9-1.8-1.8-2.4-3c0.9-0.7,1.8-1.3,2.7-2c0.4,0.6,0.7,1.1,1.1,1.6c0.4,0.5,1,1,1.4,1.5c0,0,0.2,0.1,0.2,0.1
		c0.6-0.3,1.1-0.7,1.7-1c-1.8-1.1-3-2.5-3.6-4.5C13,11,9.7,13.6,6.4,16.2c-0.1-0.1-0.2-0.2-0.4-0.4c0.1,0,0.1-0.1,0.2-0.1
		c3.3-2.5,6.5-5.1,9.8-7.6c0.1-0.1,0.2-0.2,0.3-0.2c0.6-0.5,0.9-0.5,1.5-0.1c1,0.7,1.7,1.6,2.1,2.8c0,0.1,0,0.1,0,0.2
		c0,0.2,0.1,0.5-0.2,0.6c-0.2,0.1-0.5,0.1-0.7-0.1c-0.9-0.6-1.6-1.5-1.8-2.6c0-0.2,0-0.4,0-0.6c-0.3-0.1-0.5,0-0.4,0.3
		c0.1,0.4,0.2,0.8,0.4,1.2c0.6,1.1,1.4,2,2.4,2.7c0.2,0.1,0.4,0.2,0.6,0.3c0.3,0.1,0.6,0,0.6-0.4c0-0.3,0-0.5-0.1-0.8
		c-0.6-1.9-1.7-3.5-3.4-4.7c-0.1-0.1-0.3-0.2-0.4-0.2c-0.3-0.1-0.5-0.1-0.8,0.1c-2.8,2.3-5.6,4.6-8.3,6.9c-0.7,0.6-1.5,1.2-2.2,1.9
		c-0.1-0.1-0.2-0.3-0.3-0.4c1.9-1.6,3.9-3.2,5.8-4.8c1.6-1.3,3.3-2.7,4.9-4c0.4-0.3,0.8-0.3,1.3-0.1c0.8,0.4,1.4,1,2,1.6
		c0.8,0.9,1.4,1.9,1.8,3c0.1,0.3,0.2,0.6,0.2,0.9C21.4,12.3,21.3,12.8,20.6,13.2z M17.7,8.5c0.3,1,0.8,1.8,1.7,2.4
		C19.1,9.9,18.6,9,17.7,8.5z"/>
</g>
</svg>
