<?xml version="1.0" encoding="utf-8"?>
<!-- Generator: Adobe Illustrator 27.7.0, SVG Export Plug-In . SVG Version: 6.00 Build 0)  -->
<svg version="1.1" id="Layer_1" xmlns="http://www.w3.org/2000/svg" xmlns:xlink="http://www.w3.org/1999/xlink" x="0px" y="0px"
	 viewBox="0 0 99.3 792" style="enable-background:new 0 0 99.3 792;" xml:space="preserve">
<style type="text/css">
	.st0{fill:#1E1B1C;}
	.st1{fill:#FFFFFF;}
</style>
<g>
	<rect class="st0" width="99.3" height="792"/>
</g>
<g>
	<polygon class="st1" points="16.2,175.8 23.9,184 35,182.3 29.6,192.2 34.7,202.3 23.6,200.2 15.6,208.1 14.2,196.9 4.2,191.8 
		14.4,187 	"/>
	<g>
		<polygon class="st0" points="17.2,202.7 16.3,195.3 9.7,191.9 16.4,188.8 17.6,181.4 22.7,186.9 30,185.8 26.4,192.3 29.8,198.9 
			22.5,197.5 		"/>
	</g>
	<polygon class="st1" points="18.8,197.7 18.4,193.8 15,191.9 18.5,190.3 19.2,186.5 21.9,189.4 25.7,188.8 23.8,192.2 25.5,195.8 
		21.7,195 	"/>
</g>
<g>
	<polygon class="st1" points="49.2,457 53.3,474.9 70.4,481.5 54.7,491 53.6,509.3 39.7,497.3 22,501.9 29.1,485 19.3,469.6 
		37.5,471.2 	"/>
	<g>
		<polygon class="st0" points="28.6,495.6 33.4,484.5 26.9,474.3 38.9,475.4 46.6,466.1 49.3,477.9 60.5,482.3 50.2,488.5 
			49.4,500.5 40.3,492.6 		"/>
	</g>
	<polygon class="st1" points="35.1,489.9 37.6,484.1 34.3,478.7 40.6,479.3 44.8,474.5 46.1,480.7 52,483.1 46.5,486.3 46,492.7 
		41.2,488.4 	"/>
</g>
<path class="st1" d="M89.9,296.1c-0.1-1.3,0.7-3.3,0-4.3c-2.9,5.5-1.4-2.5-2.6-4.7c1.5,10.3-4,16.3-4.3,26.2c0.5,0.1,1,0.2,1.5,0.4
	C86.2,307.3,87.3,301.3,89.9,296.1z"/>
<path class="st1" d="M87.1,718.4c-0.2,9-0.8,18.6,0.7,27.1c2.4-4.9-1.6-12.5,0.7-17.8c0.1,0.1,0.4,0.2,0.7,0.3c0-3.2,0-6.3,0-9.2
	c-0.5-1.5-1.3,1.1-1.5-1.8C87.5,717.4,87.1,717.9,87.1,718.4z"/>
<path class="st1" d="M90.8,509.2c0-0.3-0.2-0.5-0.3-0.8c-0.1,14,0,28-0.7,41.9c0.2-0.9,0.4-1.8,0.8-3.3c0.2,2.4,0.3,3.8,0.4,5.1
	C92.1,538.2,91.2,523.2,90.8,509.2z"/>
<path class="st1" d="M82.9,479.8c-3,3.6-1.4,12.2-2.3,18.2C82.4,492.3,84.3,486,82.9,479.8z"/>
<path class="st1" d="M83.5,253.5c0.7-2.1,0.8-8.8-0.6-10.4C79.8,245,79.1,251.3,83.5,253.5z"/>
<path class="st1" d="M87.7,252.8c0.7-1.7,0.6,1.4,1,1.7c0.2-3.2,2-13.3-0.9-14c-0.1,3.1,0.4,4.9,0.8,8.2c-0.4-0.1-0.6-0.2-1-0.3
	C87.7,249.9,87.7,251.3,87.7,252.8z"/>
<path class="st1" d="M84.1,369.9c0.2-1,0.4-2.4-0.1-3.7c-1.5,4.3-2.8,8.9-1.3,13.7C83.5,376.6,83.2,372.8,84.1,369.9z"/>
<path class="st1" d="M81.4,188.6c3-1.7-0.7-11.9-1.2-2.7C80.2,187.7,80.6,188.6,81.4,188.6z"/>
<path class="st1" d="M84.2,265c3.4-1.2,2.1-6.1-0.7-5.6C83.4,260.7,82.9,264.8,84.2,265z"/>
<path class="st1" d="M74.1,495.3c-2.9,0.6-0.9,6.1-0.2,8.6C74,500.5,74.7,497.9,74.1,495.3z"/>
<path class="st1" d="M86.9,80.3c0.2,5.7,0.3,10.5,0.5,16.8C86.4,91.8,90.1,82.6,86.9,80.3z"/>
<path class="st1" d="M87.6,33.2c-1,4.8-0.1,11.1,0.4,16.1C89,44.4,87.3,38.5,87.6,33.2z"/>
<path class="st1" d="M86.4,766.1c0.3,0,0.6,0,1,0C89.2,757.5,85.1,755.8,86.4,766.1z"/>
<path class="st1" d="M87.2,156.5c-0.4,4,0,8,0.3,12.5c0.1-5.4,0.3-9.9,0.4-15.2C87.6,155.1,87.3,155.7,87.2,156.5z"/>
<path class="st1" d="M84.9,99.5c0.2-2.8-0.5-3.4-1.9-0.6C83.3,103.2,84.1,104.1,84.9,99.5z"/>
<path class="st1" d="M90.2,694.7c0.3,1-0.2,2.7,1,3.1c0-2.6-0.4-5.1-0.7-7.6c-1.3,0.9-0.7,2.6-0.9,4.4
	C89.8,694.6,90.1,694.3,90.2,694.7z"/>
<path class="st1" d="M90.8,126c-0.4,0.1-0.9,0.1-1.3,0.2c-0.2,3.8,0.5,4.9,1.3,6.1C91.3,130.2,91.2,128.4,90.8,126z"/>
<path class="st1" d="M84,600.5c-0.7,5-2.3,10.3-2.2,15.6c2.3-1.9,2.6-17,5.7-16.6c0,9.2-2,20.8,1,29.2c-3.8,11.9-4.6,24-6.1,36.6
	c0.7-2.4,1.5-4.2,1.8-6.4l0,1.4c0.4-0.9,0.9-1.7,1.4-2.2c-0.3-10.9,1.7-15.2,1-0.7c0.7-0.2,1.4,0.1,2,0.8c0-6,0.4-11.7,0.5-17.4
	c3.8-1.1,0.2-10.6,3.4-12.7c1.3,13.8,1.3,25.6-1,38.5c0.4,2.3,0.8-6.7,1-4.1c2,12.2-1,25.4-0.5,37.1c-0.3-0.6-0.5-1-0.8-1.4
	c-0.9,6.8,1.2,14.1,0.3,21.1c-0.9-1.1-0.7-4.6-1.6-5.7c-0.1,10.9,4.9,21.4,1.5,30.7c2.8,7.6-2.9,38.7,5.4,39.9
	c-0.3-82.7,0.3-165.5,0.1-248.2c-1.2-173.7,2.7-349.1-1.2-522c0-3.8-0.6-7.5-0.9-11.1c-1.7,11.7-0.4,22.7-2.4,35
	c0.4-0.5,0.6-0.8,0.9-1.1c1,5.7-0.1,8.6,0,14.3c-0.7-0.2-1.5-0.3-2.4-0.5c0.7,3.9,2.1,4.1,3,7.3c-4.1,6.8,2.6,11.4-1.3,16.3
	c-0.2,0.7-0.3,2.7,1,1.8c0.1,8.1-0.2,15.6-0.4,23.3c-0.5-0.6-0.7-1-1.1-1.4c-0.9,6.7-0.5,13.9-0.4,20.9c3.1-1.6,1.5,25.1,1.5,28.6
	c-0.5-1-0.9-1.9-1.5-3c-0.8,9.6,1.5,18.1-0.4,27.2c-0.8,4.4-1.9,6.9,0,11.1c0.2-1.3,0.4-2.4,0.6-3.5c1.9,4.4,2,5,1.4,12
	c-0.3-0.6-0.7-1.2-0.9-1.6c-0.5,2.5-0.9,4.7-1.3,6.9c0,0,0,0,0,0c0,0,0,0.3,0,0.3c0-0.1,0.1-0.1,0.1-0.2c1.7,1.9,0.4,7.3,1.5,10.1
	c0.2-2.7-0.5-5,0.3-7c2.2,17.9,0,36.8,0.9,55.1c-1.1-0.4-1,2.9-1.6,4.5c-0.3-2.9-0.5-5.3-0.7-7.6c-1.4,18.1,3.4,38.4,2.1,57.6
	c-0.5,9,3.1,22.7-2.6,29.9c0.9,3.9-3.1,2.7-3.2-0.3c-0.9,6.7,1.2,12.9-0.5,19.5c0.4,0,0.9,0.4,1.2-0.2c3.5-5.6,6.3-5.1,4.8,1.3
	c-0.2-0.7-0.5-1.4-0.7-2.3c-1.6,12.1,2,24-1.2,35.6c2.8-5.4,1,6.9,0.5,8.2c1.3,5.4,3.1,11.8,0.9,17.1c-3.7-5.5-3.6-14.5-6-21.4
	c-0.2,1.5-0.3,2.8-0.5,4.1c-1.3,0.2-0.7-7.1-2-5.5c-0.2,0.3-0.5-0.3-0.7-0.6c-0.5-0.6-2.3-0.9-2.9-0.7c-0.5,0.2-0.8-1.8-1.3-0.6
	c-1.5,3.4-2.3-0.8-4.2-0.9c-0.3,1.3-0.6,2.5-1,3.8c-0.7-0.4-1.3-0.8-2-1.1c0,1.5,0,2.8-0.1,4.4c-0.9,1.5-1.4,0-1.6,2.7
	c1.6,2,4.8-0.6,6,2.6c1.2,8.1,7.6,1.9,8.1,10c5.4-4.2,0.1,20.4,1.3,24c1.8-3,0.1-6.7,0.8-10.5c1,4,0.8,7.3,2,10.7
	c0.4-3.1,0.8-6.4,0-9.3c0,0,0.1,0.2,0.1,0.2c-2.1-2.5-2.3-13.4-0.2-16.2c2,1.7,1,7.6,2.5,9.1c2.2,5.8,2.5,8.5,2.5,16.3
	c-5.6,2.9-1.8-7.1-2.9-10.2c0,0,0,0-0.1,0c0,1,0,2.2,0,3.2c-1-4.9-0.8-9.8-1.9-14.9c-0.6,5-0.4,9.3,0.5,14.1l-0.1-0.3
	c1.2,1.5,0.9,6,1.3,8.3c0,0,0,0,0,0c0.3,1.7,0.1,3.6,0.9,5.2c0.5-0.7,1-1.4,1.5-2.1c1.3,3.3,1.9,15.3-1,17.8
	c-0.5-3.8,0.5-7.2-0.6-10.6c-0.8,2.8-1.1,6.3,0.2,8c-0.3,1.8-0.4,6.3-1.6,6.2c-0.8,6.2-3,8.2-2.1,14.2c1.5-0.8,2.5-5.8,4.2-6.3
	c1.3,11.8-3.5,22.7,2,33.3c-4.1,3.2,1.3,8.4-1.7,12.3c2.9,16.4,0.4,34.6,0.3,51.4c-1.2-4.5-0.6-9.6-1.3-13.9
	c-2.2,7.8,1.3,14.7-0.7,22c-0.5,3-1.6,0.7-1.4-1.2c0.1-14.5-4.1-13.8-1.8,0.4c1.1,6.8,0,14.5-2.3,20.3c-3.4-1.1-2.9,0.6-0.1,0.5
	c-0.2,0.9-0.4,1.9-0.6,2.8L84,600.5z M93.5,160.2c-0.7-1-0.3-1.7-0.3-3.3C93.9,157.9,93.5,158.9,93.5,160.2z M93.1,599.1
	c-2,8.2,0.3,22.5-4.5,29.5c-0.1-7.1-1.9-15.1,0.6-21.7c-0.3-3-3.5-8.4,0.5-10.1c-0.6-0.3-1-0.4-1.4-0.6c0.5-7.2,2.5-10.1,3.8-16.1
	c0.9,6.5-1,10.4-1.1,16.4c-0.4,0-0.7,0.1-1.2,0.3c3,2.3,0,8.5,1.1,12.3c1.1-3.3,0.3-7.8,1.6-11.4c0.3,0.1,0.6,0.1,0.9,0.2
	C93.2,598.3,93.2,598.7,93.1,599.1z M93.4,597.1c-0.3-0.1-0.6-0.2-0.9-0.3c0.2-1.5,0.4-3.1,0.8-4.4
	C93.6,594.3,93.6,595.7,93.4,597.1z M92,705.8c-0.3-0.3-0.5-2.2,0-2.6C92.2,703.9,93.3,705.5,92,705.8z M93,767.2l0,3.2
	C92.7,770,92.7,769.1,93,767.2z M93.1,773.7c-0.3-1-0.2-2,0-3C93.8,770.9,93.4,773,93.1,773.7z"/>
<path class="st1" d="M87.3,358.3c-0.5,5.4-1.1,11.8,0,17.1C87.7,369.6,87.3,364,87.3,358.3z"/>
<path class="st1" d="M79.8,669.9c-0.1,1.5-0.1,3.1-0.2,6.3c0.8-2,1.2-3.1,1.7-4.3C81.1,670.6,80.4,666.8,79.8,669.9z"/>
<path class="st1" d="M88.1,714c0.2-1,0.3-2.3,0.5-3.7c-0.8-0.3-1.4-0.4-1.2-1.4c-0.1,2.6,0.1,5.4,0.3,7.9
	C87.6,715.6,87.8,715,88.1,714z"/>
<path class="st1" d="M88.1,310.9c-1,4.4,0.3,7,0.2,10.2C88.5,318,88.4,314.9,88.1,310.9z"/>
<path class="st1" d="M81.9,534c-0.3-1.9-1.5-2.2-1.6,0.6C80.1,538.1,81.8,537.7,81.9,534z"/>
<path class="st1" d="M87,451.8c0.8-3.1,0.1-6,0.3-9.7C86.6,445.7,86.6,445.9,87,451.8z"/>
<path class="st1" d="M88.1,222.7c0-0.1-0.1-0.3-0.1-0.5c-0.4,2-0.7,6.3-0.7,9.4C87.6,228.6,87.9,225.7,88.1,222.7z"/>
<path class="st1" d="M85.3,680.1c-0.8,2.2-0.3,4.7-0.6,7.9C85.4,685.6,86.4,682.6,85.3,680.1z"/>
<path class="st1" d="M75.8,458.2c1.2,0.3,0.4-4.5,0.6-6.4C75.5,454.2,75.5,454.2,75.8,458.2z"/>
<path class="st1" d="M88.1,200.9c-0.1-2-0.3-3.9-0.5-6.6C87.3,196.5,87.1,206.6,88.1,200.9z"/>
<path class="st1" d="M87.4,135.3c-0.8,3.1-0.8,3.2,0.4,6.6C87.7,139.5,87.6,137.4,87.4,135.3z"/>
<path class="st1" d="M88.1,535.9L88.1,535.9c-0.2,1.5-0.4,3.1-0.6,5C88.4,541.2,89.4,536.3,88.1,535.9z"/>
<path class="st1" d="M87.8,175.3c0,2.4,0,4.8,0,7.7C88.3,179.7,88.3,179.7,87.8,175.3z"/>
<path class="st1" d="M83,257.3c-0.5-2.1-1.1-2.6-1.8-2.2C80.7,256.7,81.9,259,83,257.3z"/>
<path class="st1" d="M80.5,276.3c0.7-0.4,0.6-1.9,0.5-3.5C79.1,270.7,79.9,277,80.5,276.3z"/>
<path class="st1" d="M77.7,674.1c-0.8,1.1-1,2.1-0.8,3.7C77.9,679.2,77.9,675.1,77.7,674.1z"/>
<path class="st1" d="M89.3,483.8c1.4,4.7,1.6-2.1,0.6-2.9C89.7,481.8,89.5,482.7,89.3,483.8z"/>
<path class="st1" d="M89.6,662.8c0.2-2,0.4-3.7,0.6-5.4C89.7,658.6,89.3,660.2,89.6,662.8z"/>
<path class="st1" d="M87,64.3c0.3-0.8,0.7-2,1.1-3.2c-2.6,0.5-0.9,5.6-1.3,7.7C86.9,67.5,86.9,66.1,87,64.3z"/>
<path class="st1" d="M86.6,69.7c0,0.1,0.1,0.1,0.1,0.2c0.1-0.3,0-0.7,0.1-1C86.8,69.2,86.7,69.4,86.6,69.7
	C86.7,69.7,86.7,69.7,86.6,69.7z"/>
<path class="st1" d="M87.9,129c-0.2-2.6,1-4.8-0.3-5.9C87.3,125.1,87.7,126.5,87.9,129z"/>
<path class="st1" d="M87,772.4c0.7-1.9,0.6-3.9,0.3-6.1C86.8,769.2,86.8,769.3,87,772.4z"/>
<path class="st1" d="M86.4,385.8c0.1-1.5,0.3-2.9,0.4-4.5C86.4,382.8,86.4,382.8,86.4,385.8z"/>
<path class="st1" d="M87.3,515.1c0.9-1.5,0.7-3.1,0.7-5C87.8,511.6,87.6,512.9,87.3,515.1z"/>
<path class="st1" d="M80,559.4c0.2-0.7-0.2-4.4-1-2.2C79.3,558,79.1,560.2,80,559.4z"/>
<path class="st1" d="M92.2,534.6c0,1.9,0,3.9,0,5.8C92.6,538.5,92.6,536.5,92.2,534.6z"/>
<path class="st1" d="M88.3,525.1c0.1,1.1,0,2.2,0,4.1c0.4-2.6,0-5.2,0.6-6.7C88.7,523.2,88.2,523.4,88.3,525.1z"/>
<path class="st1" d="M90.9,241.6c0.1,0,0.2,0,0.3,0c0-1.6,0-3.2,0-4.8C90.7,238.3,91.1,240.1,90.9,241.6z"/>
<path class="st1" d="M90.1,501.7c0.5,2.6,1.3-3,0.9-3.8C90.5,498.7,90.2,499.8,90.1,501.7z"/>
<path class="st1" d="M73.7,393.6c0.5-0.4,0.9-2.4-0.1-2.9C73.3,391.4,73.3,393.1,73.7,393.6z"/>
<path class="st1" d="M74.6,422.5c0.6,1,1.1,0.5,1.4-1.6C75.3,419.9,74.9,421,74.6,422.5z"/>
<path class="st1" d="M89.6,446.1c0.2-0.4,0.3-1.3,0.6-2.8C89.1,444.1,88.5,447,89.6,446.1z"/>
<path class="st1" d="M83.7,134.4c0.2-1.4,0.1-1.9-0.1-3C83.3,132.4,83.4,133.2,83.7,134.4z"/>
<path class="st1" d="M88.2,123.5C88.2,123.5,88.2,123.5,88.2,123.5c0-0.1,0-0.1,0-0.2C88.2,123.3,88.2,123.4,88.2,123.5z"/>
<path class="st1" d="M88.2,123.2c0.1-1.4,0.1-2.9,0.2-4.3c-0.1,0-0.1,0-0.2,0C88.2,120.3,88.2,121.8,88.2,123.2z"/>
<path class="st1" d="M87.2,338.9c1.2-0.8,0.3-1.6,0.2-3.3C87.3,337.1,87.2,338,87.2,338.9z"/>
<path class="st1" d="M91.3,382.1c0,1.6,0.1,2.5,0.1,3.9C91.8,384.5,91.7,383.5,91.3,382.1z"/>
<path class="st1" d="M88.1,62.1c-0.1,1.7-0.1,3.4-0.2,5.8C88.4,65.7,88.1,63.8,88.1,62.1z"/>
<path class="st1" d="M88.1,61.2c0,0.3,0,0.6,0,1C88.1,61.8,88.1,61.5,88.1,61.2C88.1,61.2,88.1,61.2,88.1,61.2L88.1,61.2L88.1,61.2z
	"/>
<path class="st1" d="M89,522.4c-0.1-0.6,0.4-6-0.6-4.2c0.3,1.4,0.5,2.9,0.6,4.3C89,522.5,89,522.5,89,522.4z"/>
<path class="st1" d="M92.4,89.5c-0.2-0.7,0-1.1-0.8-0.9C91.9,89,92,90.1,92.4,89.5z"/>
<path class="st1" d="M87.4,113c0.2-1.1,0-1.4,0-3.3C87.3,111.6,86.9,111.8,87.4,113z"/>
<path class="st1" d="M88.5,136.5c-0.1-0.6,0.3-1.8-0.3-1.9C88.4,135.2,87.9,136.3,88.5,136.5z"/>
<path class="st1" d="M82.3,344.8c-0.1-0.3-0.3-0.6-0.4-0.9c-0.2,0.6-0.2,1.1,0.1,1.6C82.1,345.3,82.2,345.1,82.3,344.8z"/>
<path class="st1" d="M92.3,46.8c0.1,0.3,0.2,0.6,0.3,0.9c0.2-0.7,0.2-1.3,0.3-2C92.5,45.9,92.5,46.4,92.3,46.8z"/>
<path class="st1" d="M92.9,45.4c0,0.1,0,0.2,0,0.3C93,45.6,92.9,45.5,92.9,45.4z"/>
<path class="st1" d="M87.5,557.9c0-0.7,0.4-1.4,0.1-2.1C87.5,556.5,87,557.3,87.5,557.9z"/>
<path class="st1" d="M83.8,256.7c-0.4,0.5-0.3,1.5-0.3,2.4C83.5,258.4,84.2,257.3,83.8,256.7z"/>
<path class="st1" d="M83.5,259.3c0-0.1,0-0.1,0-0.2C83.5,259.2,83.4,259.3,83.5,259.3C83.4,259.4,83.5,259.4,83.5,259.3
	C83.5,259.4,83.5,259.3,83.5,259.3z"/>
<path class="st1" d="M87.9,705.3c-0.1-1.7-0.6-0.8-0.5,0.6C87.6,706.2,87.8,706.3,87.9,705.3z"/>
<path class="st1" d="M88.1,187.7c-0.1,0-0.1,0-0.2,0c0,0.8,0,1.5,0,2.3c0.1,0,0.1,0,0.2,0C88.1,189.3,88.1,188.5,88.1,187.7z"/>
<path class="st1" d="M91.4,224.2c-0.1-0.7-0.2-1.4-0.4-2.2C90.8,223.7,90.9,224.3,91.4,224.2z"/>
<path class="st1" d="M73.9,297c-0.1-0.2-0.2-0.4-0.4-0.6c-0.1,0.8-0.2,1.2,0.3,1.7C73.8,297.8,73.8,297.4,73.9,297z"/>
<path class="st1" d="M91.6,88.7C91.6,88.7,91.6,88.7,91.6,88.7c-0.1,0.6,0,1.2,0,1.8C91.6,89.8,91.6,89.3,91.6,88.7
	C91.6,88.7,91.6,88.7,91.6,88.7C91.6,88.7,91.6,88.7,91.6,88.7L91.6,88.7z"/>
<path class="st1" d="M87.2,202.8c-0.1,0.7-0.1,1.5-0.2,2.7C87.5,204.4,87.4,203.6,87.2,202.8z"/>
<path class="st1" d="M91.4,224.5c-0.1,0.8,0,1.8-0.1,2.6C91.5,226.5,91.7,225.8,91.4,224.5z"/>
<path class="st1" d="M91,228.1c0,0.7,0.1,1.4,0.2,2.2c0.2-1.1-0.4-2.1,0.2-3.2C91.2,227.4,91,227.8,91,228.1z"/>
<path class="st1" d="M87.1,29.7c0.3-0.7,0.1-1.4,0-2.2C86.9,28.3,86.9,29,87.1,29.7z"/>
<path class="st1" d="M80.9,561.9C80.9,561.9,80.9,562,80.9,561.9C80.9,562,80.9,562,80.9,561.9l0,0.1c0,0,0,0,0,0
	c0-0.1,0.1-0.2,0.1-0.3C80.9,561.8,80.9,561.8,80.9,561.9z"/>
<path class="st1" d="M81.4,563.2c-0.1-0.8,0.2-1.4-0.5-1.2C81,562.6,80.9,563.1,81.4,563.2z"/>
<path class="st1" d="M87.2,145.5c-0.1-0.3-0.1-0.6-0.2-0.8c-0.2,0.5,0,0.8,0.1,1.3C87.1,145.8,87.1,145.7,87.2,145.5z"/>
<path class="st1" d="M87.3,105.9c0,0.3-0.2,0.6,0.1,0.8C87.4,106.4,87.5,106,87.3,105.9z"/>
<path class="st1" d="M77.6,557.6c0,0,0,0.2,0,0.2c0-0.1,0-0.2,0-0.3C77.7,557.5,77.6,557.6,77.6,557.6z"/>
<path class="st1" d="M96.8,11.1l0.3,0.2c0.2-0.5,1.6-0.3,1.3-1.1C97.8,10.6,97.3,10.9,96.8,11.1z"/>
<path class="st1" d="M99.2,8.8C99.2,8.8,99.2,8.8,99.2,8.8c-0.1,0-0.2,0-0.4-0.1c0,0,0,0,0,0c0,0,0,0,0,0C99,8.9,99.1,8.9,99.2,8.8
	C99.3,8.8,99.2,8.8,99.2,8.8z"/>
<path class="st1" d="M93.9,9c0-0.1-0.2-0.1-0.3-0.1c-0.2,0.3-0.3,0.2,0.2,0.4C93.8,9.1,93.9,9,93.9,9z"/>
<path class="st1" d="M97.3,9.6c0,0,0-0.1-0.1-0.1c-0.2,0-0.4,0.1-0.7,0.1C96.8,9.8,97.1,9.6,97.3,9.6z"/>
<g>
	<polygon class="st1" points="99.3,0 93.7,0 93.7,792 99.3,792 99.3,0 	"/>
</g>
<g>
	<path class="st1" d="M50.3,53.1l0.6,0.2c3.5,1.5,6.1,4.2,7.8,8.2c0.8,2.2,1.2,4.2,1.1,6c-0.1,2-0.4,3.7-1.1,5.2l-0.4,0.9
		c-1.3,3-3.7,5.5-7,7.3c-2.1,1-3.8,1.6-5.4,1.9c-2.3,0.5-6.1,1-11.3,1.5c-2,0.3-3.8,0.7-5.5,1.4c-1.8,0.7-3.1,1.4-4,2
		C23,89,21,90.8,19.1,93.1c-0.2,0.2-0.3,0.3-0.3,0.5l-0.1,0c0.6-3.6,0.4-6.9-0.5-9.9c-1-2.7-1.9-4.7-2.7-5.9
		c-1.1-1.8-2.4-3.5-3.9-5.3c-0.9-1-1.8-2-2.8-3c-0.8-0.9-1.6-2.2-2.3-4c-0.9-2.7-0.8-5.4,0.3-7.9c1.3-3,3.6-5.1,6.9-6.2
		c2.8-0.7,5.5-0.5,8.1,0.6c3.2,1.4,5.8,3.9,8.1,7.6l0,0l0,0c1.7-2.4,3.7-4.2,5.9-5.3c1.7-1,3.4-1.6,5.2-1.9
		C44.5,51.7,47.7,52,50.3,53.1z"/>
</g>
</svg>
