<?xml version="1.0" encoding="utf-8"?>
<!-- Generator: Adobe Illustrator 27.7.0, SVG Export Plug-In . SVG Version: 6.00 Build 0)  -->
<svg version="1.1" id="Layer_1" xmlns="http://www.w3.org/2000/svg" xmlns:xlink="http://www.w3.org/1999/xlink" x="0px" y="0px"
	 viewBox="0 0 274.1 78.7" style="enable-background:new 0 0 274.1 78.7;" xml:space="preserve">
<style type="text/css">
	.st0{fill:#FFFFFF;}
</style>
<g>
	<g id="Logo_00000114056017743470466450000006585561471454115202_">
		<g>
			<path class="st0" d="M12.8,76.8c-3.1,0-5.7-0.9-7.6-2.8C3.1,72,2,69.5,2,66.6c0-2.9,1.1-5.3,3.2-7.4c1.9-1.9,4.5-2.8,7.7-2.8
				s5.7,0.9,7.6,2.8c2.1,2,3.1,4.5,3.1,7.4c0,2.9-1.1,5.4-3.2,7.4C18.5,75.9,15.9,76.8,12.8,76.8z M12.8,74.5c1.8,0,3.2-0.8,4.5-2.3
				c1.2-1.5,1.8-3.4,1.8-5.6s-0.6-4.1-1.8-5.6c-1.2-1.5-2.7-2.3-4.5-2.3S9.6,59.5,8.3,61c-1.2,1.5-1.8,3.4-1.8,5.6s0.6,4.1,1.8,5.6
				C9.5,73.8,11,74.5,12.8,74.5z"/>
			<path class="st0" d="M26,76.6c0.3-1.3,0.5-2.6,0.5-3.9V60.8c0-1.3-0.1-2.6-0.4-3.9h5c-0.3,1.3-0.4,2.6-0.4,3.9v11.1
				c0,0.9,0,1.7,0.1,2.5h3.5c1.4,0,2.7-0.1,3.9-0.4v2.7L26,76.6L26,76.6z"/>
			<path class="st0" d="M39.5,76.6c0.3-1.3,0.4-2.6,0.4-3.9V60.8c0-1.3-0.1-2.6-0.4-3.9h7.7c3.5,0,6.2,0.9,8.2,2.8
				c2.1,2,3.1,4.4,3.1,7.1s-1.1,5.1-3.2,7.1c-1.9,1.8-4.6,2.8-8.1,2.8L39.5,76.6L39.5,76.6z M44.1,74.3h3.1c2.1,0,3.7-0.8,5-2.3
				c1.2-1.5,1.8-3.3,1.8-5.4s-0.6-3.8-1.8-5.3s-2.9-2.3-5-2.3h-3.1C44,59.6,44,60.1,44,60.6v12C44,73.2,44,73.8,44.1,74.3z"/>
			<path class="st0" d="M72,76.8c-1.9,0-3.8-0.5-5.6-1.6v-4.8h0.1c0.4,0.8,0.9,1.6,1.5,2.2c1.2,1.3,2.6,1.9,4.1,1.9
				c1,0,1.8-0.4,2.5-1.1s1-1.5,1-2.5c0-1.1-0.7-2.1-2.2-3.1l-2.3-1.5c-2.2-1.4-3.3-3.1-3.3-4.9s0.7-3.1,2.2-3.9c1.1-0.6,2.3-1,3.8-1
				s2.9,0.3,4.3,0.9v3.9h-0.3c-1-1.7-2.3-2.6-3.8-2.6c-0.5,0-1,0.1-1.3,0.4c-0.6,0.4-0.8,0.9-0.8,1.6c0,0.9,0.7,1.7,2,2.6l2.1,1.4
				c2.7,1.7,4,3.7,4,5.8c0,1.8-0.7,3.2-2,4.4C76.5,76.2,74.5,76.8,72,76.8z"/>
			<path class="st0" d="M92.6,76.8c-3.4,0-6.2-0.9-8.3-2.8c-2-1.9-3-4.3-3-7.4c0-3.1,1-5.5,3.1-7.4c2-1.8,4.8-2.8,8.3-2.8
				c2.8,0,5.2,0.6,7.2,1.9v4.8h-0.1c-2-2.9-4.4-4.4-7.1-4.4c-2,0-3.6,0.8-5,2.4c-1.2,1.4-1.8,3.2-1.8,5.5s0.6,4.1,1.8,5.5
				c1.4,1.6,3,2.4,4.9,2.4c3,0,5.5-1.5,7.5-4.4h0.1v4C98,75.9,95.5,76.8,92.6,76.8z"/>
			<path class="st0" d="M102.7,76.6c0.3-1.3,0.4-2.6,0.4-3.9V60.8c0-1.3-0.1-2.6-0.4-3.9h4.9c-0.3,1.3-0.4,2.6-0.4,3.9v4.8h8.5v-4.8
				c0-1.3-0.1-2.6-0.4-3.9h4.9c-0.3,1.3-0.4,2.6-0.4,3.9v11.9c0,1.3,0.1,2.6,0.4,3.9h-4.9c0.3-1.3,0.4-2.6,0.4-3.9v-4.9h-8.5v4.9
				c0,1.3,0.1,2.6,0.4,3.9H102.7z"/>
			<path class="st0" d="M133.5,76.8c-3.1,0-5.7-0.9-7.6-2.8c-2.1-2-3.2-4.5-3.2-7.4c0-2.9,1.1-5.3,3.2-7.4c1.9-1.9,4.5-2.8,7.7-2.8
				s5.7,0.9,7.6,2.8c2.1,2,3.1,4.5,3.1,7.4c0,2.9-1.1,5.4-3.2,7.4C139.2,75.9,136.6,76.8,133.5,76.8z M133.5,74.5
				c1.8,0,3.2-0.8,4.5-2.3c1.2-1.5,1.8-3.4,1.8-5.6s-0.6-4.1-1.8-5.6s-2.7-2.3-4.5-2.3s-3.2,0.8-4.5,2.3c-1.2,1.5-1.8,3.4-1.8,5.6
				s0.6,4.1,1.8,5.6C130.2,73.8,131.7,74.5,133.5,74.5z"/>
			<path class="st0" d="M156.7,76.8c-3.1,0-5.7-0.9-7.6-2.8c-2.1-2-3.2-4.5-3.2-7.4c0-2.9,1.1-5.3,3.2-7.4c1.9-1.9,4.5-2.8,7.7-2.8
				s5.7,0.9,7.6,2.8c2.1,2,3.1,4.5,3.1,7.4c0,2.9-1.1,5.4-3.2,7.4C162.4,75.9,159.8,76.8,156.7,76.8z M156.7,74.5
				c1.8,0,3.2-0.8,4.5-2.3c1.2-1.5,1.8-3.4,1.8-5.6s-0.6-4.1-1.8-5.6s-2.7-2.3-4.5-2.3s-3.2,0.8-4.5,2.3c-1.2,1.5-1.8,3.4-1.8,5.6
				s0.6,4.1,1.8,5.6C153.4,73.8,154.9,74.5,156.7,74.5z"/>
			<path class="st0" d="M169.9,76.6c0.3-1.3,0.5-2.6,0.5-3.9V60.8c0-1.3-0.1-2.6-0.4-3.9h5c-0.3,1.3-0.4,2.6-0.4,3.9v11.1
				c0,0.9,0,1.7,0.1,2.5h3.5c1.4,0,2.7-0.1,3.9-0.4v2.7L169.9,76.6L169.9,76.6z"/>
			<path class="st0" d="M189.3,76.6c0.3-1.3,0.4-2.6,0.4-3.9V60.8c0-1.3-0.1-2.6-0.4-3.9h7.7c3.5,0,6.2,0.9,8.2,2.8
				c2.1,2,3.1,4.4,3.1,7.1s-1.1,5.1-3.2,7.1c-1.9,1.8-4.6,2.8-8.1,2.8L189.3,76.6L189.3,76.6z M193.9,74.3h3.1c2.1,0,3.7-0.8,5-2.3
				c1.2-1.5,1.8-3.3,1.8-5.4s-0.6-3.8-1.8-5.3s-2.9-2.3-5-2.3h-3.1c-0.1,0.6-0.1,1.1-0.1,1.6v12C193.8,73.2,193.8,73.8,193.9,74.3z"
				/>
			<path class="st0" d="M207.9,76.6c0.8-1.1,1.5-2.2,2-3.4l5.8-12.7c0.5-1.1,0.9-2.4,1.3-3.7h4.1c0.4,1.4,0.8,2.6,1.3,3.8l5.8,12.7
				c0.5,1.1,1.2,2.2,2,3.4h-5.2c-0.3-1.3-0.8-2.6-1.3-3.7l-1.7-3.8h-6.9l-1.7,3.8c-0.6,1.2-1,2.5-1.3,3.7h-4.2V76.6z M218.6,61.5
				l-2.5,5.4h5L218.6,61.5z"/>
			<path class="st0" d="M233.9,76.6c0.3-1.3,0.4-2.6,0.4-3.9V60.8c0-0.6,0-1.1-0.1-1.7h-1.6c-1.3,0-2.6,0.1-3.9,0.4v-2.7h15.5v2.7
				c-1.3-0.3-2.6-0.4-3.9-0.4h-1.6c-0.1,0.5-0.1,1.1-0.1,1.7v11.9c0,1.3,0.1,2.6,0.4,3.9H233.9z"/>
			<path class="st0" d="M245.2,76.6c0.3-1.3,0.4-2.6,0.4-3.9V60.8c0-1.3-0.1-2.6-0.4-4h10.5v2.7c-1.3-0.3-2.6-0.4-3.9-0.4h-2
				c-0.1,0.5-0.1,1.1-0.1,1.7v4.8h2.1c1.3,0,2.6-0.1,3.9-0.4v3.1c-1.3-0.3-2.6-0.4-3.9-0.4h-2.1v4.9c0,0.6,0,1.1,0.1,1.7h3.5
				c1.4,0,2.7-0.1,3.9-0.4v2.7h-12V76.6z"/>
			<path class="st0" d="M263.8,76.8c-1.9,0-3.8-0.5-5.6-1.6v-4.8h0.1c0.4,0.8,0.9,1.6,1.5,2.2c1.2,1.3,2.6,1.9,4.1,1.9
				c1,0,1.8-0.4,2.5-1.1s1-1.5,1-2.5c0-1.1-0.7-2.1-2.2-3.1l-2.3-1.5c-2.2-1.4-3.3-3.1-3.3-4.9s0.7-3.1,2.2-3.9c1.1-0.6,2.3-1,3.8-1
				c1.4,0,2.9,0.3,4.3,0.9v3.9h-0.1c-1-1.7-2.3-2.6-3.8-2.6c-0.5,0-1,0.1-1.3,0.4c-0.6,0.4-0.8,0.9-0.8,1.6c0,0.9,0.7,1.7,2,2.6
				l2.1,1.4c2.7,1.7,4,3.7,4,5.8c0,1.8-0.7,3.2-2,4.4C268.3,76.2,266.3,76.8,263.8,76.8z"/>
		</g>
		<path class="st0" d="M123.7,41.4c0.1,0.1,0.1,0.2,0.2,0.3C123.8,41.5,123.7,41.4,123.7,41.4L123.7,41.4z M159.5,5.2
			c-3.2-2.7-6.8-4.1-11-3.4c-3,0.5-5.6,1.7-7.9,3.7c-1.2,1-2.3,2.1-3.5,3.2c-0.1-0.1-0.3-0.3-0.4-0.4c-1.5-1.7-3.2-3.1-5-4.3
			c-2.8-1.7-5.9-2.7-9.3-2.3c-6.8,0.8-12.5,6.9-13.1,13.7c-0.4,4.4,0.6,8.6,2.7,12.5c0.8,1.5,1.8,3,2.9,4.4
			c3.8-3.2,7.6-6.3,11.4-9.4l2.7-2.3c1-0.8,1.9-1.5,2.8-2.3c3-2.4,6.1-5,9-7.5c1.4-1.2,3-1.3,5-0.5c2.3,1,4,2.8,5.5,4.4
			c2.2,2.6,3.7,5.2,4.8,7.9c0.3,0.8,0.5,1.6,0.7,2.4c0.5,2.6-0.4,4.5-2.6,5.8c-4.8,2.8-9.5,5.7-14.2,8.5c-1.7,1-3.4,2.1-5.1,3.1
			c-1.8,1.1-3.6,2.2-5.4,3.3c2.4,1.7,4.8,3.2,7.3,4.7c0.2,0.1,0.5,0.1,0.7-0.1c3.2-2.1,6.3-4.1,9.4-6.3c4.5-3.3,8.6-7.1,12.1-11.4
			c3.1-3.9,5.3-8.1,5.9-13.1C165.5,13.9,163.9,9,159.5,5.2z M123.5,41.3c-1-0.8-1.9-1.7-2.8-2.5c0.1-0.1,0.1-0.1,0.1-0.1
			c0.6-0.4,0.9,0,1.2,0.5C122.4,39.8,122.9,40.6,123.5,41.3z M153.2,29.4c-6.4,3.8-12.9,7.7-19.3,11.7c-2,1.2-4.1,2.4-6.1,3.7
			c-0.4-0.3-0.7-0.5-1.1-0.8c0.3-0.2,0.6-0.4,0.8-0.5c-1.4-1.7-2.8-3.5-4.1-5.2c-0.2-0.3-0.5-0.6-0.3-1c0.1-0.3,0.5-0.7,0.8-0.8
			c0.2-0.1,0.6,0.2,0.8,0.5c1.1,1.8,2.4,3.4,3.9,4.8c0.6,0.6,1,0.6,1.6,0.1c0.1-0.1,0.3-0.2,0.4-0.3c-1.4-1.7-2.8-3.4-4.1-5.1
			c-0.2-0.3-0.3-0.5-0.5-0.8c-0.3-0.5,0-1,0.5-1.2c0.5-0.3,0.8-0.1,1,0.4c1.3,2.2,2.8,4.1,4.9,5.7c0.5-0.3,0.9-0.5,1.4-0.8
			c-1-1-2-2-2.9-3c-0.8-0.9-1.4-1.9-2-2.9c-0.4-0.6-0.2-1,0.3-1.4c0.6-0.4,0.8,0.1,1.2,0.5c1.2,2,2.6,3.7,4.3,5.3
			c0.6,0.5,1,0.6,1.5,0.1c0.1-0.1,0.4-0.3,0.6-0.3c-1-1.1-2.1-2.1-3-3.2c-0.8-1-1.4-2.1-2.1-3.1c-0.4-0.6-0.2-1.1,0.3-1.4
			s0.9,0,1.2,0.5c1.2,2.1,2.7,4,4.5,5.7c0.5,0.5,0.9,0.6,1.5,0.1c0.3-0.2,0.6-0.4,1-0.6c-2.5-2.1-4.5-4.5-5.9-7.4
			c2.1-1.6,4.3-3.3,6.4-5c0.9,1.4,1.7,2.8,2.6,4c1.1,1.4,2.3,2.5,3.5,3.7c0.1,0.1,0.5,0.2,0.6,0.1c1.4-0.8,2.8-1.7,4.1-2.5
			c-4.3-2.6-7.3-6.2-8.8-11c-8,6.1-16,12.3-24,18.6c-0.3-0.3-0.6-0.6-0.8-0.9c0.1-0.1,0.3-0.3,0.5-0.4C126.1,29.1,134,23,142,16.8
			c0.3-0.2,0.5-0.4,0.7-0.6c1.4-1.2,2.1-1.2,3.6-0.3c2.4,1.7,4.1,3.9,5.1,6.7c0.1,0.1,0.1,0.3,0.1,0.5c0.1,0.6,0.2,1.4-0.5,1.5
			c-0.5,0.2-1.2,0.1-1.6-0.1c-2.3-1.5-3.8-3.7-4.5-6.4c-0.1-0.5,0-1,0.1-1.5c-0.7-0.3-1.1-0.1-1,0.7c0.2,1,0.5,2.1,1,3
			c1.5,2.6,3.4,4.9,5.9,6.6c0.5,0.3,1,0.6,1.5,0.7c0.8,0.3,1.4-0.1,1.4-0.9c0-0.6,0-1.3-0.2-1.9c-1.5-4.7-4.2-8.6-8.2-11.5
			c-0.3-0.2-0.6-0.4-1-0.5c-0.6-0.3-1.2-0.2-1.9,0.3c-6.8,5.6-13.6,11.2-20.4,16.8c-1.8,1.5-3.7,3-5.5,4.5c-0.3-0.3-0.5-0.6-0.8-1
			c4.7-3.9,9.5-7.8,14.2-11.7c4-3.3,7.9-6.6,11.9-9.9c1-0.8,2.1-0.6,3.1-0.2c2,0.9,3.5,2.4,4.8,4c1.9,2.2,3.5,4.6,4.4,7.3
			c0.3,0.7,0.5,1.4,0.6,2.2C155.2,27.1,154.8,28.4,153.2,29.4z M146,17.8c0.6,2.5,2.1,4.5,4.2,5.9C149.6,21.2,148.2,19.2,146,17.8z"
			/>
	</g>
</g>
</svg>
